<?xml version="1.0" encoding="iso-8859-1"?>
<!-- Generator: Adobe Illustrator 18.1.0, SVG Export Plug-In . SVG Version: 6.00 Build 0)  -->
<!DOCTYPE svg PUBLIC "-//W3C//DTD SVG 1.1//EN" "http://www.w3.org/Graphics/SVG/1.1/DTD/svg11.dtd">
<svg version="1.1" xmlns="http://www.w3.org/2000/svg" xmlns:xlink="http://www.w3.org/1999/xlink" x="0px" y="0px" width="1000px"
	 height="1000px" viewBox="0 0 1000 1000" style="enable-background:new 0 0 1000 1000;" xml:space="preserve">
<style type="text/css">
	.st0{display:none;}
	.st1{display:inline;}
	.st2{fill:#FFFFFF;}
	.st3{fill:#FFFFFF;stroke:#000000;stroke-width:1.45;stroke-linejoin:bevel;}
	.st4{display:inline;fill:none;stroke:#C1272D;stroke-miterlimit:10;}
	.st5{display:inline;fill:#ED1C24;}
	.st6{display:inline;fill:#FFFFFF;}
	.st7{display:inline;fill:none;stroke:#ED1C24;stroke-miterlimit:10;}
	.st8{fill:#ED1C24;}
	.st9{fill-rule:evenodd;clip-rule:evenodd;}
	.st10{fill:#231F20;}
</style>
<g id="Layer_2" class="st0">
</g>
<g id="Layer_1">
	<path d="M474.1,401.5c3,1.4,6,2.6,9.2,3.5v240.7c-9.6,2.7-18.2,7.8-25.2,14.5l-106.6-62.1c1.2-4.8,1.9-9.8,1.9-14.9
		c0-12.1-3.6-23.3-9.7-32.8L474.1,401.5z M525.6,401.5c-3,1.4-6,2.6-9.2,3.5v240.7c9.6,2.7,18.3,7.8,25.3,14.5l106.5-62.1
		c-1.2-4.8-1.9-9.8-1.9-14.9c0-12.1,3.6-23.3,9.7-32.8L525.6,401.5z M924.9,618.8l-425,247.8v0h0v0l-425-247.8l425-485.5
		L924.9,618.8z M767,583.2c0-33.4-27-60.4-60.4-60.4c-9.2,0-17.9,2.1-25.8,5.8L550.5,379.7c6.1-9.4,9.7-20.7,9.7-32.8
		c0-33.4-27-60.4-60.4-60.4s-60.4,27-60.4,60.4c0,12.1,3.6,23.3,9.7,32.8L318.8,528.6c-7.8-3.7-16.5-5.8-25.8-5.8
		c-33.4,0-60.4,27-60.4,60.4c0,33.4,27,60.4,60.4,60.4c16.2,0,30.9-6.4,41.8-16.9l106.6,62.1c-1.2,4.8-1.9,9.8-1.9,14.9
		c0,33.4,27,60.4,60.4,60.4s60.4-27,60.4-60.4c0-5.2-0.7-10.2-1.9-15l106.5-62.1c10.9,10.4,25.6,16.9,41.8,16.9
		C740,643.6,767,616.6,767,583.2z"/>
</g>
</svg>
