<?xml version="1.0" encoding="iso-8859-1"?>
<!-- Generator: Adobe Illustrator 18.1.0, SVG Export Plug-In . SVG Version: 6.00 Build 0)  -->
<!DOCTYPE svg PUBLIC "-//W3C//DTD SVG 1.1//EN" "http://www.w3.org/Graphics/SVG/1.1/DTD/svg11.dtd">
<svg version="1.1" id="Layer_1" xmlns="http://www.w3.org/2000/svg" xmlns:xlink="http://www.w3.org/1999/xlink" x="0px" y="0px"
	 width="1057px" height="1000px" viewBox="0 0 1057 1000" style="enable-background:new 0 0 1057 1000;" xml:space="preserve">
<style type="text/css">
	.st0{fill-rule:evenodd;clip-rule:evenodd;}
	.st1{fill:none;}
</style>
<path d="M982,614.2V734c0,40.1-125.2,72.2-280.3,72.2c-23.1,0-45.4-0.4-66.9-1.7V679.7c21.5,1.1,43.8,1.8,66.9,1.8
	C856.8,681.5,982,655,982,614.2z M701.2,524.8c-23.1,0-45.4-0.7-66.9-1.8l0.6,125.7c21.5,1.4,43.8,1.7,66.9,1.7
	c155.1,0,280.3-32.1,280.3-72.2V457.5C982,498.3,856.3,524.8,701.2,524.8z M701.2,369c-23.1,0-45.4-0.7-66.9-1.8V493
	c21.5,1.3,43.8,1.6,66.9,1.6c155.1,0,280.9-31.9,280.9-72V301.7C982,342.5,856.3,369,701.2,369z M701.2,194.4
	c-23.1,0-45.4,0.8-66.9,2.2v140.9c21.5,1.4,43.8,1.3,66.9,1.3c155.1,0,280.9-31.6,280.9-71.7C982,227,856.3,194.4,701.2,194.4z
	 M320,391.1c-0.2,2.5-32.7,139.9-32.7,139.9l67.3,0.9c0,0-32.9-138-33.1-140.8L320,391.1z M75,166.1v670.6L586.5,925V75L75,166.1z
	 M388,665.8L368.5,590l-93.5-3.2l-17.8,70.9l-59.8-3.7l90.2-319.8l70.3-4.3l99.6,340L388,665.8z"/>
</svg>
