<?xml version="1.0" encoding="iso-8859-1"?>
<!-- Generator: Adobe Illustrator 18.1.0, SVG Export Plug-In . SVG Version: 6.00 Build 0)  -->
<!DOCTYPE svg PUBLIC "-//W3C//DTD SVG 1.1//EN" "http://www.w3.org/Graphics/SVG/1.1/DTD/svg11.dtd">
<svg version="1.1" id="Layer_1" xmlns="http://www.w3.org/2000/svg" xmlns:xlink="http://www.w3.org/1999/xlink" x="0px" y="0px"
	 width="1050px" height="1000px" viewBox="0 0 1050 1000" style="enable-background:new 0 0 1050 1000;" xml:space="preserve">
<style type="text/css">
	.st0{fill-rule:evenodd;clip-rule:evenodd;}
	.st1{fill:none;}
</style>
<path d="M967.3,537.4L939.7,642l-91.8-12.1c-9.7,15.4-20.7,29.5-33.2,42l32,83.4l-93.5,54.6L697.4,737c-17.5,4.1-35.4,6.3-53.5,6.5
	V652c53.7,0,105.6-28.7,133-79.1c39.9-73.4,12.8-165.2-60.6-205.1c-23-12.5-47.9-18.4-72.4-18.4v-94.1c0.7,0,1.4,0,2.1,0l34.6-78.1
	l104.7,27.6l-11.7,89.3c16.1,10.3,30.8,22,43.4,35.1l81.5-31.3l54.5,93.5l-72.8,55.8c3.9,17.7,5.9,35.7,5.7,53.9L967.3,537.4z
	 M354.3,577.9c15.5-21.5,23.4-51.3,23.4-89.2c0-35.8-7.8-63.7-23.2-83.4c-15.2-19.5-36.2-28.4-62.7-26.9l-28.6,1.7v226.5l29,1.3
	C318.1,609,339,599,354.3,577.9z M692.7,526.7c14.6-26.9,4.6-60.6-22.2-75.2c-8.5-4.6-17.6-6.8-26.6-6.7v110.9
	C663.6,555.7,682.7,545.2,692.7,526.7z M68,166l512.2-91.1v850L68,836.6V166z M206.8,667.8l90,6.5c43.5,3.2,79.5-11.7,107.3-45.2
	C432.5,594.8,447,547.2,447,487c0-125.7-52.2-184-150.2-175.4l-90,7.8V667.8z"/>
</svg>
