<?xml version="1.0" encoding="iso-8859-1"?>
<!-- Generator: Adobe Illustrator 18.1.0, SVG Export Plug-In . SVG Version: 6.00 Build 0)  -->
<!DOCTYPE svg PUBLIC "-//W3C//DTD SVG 1.1//EN" "http://www.w3.org/Graphics/SVG/1.1/DTD/svg11.dtd">
<svg version="1.1" id="Layer_1" xmlns="http://www.w3.org/2000/svg" xmlns:xlink="http://www.w3.org/1999/xlink" x="0px" y="0px"
	 width="1050px" height="1000px" viewBox="0 0 1050 1000" style="enable-background:new 0 0 1050 1000;" xml:space="preserve">
<style type="text/css">
	.st0{fill-rule:evenodd;clip-rule:evenodd;}
	.st1{fill:none;}
</style>
<path d="M967.3,537.4L939.7,642l-91.8-12.1c-9.7,15.4-20.7,29.5-33.2,42l32,83.4l-93.5,54.6L697.4,737c-17.5,4.1-35.4,6.3-53.5,6.5
	V652c53.7,0,105.6-28.7,133-79.1c39.9-73.4,12.8-165.2-60.6-205.1c-23-12.5-47.9-18.4-72.4-18.4v-94.1c0.7,0,1.4,0,2.1,0l34.6-78.1
	l104.7,27.6l-11.7,89.3c16.1,10.3,30.8,22,43.4,35.1l81.5-31.3l54.5,93.5l-72.8,55.8c3.9,17.7,5.9,35.7,5.7,53.9L967.3,537.4z
	 M692.7,526.7c14.6-26.9,4.6-60.6-22.2-75.2c-8.5-4.6-17.6-6.8-26.6-6.7v110.9C663.6,555.7,682.7,545.2,692.7,526.7z M68,166
	l512.2-91.1v850L68,836.6V166z M238.3,677.6l167.5,13.6v-69.8L298.2,616v-83.2l93.4,1v-69.4l-93.4,1.9v-81l100.7-5.9v-69.9
	l-160.6,14.4V677.6z"/>
</svg>
