<?xml version="1.0" encoding="iso-8859-1"?>
<!-- Generator: Adobe Illustrator 18.1.0, SVG Export Plug-In . SVG Version: 6.00 Build 0)  -->
<!DOCTYPE svg PUBLIC "-//W3C//DTD SVG 1.1//EN" "http://www.w3.org/Graphics/SVG/1.1/DTD/svg11.dtd">
<svg version="1.1" id="Layer_1" xmlns="http://www.w3.org/2000/svg" xmlns:xlink="http://www.w3.org/1999/xlink" x="0px" y="0px"
	 width="1050px" height="1000px" viewBox="0 0 1050 1000" style="enable-background:new 0 0 1050 1000;" xml:space="preserve">
<style type="text/css">
	.st0{fill-rule:evenodd;clip-rule:evenodd;}
	.st1{fill:none;}
</style>
<path d="M643,555.6V444.7c9,0,18.1,2.1,26.6,6.7c26.9,14.6,36.8,48.3,22.2,75.2C681.8,545.2,662.7,555.7,643,555.6z M966.4,537.3
	L938.8,642L847,629.9c-9.7,15.4-20.7,29.5-33.2,42l32,83.4l-93.5,54.6L696.5,737c-17.5,4.1-35.4,6.3-53.5,6.5v-91.6
	c53.7,0,105.6-28.7,133-79.1c39.9-73.4,12.8-165.2-60.6-205.1c-23-12.5-47.9-18.4-72.4-18.4v-94.1c0.7,0,1.4,0,2.1,0l34.6-78.1
	l104.7,27.6l-11.7,89.3c16.1,10.3,30.8,22,43.4,35.1l81.5-31.3l54.5,93.5l-72.8,55.8c3.9,17.7,5.9,35.7,5.7,53.9L966.4,537.3z
	 M600.6,75v850L89,836.7V166.1L600.6,75z M414.5,516.5c-16-22-52.9-44.2-69.9-54.9c-17-10.7-26.8-25-26.8-42.6
	c0-17.6,10.5-36.5,45.5-36.5s57.6,22.2,57.6,22.2v-74.7c0,0-65.3-23.4-111.6,1.7c-50.4,27.3-53.6,75.3-53.6,95.5
	c0,20.2,5.7,46.3,20.7,64.7c15,18.4,45.2,38.3,73.8,59.2c22.5,16.4,24.2,68-21.2,68c-45.4,0-72.3-38.8-72.3-38.8v76.7
	c61.1,39.4,136.1,28.6,162.7-18.5C445.8,591.5,430.5,538.5,414.5,516.5z"/>
</svg>
