<?xml version="1.0" encoding="iso-8859-1"?>
<!-- Generator: Adobe Illustrator 18.1.0, SVG Export Plug-In . SVG Version: 6.00 Build 0)  -->
<!DOCTYPE svg PUBLIC "-//W3C//DTD SVG 1.1//EN" "http://www.w3.org/Graphics/SVG/1.1/DTD/svg11.dtd">
<svg version="1.1" id="Layer_1" xmlns="http://www.w3.org/2000/svg" xmlns:xlink="http://www.w3.org/1999/xlink" x="0px" y="0px"
	 width="1050px" height="1000px" viewBox="0 0 1050 1000" style="enable-background:new 0 0 1050 1000;" xml:space="preserve">
<style type="text/css">
	.st0{fill-rule:evenodd;clip-rule:evenodd;}
	.st1{fill:none;}
</style>
<path d="M643.9,555.6V444.7c9,0,18.1,2.1,26.6,6.7c26.9,14.6,36.8,48.3,22.2,75.2C682.7,545.2,663.6,555.7,643.9,555.6z M68,166
	l512.2-91.1v850L68,836.6V166z M182.2,338.2L274,563.7v126.5l70.4,6V564l110.5-248.9l-82,6.9l-53,142.7c-2.6,7.1-4.9,16.7-6.8,29
	l-0.9,0c-3.9-17.3-6.3-27.2-7.2-29.7l-49-132.1L182.2,338.2z M886,501.2c0.2-18.1-1.8-36.2-5.7-53.9l72.8-55.8l-54.5-93.5
	l-81.5,31.3c-12.7-13.1-27.4-24.8-43.4-35.1l11.7-89.3l-104.7-27.6L646,255.3c-0.7,0-1.4,0-2.1,0v94.1c24.5,0,49.4,5.9,72.4,18.4
	c73.4,40,100.5,131.7,60.6,205.1c-27.4,50.4-79.3,79-133,79.1v91.6c18.1-0.2,36-2.4,53.5-6.5l55.8,72.8l93.5-54.6l-32-83.4
	c12.5-12.5,23.5-26.5,33.2-42l91.8,12.1l27.6-104.6L886,501.2z"/>
</svg>
