<?xml version="1.0" encoding="iso-8859-1"?>
<!-- Generator: Adobe Illustrator 18.1.0, SVG Export Plug-In . SVG Version: 6.00 Build 0)  -->
<!DOCTYPE svg PUBLIC "-//W3C//DTD SVG 1.1//EN" "http://www.w3.org/Graphics/SVG/1.1/DTD/svg11.dtd">
<svg version="1.1" id="Layer_1" xmlns="http://www.w3.org/2000/svg" xmlns:xlink="http://www.w3.org/1999/xlink" x="0px" y="0px"
	 width="1050px" height="1000px" viewBox="0 0 1050 1000" style="enable-background:new 0 0 1050 1000;" xml:space="preserve">
<style type="text/css">
	.st0{fill-rule:evenodd;clip-rule:evenodd;}
	.st1{fill:none;}
</style>
<path d="M68.3,836.6l512.2,88.3v-850L68.3,166V836.6z M238.3,381.5c26.6-34.1,62.2-53.3,107.7-57.2c29.1-2.5,54.3-0.3,75.2,6.6v76
	c-20.9-12.9-44.2-18.6-69.8-17.2c-27.4,1.5-49.1,12.5-65.3,32.7c-15.9,20-23.8,46.2-23.8,79.1c0,31.5,7.4,56.8,22.5,76
	c15.2,19.5,36.1,30,62.9,31.2c26.2,1.2,50.8-5.1,73.5-19.1v72.1c-22.8,10.7-51.8,14.6-86.6,12c-43.8-3.3-77-20.5-100.6-51.1
	c-23-29.9-34.3-68.3-34.3-115.8C199.6,456.2,212.4,414.7,238.3,381.5z M643.9,555.6V444.7c9,0,18.1,2.1,26.6,6.7
	c26.9,14.6,36.8,48.3,22.2,75.2C682.7,545.2,663.6,555.7,643.9,555.6z M967.3,537.4L939.7,642l-91.8-12.1
	c-9.7,15.4-20.7,29.5-33.2,42l32,83.4l-93.5,54.6L697.4,737c-17.5,4.1-35.4,6.3-53.5,6.5V652c53.7,0,105.6-28.7,133-79.1
	c39.9-73.4,12.8-165.2-60.6-205.1c-23-12.5-47.9-18.4-72.4-18.4v-94.1c0.7,0,1.4,0,2.1,0l34.6-78.1l104.7,27.6l-11.7,89.3
	c16.1,10.3,30.8,22,43.4,35.1l81.5-31.3l54.5,93.5l-72.8,55.8c3.9,17.7,5.9,35.7,5.7,53.9L967.3,537.4z"/>
</svg>
