<?xml version="1.0" encoding="iso-8859-1"?>
<!-- Generator: Adobe Illustrator 18.1.0, SVG Export Plug-In . SVG Version: 6.00 Build 0)  -->
<!DOCTYPE svg PUBLIC "-//W3C//DTD SVG 1.1//EN" "http://www.w3.org/Graphics/SVG/1.1/DTD/svg11.dtd">
<svg version="1.1" id="Layer_1" xmlns="http://www.w3.org/2000/svg" xmlns:xlink="http://www.w3.org/1999/xlink" x="0px" y="0px"
	 width="1050px" height="1000px" viewBox="0 0 1050 1000" style="enable-background:new 0 0 1050 1000;" xml:space="preserve">
<style type="text/css">
	.st0{fill-rule:evenodd;clip-rule:evenodd;}
	.st1{fill:none;}
</style>
<path d="M643.9,555.6V444.7c9,0,18.1,2.1,26.6,6.7c26.9,14.6,36.8,48.3,22.2,75.2C682.7,545.2,663.6,555.7,643.9,555.6z M886,501.2
	c0.2-18.1-1.8-36.2-5.7-53.9l72.8-55.8l-54.5-93.5l-81.5,31.3c-12.7-13.1-27.4-24.8-43.4-35.1l11.7-89.3l-104.7-27.6L646,255.3
	c-0.7,0-1.4,0-2.1,0v94.1c24.5,0,49.4,5.9,72.4,18.4c73.4,40,100.5,131.7,60.6,205.1c-27.4,50.4-79.3,79-133,79.1v91.6
	c18.1-0.2,36-2.4,53.5-6.5l55.8,72.8l93.5-54.6l-32-83.4c12.5-12.5,23.5-26.5,33.2-42l91.8,12.1l27.6-104.6L886,501.2z M68,166
	l512.2-91.1v850L68,836.6V166z M157.5,663.2l49.7,4v-183c0-24.6-0.8-53.2-2.3-85.7l1.6-0.1c3.6,24.6,6.3,39.9,7.9,45.9l62.1,228.5
	l50.6,4l68-240.3c2.8-9.8,5.9-26,9.4-48.4l1.7-0.1c-1.7,28.4-2.5,54.4-2.5,77.8v217.1l69.2,5.5v-374l-98.7,8.1l-58.4,210.9
	c-3.9,14.2-7.5,30.8-11,49.9l-1.2,0c-2-16.7-5.3-33.2-9.7-49.7l-54.3-200l-82.1,6.7V663.2z"/>
</svg>
