<?xml version="1.0" encoding="iso-8859-1"?>
<!-- Generator: Adobe Illustrator 18.1.0, SVG Export Plug-In . SVG Version: 6.00 Build 0)  -->
<!DOCTYPE svg PUBLIC "-//W3C//DTD SVG 1.1//EN" "http://www.w3.org/Graphics/SVG/1.1/DTD/svg11.dtd">
<svg version="1.1" id="Layer_1" xmlns="http://www.w3.org/2000/svg" xmlns:xlink="http://www.w3.org/1999/xlink" x="0px" y="0px"
	 width="1050px" height="1000px" viewBox="0 0 1050 1000" style="enable-background:new 0 0 1050 1000;" xml:space="preserve">
<style type="text/css">
	.st0{fill-rule:evenodd;clip-rule:evenodd;}
	.st1{fill:none;}
</style>
<path d="M643.5,555.6V444.7c9,0,18.1,2.1,26.6,6.7c26.9,14.6,36.8,48.3,22.2,75.2C682.4,545.2,663.3,555.7,643.5,555.6z
	 M966.9,537.3L939.3,642l-91.8-12.1c-9.7,15.4-20.7,29.5-33.2,42l32,83.4l-93.5,54.6L697,737c-17.5,4.1-35.4,6.3-53.5,6.5v-91.6
	c53.7,0,105.6-28.7,133-79.1c39.9-73.4,12.8-165.2-60.6-205.1c-23-12.5-47.9-18.4-72.4-18.4v-94.1c0.7,0,1.4,0,2.1,0l34.6-78.1
	l104.7,27.6l-11.7,89.3c16.1,10.3,30.8,22,43.4,35.1l81.5-31.3l54.5,93.5l-72.8,55.8c3.9,17.7,5.9,35.7,5.7,53.9L966.9,537.3z
	 M385.9,397.3c8.1,24.3,4.9,60.1-18.8,74.7c-17.9,11-41.5,8.1-61.7,8.2h-1.1V368.4c17.2-0.6,36.3-3.3,53,1.6
	c7.1,2.1,13,5.4,17.8,9.9C379.9,384.4,383.5,390.3,385.9,397.3z M76.8,166.1v670.6L588.4,925V75L76.8,166.1z M459,467.7
	c-26.6,67.9-91.7,74.9-154.7,73.8v127.7l-66.3-7.9v-351l106.8-6.2c39-2.2,82.2,5.8,105,40.8C472.1,378.9,473.1,430.5,459,467.7z"/>
</svg>
