<?xml version="1.0" encoding="iso-8859-1"?>
<!-- Generator: Adobe Illustrator 18.1.0, SVG Export Plug-In . SVG Version: 6.00 Build 0)  -->
<!DOCTYPE svg PUBLIC "-//W3C//DTD SVG 1.1//EN" "http://www.w3.org/Graphics/SVG/1.1/DTD/svg11.dtd">
<svg version="1.1" id="Layer_1" xmlns="http://www.w3.org/2000/svg" xmlns:xlink="http://www.w3.org/1999/xlink" x="0px" y="0px"
	 width="1000px" height="1000px" viewBox="0 0 1000 1000" style="enable-background:new 0 0 1000 1000;" xml:space="preserve">
<style type="text/css">
	.st0{fill-rule:evenodd;clip-rule:evenodd;}
	.st1{fill:none;}
</style>
<g>
	<path d="M502.2,188.6c9,0.1,17.9,0.2,27,1L582,92.9l131.8,46.8l-24.6,113.7c19.7,15,37.2,31.7,52.3,49.9l108.2-31.6L909.9,398
		L810.2,462c2.9,23.3,3.5,46.9,1.3,70.1l100.9,55.2l-29.2,82.2L513.1,299.3C517.9,261.7,514,223.8,502.2,188.6z M299.4,513.1
		c-10.7,1.4-21.6,2.1-32.4,2.1c-29.3,0-57.8-5.3-84.5-15c-0.1,17.2,0.6,34.3,3.2,50.9l-95.6,61.5l60.2,126.4l106.8-30.9
		c13.5,15.9,29.1,30.8,46.6,44.2l-28.1,112.4l130.4,50.5l57.5-98.2c26.6,2.7,53.5,2.5,79.6-1.8l63.9,99.9l63.9-30.4L299.4,513.1z
		 M405.1,131c50.5,50.5,66.5,121.8,49.6,186.3l442,442l-0.1,0.1c37.8,37.9,37.8,99.3-0.1,137.2c-37.9,37.9-99.3,37.9-137.2,0.1l0,0
		l-442-442c-64.5,17-135.8,1-186.3-49.6C78.9,353,63.6,278.8,83.2,212.8l131.6,131.6l102.7-26.9l27.3-103.1L213.4,83.1
		C279.2,63.7,353.1,79.1,405.1,131z M855.5,800.4c-15.2-15.2-39.8-15.2-55,0c-15.2,15.2-15.2,39.8,0,55c15.2,15.2,39.8,15.2,55,0
		C870.7,840.3,870.6,815.6,855.5,800.4z"/>
</g>
</svg>
