<?xml version="1.0" encoding="iso-8859-1"?>
<!-- Generator: Adobe Illustrator 18.1.0, SVG Export Plug-In . SVG Version: 6.00 Build 0)  -->
<!DOCTYPE svg PUBLIC "-//W3C//DTD SVG 1.1//EN" "http://www.w3.org/Graphics/SVG/1.1/DTD/svg11.dtd">
<svg version="1.1" id="Layer_1" xmlns="http://www.w3.org/2000/svg" xmlns:xlink="http://www.w3.org/1999/xlink" x="0px" y="0px"
	 width="1050px" height="1000px" viewBox="0 0 1050 1000" style="enable-background:new 0 0 1050 1000;" xml:space="preserve">
<style type="text/css">
	.st0{fill-rule:evenodd;clip-rule:evenodd;}
	.st1{fill:none;}
</style>
<path d="M643.7,555.6V444.7c9,0,18.1,2.1,26.6,6.7c26.9,14.6,36.8,48.3,22.2,75.2C682.6,545.2,663.5,555.7,643.7,555.6z
	 M885.8,501.2c0.2-18.1-1.8-36.2-5.7-53.9l72.8-55.8l-54.5-93.5l-81.5,31.3c-12.7-13.1-27.4-24.8-43.4-35.1l11.7-89.3l-104.7-27.6
	l-34.6,78.1c-0.7,0-1.4,0-2.1,0v94.1c24.5,0,49.4,5.9,72.4,18.4c73.4,40,100.5,131.7,60.6,205.1c-27.4,50.4-79.3,79-133,79.1v91.6
	c18.1-0.2,36-2.4,53.5-6.5l55.8,72.8l93.5-54.6l-32-83.4c12.5-12.5,23.5-26.5,33.2-42l91.8,12.1l27.6-104.6L885.8,501.2z M317,391.1
	c-0.2,2.5-32.7,139.9-32.7,139.9l67.3,0.9c0,0-32.9-138-33.1-140.8L317,391.1z M72,166.1v670.6L583.5,925V75L72,166.1z M385,665.8
	L365.5,590l-93.5-3.2l-17.8,70.9l-59.8-3.7l90.2-319.8l70.3-4.3l99.6,340L385,665.8z"/>
</svg>
