<?xml version="1.0" encoding="iso-8859-1"?>
<!-- Generator: Adobe Illustrator 18.1.0, SVG Export Plug-In . SVG Version: 6.00 Build 0)  -->
<!DOCTYPE svg PUBLIC "-//W3C//DTD SVG 1.1//EN" "http://www.w3.org/Graphics/SVG/1.1/DTD/svg11.dtd">
<svg version="1.1" id="Layer_1" xmlns="http://www.w3.org/2000/svg" xmlns:xlink="http://www.w3.org/1999/xlink" x="0px" y="0px"
	 width="1050px" height="1000px" viewBox="0 0 1050 1000" style="enable-background:new 0 0 1050 1000;" xml:space="preserve">
<style type="text/css">
	.st0{fill-rule:evenodd;clip-rule:evenodd;}
	.st1{fill:none;}
</style>
<path d="M643.9,555.6V444.7c9,0,18.1,2.1,26.6,6.7c26.9,14.6,36.8,48.3,22.2,75.2C682.7,545.2,663.6,555.7,643.9,555.6z
	 M967.3,537.4L939.7,642l-91.8-12.1c-9.7,15.4-20.7,29.5-33.2,42l32,83.4l-93.5,54.6L697.4,737c-17.5,4.1-35.4,6.3-53.5,6.5V652
	c53.7,0,105.6-28.7,133-79.1c39.9-73.4,12.8-165.2-60.6-205.1c-23-12.5-47.9-18.4-72.4-18.4v-94.1c0.7,0,1.4,0,2.1,0l34.6-78.1
	l104.7,27.6l-11.7,89.3c16.1,10.3,30.8,22,43.4,35.1l81.5-31.3l54.5,93.5l-72.8,55.8c3.9,17.7,5.9,35.7,5.7,53.9L967.3,537.4z
	 M580,74.9v850L68,836.6V166L580,74.9z M418.4,674.1l-0.8-63.5L304,608.7V323.1l-59,7.1v334L418.4,674.1z"/>
</svg>
