<?xml version="1.0" encoding="utf-8"?>
<!-- Generator: Adobe Illustrator 18.1.1, SVG Export Plug-In . SVG Version: 6.00 Build 0)  -->
<!DOCTYPE svg PUBLIC "-//W3C//DTD SVG 1.1//EN" "http://www.w3.org/Graphics/SVG/1.1/DTD/svg11.dtd">
<svg version="1.1" id="Layer_1" xmlns="http://www.w3.org/2000/svg" xmlns:xlink="http://www.w3.org/1999/xlink" x="0px" y="0px"
	 width="1000px" height="1000px" viewBox="0 0 1000 1000" enable-background="new 0 0 1000 1000" xml:space="preserve">
<path d="M499.9,169.7c18.2,0,34.7,9.2,44.2,24.7L856.2,735c3.8,7.3,5.8,15.3,5.8,23.7c0,28.7-23.3,52-52,52H190
	c-28.7,0-52-23.3-52-52c0-8.6,2.2-17.2,6.3-24.8l311.4-539.6c4.5-7.3,10.9-13.4,18.4-17.7C481.9,172.1,490.8,169.7,499.9,169.7
	 M499.9,108.8c-36,0-67.7,19.2-85.1,47.9L87.1,724.6C79.4,738.7,75,755,75,772.1c0,55,44.6,99.6,99.6,99.6h650.8
	c55.1,0,99.6-44.6,99.6-99.6c0-16.8-4.2-32.7-11.6-46.6L585,156.7C567.6,128,536,108.8,499.9,108.8L499.9,108.8z M553.3,304.5
	l-12.3,319h-83l-12.3-319H553.3z M542.8,759.5c-10.6,10.5-24.9,15.7-42.8,15.7c-17.5,0-31.7-5.4-42.5-16.3
	c-11-10.5-16.5-22.9-16.5-37.4c0-16.4,5.7-29,17.1-37.9c11.2-10.3,25.2-15.4,41.9-15.4c17.1,0,31.4,5.1,42.8,15.4
	c10.8,9.7,16.2,22.3,16.2,37.9C559,736.4,553.6,749.1,542.8,759.5z"/>
</svg>
