<?xml version="1.0" encoding="iso-8859-1"?>
<!-- Generator: Adobe Illustrator 18.1.0, SVG Export Plug-In . SVG Version: 6.00 Build 0)  -->
<!DOCTYPE svg PUBLIC "-//W3C//DTD SVG 1.1//EN" "http://www.w3.org/Graphics/SVG/1.1/DTD/svg11.dtd">
<svg version="1.1" xmlns="http://www.w3.org/2000/svg" xmlns:xlink="http://www.w3.org/1999/xlink" x="0px" y="0px" width="1000px"
	 height="1000px" viewBox="0 0 1000 1000" style="enable-background:new 0 0 1000 1000;" xml:space="preserve">
<style type="text/css">
	.st0{display:none;}
	.st1{display:inline;}
	.st2{fill:#FFFFFF;}
	.st3{fill:#FFFFFF;stroke:#000000;stroke-width:1.45;stroke-linejoin:bevel;}
	.st4{display:inline;fill:none;stroke:#C1272D;stroke-miterlimit:10;}
	.st5{display:inline;fill:#ED1C24;}
	.st6{display:inline;fill:#FFFFFF;}
	.st7{display:inline;fill:none;stroke:#ED1C24;stroke-miterlimit:10;}
	.st8{fill:#ED1C24;}
	.st9{fill-rule:evenodd;clip-rule:evenodd;}
</style>
<g id="Layer_2" class="st0">
</g>
<g id="Layer_1">
	<path d="M492.1,440.1h-89.6l-26-81.2H246.7L221,440.1h-89.1L264.8,75h97.5L492.1,440.1z M357.7,295.7L318.5,173
		c-3.1-9.7-5.1-20.6-6.1-32.8h-2c-1,10.7-3.1,21.3-6.4,31.8l-39.7,123.7H357.7z M457.6,607.4L275.7,858.1h182.4v66.3H165.9v-47.1
		l185.9-249.2H179.3v-66.5h278.3V607.4z M662.3,774.2V75h83.9v699.2l121.9-129.5v106.4L704.3,924.4L540.4,750.6V644.2L662.3,774.2z"
		/>
</g>
</svg>
