<?xml version="1.0" encoding="iso-8859-1"?>
<!-- Generator: Adobe Illustrator 18.1.0, SVG Export Plug-In . SVG Version: 6.00 Build 0)  -->
<!DOCTYPE svg PUBLIC "-//W3C//DTD SVG 1.1//EN" "http://www.w3.org/Graphics/SVG/1.1/DTD/svg11.dtd">
<svg version="1.1" id="Layer_1" xmlns="http://www.w3.org/2000/svg" xmlns:xlink="http://www.w3.org/1999/xlink" x="0px" y="0px"
	 width="1000px" height="1000px" viewBox="0 0 1000 1000" style="enable-background:new 0 0 1000 1000;" xml:space="preserve">
<style type="text/css">
	.st0{fill-rule:evenodd;clip-rule:evenodd;}
</style>
<path d="M670.6,307.8c19.4,0,35.2,15.7,35.2,35.2V720c0,0.4-0.2,0.6-0.2,0.9C704.7,833.6,613,925,500.1,925
	c-113.5,0-205.9-92.3-205.9-205.8v-487c0-86.6,70.5-157.2,157.3-157.2c86.8,0,157.3,70.6,157.3,157.2h0.2v382.7
	c0,57.7-46.9,104.7-104.7,104.7c-57.7,0-104.6-46.9-104.6-104.7V329.8c0-19.4,15.8-35.3,35.2-35.3c19.4,0,35.2,15.8,35.2,35.3v285.1
	c0,18.9,15.3,34.2,34.1,34.2c18.9,0,34.3-15.3,34.3-34.2V232.2h-0.2c0-47.9-38.9-86.8-86.8-86.8c-47.9,0-86.8,38.9-86.8,86.8v487
	c0,74.6,60.7,135.3,135.5,135.3c74.6,0,135.4-60.7,135.4-135.3V342.9C635.4,323.5,651.2,307.8,670.6,307.8"/>
</svg>
