<?xml version="1.0" encoding="iso-8859-1"?>
<!-- Generator: Adobe Illustrator 18.1.0, SVG Export Plug-In . SVG Version: 6.00 Build 0)  -->
<!DOCTYPE svg PUBLIC "-//W3C//DTD SVG 1.1//EN" "http://www.w3.org/Graphics/SVG/1.1/DTD/svg11.dtd">
<svg version="1.1" xmlns="http://www.w3.org/2000/svg" xmlns:xlink="http://www.w3.org/1999/xlink" x="0px" y="0px" width="1000px"
	 height="1000px" viewBox="0 0 1000 1000" style="enable-background:new 0 0 1000 1000;" xml:space="preserve">
<style type="text/css">
	.st0{display:none;}
	.st1{display:inline;}
	.st2{fill:#FFFFFF;}
	.st3{fill:#FFFFFF;stroke:#000000;stroke-width:1.45;stroke-linejoin:bevel;}
	.st4{display:inline;fill:none;stroke:#C1272D;stroke-miterlimit:10;}
	.st5{display:inline;fill:#ED1C24;}
	.st6{display:inline;fill:#FFFFFF;}
	.st7{display:inline;fill:none;stroke:#ED1C24;stroke-miterlimit:10;}
	.st8{fill:#ED1C24;}
	.st9{fill-rule:evenodd;clip-rule:evenodd;}
	.st10{fill:#231F20;}
</style>
<g id="Layer_2" class="st0">
</g>
<g id="Layer_1">
	<path d="M824,396.8V925H176V396.8H824z M601.3,357.2v-120c0-29.1-7.7-56.5-21.3-80.1c-6.2-1.5-12.6-2.3-19.2-2.3
		c-9.7,0-19,1.7-27.6,4.8c17.3,21,27.7,48,27.7,77.3v120.4H601.3z M398.7,357.2h40.4V236.8c0-45.1,24.5-84.4,60.9-105.5
		c14-8.2,29.8-13.5,46.7-15.4c4.6-0.6,9.3-0.8,14.1-0.8c67.2,0,121.7,54.5,121.7,121.7v120.4H723v-120C723,147.6,650.4,75,560.8,75
		c-21.5,0-42.1,4.2-60.8,11.8c-17.3,7-33.1,16.8-46.8,29.1c-33.5,29.6-54.5,73-54.5,121.3V357.2z M317.5,236.8
		c0-51.3,31.7-95.1,76.5-113c12.8-18.7,28.7-35.2,46.8-48.7c-89.2,0-163.8,72.6-163.8,162.1v120h40.4V236.8z"/>
</g>
</svg>
