<?xml version="1.0" encoding="iso-8859-1"?>
<!-- Generator: Adobe Illustrator 18.1.1, SVG Export Plug-In . SVG Version: 6.00 Build 0)  -->
<!DOCTYPE svg PUBLIC "-//W3C//DTD SVG 1.1//EN" "http://www.w3.org/Graphics/SVG/1.1/DTD/svg11.dtd">
<svg version="1.1" xmlns="http://www.w3.org/2000/svg" xmlns:xlink="http://www.w3.org/1999/xlink" x="0px" y="0px" width="1000px"
	 height="1000px" viewBox="0 0 1000 1000" style="enable-background:new 0 0 1000 1000;" xml:space="preserve">
<style type="text/css">
	.st0{display:none;}
	.st1{display:inline;}
	.st2{fill:#FFFFFF;}
	.st3{fill:#FFFFFF;stroke:#000000;stroke-width:1.45;stroke-linejoin:bevel;}
	.st4{display:inline;fill:none;stroke:#C1272D;stroke-miterlimit:10;}
	.st5{display:inline;fill:#ED1C24;}
	.st6{display:inline;fill:#FFFFFF;}
	.st7{display:inline;fill:none;stroke:#ED1C24;stroke-miterlimit:10;}
	.st8{fill:#ED1C24;}
	.st9{fill-rule:evenodd;clip-rule:evenodd;}
	.st10{fill:#FFFFFF;stroke:#231F20;stroke-width:3;stroke-miterlimit:10;}
	.st11{fill:none;stroke:#231F20;stroke-width:3;stroke-miterlimit:10;}
	.st12{fill:#231F20;}
	.st13{fill:none;stroke:#FFFFFF;stroke-width:3;stroke-miterlimit:10;}
	.st14{fill:#FFFFFF;stroke:#231F20;stroke-width:3;stroke-linejoin:round;stroke-miterlimit:10;}
	.st15{fill:none;stroke:#231F20;stroke-width:3;stroke-linejoin:round;stroke-miterlimit:10;}
	.st16{fill:none;stroke:#000000;stroke-miterlimit:10;}
</style>
<g id="Layer_2" class="st0">
</g>
<g id="Layer_1">
	<path d="M902.8,340.1c0-117.6-95.3-213-213-213c-107.1,0-194.9,79.3-209.9,182.3l-1-0.1c0,0-6.5,27.4,2.2,73.3
		c0,0.2,0.1,0.4,0.1,0.5c11.8,61.6,51.2,156.4,171.6,265.1L635,670.9l13.2,1.9l-41.7,208.6L462.3,585.2l14.4-7.8L451.6,562
		c12.6-24.2,23.2-47.3,32-69.2c-20.4-39.6-31.3-74.6-36.7-103c-0.1-0.3-0.1-0.6-0.2-0.9c-9.8-51.6-2.6-84.2-1.8-87.7l6.9-29l0.3,0
		c9-31.5,24.1-61,44.4-86.6c-0.3-0.5-0.5-0.8-0.5-0.8c-56.4-103.2-185.8-141.1-289-84.7c-94,51.4-132.9,163.1-96.7,260.6l-0.9,0.4
		c0,0,7.4,27.2,37.1,63.3c0.1,0.1,0.2,0.3,0.3,0.4c39.8,48.2,119.5,112.3,276.5,149.9l-0.9,32l13.8-7.5L597.6,926l30.6,0L678,677.2
		l18.1,2.6l-12.2-30.7C917.9,491.6,902.8,340.1,902.8,340.1z"/>
</g>
</svg>
