<?xml version="1.0" encoding="iso-8859-1"?>
<!-- Generator: Adobe Illustrator 18.1.0, SVG Export Plug-In . SVG Version: 6.00 Build 0)  -->
<!DOCTYPE svg PUBLIC "-//W3C//DTD SVG 1.1//EN" "http://www.w3.org/Graphics/SVG/1.1/DTD/svg11.dtd">
<svg version="1.1" id="Layer_1" xmlns="http://www.w3.org/2000/svg" xmlns:xlink="http://www.w3.org/1999/xlink" x="0px" y="0px"
	 width="1000px" height="1000px" viewBox="0 0 1000 1000" style="enable-background:new 0 0 1000 1000;" xml:space="preserve">
<style type="text/css">
	.st0{fill-rule:evenodd;clip-rule:evenodd;}
</style>
<path d="M813.6,692.5c9.6,10.7,17.4,21.5,23.3,32.2c5.9,10.7,8.9,20,8.9,27.8c0,7.4-2.7,13.4-8.1,18c-5.4,4.6-13.4,6.9-24.2,6.9
	H185.1c-10.7,0-18.5-2.3-23.3-6.9c-4.8-4.6-7.2-10.6-7.2-18c0-7.8,2.7-17,8-27.8c5.4-10.7,12.9-21.5,22.5-32.2
	c9.3-10.7,18.5-23,27.8-36.7c7.8-11.9,15.7-26,23.9-42.5c8.1-16.5,15.2-35.3,21.1-56.4c4.4-16.3,8-31.3,10.6-45
	c2.6-13.7,4.6-25.7,6.1-36.1c1.5-12.2,2.4-23.1,2.8-32.8c4.4-93.7,21.1-166.2,50.2-217.5c29-51.3,74-81.2,135-89.7
	c-3.3-4.8-5-11.2-5-19.4c0-5.1,0.8-9.8,2.5-14.1c1.7-4.2,4-7.8,6.9-10.8c3.3-4.4,7.9-8.3,13.6-11.6c5.7-3.3,11.8-5,18-5
	c7,0,13.5,1.7,19.4,5c5.9,3.3,10.9,7.2,15,11.6c2.2,3,4.1,6.5,5.5,10.8c1.5,4.2,2.2,8.9,2.2,14.1c0,8.1-1.5,14.6-4.5,19.4
	c60.8,8.5,105.9,38.4,135.4,89.7c29.5,51.3,46.2,123.8,50.3,217.5c0.4,9.6,1.3,20.6,2.8,32.8c1.1,10.4,2.9,22.4,5.3,36.1
	c2.4,13.7,5.6,28.7,9.7,45c5.6,21.1,12.6,39.9,21.1,56.4c8.5,16.5,16.7,30.6,24.4,42.5C794.6,669.6,804,681.8,813.6,692.5z
	 M374.1,821.4h251.1c-3,14.4-8.2,28-15.6,40.7c-7.4,12.7-16.7,23.7-27.9,32.9c-11.2,9.2-23.7,16.5-37.7,21.9c-14,5.3-28.7,8-44.3,8
	c-15.6,0-30.5-2.7-44.6-8c-14.1-5.4-26.8-12.7-37.9-21.9c-11.2-9.2-20.5-20.2-27.9-32.9C381.7,849.4,376.7,835.8,374.1,821.4z"/>
</svg>
