<?xml version="1.0" encoding="iso-8859-1"?>
<!-- Generator: Adobe Illustrator 18.1.0, SVG Export Plug-In . SVG Version: 6.00 Build 0)  -->
<!DOCTYPE svg PUBLIC "-//W3C//DTD SVG 1.1//EN" "http://www.w3.org/Graphics/SVG/1.1/DTD/svg11.dtd">
<svg version="1.1" xmlns="http://www.w3.org/2000/svg" xmlns:xlink="http://www.w3.org/1999/xlink" x="0px" y="0px" width="1000px"
	 height="1000px" viewBox="0 0 1000 1000" style="enable-background:new 0 0 1000 1000;" xml:space="preserve">
<style type="text/css">
	.st0{display:none;}
	.st1{display:inline;}
	.st2{fill:#FFFFFF;}
	.st3{fill:#FFFFFF;stroke:#000000;stroke-width:1.45;stroke-linejoin:bevel;}
	.st4{display:inline;fill:none;stroke:#C1272D;stroke-miterlimit:10;}
	.st5{display:inline;fill:#ED1C24;}
	.st6{display:inline;fill:#FFFFFF;}
	.st7{display:inline;fill:none;stroke:#ED1C24;stroke-miterlimit:10;}
	.st8{fill:#ED1C24;}
	.st9{fill-rule:evenodd;clip-rule:evenodd;}
	.st10{fill:#231F20;}
</style>
<g id="Layer_2" class="st0">
</g>
<g id="Layer_1">
	<path d="M180.8,925V75h309.4C585,75,658,92.4,708.9,127.2c51,34.8,76.5,83.8,76.5,147c0,45.9-15.5,86-46.5,120.3
		c-31,34.4-70.6,58.3-118.8,71.7v2.4c60.5,7.5,108.8,29.8,144.9,67c36.2,37.2,54.2,82.4,54.2,135.7c0,77.9-27.9,139.6-83.6,185.3
		C679.9,902.2,603.8,925,507.4,925H180.8z M372.3,216.1v201.5h84.2c39.5,0,70.6-9.6,93.4-28.7c22.7-19.2,34.1-45.6,34.1-79.1
		c0-62.4-46.6-93.7-139.9-93.7H372.3z M372.3,559.9v224.1H476c44.3,0,78.9-10.3,104-30.8c25.1-20.5,37.6-48.6,37.6-84.2
		c0-34-12.4-60.6-37.1-80c-24.7-19.4-59.2-29-103.4-29H372.3z"/>
</g>
</svg>
