<?xml version="1.0" encoding="iso-8859-1"?>
<!-- Generator: Adobe Illustrator 18.1.0, SVG Export Plug-In . SVG Version: 6.00 Build 0)  -->
<!DOCTYPE svg PUBLIC "-//W3C//DTD SVG 1.1//EN" "http://www.w3.org/Graphics/SVG/1.1/DTD/svg11.dtd">
<svg version="1.1" xmlns="http://www.w3.org/2000/svg" xmlns:xlink="http://www.w3.org/1999/xlink" x="0px" y="0px" width="1300px"
	 height="1000px" viewBox="0 0 1300 1000" style="enable-background:new 0 0 1300 1000;" xml:space="preserve">
<style type="text/css">
	.st0{display:none;}
	.st1{display:inline;}
	.st2{fill:#FFFFFF;}
	.st3{fill:#FFFFFF;stroke:#000000;stroke-width:1.45;stroke-linejoin:bevel;}
	.st4{display:inline;fill:none;stroke:#C1272D;stroke-miterlimit:10;}
	.st5{display:inline;fill:#ED1C24;}
	.st6{display:inline;fill:#FFFFFF;}
	.st7{display:inline;fill:none;stroke:#ED1C24;stroke-miterlimit:10;}
	.st8{fill:#ED1C24;}
	.st9{fill-rule:evenodd;clip-rule:evenodd;}
	.st10{fill:#FFFFFF;stroke:#231F20;stroke-width:3;stroke-miterlimit:10;}
	.st11{fill:none;stroke:#231F20;stroke-width:3;stroke-miterlimit:10;}
	.st12{fill:#231F20;}
	.st13{fill:none;stroke:#FFFFFF;stroke-width:3;stroke-miterlimit:10;}
	.st14{fill:#FFFFFF;stroke:#231F20;stroke-width:3;stroke-linejoin:round;stroke-miterlimit:10;}
	.st15{fill:none;stroke:#231F20;stroke-width:3;stroke-linejoin:round;stroke-miterlimit:10;}
	.st16{fill:none;stroke:#000000;stroke-miterlimit:10;}
</style>
<g id="Layer_2" class="st0">
</g>
<g id="Layer_1">
	<path d="M300.5,108.1H116.4c-22.9,0-41.4,18.6-41.4,41.4v711.7c0,22.9,18.6,41.4,41.4,41.4h184.1c22.9,0,41.4-18.6,41.4-41.4V149.5
		C342,126.7,323.4,108.1,300.5,108.1z M304,347.9c0,14.9-12.1,26.9-26.9,26.9H142.9c-14.9,0-26.9-12-26.9-26.9v-23.2
		c0-14.9,12.1-26.9,26.9-26.9h134.2c14.9,0,26.9,12,26.9,26.9V347.9z M304,234.9c0,14.9-12.1,26.9-26.9,26.9H142.9
		c-14.9,0-26.9-12-26.9-26.9v-23.2c0-14.9,12.1-26.9,26.9-26.9h134.2c14.9,0,26.9,12,26.9,26.9V234.9z M601.9,108.1H417.8
		c-22.9,0-41.4,18.6-41.4,41.4v711.7c0,22.9,18.6,41.4,41.4,41.4h184.1c22.9,0,41.4-18.6,41.4-41.4V149.5
		C643.3,126.7,624.8,108.1,601.9,108.1z M605.4,347.9c0,14.9-12.1,26.9-26.9,26.9H444.3c-14.9,0-26.9-12-26.9-26.9v-23.2
		c0-14.9,12.1-26.9,26.9-26.9h134.2c14.9,0,26.9,12,26.9,26.9V347.9z M605.4,234.9c0,14.9-12.1,26.9-26.9,26.9H444.3
		c-14.9,0-26.9-12-26.9-26.9v-23.2c0-14.9,12.1-26.9,26.9-26.9h134.2c14.9,0,26.9,12,26.9,26.9V234.9z M863.3,101.3l-166.6,78.3
		c-20.7,9.7-29.6,34.4-19.9,55.1l302.6,644.1c9.7,20.7,34.4,29.6,55.1,19.9l166.6-78.3c20.7-9.7,29.6-34.4,19.9-55.1L918.4,121.2
		C908.7,100.5,884,91.6,863.3,101.3z M968.5,316.9c6.3,13.5,0.5,29.5-12.9,35.8l-121.4,57.1c-13.5,6.3-29.5,0.5-35.8-12.9l-9.9-21
		c-6.3-13.5-0.5-29.5,12.9-35.8L922.8,283c13.5-6.3,29.5-0.5,35.8,12.9L968.5,316.9z M920.4,214.5c6.3,13.5,0.5,29.5-12.9,35.8
		L786,307.4c-13.5,6.3-29.5,0.5-35.8-12.9l-9.9-21c-6.3-13.5-0.5-29.5,12.9-35.8l121.4-57.1c13.5-6.3,29.5-0.5,35.8,12.9
		L920.4,214.5z"/>
</g>
</svg>
