<?xml version="1.0" encoding="iso-8859-1"?>
<!-- Generator: Adobe Illustrator 18.1.0, SVG Export Plug-In . SVG Version: 6.00 Build 0)  -->
<!DOCTYPE svg PUBLIC "-//W3C//DTD SVG 1.1//EN" "http://www.w3.org/Graphics/SVG/1.1/DTD/svg11.dtd">
<svg version="1.1" xmlns="http://www.w3.org/2000/svg" xmlns:xlink="http://www.w3.org/1999/xlink" x="0px" y="0px" width="1000px"
	 height="1000px" viewBox="0 0 1000 1000" style="enable-background:new 0 0 1000 1000;" xml:space="preserve">
<style type="text/css">
	.st0{display:none;}
	.st1{display:inline;}
	.st2{fill:#FFFFFF;}
	.st3{fill:#FFFFFF;stroke:#000000;stroke-width:1.45;stroke-linejoin:bevel;}
	.st4{display:inline;fill:none;stroke:#C1272D;stroke-miterlimit:10;}
	.st5{display:inline;fill:#ED1C24;}
	.st6{display:inline;fill:#FFFFFF;}
	.st7{display:inline;fill:none;stroke:#ED1C24;stroke-miterlimit:10;}
	.st8{fill:#ED1C24;}
	.st9{fill-rule:evenodd;clip-rule:evenodd;}
	.st10{fill:#231F20;}
</style>
<g id="Layer_2" class="st0">
</g>
<g id="Layer_1">
	<path d="M730.4,628.8L925,409.1v418.4c0,38.4-31.1,69.5-69.5,69.5H144.4c-38.4,0-69.4-31.1-69.4-69.5V410.1l194.6,218.7H730.4z
		 M707.9,578.9H292L75,335c0-38.4,31.1-72.7,69.4-72.7h144.6v-89.9c0-38.4,31.1-69.5,69.5-69.5h282.9c38.4,0,69.4,31.1,69.4,69.5
		v89.9h144.6c38.4,0,69.5,33.2,69.5,71.5 M342,262.4h316v-85.8c0-11.8-9.5-21.3-21.3-21.3H363.3c-11.8,0-21.3,9.5-21.3,21.3V262.4z"
		/>
</g>
</svg>
