<?xml version="1.0" encoding="iso-8859-1"?>
<!-- Generator: Adobe Illustrator 18.1.0, SVG Export Plug-In . SVG Version: 6.00 Build 0)  -->
<!DOCTYPE svg PUBLIC "-//W3C//DTD SVG 1.1//EN" "http://www.w3.org/Graphics/SVG/1.1/DTD/svg11.dtd">
<svg version="1.1" xmlns="http://www.w3.org/2000/svg" xmlns:xlink="http://www.w3.org/1999/xlink" x="0px" y="0px" width="1000px"
	 height="1000px" viewBox="0 0 1000 1000" style="enable-background:new 0 0 1000 1000;" xml:space="preserve">
<style type="text/css">
	.st0{display:none;}
	.st1{display:inline;}
	.st2{fill:#FFFFFF;}
	.st3{fill:#FFFFFF;stroke:#000000;stroke-width:1.45;stroke-linejoin:bevel;}
	.st4{display:inline;fill:none;stroke:#C1272D;stroke-miterlimit:10;}
	.st5{display:inline;fill:#ED1C24;}
	.st6{display:inline;fill:#FFFFFF;}
	.st7{display:inline;fill:none;stroke:#ED1C24;stroke-miterlimit:10;}
	.st8{fill:#ED1C24;}
	.st9{fill-rule:evenodd;clip-rule:evenodd;}
	.st10{fill:#231F20;}
</style>
<g id="Layer_2" class="st0">
</g>
<g id="Layer_1">
	<path d="M459.9,251.2H540v171.4h-80.1V251.2z M465,192.1c10.8,19.3,35.2,26.2,54.6,15.4c12.8-7.2,19.9-20.3,20.2-33.9
		c0-0.4,0.2-0.6,0.2-1c0-1.4-0.2-2.9-0.2-4.4v0C537.3,136,530,75,530,75c-30,41.8-44.8,56.3-55.4,66.6c-1,0.9-2,1.9-3,2.9
		c-0.5,0.4-1.1,1-1.1,1l-0.1,0.2C459.2,158.2,456.4,176.7,465,192.1 M711.8,630.6c-47.8,47-138.1,47-185.8,0
		c-29.2-28.7-90.9-28.7-120.1,0c-47.8,47.1-138.1,47-185.9,0c-13.3-13.2-33.6-20-54.4-21.1v161h669V632.8c-0.9-0.8-2-1.4-2.9-2.2
		C802.6,601.8,740.9,601.8,711.8,630.6 M372.9,571.4c47.9-47,138.2-47,185.9,0c29.1,28.7,90.9,28.7,120.1,0
		c38.3-37.8,106.4-44.2,155.7-20.2v-79.3h-669v64.7c32.7,1.1,64.8,12.5,87.4,34.8C282.1,600.2,343.8,600.2,372.9,571.4 M925,878V877
		c0-26-21-47-47-47H123c-26,0-47,21-47,47v0.9c0,26,21,47,47,47h755C904,925,925,904,925,878z"/>
</g>
</svg>
