<?xml version="1.0" encoding="iso-8859-1"?>
<!-- Generator: Adobe Illustrator 18.1.0, SVG Export Plug-In . SVG Version: 6.00 Build 0)  -->
<!DOCTYPE svg PUBLIC "-//W3C//DTD SVG 1.1//EN" "http://www.w3.org/Graphics/SVG/1.1/DTD/svg11.dtd">
<svg version="1.1" id="Layer_1" xmlns="http://www.w3.org/2000/svg" xmlns:xlink="http://www.w3.org/1999/xlink" x="0px" y="0px"
	 width="1000px" height="1000px" viewBox="0 0 1000 1000" style="enable-background:new 0 0 1000 1000;" xml:space="preserve">
<style type="text/css">
	.st0{fill-rule:evenodd;clip-rule:evenodd;}
</style>
<path d="M918.1,117.4v761.9c0,12.6-4.3,23.4-12.7,32.3c-8.5,8.9-18.8,13.4-31,13.4H124c-12.2,0-22.5-4.5-30.7-13.4
	c-8.3-8.9-12.4-19.7-12.4-32.3V117.4c0-11.3,4.1-21.2,12.4-29.7C101.6,79.3,111.8,75,124,75h750.3c12.2,0,22.5,4.3,31,12.7
	C913.8,96.2,918.1,106.1,918.1,117.4z M856.9,275.9H140.4v594.9h716.5V275.9z M189.3,459.7h100.5v104.4H189.3V459.7z M321.5,459.7
	H422v104.4H321.5V459.7z M451.1,459.7h99.1v104.4h-99.1V459.7z M581.9,459.7h99.1v104.4h-99.1V459.7z M712.8,459.7h100.5v104.4
	H712.8V459.7z"/>
</svg>
