<?xml version="1.0" encoding="utf-8"?>
<!-- Generator: Adobe Illustrator 18.1.1, SVG Export Plug-In . SVG Version: 6.00 Build 0)  -->
<!DOCTYPE svg PUBLIC "-//W3C//DTD SVG 1.1//EN" "http://www.w3.org/Graphics/SVG/1.1/DTD/svg11.dtd">
<svg version="1.1" xmlns="http://www.w3.org/2000/svg" xmlns:xlink="http://www.w3.org/1999/xlink" x="0px" y="0px" width="1000px"
	 height="1000px" viewBox="0 0 1000 1000" style="enable-background:new 0 0 1000 1000;" xml:space="preserve">
<style type="text/css">
	.st0{fill:#101010;}
	.st1{fill:#FFFFFF;}
	.st2{fill:none;stroke:#000000;stroke-miterlimit:10;}
	.st3{fill:#231F20;}
</style>
<g id="Layer_2">
</g>
<g id="Layer_1">
	<path d="M542,301.3h91.2V401H542V301.3z M662.4,626.7h92.4v-71.2h-92.4V626.7z M542,626.7h91.2v-71.2H542V626.7z M542,525.1h91.2
		V429H542V525.1z M662.4,525.1h92.4V429h-92.4V525.1z M512.8,626.7v-71.2h-91.2v97.3h26.4l27.8-26.2H512.8z M392.3,680.8h-91.2v97.3
		h13.6l77.6-73V680.8z M662.4,401h92.4v-99.7h-92.4V401z M301.1,401h91.2v-99.7h-91.2V401z M180.7,778.1h92.4v-97.3h-92.4V778.1z
		 M421.5,401h91.2v-99.7h-91.2V401z M273.1,429h-92.4v96.1h92.4V429z M298.5,807.3H135.7V259.9H795v366.8h18.6l37.7,35.5V114
		c0-10.4-3.9-19.5-11.7-27.3C831.7,78.9,822.2,75,811,75H120.6c-11.2,0-20.7,3.9-28.3,11.7c-7.6,7.8-11.4,16.9-11.4,27.3v701.1
		c0,11.6,3.8,21.5,11.4,29.7c7.6,8.2,17,12.3,28.3,12.3h230.6L298.5,807.3z M273.1,555.5h-92.4v97.3h92.4V555.5z M421.5,525.1h91.2
		V429h-91.2V525.1z M301.1,652.8h91.2v-97.3h-91.2V652.8z M302.3,525.1h92.4V429h-92.4V525.1z M793.7,676.7h-80.5l98.2,92H658.4
		v63.8h153.1L712.7,925h80.5L925,800.4L793.7,676.7 M575.8,676.7h-80.2L364,800.4L495.8,925h80.7l-98.7-92.6h152.8v-63.8H477.8
		L575.8,676.7"/>
</g>
</svg>
