<?xml version="1.0" encoding="iso-8859-1"?>
<!-- Generator: Adobe Illustrator 18.1.0, SVG Export Plug-In . SVG Version: 6.00 Build 0)  -->
<!DOCTYPE svg PUBLIC "-//W3C//DTD SVG 1.1//EN" "http://www.w3.org/Graphics/SVG/1.1/DTD/svg11.dtd">
<svg version="1.1" id="Layer_1" xmlns="http://www.w3.org/2000/svg" xmlns:xlink="http://www.w3.org/1999/xlink" x="0px" y="0px"
	 width="1000px" height="1000px" viewBox="0 0 1000 1000" style="enable-background:new 0 0 1000 1000;" xml:space="preserve">
<style type="text/css">
	.st0{fill-rule:evenodd;clip-rule:evenodd;}
	.st1{fill:none;}
</style>
<path d="M605,577.9C605,636,557.9,683,499.8,683c-58.1,0-105.1-47.1-105.1-105.1c0-58.1,47-105.2,105.1-105.2
	C557.9,472.7,605,519.8,605,577.9 M924.8,373.7v360.7c0,57.3-46.6,104-104,104h-642c-57.3,0-104-46.7-104-104V373.7
	c0-57.3,46.6-104,104-104h150.5l17-50.2c10.9-32.4,46.3-57.9,80.6-57.9h145.8c34.3,0,69.7,25.5,80.6,58l17,50.2h150.5
	C878.2,269.7,924.8,316.4,924.8,373.7 M251.4,399c0-19.9-16.2-36.2-36.3-36.2c-20.1,0-36.3,16.3-36.3,36.2c0,20,16.2,36.3,36.3,36.3
	C235.2,435.3,251.4,419,251.4,399 M663.9,577.9c0-90.5-73.6-164.1-164.1-164.1s-164.1,73.6-164.1,164.1
	c0,90.5,73.6,164.1,164.1,164.1S663.9,668.4,663.9,577.9"/>
</svg>
