<?xml version="1.0" encoding="iso-8859-1"?>
<!-- Generator: Adobe Illustrator 18.1.0, SVG Export Plug-In . SVG Version: 6.00 Build 0)  -->
<!DOCTYPE svg PUBLIC "-//W3C//DTD SVG 1.1//EN" "http://www.w3.org/Graphics/SVG/1.1/DTD/svg11.dtd">
<svg version="1.1" xmlns="http://www.w3.org/2000/svg" xmlns:xlink="http://www.w3.org/1999/xlink" x="0px" y="0px" width="1000px"
	 height="1000px" viewBox="0 0 1000 1000" style="enable-background:new 0 0 1000 1000;" xml:space="preserve">
<style type="text/css">
	.st0{display:none;}
	.st1{display:inline;}
	.st2{fill:#FFFFFF;}
	.st3{fill:#FFFFFF;stroke:#000000;stroke-width:1.45;stroke-linejoin:bevel;}
	.st4{display:inline;fill:none;stroke:#C1272D;stroke-miterlimit:10;}
	.st5{display:inline;fill:#ED1C24;}
	.st6{display:inline;fill:#FFFFFF;}
	.st7{display:inline;fill:none;stroke:#ED1C24;stroke-miterlimit:10;}
	.st8{fill:#ED1C24;}
	.st9{fill-rule:evenodd;clip-rule:evenodd;}
	.st10{fill:#231F20;}
</style>
<g id="Layer_2" class="st0">
</g>
<g id="Layer_1">
	<path d="M883.3,411.1c-1.3-3.2-101.9-227.4-101.9-227.4c-6.8-15.2-21.9-25-38.5-25H256.3c-16.9,0-32.2,10.1-38.8,25.7l-95.6,225.7
		C95.2,416.4,75,439.3,75,468v190.4c0,33.5,27.2,60.7,60.8,60.7h48.1v67.5c0,30.2,24.5,54.8,54.8,54.8c30.1,0,54.7-24.5,54.7-54.8
		v-67.5h417.3v67.5c0,30.2,24.5,54.8,54.8,54.8c30.1,0,54.7-24.5,54.7-54.8v-67.5h44.1c33.6,0,60.8-27.1,60.8-60.7V468
		C925,441.1,907.4,419.1,883.3,411.1z M284.2,242.9h431.3l63,141.7H224.3L284.2,242.9z M236.5,588.5c-32.6,0-59.1-26.4-59.1-59
		c0-32.5,26.5-59,59.1-59s59,26.4,59,59C295.5,562.1,269.1,588.5,236.5,588.5z M767.5,588.5c-32.5,0-59-26.4-59-59
		c0-32.5,26.4-59,59-59c32.6,0,59,26.4,59,59C826.5,562.1,800,588.5,767.5,588.5z"/>
</g>
</svg>
