<?xml version="1.0" encoding="iso-8859-1"?>
<!-- Generator: Adobe Illustrator 18.1.0, SVG Export Plug-In . SVG Version: 6.00 Build 0)  -->
<!DOCTYPE svg PUBLIC "-//W3C//DTD SVG 1.1//EN" "http://www.w3.org/Graphics/SVG/1.1/DTD/svg11.dtd">
<svg version="1.1" id="Layer_1" xmlns="http://www.w3.org/2000/svg" xmlns:xlink="http://www.w3.org/1999/xlink" x="0px" y="0px"
	 width="1000px" height="1000px" viewBox="0 0 1000 1000" style="enable-background:new 0 0 1000 1000;" xml:space="preserve">
<style type="text/css">
	.st0{fill-rule:evenodd;clip-rule:evenodd;}
	.st1{fill:none;}
</style>
<path d="M273.3,677c50.2,0,90.8,41.1,90.8,91.2c0,50.2-40.6,91.3-90.8,91.3c-50.7,0-91.3-41.1-91.3-91.3
	C182,718,222.6,677,273.3,677z M559.9,768.2c0,50.2,41.1,91.3,91.3,91.3c50.2,0,91.3-41.1,91.3-91.3c0-50.2-41.1-91.2-91.3-91.2
	C601,677,559.9,718,559.9,768.2z M927,140.5H795.7l-35.5,123.8H177.5c-34.5,0-62.9,27.8-62.9,62.8c0,4.6,0.5,8.6,1.5,12.7l67.5,245
	c5.5,28.9,31.4,50.2,61.4,50.2h442.7c30.5,0,55.8-21.3,61.4-50.2l103-369.7h75c20.8,0,37.5-16.7,37.5-37
	C964.6,157.2,947.8,140.5,927,140.5z"/>
</svg>
