<?xml version="1.0" encoding="iso-8859-1"?>
<!-- Generator: Adobe Illustrator 18.1.0, SVG Export Plug-In . SVG Version: 6.00 Build 0)  -->
<!DOCTYPE svg PUBLIC "-//W3C//DTD SVG 1.1//EN" "http://www.w3.org/Graphics/SVG/1.1/DTD/svg11.dtd">
<svg version="1.1" xmlns="http://www.w3.org/2000/svg" xmlns:xlink="http://www.w3.org/1999/xlink" x="0px" y="0px" width="1000px"
	 height="1000px" viewBox="0 0 1000 1000" style="enable-background:new 0 0 1000 1000;" xml:space="preserve">
<style type="text/css">
	.st0{display:none;}
	.st1{display:inline;}
	.st2{fill:#FFFFFF;}
	.st3{fill:#FFFFFF;stroke:#000000;stroke-width:1.45;stroke-linejoin:bevel;}
	.st4{display:inline;fill:none;stroke:#C1272D;stroke-miterlimit:10;}
	.st5{display:inline;fill:#ED1C24;}
	.st6{display:inline;fill:#FFFFFF;}
	.st7{display:inline;fill:none;stroke:#ED1C24;stroke-miterlimit:10;}
	.st8{fill:#ED1C24;}
	.st9{fill-rule:evenodd;clip-rule:evenodd;}
	.st10{fill:#231F20;}
</style>
<g id="Layer_2" class="st0">
</g>
<g id="Layer_1">
	<path d="M762.7,371.1c-23.2-29.1-50.4-56.4-81.3-81.5c-22.5-18.6-34.4-44-34.4-73.6c0-9.7,1.4-19.2,4.2-28.3c1-3.4,2.2-6.7,3.6-10
		c7.1-16.8-0.8-36.2-17.6-43.3c-16.8-7.1-36.2,0.7-43.3,17.5c-0.5,1.3-1.1,2.6-1.5,3.9c-7.6,19.1-11.4,39.3-11.4,60.1
		c0,49.2,20.7,93.5,58.5,124.7c50.7,41.2,89.9,89,116.1,140.8c25.3,50,38.6,103.8,38.6,159c0,15.8-2.2,33.2-5.6,50.5
		c-9.3,46.6-28.2,93.3-40.2,108.8c6.3-27,9.6-55.1,9.6-84c0-42.4-7.1-83.2-20.3-121.2c-4.5-13-9.7-25.8-15.7-38.1
		c-44.5-93.1-126.8-164.7-227-194.9c-8.9-2.7-16.3-8.9-20.5-17.1l-72-138.7c-8.2-15.1-19.4-28.2-32.8-38.7
		c-8.4-6.5-17.6-12-27.6-16.3c-14.6-34.3-42.7-61.6-77.5-75.3c-4.1-1.6-7.8,2.8-5.8,6.7c9.7,18,15.6,38.4,16.5,60.2
		c-39.3,5.7-72.5,29.9-90.8,63.5l-42.4,52.4c-1.5,2.4-2.4,5.1-2.4,8.1c0,3.6,1.3,6.9,3.4,9.5l23.8,37.8c3.7,5.8,10.1,9.4,16.9,9.4
		l43.2,0.1c4.1,0,7,4,5.8,8c-1.4,4.6-2.5,9.4-3.8,14c-4.8,16.3-7.3,38.3-7.6,64.2c-0.8,79.4,34,150.8,88.3,200.5l-28.7,228.6
		c-1.4,11.4-8.5,21.4-18.8,26.6c-8.4,4.2-17.3,9-19.9,11.5c-5.2,5.2-8.4,12.3-8.4,20.2c0,15.8,12.8,28.5,28.5,28.5h51.3
		c8.6,0,16.4-5.1,19.8-13.1l102.7-239.7c-0.3,0.9-7.4,34.4-7.4,51.3c0,58.9,28.1,111.2,71.6,144.3h-43.1c-7.9,0-15,3.2-20.2,8.4
		c-5.2,5.2-8.4,12.3-8.4,20.2c0,15.8,12.8,28.5,28.5,28.5c0,0,238.4,0,239.5,0c19.9-0.2,71.6-40.6,97.9-78.1
		c25.8-36.9,65.4-133.1,65.4-206.5C860.3,543.3,826.3,450.5,762.7,371.1z M220.3,258.1c0,0-0.1,0-0.1,0c-14.7,0-26.3-13.5-22.8-28.9
		c1.9-8.5,8.8-15.4,17.3-17.3c15.4-3.5,28.9,8.1,28.9,22.8c0,1.4-0.1,2.8-0.4,4.1C241.4,249,230.7,258,220.3,258.1z"/>
</g>
</svg>
