<?xml version="1.0" encoding="utf-8"?>
<!-- Generator: Adobe Illustrator 18.1.1, SVG Export Plug-In . SVG Version: 6.00 Build 0)  -->
<!DOCTYPE svg PUBLIC "-//W3C//DTD SVG 1.1//EN" "http://www.w3.org/Graphics/SVG/1.1/DTD/svg11.dtd">
<svg version="1.1" xmlns="http://www.w3.org/2000/svg" xmlns:xlink="http://www.w3.org/1999/xlink" x="0px" y="0px" width="1000px"
	 height="1000px" viewBox="0 0 1000 1000" style="enable-background:new 0 0 1000 1000;" xml:space="preserve">
<style type="text/css">
	.st0{fill:#101010;}
	.st1{fill:#FFFFFF;}
	.st2{fill:none;stroke:#000000;stroke-miterlimit:10;}
</style>
<g id="Layer_2">
</g>
<g id="Layer_1">
	<path d="M305.5,863.7H96.1c1.6-19.3,3.4-38.4,5.3-57.3c2-18.9,5.2-37.6,9.6-56.2c3.7-15.9,11.3-28.8,22.6-38.6
		c11.3-9.9,25.3-15.6,41.8-17.3h1.9c3.6,0,6.6,0.7,9.2,2c2.6,1.3,5.3,3.2,8.1,5.5c6.4,5.5,13.3,10.3,20.6,14.3
		c7.3,4,15.3,6.8,24.1,8.4c4.1,0.7,8.2,1.1,12.3,1.1c9.8,0,19.1-1.8,27.8-5.3c8.7-3.6,16.7-8.6,24.1-15c4.1-3.6,8.1-6.1,11.9-7.6
		c3.8-1.5,7.8-2.3,11.9-2.3c2.8,0,5.7,0.4,8.5,1.2c2.9,0.8,5.9,1.7,9.1,2.8c13.2,4.5,23.5,11.1,31.3,19.7c-9,4.2-17.3,9.6-24.9,16.2
		c-17.2,15-28.7,34.6-34.2,58c-5.2,21.6-9,43.7-11.2,65.7C305.8,860.5,305.6,862.1,305.5,863.7z M258.8,517.1
		c-42.6,0-77.1,40.2-77.1,89.7s34.5,89.7,77.1,89.7s77.1-40.2,77.1-89.7S301.4,517.1,258.8,517.1z M662.6,748.7
		c12.2,14.5,20.1,32.7,23.8,54.3c3.6,19.8,6.5,40.2,8.8,60.2c0,0.2,0,0.4,0.1,0.5h208.7c-1.6-19.3-3.4-38.4-5.3-57.3
		c-2-18.9-5.2-37.6-9.6-56.2c-3.7-15.9-11.3-28.8-22.6-38.6c-11.3-9.9-25.3-15.6-41.8-17.3h-1.9c-3.6,0-6.6,0.7-9.2,2
		c-2.6,1.3-5.3,3.2-8.1,5.5c-6.4,5.5-13.3,10.3-20.6,14.3c-7.3,4-15.3,6.8-24.1,8.4c-4.1,0.7-8.2,1.1-12.3,1.1
		c-9.8,0-19.1-1.8-27.8-5.3c-8.7-3.6-16.7-8.6-24-15c-4.1-3.6-8.1-6.1-11.9-7.6c-3.8-1.5-7.8-2.3-11.9-2.3c-2.8,0-5.7,0.4-8.5,1.2
		c-2.9,0.8-5.9,1.7-9.1,2.8c-13.6,4.7-24.3,11.5-32.2,20.6C639.1,727,652.4,736.6,662.6,748.7z M741,517.1
		c-42.6,0-77.1,40.2-77.1,89.7s34.5,89.7,77.1,89.7c42.6,0,77.1-40.2,77.1-89.7S783.6,517.1,741,517.1z M671.2,925
		c-1.8-19.6-3.7-39.1-5.9-58.5c-2.2-19.4-5-38.9-8.5-58.5c-2.7-16.3-8.5-29.6-17.2-40c-8.7-10.4-20.8-18.2-36.3-23.5
		c-3.5-1.2-6.9-2.2-10-3.1c-3.1-0.9-6.3-1.3-9.4-1.3c-4.5,0-8.9,0.8-13.1,2.5c-4.2,1.7-8.6,4.5-13.1,8.4c-8,7-16.8,12.5-26.4,16.5
		c-9.6,3.9-19.8,5.9-30.6,5.9c-4.5,0-9-0.4-13.5-1.2c-9.6-1.8-18.4-4.8-26.5-9.3c-8-4.4-15.6-9.6-22.6-15.7c-3.1-2.5-6.1-4.6-9-6
		c-2.8-1.5-6.2-2.2-10.1-2.2h-2.1c-18.2,1.8-33.5,8.1-46,19c-12.4,10.9-20.7,25-24.8,42.5c-4.9,20.4-8.4,41-10.6,61.8
		c-2.2,20.8-4.1,41.8-5.9,62.9H671.2z M498.2,538.2c-46.1,0-83.5,43.5-83.5,97.2s37.4,97.2,83.5,97.2s83.5-43.5,83.5-97.2
		S544.3,538.2,498.2,538.2z M331,252.7c-3.7-3.9-3.4-10.1,0.5-13.8l39.7-36.8c1.8-1.7,4.2-2.6,6.6-2.6c2.8,0,5.3,1.1,7.2,3.1
		l108.9,117.3L681.4,78.7c1.8-2.3,4.7-3.7,7.7-3.7c2.2,0,4.3,0.7,6,2.1l42.8,33.2c2,1.6,3.3,3.9,3.7,6.5c0.3,2.6-0.4,5.1-2,7.1
		L498.8,433.6L331,252.7z"/>
</g>
</svg>
