<?xml version="1.0" encoding="iso-8859-1"?>
<!-- Generator: Adobe Illustrator 18.1.1, SVG Export Plug-In . SVG Version: 6.00 Build 0)  -->
<!DOCTYPE svg PUBLIC "-//W3C//DTD SVG 1.1//EN" "http://www.w3.org/Graphics/SVG/1.1/DTD/svg11.dtd">
<svg version="1.1" id="Layer_1" xmlns="http://www.w3.org/2000/svg" xmlns:xlink="http://www.w3.org/1999/xlink" x="0px" y="0px"
	 width="1000px" height="1000px" viewBox="0 0 1000 1000" style="enable-background:new 0 0 1000 1000;" xml:space="preserve">
<style type="text/css">
	.st0{fill-rule:evenodd;clip-rule:evenodd;}
</style>
<path d="M80.7,496.7c-7.5-8.1-7-20.8,1.1-28.4l81.7-75.8c3.8-3.5,8.5-5.3,13.6-5.3c5.7,0,10.9,2.3,14.7,6.3l224.1,241.3l385.6-496.1
	c3.8-4.8,9.6-7.7,15.8-7.7c4.5,0,8.8,1.5,12.3,4.3l88,68.3c4.1,3.3,6.9,8.1,7.6,13.5c0.6,5.3-0.8,10.5-4.1,14.7L425.9,868.8
	L80.7,496.7z"/>
</svg>
