<?xml version="1.0" encoding="utf-8"?>
<!-- Generator: Adobe Illustrator 18.1.1, SVG Export Plug-In . SVG Version: 6.00 Build 0)  -->
<!DOCTYPE svg PUBLIC "-//W3C//DTD SVG 1.1//EN" "http://www.w3.org/Graphics/SVG/1.1/DTD/svg11.dtd">
<svg version="1.1" xmlns="http://www.w3.org/2000/svg" xmlns:xlink="http://www.w3.org/1999/xlink" x="0px" y="0px" width="1000px"
	 height="1000px" viewBox="0 0 1000 1000" style="enable-background:new 0 0 1000 1000;" xml:space="preserve">
<style type="text/css">
	.st0{fill:#101010;}
	.st1{fill:#FFFFFF;}
	.st2{fill:none;stroke:#000000;stroke-miterlimit:10;}
</style>
<g id="Layer_2">
</g>
<g id="Layer_1">
	<path d="M500,75C265.6,75,75,265.7,75,500c0,234.4,190.6,425,425,425c234.4,0,425-190.6,425-425C925,265.7,734.4,75,500,75z
		 M500,878.4c-208.6,0-378.4-169.8-378.4-378.4c0-208.6,169.8-378.4,378.4-378.4c208.6,0,378.4,169.8,378.4,378.4
		C878.4,708.6,708.6,878.4,500,878.4z M635.4,437.8c-0.6-4.9-1.2-8.3-1.3-9.1l-4.3-24.8H304l-4.3,24.8
		c-1.3,7.7-31.7,191.2,79.3,311.8l8.9,9.7h158l8.9-9.7c17.1-18.6,30.6-38.8,41.6-59.6c1.6,0.1,3.2,0.4,4.8,0.4
		c24.9,0,49.1-7.5,70-21.8c27.3-18.8,45.7-47.1,51.8-79.7C734.7,516.5,696,455.3,635.4,437.8z M688.6,573.4
		c-4.3,23.4-17.5,43.8-37.2,57.2c-11.7,8-24.9,12.7-38.5,14.5c24.1-62.9,27.2-126.6,25.6-168.6C674.4,493.3,696.2,532.6,688.6,573.4
		z M485.9,292.6c12.4-12.4,18.2-24.5,17.3-36c-1.3-16.3-15.9-27.3-16-27.4c-4.5-3.2-5.7-9.3-2.9-14c2.8-4.7,8.7-6.6,13.7-4.2
		c1.6,0.8,40.4,19.3,45.9,50.5c2.8,15.9-3.3,31.5-18.1,46.3c-12.4,12.4-18.2,24.4-17.3,35.9c1.2,16.4,15.9,27.5,16.1,27.6
		c4.4,3.3,5.6,9.3,2.8,14c-2,3.3-5.5,5.2-9.2,5.2c-1.5,0-3-0.3-4.5-1c-1.6-0.8-40.5-19.3-45.9-50.5
		C465,322.9,471.1,307.3,485.9,292.6z M414.6,326.9c6.1-6.1,8.9-11.7,8.5-16.9c-0.6-7-7.1-12.1-7.2-12.2c-4.5-3.2-5.7-9.3-2.9-14
		c2.8-4.7,8.7-6.6,13.7-4.2c2.6,1.2,25.2,12.4,28.7,32c1.3,7.3,0.3,18.5-11.6,30.4c-6.1,6-8.9,11.7-8.5,16.9
		c0.6,7,7.1,12.2,7.2,12.2c4.5,3.2,5.7,9.3,2.9,14c-2,3.4-5.5,5.2-9.2,5.2c-1.5,0-3.1-0.3-4.5-1c-2.6-1.2-25.2-12.4-28.6-32.1
		C401.7,350,402.7,338.8,414.6,326.9z"/>
</g>
</svg>
