<?xml version="1.0" encoding="utf-8"?>
<!-- Generator: Adobe Illustrator 18.1.1, SVG Export Plug-In . SVG Version: 6.00 Build 0)  -->
<!DOCTYPE svg PUBLIC "-//W3C//DTD SVG 1.1//EN" "http://www.w3.org/Graphics/SVG/1.1/DTD/svg11.dtd">
<svg version="1.1" xmlns="http://www.w3.org/2000/svg" xmlns:xlink="http://www.w3.org/1999/xlink" x="0px" y="0px" width="1000px"
	 height="1000px" viewBox="0 0 1000 1000" style="enable-background:new 0 0 1000 1000;" xml:space="preserve">
<style type="text/css">
	.st0{fill:#101010;}
	.st1{fill:#FFFFFF;}
	.st2{fill:none;stroke:#000000;stroke-miterlimit:10;}
</style>
<g id="Layer_2">
</g>
<g id="Layer_1">
	<path d="M500,75C265.6,75,75,265.7,75,500c0,234.4,190.6,425,425,425c234.4,0,425-190.6,425-425C925,265.7,734.4,75,500,75z
		 M500,878.4c-208.6,0-378.4-169.8-378.4-378.4c0-208.6,169.8-378.4,378.4-378.4c208.6,0,378.4,169.8,378.4,378.4
		C878.4,708.6,708.6,878.4,500,878.4z M720,606.6l-33.4-82.4l0,0c1.3-5.4,1.9-11,1.9-16.8c0-27.9-15.2-52.4-37.9-65.4l0,0l55-25.9
		l0,0c19.6-10.7,32.5-32.1,30.8-56.4c-2-28.9-25.5-52.6-54.4-54.9c-14.1-1.1-27.2,2.7-37.9,9.8c-3.4,2.3-1.3,7.6,2.7,7.2
		c1.4-0.1,2.7-0.2,3.8-0.2c28.8,0,52.2,18.7,52.2,41.7c0,12.8-7.2,24.2-18.4,31.8l-53.5,36.7l0,0H438.8l0,0l-59-79.2
		c-5.5-7.6-12.6-14-20.9-18.5l0,0c0,0-7.5-28.3-14.1-38.5c-3.5-5.4-7.2-4.7-10.4-0.8c-8,9.7-17.5,32.4-17.5,32.4l0,0
		c-21.5,3.9-39.1,18.6-47.2,38.3l0,0l-52.2,22.6c-2,0.9-3.2,3-2.8,5.2c2.3,12.8,13.5,22.6,27,22.6c1.9,0,3.7-0.2,5.5-0.6l60.6-15.6
		l0,0l-34.7,32.2c-2.9,2.7-0.5,7.5,3.4,6.8l31.3-5.7c6.5-1.2,12.8,3.3,13.7,9.9l13.6,93.6c0,0,1.9,13.1,4.9,18.2l0,0L286.4,667
		c-1.7,3.5,0.9,7.6,4.8,7.6h11c4,0,7.8-1.9,10.2-5.2l55.8-75.9l0,0c2.7,2.8,11.9,8.3,15.2,9.5l0,0l-45.6,97.6
		c-1.6,3.5,0.9,7.6,4.8,7.6h12.5c3.9,0,7.5-1.8,9.9-4.8l71.9-90.3v0c23-21.2,112.1-41.6,143.7-41.6c32.8,0,63.9,28.3,64,28.3l0,0
		c8.1,9.1,13,21.1,13,34.2c0,12.2-4.2,23.4-11.3,32.2c-2.8,3.5-0.4,8.7,4.1,8.7h17c5.9,0,11-4,12.4-9.7c1.5-6,2.2-12.3,2.2-18.8
		c0-12.4-2.9-24.2-8-34.7l0,0c26.6,13.9,43.2,33.6,43.2,55.4c0,9.6-3.2,18.7-9,27.2c-2.4,3.5,0.2,8.2,4.5,8.2h11.6
		c4.9,0,9.4-2.7,11.4-7.2c4.6-10,7.1-21.2,7.1-32.9C742.8,640.5,734.1,620.9,720,606.6L720,606.6z M272.5,364.3
		c-7.8,1.5-14.5-5.2-13-13c0.8-4.3,4.4-7.9,8.7-8.7c7.8-1.4,14.5,5.3,13,13C280.4,360,276.8,363.5,272.5,364.3z"/>
</g>
</svg>
