<?xml version="1.0" encoding="utf-8"?>
<!-- Generator: Adobe Illustrator 18.1.1, SVG Export Plug-In . SVG Version: 6.00 Build 0)  -->
<!DOCTYPE svg PUBLIC "-//W3C//DTD SVG 1.1//EN" "http://www.w3.org/Graphics/SVG/1.1/DTD/svg11.dtd">
<svg version="1.1" xmlns="http://www.w3.org/2000/svg" xmlns:xlink="http://www.w3.org/1999/xlink" x="0px" y="0px" width="1000px"
	 height="1000px" viewBox="0 0 1000 1000" style="enable-background:new 0 0 1000 1000;" xml:space="preserve">
<style type="text/css">
	.st0{fill:#101010;}
	.st1{fill:#FFFFFF;}
	.st2{fill:none;stroke:#000000;stroke-miterlimit:10;}
</style>
<g id="Layer_2">
</g>
<g id="Layer_1">
	<path d="M500,75C265.6,75,75,265.7,75,500c0,234.4,190.6,425,425,425c234.4,0,425-190.6,425-425C925,265.7,734.4,75,500,75z
		 M500,878.4c-208.6,0-378.4-169.8-378.4-378.4c0-208.6,169.8-378.4,378.4-378.4c208.6,0,378.4,169.8,378.4,378.4
		C878.4,708.6,708.6,878.4,500,878.4z M743.1,383.2c0-69.8-56.6-126.4-126.4-126.4c-34.9,0-66.5,14.2-89.4,37.1L293.9,527.4
		c-49.3,49.3-49.3,129.3,0,178.7c49.3,49.3,129.3,49.3,178.6,0L705,473.6l1-1l0,0C728.9,449.8,743.1,418.1,743.1,383.2z
		 M450.5,684.1c-37.1,37.1-97.5,37.1-134.7,0c-37.1-37.1-37.1-97.6,0-134.7l117.2-117.2l134.7,134.7L450.5,684.1z"/>
</g>
</svg>
