<?xml version="1.0" encoding="utf-8"?>
<!-- Generator: Adobe Illustrator 18.1.1, SVG Export Plug-In . SVG Version: 6.00 Build 0)  -->
<!DOCTYPE svg PUBLIC "-//W3C//DTD SVG 1.1//EN" "http://www.w3.org/Graphics/SVG/1.1/DTD/svg11.dtd">
<svg version="1.1" xmlns="http://www.w3.org/2000/svg" xmlns:xlink="http://www.w3.org/1999/xlink" x="0px" y="0px" width="1000px"
	 height="1000px" viewBox="0 0 1000 1000" style="enable-background:new 0 0 1000 1000;" xml:space="preserve">
<style type="text/css">
	.st0{fill:#101010;}
	.st1{fill:#FFFFFF;}
	.st2{fill:none;stroke:#000000;stroke-miterlimit:10;}
</style>
<g id="Layer_2">
</g>
<g id="Layer_1">
	<path d="M500,75C265.6,75,75,265.7,75,500c0,234.4,190.6,425,425,425c234.4,0,425-190.6,425-425C925,265.7,734.4,75,500,75z
		 M500,878.4c-208.6,0-378.4-169.8-378.4-378.4c0-208.6,169.8-378.4,378.4-378.4c208.6,0,378.4,169.8,378.4,378.4
		C878.4,708.6,708.6,878.4,500,878.4z M739.4,404c0-20.3-16.4-36.7-36.7-36.7c-20.3,0-36.8,16.4-36.8,36.7
		c0,18.9,14.3,34.5,32.7,36.5c-4.5,17.6-12.1,34.3-22.2,49.2c-12.5-8.9-27.8-14-44.2-14c-35.7,0-65.7,24.3-74.3,57.3h-43
		c-14.9-31.3-45.7-53.7-81.9-56.9v-21.9c18.8-8,33.5-23.9,39.9-43.6c3.7,4.2,8,8.4,12.9,12.2c23.3,18.4,49.9,23.4,59.5,11.2
		c9.6-12.1-1.5-36.9-24.7-55.3c-6.1-4.8-12.5-8.8-18.7-11.7c10.2-12.1,16.1-26.4,16.1-41.6c0-43.4-47.3-78.6-105.6-78.6
		c-58.3,0-105.6,35.2-105.6,78.6c0,20.5,10.6,39.2,27.9,53.2c-0.5,3.3-0.7,6.6-0.7,10h-61.8c-10.4,0-15.4,12.8-7.7,19.8
		c15,13.5,42.2,28.9,88.4,28.5c12.1,13.2,29.1,21.7,48.1,22.8v18.7c-44.3,10.4-77.3,50.2-77.3,97.8c0,37,20,69.3,49.8,86.7
		c-11.8,18.4-27.6,34.3-46.4,46.3c-6,3.8-7.8,11.8-4,17.8c2.5,3.9,6.7,6,10.9,6c2.4,0,4.8-0.6,6.9-2c23.3-14.8,42.6-34.7,56.6-57.9
		c8.5,2.3,17.4,3.6,26.6,3.6c48.6,0,89.1-34.5,98.5-80.3H569c12.9,18.6,33.9,31.3,57.9,32.9c11.7,41.7,38.7,78.4,75.7,101.8
		c2.1,1.4,4.5,2,6.9,2c4.3,0,8.5-2.1,10.9-6c3.8-6,2-14-4-17.8c-30.3-19.3-52.8-48.9-63.4-82.7c32.3-9.1,55.9-38.7,55.9-73.9
		c0-21.3-8.7-40.6-22.6-54.5c12.2-17.7,21-37.6,25.8-58.6C727.8,435.4,739.4,421.1,739.4,404z M396,375.1c0,11.5-9.3,20.8-20.8,20.8
		c-11.5,0-20.8-9.3-20.8-20.8c0-11.5,9.3-20.8,20.8-20.8C386.7,354.3,396,363.6,396,375.1z"/>
</g>
</svg>
