<?xml version="1.0" encoding="utf-8"?>
<!-- Generator: Adobe Illustrator 18.1.1, SVG Export Plug-In . SVG Version: 6.00 Build 0)  -->
<!DOCTYPE svg PUBLIC "-//W3C//DTD SVG 1.1//EN" "http://www.w3.org/Graphics/SVG/1.1/DTD/svg11.dtd">
<svg version="1.1" xmlns="http://www.w3.org/2000/svg" xmlns:xlink="http://www.w3.org/1999/xlink" x="0px" y="0px" width="1000px"
	 height="1000px" viewBox="0 0 1000 1000" style="enable-background:new 0 0 1000 1000;" xml:space="preserve">
<style type="text/css">
	.st0{fill:#101010;}
	.st1{fill:#FFFFFF;}
	.st2{fill:none;stroke:#000000;stroke-miterlimit:10;}
</style>
<g id="Layer_2">
</g>
<g id="Layer_1">
	<path d="M500,75C265.6,75,75,265.7,75,500c0,234.4,190.6,425,425,425c234.4,0,425-190.6,425-425C925,265.7,734.4,75,500,75z
		 M500,878.4c-208.6,0-378.4-169.8-378.4-378.4c0-208.6,169.8-378.4,378.4-378.4c208.6,0,378.4,169.8,378.4,378.4
		C878.4,708.6,708.6,878.4,500,878.4z M458.6,528H345.9l-34.2,39.7h-44.8l28.5-68.3l-28.5-68.3h44.8l34,39.4h112.5l-56.9-193.6H446
		l122.6,193.6h155.8c15.9,0,28.8,12.9,28.8,28.8c0,15.9-12.9,28.8-28.8,28.8H569.6L446,723.1h-44.7L458.6,528z"/>
</g>
</svg>
