<?xml version="1.0" encoding="utf-8"?>
<!-- Generator: Adobe Illustrator 18.1.1, SVG Export Plug-In . SVG Version: 6.00 Build 0)  -->
<!DOCTYPE svg PUBLIC "-//W3C//DTD SVG 1.1//EN" "http://www.w3.org/Graphics/SVG/1.1/DTD/svg11.dtd">
<svg version="1.1" xmlns="http://www.w3.org/2000/svg" xmlns:xlink="http://www.w3.org/1999/xlink" x="0px" y="0px" width="1000px"
	 height="1000px" viewBox="0 0 1000 1000" style="enable-background:new 0 0 1000 1000;" xml:space="preserve">
<style type="text/css">
	.st0{fill:#101010;}
	.st1{fill:#FFFFFF;}
	.st2{fill:none;stroke:#000000;stroke-miterlimit:10;}
</style>
<g id="Layer_2">
</g>
<g id="Layer_1">
	<path d="M500,75C265.6,75,75,265.7,75,500c0,234.4,190.6,425,425,425c234.4,0,425-190.6,425-425C925,265.7,734.4,75,500,75z
		 M500,878.4c-208.6,0-378.4-169.8-378.4-378.4c0-208.6,169.8-378.4,378.4-378.4c208.6,0,378.4,169.8,378.4,378.4
		C878.4,708.6,708.6,878.4,500,878.4z M650.3,416.2c-13.3-16.6-28.8-32.3-46.5-46.6c-12.9-10.6-19.7-25.2-19.7-42.1
		c0-5.6,0.8-11,2.4-16.2c0.6-1.9,1.2-3.8,2-5.7c4-9.6-0.5-20.7-10.1-24.8c-9.6-4.1-20.7,0.4-24.8,10c-0.3,0.8-0.6,1.5-0.9,2.2
		c-4.3,10.9-6.5,22.5-6.5,34.4c0,28.2,11.9,53.5,33.5,71.3c29,23.6,51.4,50.9,66.4,80.5c14.5,28.6,22.1,59.4,22.1,90.9
		c0,9-1.2,19-3.2,28.9c-5.3,26.7-16.1,53.4-23,62.2c3.6-15.4,5.5-31.5,5.5-48.1c0-24.3-4.1-47.6-11.6-69.3c-2.6-7.4-5.6-14.7-9-21.8
		c-25.4-53.3-72.5-94.2-129.9-111.5c-5.1-1.5-9.3-5.1-11.7-9.8l-41.2-79.3c-4.7-8.6-11.1-16.1-18.8-22.1c-4.8-3.7-10.1-6.9-15.8-9.3
		c-8.4-19.6-24.4-35.2-44.3-43.1c-2.3-0.9-4.5,1.6-3.3,3.8c5.6,10.3,8.9,22,9.5,34.4c-22.5,3.3-41.5,17.1-51.9,36.3l-24.2,30
		c-0.9,1.4-1.4,2.9-1.4,4.6c0,2,0.7,4,1.9,5.4l13.6,21.6c2.1,3.3,5.8,5.3,9.7,5.3l24.7,0.1c2.4,0,4,2.3,3.3,4.6
		c-0.8,2.6-1.4,5.4-2.2,8c-2.7,9.3-4.2,21.9-4.3,36.7c-0.5,45.4,19.5,86.3,50.5,114.7l-16.4,130.8c-0.8,6.5-4.8,12.3-10.7,15.2
		c-4.8,2.4-9.9,5.1-11.4,6.6c-3,2.9-4.8,7-4.8,11.5c0,9,7.3,16.3,16.3,16.3h29.3c4.9,0,9.4-2.9,11.3-7.5l58.8-137.1
		c-0.2,0.5-4.2,19.7-4.2,29.4c0,33.7,16.1,63.6,41,82.5h-24.6c-4.5,0-8.6,1.9-11.5,4.8c-2.9,2.9-4.8,7-4.8,11.5
		c0,9,7.3,16.3,16.3,16.3c0,0,136.4,0,137,0c11.4-0.1,41-23.2,56-44.7c14.7-21.1,37.4-76.2,37.4-118.1
		C706.1,514.8,686.6,461.7,650.3,416.2z M340,351.6C340,351.6,340,351.6,340,351.6c-8.5,0-15.1-7.7-13.1-16.5c1.1-4.9,5-8.8,9.9-9.9
		c8.8-2,16.5,4.6,16.5,13.1c0,0.8-0.1,1.6-0.2,2.4C352.1,346.4,346,351.6,340,351.6z"/>
</g>
</svg>
