<?xml version="1.0" encoding="utf-8"?>
<!-- Generator: Adobe Illustrator 18.1.1, SVG Export Plug-In . SVG Version: 6.00 Build 0)  -->
<!DOCTYPE svg PUBLIC "-//W3C//DTD SVG 1.1//EN" "http://www.w3.org/Graphics/SVG/1.1/DTD/svg11.dtd">
<svg version="1.1" xmlns="http://www.w3.org/2000/svg" xmlns:xlink="http://www.w3.org/1999/xlink" x="0px" y="0px" width="1000px"
	 height="1000px" viewBox="0 0 1000 1000" style="enable-background:new 0 0 1000 1000;" xml:space="preserve">
<style type="text/css">
	.st0{fill:#101010;}
	.st1{fill:#FFFFFF;}
	.st2{fill:none;stroke:#000000;stroke-miterlimit:10;}
</style>
<g id="Layer_2">
</g>
<g id="Layer_1">
	<path d="M500,75C265.6,75,75,265.7,75,500c0,234.4,190.6,425,425,425c234.4,0,425-190.6,425-425C925,265.7,734.4,75,500,75z
		 M500,878.4c-208.6,0-378.4-169.8-378.4-378.4c0-208.6,169.8-378.4,378.4-378.4c208.6,0,378.4,169.8,378.4,378.4
		C878.4,708.6,708.6,878.4,500,878.4z M605.1,605.3l7,17.6l-10.3-1.5l-28.5,142.4l-17.5,0l-92.3-186.9l-7.9,4.3l0.5-18.3
		C366.4,541.3,320.8,504.6,298,477c-0.1-0.1-0.1-0.2-0.2-0.2c-17-20.7-21.2-36.2-21.2-36.2l0.5-0.2c-20.7-55.8,1.6-119.7,55.3-149.1
		c59-32.3,133.1-10.6,165.3,48.4c0,0,0.1,0.2,0.3,0.5c-11.6,14.7-20.3,31.5-25.4,49.5l-0.2,0l-4,16.6c-0.5,2-4.6,20.6,1,50.2
		c0,0.2,0.1,0.3,0.1,0.5c3.1,16.3,9.3,36.3,21,58.9c-5.1,12.5-11.1,25.7-18.3,39.6l14.4,8.8l-8.2,4.5l82.5,169.4l23.9-119.3
		l-7.5-1.1l10.2-13c-68.9-62.2-91.4-116.4-98.2-151.6c0-0.1,0-0.2-0.1-0.3c-5-26.3-1.2-41.9-1.2-41.9l0.6,0
		c8.6-58.9,58.8-104.3,120.1-104.3c67.3,0,121.8,54.5,121.8,121.8C730.4,428.5,739.1,515.2,605.1,605.3z"/>
</g>
</svg>
