<?xml version="1.0" encoding="utf-8"?>
<!-- Generator: Adobe Illustrator 18.1.1, SVG Export Plug-In . SVG Version: 6.00 Build 0)  -->
<!DOCTYPE svg PUBLIC "-//W3C//DTD SVG 1.1//EN" "http://www.w3.org/Graphics/SVG/1.1/DTD/svg11.dtd">
<svg version="1.1" xmlns="http://www.w3.org/2000/svg" xmlns:xlink="http://www.w3.org/1999/xlink" x="0px" y="0px" width="1000px"
	 height="1000px" viewBox="0 0 1000 1000" style="enable-background:new 0 0 1000 1000;" xml:space="preserve">
<style type="text/css">
	.st0{fill:#101010;}
	.st1{fill:#FFFFFF;}
	.st2{fill:none;stroke:#000000;stroke-miterlimit:10;}
</style>
<g id="Layer_2">
</g>
<g id="Layer_1">
	<path d="M500,75C265.6,75,75,265.7,75,500c0,234.4,190.6,425,425,425c234.4,0,425-190.6,425-425C925,265.7,734.4,75,500,75z
		 M500,878.4c-208.6,0-378.4-169.8-378.4-378.4c0-208.6,169.8-378.4,378.4-378.4c208.6,0,378.4,169.8,378.4,378.4
		C878.4,708.6,708.6,878.4,500,878.4z M490.5,435.4l57.6,79.1l-57.4,79.2l-93.1-30.1l-0.1-97.8L490.5,435.4z M538.7,740
		c-12.9,2.1-26.1,3.2-39,3.2c-119.8,0-220.6-85.9-239.7-204.4C238.6,406.4,328.9,281.4,461.2,260c12.9-2.1,26-3.1,39-3.1
		c119.8,0,220.6,85.9,239.7,204.4C761.4,593.6,671.1,718.6,538.7,740z M698,548.1l-36.2,20.2L612,503.2l40.7-79.8l39.3,8.1
		c-17.4-49.4-52.9-89.2-98.1-112.5l7.6,34.3l-93,20.5l-51.5-51.6l19.9-24.6c-3.2,0.4-6.3,0.6-9.5,1.1c-37.7,6.1-71.3,22.4-98.5,45.5
		l-13.5,91.1l-57.3,36c-2.8,19.8-2.7,40.4,0.6,61.1c1.5,9.5,3.9,18.6,6.6,27.5l56.5,23.2l29.7,89.5c22,13.8,46.8,23.5,73.3,28
		l45.4-55.3l92.2-14.9l8.2,40.3C654.3,642.6,685.7,598.6,698,548.1z"/>
</g>
</svg>
