<?xml version="1.0" encoding="utf-8"?>
<!-- Generator: Adobe Illustrator 18.1.1, SVG Export Plug-In . SVG Version: 6.00 Build 0)  -->
<!DOCTYPE svg PUBLIC "-//W3C//DTD SVG 1.1//EN" "http://www.w3.org/Graphics/SVG/1.1/DTD/svg11.dtd">
<svg version="1.1" xmlns="http://www.w3.org/2000/svg" xmlns:xlink="http://www.w3.org/1999/xlink" x="0px" y="0px" width="1050px"
	 height="1000px" viewBox="0 0 1050 1000" style="enable-background:new 0 0 1050 1000;" xml:space="preserve">
<style type="text/css">
	.st0{fill:#101010;}
	.st1{fill:#FFFFFF;}
	.st2{fill:none;stroke:#000000;stroke-miterlimit:10;}
	.st3{fill:#231F20;}
</style>
<g id="Layer_2">
</g>
<g id="Layer_1">
	<path d="M588.7,75.3v849.4L77.5,836.4V166.3L588.7,75.3z M442.8,327.4l-60.3,3.6c0,0-0.3,223.4,0,225.4L263,338.1l-61.3,2.4v309.6
		l48.2,2.5c0,0,0.1-224.3-0.1-227.2l128.7,234.4l64.3,3.8V327.4z M948.2,228.3H907v-26.6c0-16.2-13.3-29.5-29.5-29.5H635.9v430.1
		h215v37.4h-215v46.8h215v37.4h-215v102.9h246.2c13.8,0,24.9-11.2,24.9-24.9V396.6h45c11.3,0,20.4-9.2,20.4-20.4V252.7
		C972.5,239.3,961.5,228.3,948.2,228.3z M842.3,361.4l4.8,35.2l-35.5,6.1l-7.4,12.3v113.6l-42.1-42.4L720,528.7V415.1l-5.7-12.3
		l-34.1-6.1l5-35.2l-24.7-25.6l24.7-25.6l-5-35.2l35-6.1l16.7-31.4l31.9,15.6l31.9-15.6l16.7,31.4l35,6.1l-5,35.2l24.7,25.6
		L842.3,361.4z M808.5,335.9c0,24.7-20,44.7-44.7,44.7s-44.7-20-44.7-44.7s20-44.7,44.7-44.7S808.5,311.2,808.5,335.9z M972.5,432.1
		v135c0,10-9.2,19.3-19.3,19.3h-31.9V412.8h31.9C963.3,412.8,972.5,422.1,972.5,432.1z M953.2,605.7h-31.9v173.6h31.9
		c10,0,19.3-9.2,19.3-19.3V625C972.5,615,963.3,605.7,953.2,605.7z"/>
</g>
</svg>
