<?xml version="1.0" encoding="iso-8859-1"?>
<!-- Generator: Adobe Illustrator 18.1.0, SVG Export Plug-In . SVG Version: 6.00 Build 0)  -->
<!DOCTYPE svg PUBLIC "-//W3C//DTD SVG 1.1//EN" "http://www.w3.org/Graphics/SVG/1.1/DTD/svg11.dtd">
<svg version="1.1" id="Layer_1" xmlns="http://www.w3.org/2000/svg" xmlns:xlink="http://www.w3.org/1999/xlink" x="0px" y="0px"
	 width="1000px" height="1000px" viewBox="0 0 1000 1000" style="enable-background:new 0 0 1000 1000;" xml:space="preserve">
<style type="text/css">
	.st0{fill-rule:evenodd;clip-rule:evenodd;}
	.st1{fill:none;}
</style>
<path d="M499.8,75c-234.4,0-425,190.7-425,425c0,234.4,190.6,425,425,425s425-190.6,425-425C924.8,265.7,734.2,75,499.8,75z
	 M499.8,852.5c-194.3,0-352.4-158.1-352.4-352.5c0-194.3,158.1-352.5,352.4-352.5c194.3,0,352.5,158.1,352.5,352.5
	C852.3,694.3,694.2,852.5,499.8,852.5z M499.8,547c-25.9,0-47-20.9-47-47v-219c0-25.8,21.1-46.9,47-46.9c26.1,0,47,21,47,46.9V453
	h137.9c25.9,0,46.9,21.1,46.9,47c0,26-21,47-46.9,47H499.8z"/>
</svg>
