<?xml version="1.0" encoding="iso-8859-1"?>
<!-- Generator: Adobe Illustrator 18.1.0, SVG Export Plug-In . SVG Version: 6.00 Build 0)  -->
<!DOCTYPE svg PUBLIC "-//W3C//DTD SVG 1.1//EN" "http://www.w3.org/Graphics/SVG/1.1/DTD/svg11.dtd">
<svg version="1.1" xmlns="http://www.w3.org/2000/svg" xmlns:xlink="http://www.w3.org/1999/xlink" x="0px" y="0px" width="1000px"
	 height="1000px" viewBox="0 0 1000 1000" style="enable-background:new 0 0 1000 1000;" xml:space="preserve">
<style type="text/css">
	.st0{display:none;}
	.st1{display:inline;}
	.st2{fill:#FFFFFF;}
	.st3{fill:#FFFFFF;stroke:#000000;stroke-width:1.45;stroke-linejoin:bevel;}
	.st4{display:inline;fill:none;stroke:#C1272D;stroke-miterlimit:10;}
	.st5{display:inline;fill:#ED1C24;}
	.st6{display:inline;fill:#FFFFFF;}
	.st7{display:inline;fill:none;stroke:#ED1C24;stroke-miterlimit:10;}
	.st8{fill:#ED1C24;}
	.st9{fill-rule:evenodd;clip-rule:evenodd;}
	.st10{fill:#231F20;}
</style>
<g id="Layer_2" class="st0">
</g>
<g id="Layer_1">
	<path d="M697.3,378.6c-1-7.7-1.8-13-2.1-14.4l-6.8-39.1H176l-6.8,39.1c-2.1,12.2-49.9,300.8,124.7,490.5l14,15.2h248.7l14-15.2
		c27-29.3,48.1-61.1,65.5-93.8c2.5,0.1,5,0.7,7.5,0.7c39.1,0,77.3-11.8,110.2-34.4c43-29.5,71.9-74.1,81.4-125.4
		C853.6,502.4,792.7,406.1,697.3,378.6z M781,591.9c-6.8,36.9-27.6,68.9-58.5,90.1c-18.4,12.6-39.1,19.9-60.6,22.8
		c37.9-99,42.8-199.3,40.3-265.3C758.7,466,792.9,527.8,781,591.9z M462,150.1c19.5-19.5,28.7-38.6,27.2-56.7
		c-2.1-25.7-25-42.9-25.2-43.1c-7-5.1-9-14.6-4.6-22.1c4.4-7.5,13.7-10.3,21.6-6.7c2.6,1.2,63.6,30.4,72.2,79.4
		c4.4,25-5.2,49.5-28.5,72.8c-19.4,19.4-28.6,38.4-27.3,56.4c1.9,25.8,25.1,43.2,25.3,43.4c6.9,5.1,8.9,14.7,4.5,22.1
		c-3.1,5.2-8.7,8.2-14.4,8.2c-2.4,0-4.8-0.5-7.1-1.6c-2.6-1.2-63.7-30.4-72.2-79.4C429.2,197.8,438.7,173.4,462,150.1z M349.8,204.1
		c9.5-9.5,14-18.5,13.4-26.6c-0.9-11-11.2-19.1-11.4-19.2c-7-5.1-9-14.6-4.6-22.1c4.4-7.4,13.7-10.3,21.6-6.7
		c4,1.9,39.7,19.4,45.1,50.4c2,11.5,0.5,29.1-18.2,47.8c-9.5,9.5-14,18.4-13.4,26.5c0.9,11,11.2,19.1,11.4,19.2
		c7,5.1,9,14.6,4.6,22.1c-3.1,5.3-8.7,8.3-14.4,8.3c-2.4,0-4.8-0.5-7.1-1.6c-4-1.9-39.6-19.5-45.1-50.4
		C329.6,240.4,331.2,222.8,349.8,204.1z"/>
</g>
</svg>
