<?xml version="1.0" encoding="utf-8"?>
<!-- Generator: Adobe Illustrator 18.1.1, SVG Export Plug-In . SVG Version: 6.00 Build 0)  -->
<!DOCTYPE svg PUBLIC "-//W3C//DTD SVG 1.1//EN" "http://www.w3.org/Graphics/SVG/1.1/DTD/svg11.dtd">
<svg version="1.1" xmlns="http://www.w3.org/2000/svg" xmlns:xlink="http://www.w3.org/1999/xlink" x="0px" y="0px" width="1000px"
	 height="1000px" viewBox="0 0 1000 1000" style="enable-background:new 0 0 1000 1000;" xml:space="preserve">
<style type="text/css">
	.st0{fill:#101010;}
	.st1{fill:#FFFFFF;}
	.st2{fill:none;stroke:#000000;stroke-miterlimit:10;}
	.st3{fill:#231F20;}
</style>
<g id="Layer_2">
</g>
<g id="Layer_1">
	<path d="M475.8,626.7h337.8l90.1,84.9c13-9.7,21.4-25.2,21.4-42.5V190.9c0-29.7-23.9-53.1-53.1-53.1H128.1
		c-29.2,0-53.1,23.4-53.1,53.1v478.1c0,29.2,23.9,53.1,53.1,53.1h246.1L475.8,626.7z M581.3,297.7h265.6v47.1H581.3V297.7z
		 M581.3,406.4h265.6v47.1H581.3V406.4z M581.3,515.2h265.6v47.1H581.3V515.2z M245.5,298.8c23.9-52.6,91.9-58.5,126.5-11.7
		c12.7,17.5,19.6,38.3,19.6,67c-1.6,26-12.7,53.1-43,69.1c-30.3,15.4-68.5,6.4-90.3-22.8C234.4,369.5,229.6,334.9,245.5,298.8z
		 M174.3,488.4c7.5-32.4,32.4-53.6,65.4-57.3c8.5-1.1,14.3,3.2,20.2,7.9c13.3,11.2,28.2,19.7,45.7,22.8c25,4.8,47.3-3.7,65.8-19.6
		c13.9-12.2,26-11.7,42-5.9c29.3,10.1,45.2,28.7,50,59c6.4,36.1,10.1,72.7,13.8,108.9c-106.2,0-212.5,0-318.2,0
		C162.7,565.5,165.3,526.1,174.3,488.4z M793.7,676.7L925,800.4L793.2,925h-80.5l98.7-92.6H658.4v-63.8h153.1l-98.2-92H793.7
		 M575.8,676.7l-97.9,92h152.8v63.8H477.8l98.7,92.6h-80.7L364,800.4l131.6-123.8H575.8"/>
</g>
</svg>
