<?xml version="1.0" encoding="iso-8859-1"?>
<!-- Generator: Adobe Illustrator 18.1.0, SVG Export Plug-In . SVG Version: 6.00 Build 0)  -->
<!DOCTYPE svg PUBLIC "-//W3C//DTD SVG 1.1//EN" "http://www.w3.org/Graphics/SVG/1.1/DTD/svg11.dtd">
<svg version="1.1" id="Layer_1" xmlns="http://www.w3.org/2000/svg" xmlns:xlink="http://www.w3.org/1999/xlink" x="0px" y="0px"
	 width="1000px" height="1000px" viewBox="0 0 1000 1000" style="enable-background:new 0 0 1000 1000;" xml:space="preserve">
<style type="text/css">
	.st0{fill-rule:evenodd;clip-rule:evenodd;}
	.st1{fill:none;}
</style>
<path d="M871.9,207.8H128.1c-29.2,0-53.1,23.4-53.1,53.1v478.1c0,29.2,23.9,53.1,53.1,53.1h743.8c29.3,0,53.1-23.9,53.1-53.1V260.9
	C925,231.2,901.1,207.8,871.9,207.8z M581.3,367.7h265.6v47.1H581.3V367.7z M581.3,476.4h265.6v47.1H581.3V476.4z M245.5,368.8
	c23.9-52.6,91.9-58.5,126.5-11.7c12.7,17.5,19.6,38.3,19.6,67c-1.6,26-12.7,53.1-43,69.1c-30.3,15.4-68.5,6.4-90.3-22.8
	C234.4,439.5,229.6,404.9,245.5,368.8z M158.9,674.3c3.7-38.8,6.4-78.1,15.4-115.8c7.5-32.4,32.4-53.6,65.4-57.3
	c8.5-1.1,14.3,3.2,20.2,7.9c13.3,11.2,28.2,19.7,45.7,22.8c25,4.8,47.3-3.7,65.8-19.6c13.9-12.2,26-11.7,42-5.9
	c29.3,10.1,45.2,28.7,50,59c6.4,36.1,10.1,72.7,13.8,108.9C370.9,674.3,264.7,674.3,158.9,674.3z M581.3,585.2h265.6v47.1H581.3
	V585.2z"/>
</svg>
