<?xml version="1.0" encoding="utf-8"?>
<!-- Generator: Adobe Illustrator 18.1.1, SVG Export Plug-In . SVG Version: 6.00 Build 0)  -->
<!DOCTYPE svg PUBLIC "-//W3C//DTD SVG 1.1//EN" "http://www.w3.org/Graphics/SVG/1.1/DTD/svg11.dtd">
<svg version="1.1" xmlns="http://www.w3.org/2000/svg" xmlns:xlink="http://www.w3.org/1999/xlink" x="0px" y="0px" width="1000px"
	 height="1000px" viewBox="0 0 1000 1000" style="enable-background:new 0 0 1000 1000;" xml:space="preserve">
<style type="text/css">
	.st0{fill:#101010;}
	.st1{fill:#FFFFFF;}
	.st2{fill:none;stroke:#000000;stroke-miterlimit:10;}
	.st3{fill:#231F20;}
</style>
<g id="Layer_2">
</g>
<g id="Layer_1">
	<path d="M860.9,512.6l0.2-0.2l-0.2-0.2V512h-0.2L710,361.3H401.9V925h459L860.9,512.6z M794,512h-84v-84L794,512z M447.1,406.5
		h217.7v150.7h150.9v322.6H447.1V406.5z M356.7,593.5H184.1V120.2h217.7v150.7h150.9v45.2h45.2l0-89.8l0.2-0.2l-0.2-0.2v-0.2h-0.2
		L447.1,75H138.9v563.7h217.7V593.5z M447.1,141.7l84,84h-84V141.7z"/>
</g>
</svg>
