<?xml version="1.0" encoding="utf-8"?>
<!-- Generator: Adobe Illustrator 18.1.1, SVG Export Plug-In . SVG Version: 6.00 Build 0)  -->
<!DOCTYPE svg PUBLIC "-//W3C//DTD SVG 1.1//EN" "http://www.w3.org/Graphics/SVG/1.1/DTD/svg11.dtd">
<svg version="1.1" xmlns="http://www.w3.org/2000/svg" xmlns:xlink="http://www.w3.org/1999/xlink" x="0px" y="0px" width="1000px"
	 height="1000px" viewBox="0 0 1000 1000" style="enable-background:new 0 0 1000 1000;" xml:space="preserve">
<style type="text/css">
	.st0{fill:#101010;}
	.st1{fill:#FFFFFF;}
	.st2{fill:none;stroke:#000000;stroke-miterlimit:10;}
	.st3{fill:#231F20;}
</style>
<g id="Layer_2">
</g>
<g id="Layer_1">
	<path d="M880,199.6H120c-24.8,0-45,20.2-45,45v510.8c0,24.8,20.2,45,45,45h760c24.8,0,45-20.2,45-45V244.6
		C925,219.9,904.7,199.6,880,199.6z M100,340.4h800v80H100V340.4z M900,755.4c0,11-9,20-20,20H120c-11,0-20-9-20-20v-310h800V755.4z
		 M100,315.4v-70.7c0-11,9-20,20-20h760c11,0,20,9,20,20v70.7H100z M845,505.4H457.5v100H845V505.4z M820,580.4H482.5v-50H820V580.4
		z"/>
</g>
</svg>
