<?xml version="1.0" encoding="iso-8859-1"?>
<!-- Generator: Adobe Illustrator 18.1.0, SVG Export Plug-In . SVG Version: 6.00 Build 0)  -->
<!DOCTYPE svg PUBLIC "-//W3C//DTD SVG 1.1//EN" "http://www.w3.org/Graphics/SVG/1.1/DTD/svg11.dtd">
<svg version="1.1" xmlns="http://www.w3.org/2000/svg" xmlns:xlink="http://www.w3.org/1999/xlink" x="0px" y="0px" width="1000px"
	 height="1000px" viewBox="0 0 1000 1000" style="enable-background:new 0 0 1000 1000;" xml:space="preserve">
<style type="text/css">
	.st0{display:none;}
	.st1{display:inline;}
	.st2{fill:#FFFFFF;}
	.st3{fill:#FFFFFF;stroke:#000000;stroke-width:1.45;stroke-linejoin:bevel;}
	.st4{display:inline;fill:none;stroke:#C1272D;stroke-miterlimit:10;}
	.st5{display:inline;fill:#ED1C24;}
	.st6{display:inline;fill:#FFFFFF;}
	.st7{display:inline;fill:none;stroke:#ED1C24;stroke-miterlimit:10;}
	.st8{fill:#ED1C24;}
	.st9{fill-rule:evenodd;clip-rule:evenodd;}
	.st10{fill:#FFFFFF;stroke:#231F20;stroke-width:3;stroke-miterlimit:10;}
	.st11{fill:none;stroke:#231F20;stroke-width:3;stroke-miterlimit:10;}
	.st12{fill:#231F20;}
	.st13{fill:none;stroke:#FFFFFF;stroke-width:3;stroke-miterlimit:10;}
	.st14{fill:#FFFFFF;stroke:#231F20;stroke-width:3;stroke-linejoin:round;stroke-miterlimit:10;}
	.st15{fill:none;stroke:#231F20;stroke-width:3;stroke-linejoin:round;stroke-miterlimit:10;}
	.st16{fill:none;stroke:#000000;stroke-miterlimit:10;}
</style>
<g id="Layer_2" class="st0">
</g>
<g id="Layer_1">
	<path d="M504.3,794.2l120.6-120.6V128.7c0-29.7-24.1-53.7-53.7-53.7H239.7c-29.7,0-53.7,24.1-53.7,53.7v653.6
		c0,29.7,24.1,53.7,53.7,53.7h247.9C487.2,821,492.8,805.7,504.3,794.2z M333.8,138.5c0-9.9,8-17.9,17.9-17.9h107.4
		c9.9,0,17.9,8,17.9,17.9v0c0,9.9-8,17.9-17.9,17.9H351.7C341.8,156.4,333.8,148.4,333.8,138.5L333.8,138.5z M240,200.4h330.9v510.4
		H240V200.4z M405.4,803.8c-17.3,0-31.3-14-31.3-31.3c0-17.3,14-31.3,31.3-31.3c17.3,0,31.3,14,31.3,31.3
		C436.8,789.8,422.7,803.8,405.4,803.8z M678.5,864.5l128-128c10.1-10.1,10.1-26.5,0-36.6l-64.8-64.8c-10.1-10.1-26.5-10.1-36.6,0
		l-128,128c-10.1,10.1-10.1,26.5,0,36.6l64.8,64.8C652,874.6,668.4,874.6,678.5,864.5z M624.2,882.1l-64.8-64.8
		c-6.7-6.7-11.1-14.8-13.3-23.3l-22,22c-10.1,10.1-10.1,26.5,0,36.6l64.8,64.8c10.1,10.1,26.5,10.1,36.6,0l22-22
		C638.8,893.2,630.8,888.7,624.2,882.1z"/>
</g>
</svg>
