<?xml version="1.0" encoding="iso-8859-1"?>
<!-- Generator: Adobe Illustrator 18.1.0, SVG Export Plug-In . SVG Version: 6.00 Build 0)  -->
<!DOCTYPE svg PUBLIC "-//W3C//DTD SVG 1.1//EN" "http://www.w3.org/Graphics/SVG/1.1/DTD/svg11.dtd">
<svg version="1.1" id="Layer_1" xmlns="http://www.w3.org/2000/svg" xmlns:xlink="http://www.w3.org/1999/xlink" x="0px" y="0px"
	 width="1000px" height="1000px" viewBox="0 0 1000 1000" style="enable-background:new 0 0 1000 1000;" xml:space="preserve">
<style type="text/css">
	.st0{fill-rule:evenodd;clip-rule:evenodd;}
	.st1{fill:none;}
</style>
<path d="M321,215.4H180.6V75H321V215.4z M573.5,75H433.1v140.4h140.5V75z M819.4,75H679v140.4h140.5V75z M321,314.6H180.6v140.5H321
	V314.6z M573.5,314.6H433.1v140.5h140.5V314.6z M819.4,314.6H679v140.5h140.5V314.6z M321,550.8H180.6v140.4H321V550.8z
	 M573.5,550.8H433.1v140.4h140.5V550.8z M819.4,550.8H679v140.4h140.5V550.8z M573.5,784.6H433.1V925h140.5V784.6z"/>
</svg>
