<?xml version="1.0" encoding="iso-8859-1"?>
<!-- Generator: Adobe Illustrator 18.1.0, SVG Export Plug-In . SVG Version: 6.00 Build 0)  -->
<!DOCTYPE svg PUBLIC "-//W3C//DTD SVG 1.1//EN" "http://www.w3.org/Graphics/SVG/1.1/DTD/svg11.dtd">
<svg version="1.1" xmlns="http://www.w3.org/2000/svg" xmlns:xlink="http://www.w3.org/1999/xlink" x="0px" y="0px" width="1000px"
	 height="1000px" viewBox="0 0 1000 1000" style="enable-background:new 0 0 1000 1000;" xml:space="preserve">
<style type="text/css">
	.st0{display:none;}
	.st1{display:inline;}
	.st2{fill:#FFFFFF;}
	.st3{fill:#FFFFFF;stroke:#000000;stroke-width:1.45;stroke-linejoin:bevel;}
	.st4{display:inline;fill:none;stroke:#C1272D;stroke-miterlimit:10;}
	.st5{display:inline;fill:#ED1C24;}
	.st6{display:inline;fill:#FFFFFF;}
	.st7{display:inline;fill:none;stroke:#ED1C24;stroke-miterlimit:10;}
	.st8{fill:#ED1C24;}
	.st9{fill-rule:evenodd;clip-rule:evenodd;}
	.st10{fill:#231F20;}
</style>
<g id="Layer_2" class="st0">
</g>
<g id="Layer_1">
	<path d="M845.9,303.1l0.3-0.3l-0.3-0.3V302h-0.3L618.4,75H154v850h691.9L845.9,303.1z M745,302H618V175.6L745,302z M222,143h328
		v227h228v487H222V143z M305,735v72h-33V609h60.4c22.8,0,40.4,5.2,53,15.8c12.5,10.6,18.8,25.5,18.8,44.8c0,19.3-6.5,34.9-19.6,47.2
		C371.4,729,353.7,735,331.4,735H305z M305,636v72h21.3c14.1,0,24.8-3.1,32.2-9.6c7.4-6.5,11.1-15.6,11.1-27.5
		c0-23.3-13.5-34.9-40.6-34.9H305z M430,807V609h57.3c73.1,0,109.6,32.1,109.6,96.6c0,30.6-10.1,55.1-30.4,73.7
		C546.3,797.8,519.1,807,485,807H430z M463,637v142h26.1c23.1,0,41.1-6.2,54-18.9c12.9-12.7,19.3-30.5,19.3-53.7
		c0-46.4-24-69.4-72-69.4H463z M730,637h-74v59h68v28h-68v83h-33V609h107V637z"/>
</g>
</svg>
