<?xml version="1.0" encoding="utf-8"?>
<!-- Generator: Adobe Illustrator 18.1.1, SVG Export Plug-In . SVG Version: 6.00 Build 0)  -->
<!DOCTYPE svg PUBLIC "-//W3C//DTD SVG 1.1//EN" "http://www.w3.org/Graphics/SVG/1.1/DTD/svg11.dtd">
<svg version="1.1" xmlns="http://www.w3.org/2000/svg" xmlns:xlink="http://www.w3.org/1999/xlink" x="0px" y="0px" width="1000px"
	 height="1000px" viewBox="0 0 1000 1000" style="enable-background:new 0 0 1000 1000;" xml:space="preserve">
<style type="text/css">
	.st0{fill:#101010;}
	.st1{fill:#FFFFFF;}
	.st2{fill:none;stroke:#000000;stroke-miterlimit:10;}
	.st3{fill:#231F20;}
</style>
<g id="Layer_2">
</g>
<g id="Layer_1">
	<path d="M408.1,640.8c0,92.7,75.1,167.8,167.8,167.8c30.1,0,58.2-8,82.6-21.9l127,125.8c16.8,16.6,43.9,16.5,60.5-0.3
		c8.3-8.4,12.4-19.2,12.4-30.1c0-11-4.2-22-12.7-30.4l-126-124.8c15.1-25.2,24-54.6,24-86.1c0-92.7-75.1-167.8-167.8-167.8
		C483.2,473,408.1,548.1,408.1,640.8z M691.9,640.8c0,64.1-52,116-116,116c-64.1,0-116-51.9-116-116c0-64.1,52-116,116-116
		C640,524.8,691.9,576.7,691.9,640.8z M383.9,744.8H199.9V133.4h281.3v194.7h194.9v121.2c21.9,11.4,41.6,26.5,58.4,44.4l0-223.2
		l0.2-0.2l-0.2-0.2v-0.2h-0.2L539.6,75h-398v728.2h287.9C411.1,786.5,395.7,766.8,383.9,744.8z M539.6,161.2l108.5,108.5H539.6
		V161.2z"/>
</g>
</svg>
