<?xml version="1.0" encoding="iso-8859-1"?>
<!-- Generator: Adobe Illustrator 18.1.0, SVG Export Plug-In . SVG Version: 6.00 Build 0)  -->
<!DOCTYPE svg PUBLIC "-//W3C//DTD SVG 1.1//EN" "http://www.w3.org/Graphics/SVG/1.1/DTD/svg11.dtd">
<svg version="1.1" xmlns="http://www.w3.org/2000/svg" xmlns:xlink="http://www.w3.org/1999/xlink" x="0px" y="0px" width="1000px"
	 height="1000px" viewBox="0 0 1000 1000" style="enable-background:new 0 0 1000 1000;" xml:space="preserve">
<style type="text/css">
	.st0{display:none;}
	.st1{display:inline;}
	.st2{fill:#FFFFFF;}
	.st3{fill:#FFFFFF;stroke:#000000;stroke-width:1.45;stroke-linejoin:bevel;}
	.st4{display:inline;fill:none;stroke:#C1272D;stroke-miterlimit:10;}
	.st5{display:inline;fill:#ED1C24;}
	.st6{display:inline;fill:#FFFFFF;}
	.st7{display:inline;fill:none;stroke:#ED1C24;stroke-miterlimit:10;}
	.st8{fill:#ED1C24;}
	.st9{fill-rule:evenodd;clip-rule:evenodd;}
	.st10{fill:#231F20;}
</style>
<g id="Layer_2" class="st0">
</g>
<g id="Layer_1">
	<path d="M918.5,349.7c0-35.5-28.7-64.2-64.2-64.2S790,314.2,790,349.7c0,33.1,25,60.3,57.1,63.9c-7.9,30.7-21.1,59.9-38.9,86.1
		c-21.9-15.5-48.6-24.5-77.3-24.5c-62.4,0-114.8,42.5-129.9,100.1h-75.2c-26.1-54.8-79.8-93.9-143.1-99.5v-38.3
		c32.9-14,58.6-41.9,69.8-76.2c6.4,7.4,14,14.6,22.5,21.4c40.7,32.1,87.3,40.9,104.1,19.7c16.8-21.2-2.5-64.6-43.2-96.7
		c-10.7-8.5-21.9-15.4-32.8-20.4c17.8-21.1,28.1-46.1,28.1-72.8c0-75.9-82.6-137.4-184.6-137.4c-102,0-184.6,61.5-184.6,137.4
		c0,35.9,18.5,68.5,48.7,93c-0.8,5.7-1.2,11.5-1.2,17.5h-108c-18.2,0-27,22.4-13.5,34.6c26.2,23.7,73.8,50.6,154.5,49.8
		c21.1,23,50.8,38,84.1,39.9v32.8c-77.5,18.2-135.2,87.8-135.2,170.9c0,64.7,35,121.2,87,151.6c-20.6,32.3-48.2,60-81.1,80.9
		c-10.5,6.7-13.6,20.7-6.9,31.2c4.3,6.8,11.6,10.5,19.1,10.5c4.2,0,8.4-1.1,12.1-3.6c40.7-25.8,74.4-60.7,99-101.3
		c14.8,4.1,30.4,6.2,46.5,6.2c85,0,155.8-60.3,172.2-140.4h81.3c22.6,32.6,59.3,54.7,101.2,57.4c20.4,73,67.7,137,132.3,178
		c3.7,2.4,7.9,3.6,12.1,3.6c7.5,0,14.8-3.7,19.1-10.5c6.7-10.5,3.6-24.5-6.9-31.2c-53-33.7-92.3-85.5-110.9-144.6
		c56.4-15.9,97.8-67.7,97.8-129.2c0-37.2-15.1-70.9-39.6-95.2c21.3-30.9,36.7-65.7,45.1-102.4C898.3,404.5,918.5,379.5,918.5,349.7z
		 M318.2,299.2c0,20.2-16.3,36.4-36.4,36.4c-20.1,0-36.4-16.3-36.4-36.4c0-20.1,16.3-36.4,36.4-36.4
		C301.9,262.7,318.2,279.1,318.2,299.2z"/>
</g>
</svg>
