<?xml version="1.0" encoding="iso-8859-1"?>
<!-- Generator: Adobe Illustrator 18.1.0, SVG Export Plug-In . SVG Version: 6.00 Build 0)  -->
<!DOCTYPE svg PUBLIC "-//W3C//DTD SVG 1.1//EN" "http://www.w3.org/Graphics/SVG/1.1/DTD/svg11.dtd">
<svg version="1.1" xmlns="http://www.w3.org/2000/svg" xmlns:xlink="http://www.w3.org/1999/xlink" x="0px" y="0px" width="1228px"
	 height="1000px" viewBox="0 0 1228 1000" style="enable-background:new 0 0 1228 1000;" xml:space="preserve">
<style type="text/css">
	.st0{display:none;}
	.st1{display:inline;}
	.st2{fill:#FFFFFF;}
	.st3{fill:#FFFFFF;stroke:#000000;stroke-width:1.45;stroke-linejoin:bevel;}
	.st4{display:inline;fill:none;stroke:#C1272D;stroke-miterlimit:10;}
	.st5{display:inline;fill:#ED1C24;}
	.st6{display:inline;fill:#FFFFFF;}
	.st7{display:inline;fill:none;stroke:#ED1C24;stroke-miterlimit:10;}
	.st8{fill:#ED1C24;}
	.st9{fill-rule:evenodd;clip-rule:evenodd;}
	.st10{fill:#231F20;}
</style>
<g id="Layer_2" class="st0">
</g>
<g id="Layer_1">
	<path d="M1106.7,717.6l-68.2-168.2l0,0c2.6-11,3.9-22.6,3.9-34.4c0-57.1-31.1-107-77.3-133.6l0,0l112.3-52.8l0,0
		c40-21.8,66.3-65.5,62.8-115.1c-4.1-59.1-52-107.4-111-112.1c-28.7-2.3-55.5,5.5-77.3,20.1c-6.9,4.6-2.7,15.5,5.6,14.7
		c2.8-0.3,5.4-0.4,7.7-0.4c58.9,0,106.6,38.2,106.6,85.2c0,26.1-14.6,49.4-37.6,65l-109.2,74.9l0,0H532.5l0,0L412,199.3
		c-11.2-15.6-25.8-28.5-42.7-37.8l0,0c0,0-15.2-57.9-28.7-78.5c-7.2-11.1-14.6-9.6-21.3-1.5c-16.3,19.7-35.8,66.2-35.8,66.2l0,0
		c-43.8,7.9-79.9,38-96.3,78.2l0,0L80.8,272c-4.1,1.8-6.5,6.1-5.7,10.5c4.7,26.2,27.6,46.1,55.2,46.1c3.9,0,7.6-0.4,11.3-1.2
		l123.7-31.8l0,0l-70.9,65.8c-6,5.5-1,15.4,7,13.9l63.9-11.6c13.4-2.4,26.1,6.7,28,20.2l27.7,191c0,0,3.8,26.8,10.1,37.1l0,0
		L221.3,841c-3.4,7.2,1.8,15.5,9.8,15.5h22.5c8.3,0,16-3.9,20.9-10.6L388.4,691l0,0c5.5,5.8,24.3,17,31,19.3l0,0l-93.1,199.2
		c-3.4,7.2,1.9,15.4,9.8,15.4h25.6c7.9,0,15.4-3.6,20.3-9.8l146.8-184.4v-0.1c47.1-43.4,228.8-85,293.4-85
		c66.9,0,130.6,57.7,130.6,57.7l0,0c16.5,18.6,26.4,43,26.4,69.7c0,24.8-8.6,47.7-23,65.7c-5.7,7.2-0.8,17.7,8.3,17.7h34.7
		c12,0,22.4-8.2,25.3-19.8c3-12.3,4.6-25.1,4.6-38.4c0-25.4-5.8-49.4-16.3-70.8l0,0c54.3,28.4,88.1,68.6,88.1,113.1
		c0,19.6-6.5,38.2-18.4,55.5c-4.9,7.1,0.5,16.7,9.1,16.7h23.6c9.9,0,19.2-5.6,23.3-14.6c9.3-20.5,14.5-43.2,14.5-67.2
		C1153.1,786.9,1135.4,746.8,1106.7,717.6L1106.7,717.6z M235.2,250.7c-14.2,2.7-26.6-9.5-23.9-23.9c1.5-8,8-14.5,16-15.9
		c14.3-2.7,26.6,9.7,23.8,23.9C249.6,242.7,243.1,249.1,235.2,250.7z"/>
</g>
</svg>
