<?xml version="1.0" encoding="iso-8859-1"?>
<!-- Generator: Adobe Illustrator 18.1.0, SVG Export Plug-In . SVG Version: 6.00 Build 0)  -->
<!DOCTYPE svg PUBLIC "-//W3C//DTD SVG 1.1//EN" "http://www.w3.org/Graphics/SVG/1.1/DTD/svg11.dtd">
<svg version="1.1" id="Layer_1" xmlns="http://www.w3.org/2000/svg" xmlns:xlink="http://www.w3.org/1999/xlink" x="0px" y="0px"
	 width="1054px" height="1000px" viewBox="0 0 1054 1000" style="enable-background:new 0 0 1054 1000;" xml:space="preserve">
<style type="text/css">
	.st0{fill-rule:evenodd;clip-rule:evenodd;}
</style>
<path d="M773.6,228.5v584.3l-27.1,4.7c-1-0.4-356.7-90.2-671.2,103.7c0,0,164.4-139.7,445-158.6l12.6-0.9l7.2-4.1V555.3
	c82-83.5,162.3-203.4,214.9-333.3v0.3L773.6,228.5z M965.6,363.1v-0.2c0,0-30.8,38.7-121.7,120.4c-21.6,19.4-32.9,31-53.8,48.8
	v300.2l-18,4.6c-0.6-0.2-78.9-25.1-213.8-29.3c-132.8-4.1-331.2,32.5-482.8,113.5l6.5,0.3c0,0,406.6-158.8,879.4,3.5v0.2l18.3-6.8
	V370.8L965.6,363.1z M523.5,80.9l-22-5.7v-0.1c0,0,0,0,0,0.1l-0.2-0.1l-0.1,2.2c-2.7,18.5-25.5,161.1-129,361.4
	C311,557.2,217.9,705.3,75.3,853.4v67.8c0,0,151.6-143.6,423.2-171.9l9.7-0.8l15.3-5V80.9z"/>
</svg>
