<?xml version="1.0" encoding="utf-8"?>
<!-- Generator: Adobe Illustrator 18.1.1, SVG Export Plug-In . SVG Version: 6.00 Build 0)  -->
<!DOCTYPE svg PUBLIC "-//W3C//DTD SVG 1.1//EN" "http://www.w3.org/Graphics/SVG/1.1/DTD/svg11.dtd">
<svg version="1.1" xmlns="http://www.w3.org/2000/svg" xmlns:xlink="http://www.w3.org/1999/xlink" x="0px" y="0px" width="1105px"
	 height="1000px" viewBox="0 0 1105 1000" style="enable-background:new 0 0 1105 1000;" xml:space="preserve">
<style type="text/css">
	.st0{fill:#101010;}
	.st1{fill:#FFFFFF;}
	.st2{fill:none;stroke:#000000;stroke-miterlimit:10;}
	.st3{fill:#231F20;}
</style>
<g id="Layer_2">
</g>
<g id="Layer_1">
	<path d="M1030.1,508.6c0,230-186.4,416.4-416.4,416.4S197.2,738.6,197.2,508.6c0-43.4,6.7-85.2,19-124.6l54.6,25.5
		c-9.1,31.5-14.1,64.7-14.1,99.1c0,196.8,160.1,356.9,356.9,356.9s356.9-160.1,356.9-356.9S810.5,151.6,613.7,151.6
		c-69.6,0-134.6,20.1-189.6,54.7L384.4,161c65.8-43.5,144.5-68.8,229.3-68.8C843.7,92.1,1030.1,278.6,1030.1,508.6z M613.7,255
		c-43.6,0-84.6,11-120.5,30.4l40.6,46.4c24.4-11.1,51.4-17.3,79.9-17.3c107,0,194.1,87.1,194.1,194.1s-87.1,194.1-194.1,194.1
		s-194.1-87.1-194.1-194.1c0-9.8,0.7-19.4,2.2-28.8l-55.6-25.9c-3.9,17.6-6,35.9-6,54.8c0,140.1,113.5,253.6,253.6,253.6
		c140.1,0,253.6-113.5,253.6-253.6C867.3,368.5,753.7,255,613.7,255z M74.9,212.5L616.4,509L177.2,75L74.9,212.5z"/>
</g>
</svg>
