<?xml version="1.0" encoding="iso-8859-1"?>
<!-- Generator: Adobe Illustrator 18.1.0, SVG Export Plug-In . SVG Version: 6.00 Build 0)  -->
<!DOCTYPE svg PUBLIC "-//W3C//DTD SVG 1.1//EN" "http://www.w3.org/Graphics/SVG/1.1/DTD/svg11.dtd">
<svg version="1.1" id="Layer_1" xmlns="http://www.w3.org/2000/svg" xmlns:xlink="http://www.w3.org/1999/xlink" x="0px" y="0px"
	 width="1000px" height="1000px" viewBox="0 0 1000 1000" style="enable-background:new 0 0 1000 1000;" xml:space="preserve">
<style type="text/css">
	.st0{fill-rule:evenodd;clip-rule:evenodd;}
	.st1{fill:none;}
</style>
<path d="M875.6,314.2v534.3H75V200.7h456.9l-80,80H155v487.7h640.7V399.7C795.6,399.7,871.5,321.9,875.6,314.2z M812.5,280
	c8.7-8.6,8.7-22.9,0-31.7L708.2,144c-8.7-8.7-22.9-8.7-31.6,0L342.9,477.5c-8.7,8.8-8.7,23,0,31.7l104.4,104.3
	c8.7,8.8,23,8.8,31.6,0L812.5,280z M908.2,180.5c-7.6,9.7-20.7,24.7-29.3,33.3c-8.6,8.6-22.7,8.5-31.5-0.4L743,109.1
	c-8.6-8.7-8.8-22.8-0.2-31.4c8.6-8.6,23.5-21.7,33.3-29.2c0,0,58.7-45.9,118.3,13.6C954,121.8,908.2,180.5,908.2,180.5z
	 M285.6,686.6c-12,2.9-19.3-4.4-16.4-16.4l17.4-69.9c2.8-11.9,12.5-14.5,21.2-5.9l53.6,53.4c8.7,8.6,6.1,18.2-5.9,21.2L285.6,686.6z
	"/>
</svg>
