<?xml version="1.0" encoding="iso-8859-1"?>
<!-- Generator: Adobe Illustrator 18.1.0, SVG Export Plug-In . SVG Version: 6.00 Build 0)  -->
<!DOCTYPE svg PUBLIC "-//W3C//DTD SVG 1.1//EN" "http://www.w3.org/Graphics/SVG/1.1/DTD/svg11.dtd">
<svg version="1.1" id="Layer_1" xmlns="http://www.w3.org/2000/svg" xmlns:xlink="http://www.w3.org/1999/xlink" x="0px" y="0px"
	 width="1250px" height="1000px" viewBox="0 0 1250 1000" style="enable-background:new 0 0 1250 1000;" xml:space="preserve">
<style type="text/css">
	.st0{fill-rule:evenodd;clip-rule:evenodd;}
</style>
<path d="M338.4,500c0,72.6-58.9,131.5-131.5,131.5c-72.6,0-131.5-58.9-131.5-131.5c0-72.6,58.9-131.5,131.5-131.5
	C279.5,368.5,338.4,427.4,338.4,500z M625.4,368.5c-72.6,0-131.5,58.9-131.5,131.5c0,72.6,58.9,131.5,131.5,131.5
	c72.6,0,131.5-58.9,131.5-131.5C756.9,427.4,698,368.5,625.4,368.5z M1043.9,368.5c-72.6,0-131.5,58.9-131.5,131.5
	c0,72.6,58.9,131.5,131.5,131.5c72.6,0,131.5-58.9,131.5-131.5C1175.4,427.4,1116.5,368.5,1043.9,368.5z"/>
</svg>
