<?xml version="1.0" encoding="iso-8859-1"?>
<!-- Generator: Adobe Illustrator 18.1.0, SVG Export Plug-In . SVG Version: 6.00 Build 0)  -->
<!DOCTYPE svg PUBLIC "-//W3C//DTD SVG 1.1//EN" "http://www.w3.org/Graphics/SVG/1.1/DTD/svg11.dtd">
<svg version="1.1" id="Layer_1" xmlns="http://www.w3.org/2000/svg" xmlns:xlink="http://www.w3.org/1999/xlink" x="0px" y="0px"
	 width="1000px" height="1000px" viewBox="0 0 1000 1000" style="enable-background:new 0 0 1000 1000;" xml:space="preserve">
<style type="text/css">
	.st0{fill-rule:evenodd;clip-rule:evenodd;}
	.st1{fill:none;}
</style>
<path d="M231,216.6v-99.8c0-23.2,18.8-41.7,42.1-41.7c23.3,0,42.1,18.5,42.1,41.7v99.8c0,23.3-18.8,41.7-42.1,41.7
	C249.8,258.3,231,239.8,231,216.6z M726.7,258.3c23.3,0,42.1-18.4,42.1-41.7v-99.8c0-23.2-18.8-41.7-42.1-41.7
	c-23.3,0-42.1,18.5-42.1,41.7v99.8C684.6,239.8,703.4,258.3,726.7,258.3z M814.8,854.8H185.1V384.4h629.7V854.8z M271.2,292.7
	c-42.1,0-76.5-34-76.5-76.1v-58.4h-32.9c-21.9,0-39.6,17.7-39.6,39.5v687.8c0,21.5,17.7,39.6,39.6,39.6h676.3
	c21.8,0,39.6-18.1,39.6-39.6V197.6c0-21.7-17.7-39.5-39.6-39.5h-34.8v58.4c0,42.1-34.3,76.1-76.5,76.1h-3.7c-42.1,0-76-34-76-76.1
	v-58.4H351.4v58.4c0,42.1-34.4,76.1-76.6,76.1H271.2z M666.8,735.4L614,788.1L500,674.1l-114.1,114l-52.8-52.8l113.9-113.9
	l-113.9-114l52.8-52.7L500,568.5l114-114l52.9,52.8l-114,114L666.8,735.4z"/>
</svg>
