<?xml version="1.0" encoding="iso-8859-1"?>
<!-- Generator: Adobe Illustrator 18.1.0, SVG Export Plug-In . SVG Version: 6.00 Build 0)  -->
<!DOCTYPE svg PUBLIC "-//W3C//DTD SVG 1.1//EN" "http://www.w3.org/Graphics/SVG/1.1/DTD/svg11.dtd">
<svg version="1.1" id="Layer_1" xmlns="http://www.w3.org/2000/svg" xmlns:xlink="http://www.w3.org/1999/xlink" x="0px" y="0px"
	 width="1000px" height="1000px" viewBox="0 0 1000 1000" style="enable-background:new 0 0 1000 1000;" xml:space="preserve">
<style type="text/css">
	.st0{fill-rule:evenodd;clip-rule:evenodd;}
	.st1{fill:none;}
</style>
<path d="M678.7,739.6h-73.1C628.9,619.2,732,558.8,834,578.6c34.6,6.7,65.9,22.7,91.2,45.7l0-84.6l49.6,47.2l0,136.2l-136.2,0.1
	l-50.1-49.2l91.7,0.2c-16.4-15-36.3-26-58.8-30.4C755.7,631.3,691.9,674.1,678.7,739.6z M769.1,885.8c-22.5-4.4-42.4-15.4-58.8-30.4
	l91.7,0.2l-50.1-49.2l-136.2,0.1l0,136.2l49.6,47.2l0-84.6c25.3,23.1,56.6,39,91.2,45.7c102,19.8,205-40.6,228.3-161.1h-73.1
	C898.5,855.6,834.7,898.5,769.1,885.8z M661.4,225.9c19.5,0,35.2-15.4,35.2-34.9v-83.6c0-19.5-15.7-34.9-35.2-34.9
	c-19.5,0-35.2,15.5-35.2,34.9v83.6C626.1,210.4,641.9,225.9,661.4,225.9z M540.2,767.8c0-14.4,1.2-28.6,3.5-42.4H207.9V331.5h527.3
	v185.3c17-4.3,34.6-6.9,52.7-7.7V175.1c0-18.2-14.8-33-33.1-33h-29.1v48.9c0,35.3-28.7,63.8-64.1,63.8h-3.1
	c-35.2,0-63.7-28.5-63.7-63.8v-48.9H347.1v48.9c0,35.3-28.8,63.8-64.1,63.8h-3.1c-35.2,0-64-28.5-64-63.8v-48.9h-27.5
	c-18.3,0-33.1,14.8-33.1,33V751c0,18,14.8,33.2,33.1,33.2h352.4C540.4,778.7,540.2,773.3,540.2,767.8z M281.5,225.9
	c19.5,0,35.2-15.4,35.2-34.9v-83.6c0-19.5-15.7-34.9-35.2-34.9c-19.5,0-35.2,15.5-35.2,34.9v83.6C246.3,210.4,262,225.9,281.5,225.9
	z"/>
</svg>
