<?xml version="1.0" encoding="iso-8859-1"?>
<!-- Generator: Adobe Illustrator 18.1.0, SVG Export Plug-In . SVG Version: 6.00 Build 0)  -->
<!DOCTYPE svg PUBLIC "-//W3C//DTD SVG 1.1//EN" "http://www.w3.org/Graphics/SVG/1.1/DTD/svg11.dtd">
<svg version="1.1" id="Layer_1" xmlns="http://www.w3.org/2000/svg" xmlns:xlink="http://www.w3.org/1999/xlink" x="0px" y="0px"
	 width="1016px" height="1000px" viewBox="0 0 1016 1000" style="enable-background:new 0 0 1016 1000;" xml:space="preserve">
<style type="text/css">
	.st0{fill-rule:evenodd;clip-rule:evenodd;}
	.st1{fill:none;}
</style>
<path d="M924.6,179H635v54h85v85h-85v27h85v85h-85v28h85v80h-85v32h85v81h-85v32h85v81h-85v59h289.6c9.8,0,16.4-29,16.4-38.7V188.8
	C941,179.1,934.4,179,924.6,179z M887,764H748v-81h139V764z M887,651H748v-81h139V651z M887,538H748v-80h139V538z M887,430H748v-85
	h139V430z M887,318H748v-85h139V318z M75,166.1v670.6L586,925V75L75,166.1z M378.4,673.1c0,0-56.1-133.4-56.5-136.2l-0.8-0.1
	c-0.3,1.3-55.4,129.8-55.4,129.8l-72.6-4.1l86.6-162l-79.4-162.4l74.5-4.3c0,0,48.5,124.7,49.1,127.4l0.8,0
	c0.4-1.6,56-133.5,56-133.5l77.2-4.4L366.1,499l94.5,178.8L378.4,673.1z"/>
</svg>
