<?xml version="1.0" encoding="iso-8859-1"?>
<!-- Generator: Adobe Illustrator 18.1.0, SVG Export Plug-In . SVG Version: 6.00 Build 0)  -->
<!DOCTYPE svg PUBLIC "-//W3C//DTD SVG 1.1//EN" "http://www.w3.org/Graphics/SVG/1.1/DTD/svg11.dtd">
<svg version="1.1" xmlns="http://www.w3.org/2000/svg" xmlns:xlink="http://www.w3.org/1999/xlink" x="0px" y="0px" width="1000px"
	 height="1000px" viewBox="0 0 1000 1000" style="enable-background:new 0 0 1000 1000;" xml:space="preserve">
<style type="text/css">
	.st0{display:none;}
	.st1{display:inline;}
	.st2{fill:#FFFFFF;}
	.st3{fill:#FFFFFF;stroke:#000000;stroke-width:1.45;stroke-linejoin:bevel;}
	.st4{display:inline;fill:none;stroke:#C1272D;stroke-miterlimit:10;}
	.st5{display:inline;fill:#ED1C24;}
	.st6{display:inline;fill:#FFFFFF;}
	.st7{display:inline;fill:none;stroke:#ED1C24;stroke-miterlimit:10;}
	.st8{fill:#ED1C24;}
	.st9{fill-rule:evenodd;clip-rule:evenodd;}
	.st10{fill:#FFFFFF;stroke:#231F20;stroke-width:3;stroke-miterlimit:10;}
	.st11{fill:none;stroke:#231F20;stroke-width:3;stroke-miterlimit:10;}
	.st12{fill:#231F20;}
	.st13{fill:none;stroke:#FFFFFF;stroke-width:3;stroke-miterlimit:10;}
	.st14{fill:#FFFFFF;stroke:#231F20;stroke-width:3;stroke-linejoin:round;stroke-miterlimit:10;}
	.st15{fill:none;stroke:#231F20;stroke-width:3;stroke-linejoin:round;stroke-miterlimit:10;}
	.st16{fill:none;stroke:#000000;stroke-miterlimit:10;}
</style>
<g id="Layer_2" class="st0">
</g>
<g id="Layer_1">
	<path d="M380.5,603l-101-8v-72l87,3v-64l-87-3v-72h104v-63l-171,11v316l168,20V603z M561.5,925l-511-88V164l511-89V925z M910.5,256
		h-301v63.1h17.2c4.1,0,8,1.6,10.9,4.4l41.7,39.6c1.7,1.6,1.9,4.1,0.6,6l-17.3,25.5c-1.2,1.7-3.6,2-5.1,0.5l-22.1-21.2
		c-1.2-1.1-2.7-1.7-4.3-1.7h-21.7v109.5l56.1,55.2c1.7,1.7,1.8,4.5,0.2,6.3l-3.9,4.5c-1.5,1.7-3.9,2.1-5.8,1
		c-8.1-4.6-26.4-14.3-46.6-27V646h8.6c2.4,0,4.7-1,6.4-2.7l100.7-102.4c1.7-1.7,4.5-1.8,6.3-0.2l4.5,3.9c1.7,1.5,2.1,3.9,1,5.8
		c-6.9,12.2-25.1,46.8-47.6,77c-19.2,25.7-41.5,51.6-53.1,64.8c-3.8,4.3-9.3,6.8-15,6.8h-11.9v61h301c21.5,0,39-17.5,39-39V295
		C949.5,273.5,932,256,910.5,256z M887.5,687c0,6.6-5.4,12-12,12H768.3c-4.1,0-8-1.6-10.9-4.4L715.7,655c-1.7-1.6-1.9-4.1-0.6-6
		l17.3-25.5c1.2-1.7,3.6-2,5.1-0.5l22.1,21.2c1.2,1.1,2.7,1.7,4.3,1.7h66.3c2.4,0,4.4-2,4.4-4.4v-53.1c0-2.4-1-4.7-2.7-6.4
		L729.4,481.3c-1.7-1.7-1.8-4.5-0.2-6.3l3.9-4.5c1.5-1.7,3.9-2.1,5.8-1c12.2,6.9,46.8,25.1,77,47.6c25.7,19.2,51.6,41.5,64.8,53.1
		c4.3,3.8,6.8,9.3,6.8,15V687z M887.5,438.3c0,4.1-1.6,8-4.4,10.9l-39.6,41.7c-1.6,1.7-4.1,1.9-6,0.6L812,474.3
		c-1.7-1.2-2-3.6-0.5-5.1l21.2-22.1c1.1-1.2,1.7-2.7,1.7-4.3v-66.3c0-2.4-2-4.4-4.4-4.4h-53.1c-2.4,0-4.7,1-6.4,2.7L669.8,477.2
		c-1.7,1.7-4.5,1.8-6.3,0.2l-4.5-3.9c-1.7-1.5-2.1-3.9-1-5.8c6.9-12.2,25.1-46.8,47.6-77c19.2-25.7,41.5-51.6,53.1-64.8
		c3.8-4.3,9.3-6.8,15-6.8h101.9c6.6,0,12,5.4,12,12V438.3z"/>
</g>
</svg>
