<?xml version="1.0" encoding="iso-8859-1"?>
<!-- Generator: Adobe Illustrator 18.1.0, SVG Export Plug-In . SVG Version: 6.00 Build 0)  -->
<!DOCTYPE svg PUBLIC "-//W3C//DTD SVG 1.1//EN" "http://www.w3.org/Graphics/SVG/1.1/DTD/svg11.dtd">
<svg version="1.1" id="Layer_1" xmlns="http://www.w3.org/2000/svg" xmlns:xlink="http://www.w3.org/1999/xlink" x="0px" y="0px"
	 width="1000px" height="1000px" viewBox="0 0 1000 1000" style="enable-background:new 0 0 1000 1000;" xml:space="preserve">
<style type="text/css">
	.st0{fill-rule:evenodd;clip-rule:evenodd;}
	.st1{fill:none;}
</style>
<path class="st0" d="M659.1,550.1c0,87.9-71.2,159.1-159.1,159.1c-87.9,0-159.1-71.2-159.1-159.1c0-87.9,71.2-159.1,159.1-159.1
	C587.9,391,659.1,462.2,659.1,550.1z M843.5,555c-68.5-118.8-196.8-199-343.5-199c-146.7,0-275,80.2-343.5,199L75,555
	c9.7-19.7,20.7-38.6,33-56.7c85.3-125.3,229-207.6,392-207.6c163,0,306.7,82.3,392,207.6c12.2,18,23.3,37,33,56.7L843.5,555z"/>
</svg>
