<?xml version="1.0" encoding="iso-8859-1"?>
<!-- Generator: Adobe Illustrator 18.1.0, SVG Export Plug-In . SVG Version: 6.00 Build 0)  -->
<!DOCTYPE svg PUBLIC "-//W3C//DTD SVG 1.1//EN" "http://www.w3.org/Graphics/SVG/1.1/DTD/svg11.dtd">
<svg version="1.1" id="Layer_1" xmlns="http://www.w3.org/2000/svg" xmlns:xlink="http://www.w3.org/1999/xlink" x="0px" y="0px"
	 width="1000px" height="1000px" viewBox="0 0 1000 1000" style="enable-background:new 0 0 1000 1000;" xml:space="preserve">
<style type="text/css">
	.st0{fill-rule:evenodd;clip-rule:evenodd;}
</style>
<path d="M487,851.2c-7.4,3.6-14.6,6-21.4,6c-41.5,0-95.8-67.5-125.3-182.1h135.3c6-23.2,14.6-45.3,25.9-65.8H327.4
	c-5-34-7.9-70.8-7.9-110.3c0-34.4,2.4-66.7,6.2-96.9h279.9c3.8,30.1,6.1,62.3,6.2,96.5c20.3-11.4,42.1-20.1,65.1-26.2
	c-0.8-24-2.3-47.5-5-70.3h138.3c6.4,22.6,9.9,46.2,11.8,70.3c23.9,6.4,46.7,15.7,67.7,27.8c0-0.4,0-0.7,0-1.1
	c0-234.2-189.8-424-424-424C231.4,75,41.5,264.9,41.5,499c0,234.3,189.9,424.1,424.1,424.1c20.5,0,40.4-1.9,60.1-4.7
	C509.9,898,496.8,875.5,487,851.2z M784.2,336.2H661.4c-14-67.3-36.6-125.7-64.8-170.2C677.9,198.1,744.6,259,784.2,336.2z
	 M465.6,140.8c42.9,0,99.8,72.9,128.2,195.4H337.4C365.8,213.7,422.6,140.8,465.6,140.8z M334.6,166
	c-28.2,44.5-50.7,102.9-64.8,170.2H147C186.6,259,253.3,198.1,334.6,166z M107.4,499c0-33.6,5-66,13.6-96.9h138.3
	c-3.7,31.2-5.8,63.5-5.8,96.9c0,38.2,2.7,75.1,7.5,110.3H124.9C113.7,574.6,107.4,537.6,107.4,499z M154,675.2h118.9
	c14.1,61.7,35.3,115.4,61.7,156.9C258.1,801.9,194.3,746.1,154,675.2z M699,679.4l49.9-152.2l49.9,152.2h159.6l-130,93.4L878.4,925
	l-129.5-93.4L619.5,925l49.9-152.2l-129-93.4H699z"/>
</svg>
