<?xml version="1.0" encoding="iso-8859-1"?>
<!-- Generator: Adobe Illustrator 18.1.0, SVG Export Plug-In . SVG Version: 6.00 Build 0)  -->
<!DOCTYPE svg PUBLIC "-//W3C//DTD SVG 1.1//EN" "http://www.w3.org/Graphics/SVG/1.1/DTD/svg11.dtd">
<svg version="1.1" id="Layer_1" xmlns="http://www.w3.org/2000/svg" xmlns:xlink="http://www.w3.org/1999/xlink" x="0px" y="0px"
	 width="1100px" height="1000px" viewBox="0 0 1100 1000" style="enable-background:new 0 0 1100 1000;" xml:space="preserve">
<style type="text/css">
	.st0{fill-rule:evenodd;clip-rule:evenodd;}
	.st1{fill:none;}
</style>
<path d="M696.4,131.7v167.5h-336V131.7H696.4 M753,75H303.7v280.9H753V75L753,75z M753.1,675.9c0.1-46.1,37.6-83.6,83.5-83.6l23.3,0
	l0-128.6l-23.9,0c-34.1,0-63.7-21.1-76.4-51.1H247.1V306H133.2c-31.3,0-56.7,25.3-56.7,56.7V701c0,31.3,25.4,56.7,56.7,56.7h170.5
	V925H753V757.6h0V675.9z M696.4,868.3h-336V700.8h336V868.3z M810.3,380.2c0,14.4,11.8,26.3,26.3,26.3h49.5c17.1,0,31.1,14,31.1,31
	l0,180.9c-0.1,17.1-14,31.2-31.2,31.2l-49.4,0c-14.4,0-26.2,11.9-26.3,26.3v106.6c0,14.5,11.8,26.3,26.3,26.3l25.2,0
	c84.1,0,140.5-77.4,152.7-168.9c0,0,9-30.7,8.9-101.5c0-70.8-8.9-122.3-8.9-122.3c-10.1-94.1-68.7-168.8-152.8-168.8l-25.2,0
	c-14.4,0-26.2,11.8-26.2,26.3L810.3,380.2z"/>
</svg>
