<?xml version="1.0" encoding="iso-8859-1"?>
<!-- Generator: Adobe Illustrator 18.1.0, SVG Export Plug-In . SVG Version: 6.00 Build 0)  -->
<!DOCTYPE svg PUBLIC "-//W3C//DTD SVG 1.1//EN" "http://www.w3.org/Graphics/SVG/1.1/DTD/svg11.dtd">
<svg version="1.1" xmlns="http://www.w3.org/2000/svg" xmlns:xlink="http://www.w3.org/1999/xlink" x="0px" y="0px" width="1300px"
	 height="1000px" viewBox="0 0 1300 1000" style="enable-background:new 0 0 1300 1000;" xml:space="preserve">
<style type="text/css">
	.st0{display:none;}
	.st1{display:inline;}
	.st2{fill:#FFFFFF;}
	.st3{fill:#FFFFFF;stroke:#000000;stroke-width:1.45;stroke-linejoin:bevel;}
	.st4{display:inline;fill:none;stroke:#C1272D;stroke-miterlimit:10;}
	.st5{display:inline;fill:#ED1C24;}
	.st6{display:inline;fill:#FFFFFF;}
	.st7{display:inline;fill:none;stroke:#ED1C24;stroke-miterlimit:10;}
	.st8{fill:#ED1C24;}
	.st9{fill-rule:evenodd;clip-rule:evenodd;}
	.st10{fill:#231F20;}
</style>
<g id="Layer_2" class="st0">
</g>
<g id="Layer_1">
	<path d="M321.8,335.8V660h-52.5V398.6c-19,13.3-40.1,22.1-68.2,29.2V384c35.1-11.3,64.1-23.9,98.5-48.2H321.8z M569.6,660.1H365.8
		v-24.5c0-60.6,54.8-95.3,99-131.4c27.9-23,46.6-43.1,46.6-74.1c0-33.4-22.4-50.4-53.2-50.4c-26.5,0-54.8,12.2-80.2,36.3v-49.3
		c26.5-19.5,53.4-29,89.7-29c58.6,0,96.9,30.3,96.9,87.1c0,51.5-26.9,79.4-68.6,113c-35.1,27.6-72.9,51.8-72.9,77.2v1.1h146.5V660.1
		z M602.3,647.2V599c21.1,16.4,45.1,24.5,71.6,24.5c21.5,0,38.7-4.9,51.6-14.4c12.9-9.5,19.5-22.6,19.5-38.9c0-36-28.1-54-84.5-54
		h-25.1v-41.1h24c50,0,75-17,75-50.9c0-31.2-19.5-46.9-58.4-46.9c-21.7,0-42.1,7.5-61.4,22.8v-45.6c22-12.2,48-18.1,78.1-18.1
		c28.8,0,51.9,7.1,69.3,21.2c17.4,14.2,26,32.3,26,54.4c0,41.8-21.7,68.6-65.2,80.5v0.9c23.3,2.2,41.9,10.2,55.5,24.1
		c13.6,13.7,20.4,31,20.4,51.5c0,28.5-10.9,51.5-32.8,69c-22,17.5-50.7,26.1-86.5,26.1C647.1,664.2,621.5,658.4,602.3,647.2z
		 M1225,925H74.8V75H1225V925z M139.3,860.5h1021.3v-721H139.3V860.5z"/>
</g>
</svg>
