<?xml version="1.0" encoding="iso-8859-1"?>
<!-- Generator: Adobe Illustrator 18.1.0, SVG Export Plug-In . SVG Version: 6.00 Build 0)  -->
<!DOCTYPE svg PUBLIC "-//W3C//DTD SVG 1.1//EN" "http://www.w3.org/Graphics/SVG/1.1/DTD/svg11.dtd">
<svg version="1.1" xmlns="http://www.w3.org/2000/svg" xmlns:xlink="http://www.w3.org/1999/xlink" x="0px" y="0px" width="1300px"
	 height="1000px" viewBox="0 0 1300 1000" style="enable-background:new 0 0 1300 1000;" xml:space="preserve">
<style type="text/css">
	.st0{display:none;}
	.st1{display:inline;}
	.st2{fill:#FFFFFF;}
	.st3{fill:#FFFFFF;stroke:#000000;stroke-width:1.45;stroke-linejoin:bevel;}
	.st4{display:inline;fill:none;stroke:#C1272D;stroke-miterlimit:10;}
	.st5{display:inline;fill:#ED1C24;}
	.st6{display:inline;fill:#FFFFFF;}
	.st7{display:inline;fill:none;stroke:#ED1C24;stroke-miterlimit:10;}
	.st8{fill:#ED1C24;}
	.st9{fill-rule:evenodd;clip-rule:evenodd;}
	.st10{fill:#231F20;}
</style>
<g id="Layer_2" class="st0">
</g>
<g id="Layer_1">
	<path d="M1225,925H74.8V75H1225V925z M139.3,860.5h1021.3v-721H139.3V860.5z M436.9,468.8h-45.4L369,405.3H271l-21.6,63.5h-45.2
		l93.4-249.4h46.6L436.9,468.8z M358.1,371.6l-34.6-99.5c-1-3.2-2.1-8.5-3.3-15.7h-0.7c-1,6.6-2.2,11.8-3.5,15.7l-34.3,99.5H358.1z
		 M501.2,443.1h-0.7v25.7h-40.3V205.2h40.3V322h0.7c13.8-23.7,34-35.5,60.5-35.5c22.5,0,40.1,8,52.8,23.9c12.7,15.9,19,37.3,19,64.1
		c0,29.8-7.1,53.6-21.4,71.6C597.9,464,578.4,473,553.7,473C530.5,473,513,463,501.2,443.1z M500.1,372.3v22.1c0,13,4.1,24,12.4,33
		c8.3,9,18.8,13.6,31.6,13.6c15,0,26.7-5.8,35.2-17.5c8.5-11.7,12.8-27.9,12.8-48.8c0-17.5-4-31.2-11.9-41.1
		c-7.9-9.9-18.7-14.9-32.3-14.9c-14.4,0-25.9,5.1-34.7,15.3C504.5,344.2,500.1,357,500.1,372.3z M795.6,460.6
		c-14.3,8.2-31.1,12.3-50.6,12.3c-26.4,0-47.8-8.3-64-24.8c-16.2-16.5-24.3-37.9-24.3-64.3c0-29.3,8.7-52.9,26.2-70.7
		c17.4-17.8,40.8-26.7,70-26.7c16.2,0,30.5,2.8,43,8.5v37.6c-12.4-9.3-25.6-13.9-39.6-13.9c-17,0-31,5.8-41.9,17.3
		c-10.9,11.5-16.3,26.6-16.3,45.3c0,18.4,5.1,33,15.4,43.6c10.3,10.7,24,16,41.3,16c14.5,0,28.2-5.2,41-15.5V460.6z M389.4,790.7
		H349v-30.3h-0.7c-13,23-33,34.4-60,34.4c-21.9,0-39.4-8-52.6-23.9C222.6,755,216,733.3,216,705.8c0-29.4,7.3-53,21.8-70.8
		c14.5-17.7,33.9-26.6,58.2-26.6c24,0,41.4,9.6,52.3,28.9h0.7V527h40.3V790.7z M349.6,709.3V686c0-12.6-4.1-23.4-12.3-32.2
		c-8.2-8.8-18.7-13.2-31.5-13.2c-15.1,0-26.9,5.6-35.6,16.9c-8.6,11.2-13,26.8-13,46.8c0,18.1,4.1,32.4,12.4,42.9
		c8.3,10.5,19.4,15.7,33.5,15.7c13.8,0,25-5.1,33.6-15.2C345.3,737.5,349.6,724.7,349.6,709.3z M585.1,712.6H463.7
		c0.5,16.5,5.5,29.2,15.2,38.1c9.7,8.9,23,13.4,39.9,13.4c19,0,36.5-5.7,52.3-17v32.5c-16.2,10.2-37.7,15.3-64.3,15.3
		c-26.2,0-46.8-8.1-61.6-24.3c-14.9-16.2-22.3-38.9-22.3-68.3c0-27.7,8.2-50.3,24.6-67.7c16.4-17.4,36.8-26.2,61.1-26.2
		c24.3,0,43.2,7.8,56.5,23.5c13.3,15.7,20,37.4,20,65.2V712.6z M546.1,684.1c-0.1-14.5-3.5-25.8-10.3-33.8
		c-6.7-8.1-16-12.1-27.8-12.1c-11.6,0-21.4,4.2-29.5,12.7c-8.1,8.5-13,19.5-14.9,33.2H546.1z M717.5,559.9
		c-5.5-3.1-11.7-4.7-18.6-4.7c-19.6,0-29.4,11.1-29.4,33.2v24.2h41.4v31.7h-41.2v146.4h-40.3V644.2h-30.4v-31.7h30.4v-28.9
		c0-18.8,6.1-33.6,18.4-44.4c12.3-10.8,27.7-16.3,46.1-16.3c10,0,17.9,1.1,23.7,3.3V559.9z"/>
</g>
</svg>
