<?xml version="1.0" encoding="iso-8859-1"?>
<!-- Generator: Adobe Illustrator 18.1.0, SVG Export Plug-In . SVG Version: 6.00 Build 0)  -->
<!DOCTYPE svg PUBLIC "-//W3C//DTD SVG 1.1//EN" "http://www.w3.org/Graphics/SVG/1.1/DTD/svg11.dtd">
<svg version="1.1" xmlns="http://www.w3.org/2000/svg" xmlns:xlink="http://www.w3.org/1999/xlink" x="0px" y="0px" width="1000px"
	 height="1000px" viewBox="0 0 1000 1000" style="enable-background:new 0 0 1000 1000;" xml:space="preserve">
<style type="text/css">
	.st0{display:none;}
	.st1{display:inline;}
	.st2{fill:#FFFFFF;}
	.st3{fill:#FFFFFF;stroke:#000000;stroke-width:1.45;stroke-linejoin:bevel;}
	.st4{display:inline;fill:none;stroke:#C1272D;stroke-miterlimit:10;}
	.st5{display:inline;fill:#ED1C24;}
	.st6{display:inline;fill:#FFFFFF;}
	.st7{display:inline;fill:none;stroke:#ED1C24;stroke-miterlimit:10;}
	.st8{fill:#ED1C24;}
	.st9{fill-rule:evenodd;clip-rule:evenodd;}
	.st10{fill:#231F20;}
</style>
<g id="Layer_2" class="st0">
</g>
<g id="Layer_1">
	<path d="M925.6,925H74.4V75h851.2V925z M138.9,860.5h722.3v-721H138.9V860.5z M546.5,584.9h-2C529.4,626.3,501.8,647,462,647
		c-29.9,0-54-10.8-72.4-32.5c-18.3-21.7-27.5-51.7-27.5-90.1c0-49.6,12.7-90,38-121.1c25.4-31.1,55.9-46.7,91.7-46.7
		c32.3,0,52.6,12.7,60.8,38h1.3l3.3-32.2h73.2c-9.8,92.3-14.6,152.7-14.6,181.1c0,30.4,8.2,45.5,24.7,45.5
		c17.3,0,31.6-11.5,42.9-34.5c11.3-23,16.9-53,16.9-90.1c0-50.7-16.2-92.3-48.5-124.7c-32.3-32.4-77.4-48.6-135.3-48.6
		c-62,0-113.5,21.6-154.6,64.9c-41.1,43.2-61.6,96-61.6,158.2c0,60.3,18.2,107.7,54.5,142.4c36.3,34.7,86.4,52,150.4,52
		c48.8,0,93.4-9.3,134-28v62.1c-37.1,15.8-84.8,23.7-143.1,23.7c-80,0-145.1-22.9-195.3-68.8C250.6,652,225.6,590.4,225.6,513
		c0-78.9,26.8-145.2,80.3-199c53.5-53.8,122.5-80.6,206.8-80.6c78,0,141.2,20.9,189.4,62.6c48.2,41.7,72.4,96.7,72.4,165
		c0,56.1-14.7,101.2-44.2,135.1c-29.5,33.9-66,50.9-109.6,50.9c-21.5,0-38.9-5.7-52.4-17.2C554.8,618.3,547.6,603.3,546.5,584.9z
		 M503.3,413.2c-19.5,0-35.4,11.1-47.6,33.3c-12.3,22.2-18.4,48-18.4,77.2c0,20.8,4.2,37,12.5,48.6c8.3,11.6,19.1,17.4,32.4,17.4
		c20.4,0,36.4-10.9,48.1-32.8c11.7-21.9,17.6-51.2,17.6-87.8c0-17.3-4.1-31-12.2-41C527.5,418.2,516.7,413.2,503.3,413.2z"/>
</g>
</svg>
