<?xml version="1.0" encoding="iso-8859-1"?>
<!-- Generator: Adobe Illustrator 18.1.0, SVG Export Plug-In . SVG Version: 6.00 Build 0)  -->
<!DOCTYPE svg PUBLIC "-//W3C//DTD SVG 1.1//EN" "http://www.w3.org/Graphics/SVG/1.1/DTD/svg11.dtd">
<svg version="1.1" xmlns="http://www.w3.org/2000/svg" xmlns:xlink="http://www.w3.org/1999/xlink" x="0px" y="0px" width="1300px"
	 height="1000px" viewBox="0 0 1300 1000" style="enable-background:new 0 0 1300 1000;" xml:space="preserve">
<style type="text/css">
	.st0{display:none;}
	.st1{display:inline;}
	.st2{fill:#FFFFFF;}
	.st3{fill:#FFFFFF;stroke:#000000;stroke-width:1.45;stroke-linejoin:bevel;}
	.st4{display:inline;fill:none;stroke:#C1272D;stroke-miterlimit:10;}
	.st5{display:inline;fill:#ED1C24;}
	.st6{display:inline;fill:#FFFFFF;}
	.st7{display:inline;fill:none;stroke:#ED1C24;stroke-miterlimit:10;}
	.st8{fill:#ED1C24;}
	.st9{fill-rule:evenodd;clip-rule:evenodd;}
	.st10{fill:#231F20;}
</style>
<g id="Layer_2" class="st0">
</g>
<g id="Layer_1">
	<path d="M1225,925H74.8V75H1225V925z M139.3,860.5h1021.3v-721H139.3V860.5z M476.1,660.5h-56l-27.7-78.3H271.5l-26.6,78.3h-55.8
		L304.3,353h57.5L476.1,660.5z M378.9,540.6L336.2,418c-1.3-4-2.6-10.4-4.1-19.3h-0.9c-1.3,8.1-2.7,14.6-4.3,19.3l-42.2,122.7H378.9
		z M555.3,628.8h-0.9v31.7h-49.8V335.4h49.8v144.1h0.9c17-29.2,41.9-43.7,74.6-43.7c27.7,0,49.4,9.8,65.1,29.5
		c15.7,19.7,23.5,46,23.5,79c0,36.7-8.8,66.2-26.4,88.2c-17.6,22.1-41.6,33.1-72.1,33.1C591.5,665.7,569.9,653.4,555.3,628.8z
		 M554.1,541.5v27.2c0,16,5.1,29.6,15.3,40.7c10.2,11.2,23.2,16.7,38.9,16.7c18.4,0,32.9-7.2,43.4-21.6
		c10.5-14.4,15.8-34.4,15.8-60.2c0-21.6-4.9-38.5-14.7-50.7c-9.8-12.2-23.1-18.3-39.8-18.3c-17.7,0-32,6.3-42.8,18.9
		C559.4,506.9,554.1,522.6,554.1,541.5z M918.5,650.4c-17.6,10.1-38.4,15.2-62.4,15.2c-32.6,0-58.9-10.2-78.9-30.6
		c-20-20.4-30-46.8-30-79.2c0-36.2,10.8-65.2,32.3-87.2c21.5-21.9,50.3-32.9,86.3-32.9c20,0,37.7,3.5,53,10.5v46.3
		c-15.3-11.4-31.6-17.2-48.9-17.2c-21,0-38.2,7.1-51.7,21.3c-13.4,14.2-20.2,32.8-20.2,55.9c0,22.7,6.3,40.7,19,53.8
		c12.7,13.2,29.6,19.7,50.9,19.7c17.9,0,34.7-6.4,50.6-19.1V650.4z"/>
</g>
</svg>
