<?xml version="1.0" encoding="utf-8"?>
<!-- Generator: Adobe Illustrator 18.1.1, SVG Export Plug-In . SVG Version: 6.00 Build 0)  -->
<!DOCTYPE svg PUBLIC "-//W3C//DTD SVG 1.1//EN" "http://www.w3.org/Graphics/SVG/1.1/DTD/svg11.dtd">
<svg version="1.1" xmlns="http://www.w3.org/2000/svg" xmlns:xlink="http://www.w3.org/1999/xlink" x="0px" y="0px" width="1000px"
	 height="1000px" viewBox="0 0 1000 1000" style="enable-background:new 0 0 1000 1000;" xml:space="preserve">
<style type="text/css">
	.st0{fill:#101010;}
	.st1{fill:#FFFFFF;}
	.st2{fill:none;stroke:#000000;stroke-miterlimit:10;}
	.st3{fill:#231F20;}
</style>
<g id="Layer_2">
</g>
<g id="Layer_1">
	<path d="M109,394.4v404.9l344.5,53.3V339.4L109,394.4z M351.7,690.7l-44.7-2.5c0,0-31.1-141.8-31.2-143.9l-0.5,0
		c-0.2,2.1-31.1,140.4-31.1,140.4l-41.2-2.3l-39.6-178.4l37-2c0,0,24,139.2,24.1,141.4l0.7,0c0.1-1.7,32.6-144.6,32.6-144.6
		l40.7-2.1c0,0,31.5,147.3,31.6,149.6l0.5,0c0.1-1.9,27.8-153.1,27.8-153.1l43-2.4L351.7,690.7z M688.8,75H227.4v287l13.3-2.1V88.3
		h438.7v79.8H294.6v26.6h384.9V248H294.6v26.6h384.9v12.5h198.2v624.6h-637v-78.6l-13.3-2.1v94H891V277.2L688.8,75z M692.8,273.8
		V97.6L869,273.8H692.8z M826.1,753.9H466.8v-26.6h359.3V753.9z M826.1,833.8H466.8v-26.6h359.3V833.8z M826.1,674.1H466.8v-26.6
		h359.3V674.1z M294.6,327.9h146.6l-146.6,23.4V327.9z M826.1,354.5H466.8v-26.6h359.3V354.5z M826.1,514.3H466.8v-26.6h359.3V514.3
		z M826.1,594.2H466.8v-26.6h359.3V594.2z M826.1,434.4H466.8v-26.6h359.3V434.4z"/>
</g>
</svg>
