<?xml version="1.0" encoding="utf-8"?>
<!-- Generator: Adobe Illustrator 18.1.1, SVG Export Plug-In . SVG Version: 6.00 Build 0)  -->
<!DOCTYPE svg PUBLIC "-//W3C//DTD SVG 1.1//EN" "http://www.w3.org/Graphics/SVG/1.1/DTD/svg11.dtd">
<svg version="1.1" xmlns="http://www.w3.org/2000/svg" xmlns:xlink="http://www.w3.org/1999/xlink" x="0px" y="0px" width="1000px"
	 height="1000px" viewBox="0 0 1000 1000" style="enable-background:new 0 0 1000 1000;" xml:space="preserve">
<style type="text/css">
	.st0{fill:#101010;}
	.st1{fill:#FFFFFF;}
	.st2{fill:none;stroke:#000000;stroke-miterlimit:10;}
	.st3{fill:#231F20;}
</style>
<g id="Layer_2">
</g>
<g id="Layer_1">
	<path d="M688.8,75H227.4v287l13.3-2.1V88.3h438.7v140.5c-25.4-21.3-58-34.3-93.7-34.3v146h146c0-18.9-3.9-36.9-10.5-53.5h156.4
		v624.6h-637v-78.6l-13.3-2.1v94H891V277.2L688.8,75z M692.8,273.8V97.6L869,273.8H692.8z M825,833.7H466.8v-26.6H825V833.7z
		 M559.2,221.1v146h146c0,80.6-65.4,146-146,146c-35.1,0-67.2-12.4-92.4-33V323.8l-49,7.8C433.6,268.2,490.9,221.1,559.2,221.1z
		 M825,594H466.8v-26.6H825V594z M825,673.9H466.8v-26.6H825V673.9z M825,753.8H466.8v-26.6H825V753.8z M317.2,533.1
		c5.5,14.6,3.3,36.1-12.7,44.9c-12.1,6.6-28,4.9-41.5,4.9h-0.7v-67.2c11.6-0.4,24.4-2,35.7,1c4.8,1.3,8.8,3.3,12,6
		C313.1,525.3,315.5,528.9,317.2,533.1z M109,394.1v403l344.5,53.1V339.4L109,394.1z M366.4,575.4c-17.9,40.8-61.7,45-104.2,44.3
		v76.7l-44.6-4.8V480.7l71.9-3.7c26.2-1.3,55.3,3.5,70.7,24.5C375.2,522,375.9,553,366.4,575.4z"/>
</g>
</svg>
