<?xml version="1.0" encoding="utf-8"?>
<!-- Generator: Adobe Illustrator 18.1.1, SVG Export Plug-In . SVG Version: 6.00 Build 0)  -->
<!DOCTYPE svg PUBLIC "-//W3C//DTD SVG 1.1//EN" "http://www.w3.org/Graphics/SVG/1.1/DTD/svg11.dtd">
<svg version="1.1" xmlns="http://www.w3.org/2000/svg" xmlns:xlink="http://www.w3.org/1999/xlink" x="0px" y="0px" width="1000px"
	 height="1000px" viewBox="0 0 1000 1000" style="enable-background:new 0 0 1000 1000;" xml:space="preserve">
<style type="text/css">
	.st0{fill:#101010;}
	.st1{fill:#FFFFFF;}
	.st2{fill:none;stroke:#000000;stroke-miterlimit:10;}
	.st3{fill:#231F20;}
</style>
<g id="Layer_2">
</g>
<g id="Layer_1">
	<path d="M872.3,672.7h-40.5V277.2L629.5,75H168.2v597.7h-40.5v132.9h40.5V925h663.6V805.5h40.5V672.7z M633.5,97.6l176.2,176.2
		H633.5V97.6z M818.5,911.7h-637V805.5h172.1V672.7H181.5V88.3h438.7v198.8h198.2v385.6H646.4v132.9h172.1V911.7z M366.8,632.8
		v212.6h265.8V632.8H366.8z M592.7,805.5h-186V672.7h186V805.5z M579.4,792.2H420V685.9h159.5V792.2z M304.5,540.8h-0.6v88.4h-23.4
		V415.8h23.4v25.7h0.6c11.5-19.4,28.4-29.1,50.5-29.1c18.8,0,33.5,6.5,44.1,19.6c10.6,13.1,15.8,30.6,15.8,52.6
		c0,24.5-5.9,44-17.8,58.7c-11.9,14.7-28.2,22.1-48.8,22.1C329.4,565.4,314.8,557.2,304.5,540.8z M303.9,481.9v20.4
		c0,12.1,3.9,22.3,11.8,30.8c7.8,8.4,17.8,12.6,29.9,12.6c14.2,0,25.3-5.4,33.3-16.3c8-10.8,12.1-25.9,12.1-45.2
		c0-16.3-3.8-29-11.3-38.3c-7.5-9.2-17.7-13.8-30.5-13.8c-13.6,0-24.6,4.7-32.8,14.2C308.1,455.8,303.9,467.6,303.9,481.9z
		 M577.1,562h-23.4v-24.8h-0.6c-10.8,18.8-27.6,28.3-50.2,28.3c-18.4,0-33-6.5-44-19.6c-11-13.1-16.5-30.9-16.5-53.5
		c0-24.2,6.1-43.5,18.3-58.1c12.2-14.6,28.4-21.8,48.7-21.8c20.1,0,34.7,7.9,43.8,23.7h0.6v-90.5h23.4V562z M553.7,495.9v-21.6
		c0-11.8-3.9-21.8-11.7-30c-7.8-8.2-17.7-12.3-29.7-12.3c-14.3,0-25.5,5.2-33.7,15.7c-8.2,10.5-12.3,24.9-12.3,43.4
		c0,16.8,3.9,30.1,11.8,39.9c7.8,9.8,18.4,14.6,31.6,14.6c13,0,23.6-4.7,31.8-14.1C549.6,522.2,553.7,510.3,553.7,495.9z
		 M696.7,366.1c-4.6-2.6-9.8-3.9-15.6-3.9c-16.4,0-24.6,10.3-24.6,31v22.6h34.3v20h-34.3V562h-23.3V435.8h-25v-20h25v-23.7
		c0-15.3,4.4-27.4,13.3-36.3c8.8-8.9,19.9-13.3,33.1-13.3c7.1,0,12.8,0.9,17,2.6V366.1z"/>
</g>
</svg>
