<?xml version="1.0" encoding="utf-8"?>
<!-- Generator: Adobe Illustrator 18.1.1, SVG Export Plug-In . SVG Version: 6.00 Build 0)  -->
<!DOCTYPE svg PUBLIC "-//W3C//DTD SVG 1.1//EN" "http://www.w3.org/Graphics/SVG/1.1/DTD/svg11.dtd">
<svg version="1.1" xmlns="http://www.w3.org/2000/svg" xmlns:xlink="http://www.w3.org/1999/xlink" x="0px" y="0px" width="1000px"
	 height="1000px" viewBox="0 0 1000 1000" style="enable-background:new 0 0 1000 1000;" xml:space="preserve">
<style type="text/css">
	.st0{fill:#101010;}
	.st1{fill:#FFFFFF;}
	.st2{fill:none;stroke:#000000;stroke-miterlimit:10;}
	.st3{fill:#231F20;}
</style>
<g id="Layer_2">
</g>
<g id="Layer_1">
	<path d="M425.8,694.2H153.6c-2.8-0.5-8.7-0.7-12.8-7.8c-4.1-7.2-0.4-14.4,1.8-17.8l199-278.6c1.7-2.1,12.4-13.5,29.9-13.5
		s28.5,9.6,30.9,12.4L529.6,551L425.8,694.2z M466,694.2l170.6-236.7c2.8-3.3,9.5-12.1,25.9-12.1s27,11.4,27,11.4l164.9,210.7
		c2.8,3.3,6,11.5,2.5,18.8c-3.5,7.4-7.5,7.1-13.1,7.8H466z M911.7,88.3v823.4H88.3V88.3H911.7 M925,75H75v850h850V75L925,75z
		 M536.1,309.7c-36.8,0-66.7,29.8-66.7,66.7s29.8,66.7,66.7,66.7c36.8,0,66.7-29.8,66.7-66.7S573,309.7,536.1,309.7z"/>
</g>
</svg>
