<?xml version="1.0" encoding="utf-8"?>
<!-- Generator: Adobe Illustrator 18.1.1, SVG Export Plug-In . SVG Version: 6.00 Build 0)  -->
<!DOCTYPE svg PUBLIC "-//W3C//DTD SVG 1.1//EN" "http://www.w3.org/Graphics/SVG/1.1/DTD/svg11.dtd">
<svg version="1.1" xmlns="http://www.w3.org/2000/svg" xmlns:xlink="http://www.w3.org/1999/xlink" x="0px" y="0px" width="1000px"
	 height="1000px" viewBox="0 0 1000 1000" style="enable-background:new 0 0 1000 1000;" xml:space="preserve">
<style type="text/css">
	.st0{fill:#101010;}
	.st1{fill:#FFFFFF;}
	.st2{fill:none;stroke:#000000;stroke-miterlimit:10;}
	.st3{fill:#231F20;}
</style>
<g id="Layer_2">
</g>
<g id="Layer_1">
	<path d="M479.5,459.9H639v79.7H479.5V459.9z M479.5,327.1H639v-79.7H479.5V327.1z M479.5,433.4H639v-79.7H479.5V433.4z M891,277.2
		V925H227.4v-94l13.3,2.1v78.6h637V287.1h-53.2v40H665.1v-79.7h14.4v-26.6h-14.4V141h14.4V88.3H240.7v271.6l-13.3,2.1V75h461.3
		L891,277.2z M869,273.8L692.8,97.6v176.2H869z M453.3,247.3H293.9v79.7h152.7l6.8-1.1V247.3z M824.6,353.6H665.1v79.7h159.5V353.6z
		 M665.1,646h159.5v-79.7H665.1V646z M665.1,752.3h159.5v-79.7H665.1V752.3z M665.1,858.6h159.5v-79.7H665.1V858.6z M665.1,539.7
		h159.5v-79.7H665.1V539.7z M479.5,646H639v-79.7H479.5V646z M479.5,752.3H639v-79.7H479.5V752.3z M479.5,858.6H639v-79.7H479.5
		V858.6z M453.5,341.7v508.4L109,797.4V396.2L453.5,341.7z M368.9,702.3l-63.7-107l61.9-105.2l-52.1,2.6c0,0-37.5,78.9-37.8,79.9
		l-0.6,0c-0.4-1.6-33.1-76.2-33.1-76.2l-50.3,2.6l53.5,97.1l-58.4,96.9l48.9,2.5c0,0,37.2-76.8,37.4-77.6l0.5,0
		c0.3,1.7,38.1,81.5,38.1,81.5L368.9,702.3z M639,141H479.5v79.7H639V141z M293.9,220.8h159.5V141H293.9V220.8z"/>
</g>
</svg>
