<?xml version="1.0" encoding="iso-8859-1"?>
<!-- Generator: Adobe Illustrator 18.1.0, SVG Export Plug-In . SVG Version: 6.00 Build 0)  -->
<!DOCTYPE svg PUBLIC "-//W3C//DTD SVG 1.1//EN" "http://www.w3.org/Graphics/SVG/1.1/DTD/svg11.dtd">
<svg version="1.1" id="Layer_1" xmlns="http://www.w3.org/2000/svg" xmlns:xlink="http://www.w3.org/1999/xlink" x="0px" y="0px"
	 width="1000px" height="1000px" viewBox="0 0 1000 1000" style="enable-background:new 0 0 1000 1000;" xml:space="preserve">
<style type="text/css">
	.st0{fill-rule:evenodd;clip-rule:evenodd;}
	.st1{fill:none;}
</style>
<path d="M534.7,925c23.2,0,42.1-18.8,42.1-42.1V557.1c0-10.7,4.1-20.9,11.3-28.7l325-347.4c7.3-7.8,11.3-18.1,11.3-28.7v-35.2
	c0-23.2-18.8-42.1-42.1-42.1H117.6c-23.2,0-42.1,18.8-42.1,42.1v35.2c0,10.7,4.1,20.9,11.3,28.7l325,347.4
	c7.3,7.8,11.3,18.1,11.3,28.7v325.8c0,23.2,18.8,42.1,42.1,42.1H534.7z"/>
</svg>
