<?xml version="1.0" encoding="iso-8859-1"?>
<!-- Generator: Adobe Illustrator 18.1.0, SVG Export Plug-In . SVG Version: 6.00 Build 0)  -->
<!DOCTYPE svg PUBLIC "-//W3C//DTD SVG 1.1//EN" "http://www.w3.org/Graphics/SVG/1.1/DTD/svg11.dtd">
<svg version="1.1" xmlns="http://www.w3.org/2000/svg" xmlns:xlink="http://www.w3.org/1999/xlink" x="0px" y="0px" width="1000px"
	 height="1000px" viewBox="0 0 1000 1000" style="enable-background:new 0 0 1000 1000;" xml:space="preserve">
<style type="text/css">
	.st0{display:none;}
	.st1{display:inline;}
	.st2{fill:#FFFFFF;}
	.st3{fill:#FFFFFF;stroke:#000000;stroke-width:1.45;stroke-linejoin:bevel;}
	.st4{display:inline;fill:none;stroke:#C1272D;stroke-miterlimit:10;}
	.st5{display:inline;fill:#ED1C24;}
	.st6{display:inline;fill:#FFFFFF;}
	.st7{display:inline;fill:none;stroke:#ED1C24;stroke-miterlimit:10;}
	.st8{fill:#ED1C24;}
	.st9{fill-rule:evenodd;clip-rule:evenodd;}
	.st10{fill:#231F20;}
</style>
<g id="Layer_2" class="st0">
</g>
<g id="Layer_1">
	<path d="M765.2,260.7v-85c0-41.7-33.8-75.6-75.6-75.6H310.3c-41.7,0-75.5,33.8-75.5,75.5v85H117.1c-23.2,0-42.1,18.8-42.1,42.1
		v554.9c0,23.2,18.8,42.1,42.1,42.1h765.8c23.2,0,42.1-18.8,42.1-42.1V302.8c0-23.2-18.8-42.1-42.1-42.1H765.2z M353.2,185.1h293.5
		c7.6,0,13.8,6.2,13.8,13.8v61.9h-321v-61.9C339.5,191.3,345.6,185.1,353.2,185.1z M714.1,633H551.1v162.9H448.9V633H285.9V530.7
		h162.9V367.8h102.3v162.9h162.9V633z"/>
</g>
</svg>
