<?xml version="1.0" encoding="iso-8859-1"?>
<!-- Generator: Adobe Illustrator 18.1.0, SVG Export Plug-In . SVG Version: 6.00 Build 0)  -->
<!DOCTYPE svg PUBLIC "-//W3C//DTD SVG 1.1//EN" "http://www.w3.org/Graphics/SVG/1.1/DTD/svg11.dtd">
<svg version="1.1" id="Layer_1" xmlns="http://www.w3.org/2000/svg" xmlns:xlink="http://www.w3.org/1999/xlink" x="0px" y="0px"
	 width="1000px" height="1000px" viewBox="0 0 1000 1000" style="enable-background:new 0 0 1000 1000;" xml:space="preserve">
<style type="text/css">
	.st0{fill-rule:evenodd;clip-rule:evenodd;}
</style>
<path d="M913.2,179.8c-6.2-5.4-13.1-8.1-20.8-8.1H586.4c-7.7,0-14.3,2.9-19.7,8.7c-5.4,5.8-9.7,12.2-12.8,19.1l-27.8,61.3H98.5
	c-6.6,0-12.2,2.3-16.8,7c-4.6,4.6-6.9,10.2-6.9,16.8v543.7h850V199.5C923.2,191.8,919.4,185.2,913.2,179.8z M553.2,717.4H444.9
	L577,592.3H279.1v-85.2H577L445.4,383.7h108.4L729.9,550L553.2,717.4z"/>
</svg>
