<?xml version="1.0" encoding="iso-8859-1"?>
<!-- Generator: Adobe Illustrator 18.1.0, SVG Export Plug-In . SVG Version: 6.00 Build 0)  -->
<!DOCTYPE svg PUBLIC "-//W3C//DTD SVG 1.1//EN" "http://www.w3.org/Graphics/SVG/1.1/DTD/svg11.dtd">
<svg version="1.1" xmlns="http://www.w3.org/2000/svg" xmlns:xlink="http://www.w3.org/1999/xlink" x="0px" y="0px" width="1000px"
	 height="1000px" viewBox="0 0 1000 1000" style="enable-background:new 0 0 1000 1000;" xml:space="preserve">
<style type="text/css">
	.st0{display:none;}
	.st1{display:inline;}
	.st2{fill:#FFFFFF;}
	.st3{fill:#FFFFFF;stroke:#000000;stroke-width:1.45;stroke-linejoin:bevel;}
	.st4{display:inline;fill:none;stroke:#C1272D;stroke-miterlimit:10;}
	.st5{display:inline;fill:#ED1C24;}
	.st6{display:inline;fill:#FFFFFF;}
	.st7{display:inline;fill:none;stroke:#ED1C24;stroke-miterlimit:10;}
	.st8{fill:#ED1C24;}
	.st9{fill-rule:evenodd;clip-rule:evenodd;}
	.st10{fill:#231F20;}
</style>
<g id="Layer_2" class="st0">
</g>
<g id="Layer_1">
	<path d="M663.3,497.2c0,60.1-48.7,108.8-108.8,108.8c-60.1,0-108.8-48.7-108.8-108.8c0-60.1,48.7-108.8,108.8-108.8
		C614.6,388.4,663.3,437.1,663.3,497.2z M925,199.5v628.8H75V284.6c0-6.6,2.3-12.1,6.9-16.8c4.6-4.6,10.2-7,16.8-7h427.6l27.8-61.3
		c3.1-6.9,7.3-13.3,12.8-19.1c5.4-5.8,12-8.7,19.7-8.7h305.9c7.7,0,14.7,2.7,20.8,8.1C919.6,185.2,923.4,191.8,925,199.5z
		 M711.9,497.2c0-86.9-70.5-157.4-157.4-157.4c-86.9,0-157.4,70.5-157.4,157.4c0,28.2,7.5,54.6,20.5,77.5l-118,119.1
		c-15.6,15.7-15.5,41.2,0.3,56.8c7.8,7.8,18,11.6,28.2,11.6c10.3,0,20.7-4,28.5-11.9l117.1-118.2c23.6,14.2,51.2,22.5,80.7,22.5
		C641.5,654.6,711.9,584.1,711.9,497.2z"/>
</g>
</svg>
