<?xml version="1.0" encoding="iso-8859-1"?>
<!-- Generator: Adobe Illustrator 18.1.0, SVG Export Plug-In . SVG Version: 6.00 Build 0)  -->
<!DOCTYPE svg PUBLIC "-//W3C//DTD SVG 1.1//EN" "http://www.w3.org/Graphics/SVG/1.1/DTD/svg11.dtd">
<svg version="1.1" id="Layer_1" xmlns="http://www.w3.org/2000/svg" xmlns:xlink="http://www.w3.org/1999/xlink" x="0px" y="0px"
	 width="6009px" height="1000px" viewBox="0 0 6009 1000" style="enable-background:new 0 0 6009 1000;" xml:space="preserve">
<path d="M5956.524,481.015V375.368H5446.93v105.648h37.287v-68.36h428.805v68.36H5956.524z M5975.167,325.651v-31.073h-167.793
	v-43.502h-43.502v43.502h-130.506v-43.502h-37.287v43.502h-167.793v31.073h167.793v37.287h37.287v-37.287h130.506v37.287h43.502
	v-37.287H5975.167z M5577.436,580.448h248.582v12.429h43.502v-136.72h-335.586v136.72h43.502V580.448z M5577.436,549.375v-55.931
	h248.582v55.931H5577.436z M5869.52,766.885v31.073h43.502V630.165h-416.375v167.793h43.502v-31.073H5869.52z M5869.52,661.238
	v74.575h-329.372v-74.575H5869.52z M5366.141,325.651v-43.502h-310.728v43.502H5366.141z M5403.428,468.586v-43.502h-385.303v43.502
	h118.077c-24.858,49.716-49.716,93.218-74.575,130.506c-12.429,12.429-18.644,24.858-31.073,37.287l18.644,37.287
	c12.429,0,24.858-6.215,37.288-6.215c49.716-6.215,118.077-12.429,229.938-18.644c6.214,12.429,12.429,24.858,24.858,43.502
	l37.287-31.073c-31.073-49.716-68.36-105.648-111.862-155.364l-31.073,18.644c18.644,31.073,31.073,55.931,55.931,87.004
	c-74.575,6.215-136.72,6.215-192.651,12.429c31.073-43.502,62.146-99.433,93.219-155.364H5403.428z M4918.692,251.077
	l-31.073,31.073c24.858,31.073,49.717,68.36,80.79,105.648l37.287-31.073C4974.624,319.437,4949.765,288.364,4918.692,251.077z
	 M4949.765,710.954c31.073,43.502,74.575,62.146,130.506,62.146l310.728,6.215c6.214-18.644,12.429-31.073,18.644-49.716
	l-316.942,6.215c-49.716,0-87.004-18.644-118.077-55.931V443.728h-111.862v43.502h68.36v186.437
	c-49.716,43.502-74.575,62.146-74.575,62.146l24.858,49.716C4906.264,754.456,4924.907,729.598,4949.765,710.954z M4763.329,157.858
	c-18.644-12.429-31.073-18.644-55.931-18.644l0,0c-18.644,0-37.287,6.215-49.716,18.644s-18.644,31.073-18.644,49.716
	s6.214,43.502,18.644,49.716c12.429,12.429,31.073,24.858,49.716,24.858l0,0c24.858,0,37.288-12.429,55.931-24.858
	c6.214-6.215,18.644-31.073,18.644-49.716S4769.543,170.287,4763.329,157.858z M4707.397,151.644
	c18.644,0,31.073,6.215,43.502,12.429c12.429,12.429,18.644,24.858,18.644,43.502s-6.214,31.073-18.644,43.502
	c-12.429,12.429-24.858,18.644-43.502,18.644l0,0c-12.429,0-31.073-6.215-37.287-18.644c-12.429-12.429-24.858-24.858-24.858-43.502
	s12.429-31.073,24.858-43.502C4676.325,157.858,4694.968,151.644,4707.397,151.644
	C4707.397,145.429,4707.397,145.429,4707.397,151.644z M4713.612,220.004c12.429-6.215,18.644-12.429,18.644-24.858
	c0-6.215,0-12.429-6.215-18.644c-6.214-6.215-12.429-6.215-18.644-6.215h-24.858v80.789h12.429v-31.073h6.215
	c6.214,0,6.214,0,6.214,0s6.215,6.215,12.429,6.215l12.429,24.858h6.214l-12.429-24.858c0-6.215-6.214-6.215-6.214-6.215
	S4719.827,220.004,4713.612,220.004z M4726.041,195.146l-6.214,6.215c-6.214,6.215-12.429,6.215-12.429,6.215h-12.429v-24.858
	h12.429c0-6.215,12.429,0,12.429,0C4719.827,188.931,4726.041,188.931,4726.041,195.146z M4396.669,164.073
	c0,6.215-6.214,18.644-18.644,37.287c-18.644,18.644-31.073,37.287-49.716,55.931c6.214,6.215,24.858,6.215,37.287,18.644h-155.364
	l24.858-18.644c6.214,0,24.858-6.215,49.716-12.429l-12.429-24.858c0,0,0-12.429-6.214-31.073
	c-12.429-18.644-18.644-31.073-24.858-49.716c-18.644,6.215-49.716,18.644-93.218,31.073c12.429,24.858,24.858,43.502,24.858,55.931
	c6.215,12.429,6.215,31.073,12.429,49.716l-105.647-6.215l-12.429,74.575h167.793l-12.429,49.716
	c-6.215,12.429-12.429,31.073-18.644,62.146l-174.007-6.215l-18.644,80.789h167.793l-12.429,24.858
	c-6.214,18.644-18.644,43.502-43.502,68.36c-18.644,24.858-37.287,43.502-68.36,62.146s-62.146,31.073-105.647,37.287l18.644,31.073
	c6.215,6.215,12.429,24.858,24.858,43.502c62.146-24.858,118.076-55.931,142.935-80.789c31.073-24.858,55.931-43.502,68.36-55.931
	c6.215-12.429,18.644-31.073,31.073-49.716l12.429,43.502c6.215,18.644,12.429,37.287,24.858,62.146
	c18.644,24.858,55.931,55.931,105.647,93.218l18.644-18.644c0-6.215,24.858-24.858,62.146-55.931
	c-18.644-6.215-43.502-18.644-68.36-31.073c-24.858-18.644-43.502-43.502-55.931-80.789s-18.644-62.146-18.644-68.36
	s0-12.429-6.214-24.858l174.007,6.215l18.644-80.789h-198.866c12.429-37.287,24.858-74.575,31.073-111.862l174.008,6.215
	l12.429-74.575h-99.433c31.073-43.502,62.146-74.575,80.789-99.433l-24.858-6.215c-18.644-6.215-31.073-12.429-62.146-31.073
	L4396.669,164.073z M4054.869,232.433l49.717,6.215l12.429-74.575l-366.659-6.215l-12.429,74.575h43.502l-87.004,385.303
	l-43.502,6.215v31.073c0,6.215,0,24.858,0,49.716l31.073-6.215c6.215,0,68.36-12.429,186.437-31.073l-37.287,130.506h99.433
	l31.073-149.149c18.644-6.215,37.287-12.429,55.931-12.429l6.215-18.644c0-12.429,6.215-24.858,12.429-31.073
	c0-12.429,0-18.644,6.215-31.073c-18.644,12.429-37.287,12.429-62.146,18.644L4054.869,232.433z M3949.221,313.222h-93.219
	l18.644-80.789h93.218L3949.221,313.222z M3930.578,375.368l-12.429,68.36h-93.219l18.644-68.36H3930.578z M3887.076,592.877
	c-31.073,0-62.146,6.215-99.433,12.429l24.858-93.218h87.004L3887.076,592.877z M3470.7,282.149l24.858-87.004l-689.816-6.215
	l-24.858,93.218l205.081-6.215c-31.073,43.502-55.931,80.789-74.575,118.077c-24.858,31.073-55.931,74.575-93.218,136.72
	l-43.502,62.146h335.586l-37.287,80.789l-435.019-12.429l-24.858,93.218l783.035,6.215l24.858-93.218l-229.939,6.215l87.004-192.651
	c12.429-12.429,24.858-37.287,37.287-68.36l37.287-68.36H3048.11l43.502-68.36L3470.7,282.149z M2942.463,512.088l55.931-87.004
	h192.651l-43.502,87.004H2942.463z M2401.796,263.506l-37.287,130.506l-267.226-6.215l-87.004,329.372
	c0,12.429,0,24.858,6.215,31.073c6.215,6.215,24.858,12.429,49.716,18.644c24.858,6.215,87.004,6.215,174.008,6.215
	c31.073,6.215,62.146,6.215,80.789,0c24.858,0,37.287-6.215,49.717-6.215c12.429-12.429,24.858-18.644,37.287-31.073
	c6.215-12.429,18.644-24.858,31.073-37.287c6.215-12.429,18.644-31.073,24.858-43.502c-24.858-12.429-43.502-18.644-55.931-24.858
	c-12.429,0-18.644-6.215-31.073-18.644l-12.429,24.858c0,6.215-6.215,12.429-12.429,24.858
	c-12.429,12.429-18.644,18.644-24.858,24.858c-6.215,0-12.429,6.215-18.644,6.215c-12.429,6.215-24.858,6.215-43.502,6.215
	c-12.429,0-31.073,0-55.931,0c-24.858,0-43.502,0-55.931-6.215c-12.429,0-18.644,0-24.858-6.215c-6.214,0-6.214-6.215,0-12.429
	l55.931-211.295l267.226,6.215l74.575-285.87l-391.517-6.215l-18.644,87.004H2401.796z M2010.279,238.648l-24.858,24.858
	c-12.429,12.429-37.287,31.073-80.789,68.36h-80.789c62.146-49.716,124.291-105.648,186.437-161.579
	c-31.073-6.215-62.146-18.644-93.218-37.287c-24.858,31.073-49.716,55.931-62.146,74.575
	c-18.644,12.429-37.287,31.073-62.146,55.931c-31.073,24.858-49.716,37.287-55.931,43.502
	c-12.429,6.215-24.858,12.429-31.073,18.644v24.858c0,6.215,0,12.429-6.215,24.858c0,12.429,0,18.644-6.215,31.073
	c37.287,0,80.789,0,124.291,0c-24.858,18.644-49.717,37.287-74.575,55.931c-24.858,12.429-49.717,31.073-74.575,43.502l6.214,24.858
	c0,6.215,0,18.644,6.215,49.716c130.506-18.644,229.939-31.073,304.513-31.073l12.429-24.858c0-6.215,12.429-24.858,31.073-55.931
	c-62.146,6.215-130.506,12.429-205.08,24.858l111.862-87.004c18.644-18.644,68.36-55.931,149.15-118.077l-24.858-6.215
	C2053.781,275.935,2035.137,263.506,2010.279,238.648z M1494.471,425.084l24.858-93.218h-155.364l49.716-161.579h-118.077
	l-43.502,161.579h-105.647l49.716-161.579h-118.077l-37.287,161.579h-93.218l49.716-167.793l-118.077-6.215l-43.502,174.008
	l-118.077-6.215l-24.858,87.004h118.077L717.651,760.67l658.743,6.215l24.858-87.004l-546.881-6.215l68.36-261.011h93.218
	l-55.931,205.08l329.372,6.215l55.931-205.08L1494.471,425.084z M1127.812,412.655l99.433,6.215l-31.073,118.077h-99.433
	L1127.812,412.655z M1631.191,710.954c0,0,6.214,18.644,12.429,49.716l49.716-12.429c37.287-12.429,130.506-31.073,261.011-62.146
	l6.215-18.644c0-6.215,6.215-18.644,12.429-24.858c0-12.429,6.215-24.858,18.644-37.287
	c-124.291,31.073-248.582,55.931-372.874,68.36L1631.191,710.954z M319.919,251.077h-49.716v99.433H65.122v435.019h43.502v-31.073
	h372.874v31.073h43.502V350.51h-205.08V251.077z M481.497,394.011v136.72H319.919v-136.72H481.497z M108.624,530.732v-136.72
	h161.579v136.72H108.624z M319.919,710.954v-136.72h161.579v136.72H319.919z M270.202,710.954H108.624v-136.72h161.579V710.954z"/>
</svg>
