<?xml version="1.0" encoding="iso-8859-1"?>
<!-- Generator: Adobe Illustrator 18.1.0, SVG Export Plug-In . SVG Version: 6.00 Build 0)  -->
<!DOCTYPE svg PUBLIC "-//W3C//DTD SVG 1.1//EN" "http://www.w3.org/Graphics/SVG/1.1/DTD/svg11.dtd">
<svg version="1.1" id="Layer_1" xmlns="http://www.w3.org/2000/svg" xmlns:xlink="http://www.w3.org/1999/xlink" x="0px" y="0px"
	 width="1000px" height="1000px" viewBox="0 0 1000 1000" style="enable-background:new 0 0 1000 1000;" xml:space="preserve">
<style type="text/css">
	.st0{fill-rule:evenodd;clip-rule:evenodd;}
</style>
<path d="M817.7,501.8c0.3-23.8-2.3-47.6-7.4-70.8l95.6-73.4l-71.6-122.9l-107.1,41.1c-16.7-17.2-36-32.6-57.1-46.1l15.4-117.3
	L547.9,76.2l-45.5,102.6c-25.6-0.4-50.8,2.4-75.7,7.9L356.3,95l-122.9,71.6l39.6,103c-18.3,17.8-34.3,38.2-48,60.8l-114-15L74.7,453
	L176,497.9c-0.1,25.8,3.1,51.6,9.2,76.4l-91.7,70.5l71.8,122.8l105.5-40.4c15.1,15,32.2,28.8,51,41l-19,116.2l136.6,40.1l49.9-104.2
	c27.3,0.5,54.4-2.3,80.7-8.5l73.3,95.6l122.9-71.7l-42-109.5c16.4-16.4,30.8-34.9,43.6-55.1l120.7,15.9l36.3-137.5L817.7,501.8z
	 M594.8,326.5c96.5,52.5,132.1,173,79.6,269.5c-52.3,96.3-173.1,132.2-269.5,79.8c-96.4-52.5-132.2-173-79.7-269.6
	C377.5,309.7,498.4,274.2,594.8,326.5 M563.8,535.3c-19,35.4-63.4,48.4-98.9,29.3c-35.3-19.4-48.3-63.4-29.1-98.8
	c19.2-35.4,63.5-48.5,98.8-29.3C569.9,455.6,583,500,563.8,535.3"/>
</svg>
