<?xml version="1.0" encoding="iso-8859-1"?>
<!-- Generator: Adobe Illustrator 18.1.0, SVG Export Plug-In . SVG Version: 6.00 Build 0)  -->
<!DOCTYPE svg PUBLIC "-//W3C//DTD SVG 1.1//EN" "http://www.w3.org/Graphics/SVG/1.1/DTD/svg11.dtd">
<svg version="1.1" id="Layer_1" xmlns="http://www.w3.org/2000/svg" xmlns:xlink="http://www.w3.org/1999/xlink" x="0px" y="0px"
	 width="1000px" height="1000px" viewBox="0 0 1000 1000" style="enable-background:new 0 0 1000 1000;" xml:space="preserve">
<style type="text/css">
	.st0{fill-rule:evenodd;clip-rule:evenodd;}
	.st1{fill:none;}
</style>
<path d="M894,463.8c-16.8-80.3-87.7-140.6-173-140.6c-63.1,0-118.5,33.1-149.6,83c-20.2-19.5-44.8-31-71.1-31
	c-26.5,0-51.3,11.7-71.6,31.3c-31.1-50.1-86.5-83.3-149.8-83.3c-85.3,0-156.2,60.3-173,140.6H75v70.7h30.6
	c16.1,81.2,87.5,142.2,173.3,142.2c42.3,0,81-14.9,111.2-39.4c25.1-20.3,44.6-47.4,55.4-78.5c6.5-18.4,10.1-38.2,10.1-58.7
	c0-0.3,0-0.7,0-1.1c11.3-24.9,30.4-35.4,44.7-35.4c14,0,32.7,10.1,44,34c0,0.9,0,1.6,0,2.5c0,21.2,3.7,41.7,10.6,60.7
	c11.1,30.4,30.4,56.9,55.4,76.9c30.2,24.4,68.8,39.1,110.7,39.1c85.8,0,157.2-61,173.3-142.2H925v-70.7H894z M278.9,606
	C220.4,606,173,558.4,173,500.1c0-58.5,47.4-106.1,105.9-106.1c53.6,0,98,40,104.9,91.8c0.7,4.6,1.1,9.6,1.1,14.3
	c0,15.9-3.5,31.1-9.9,44.8C358,580.9,321.4,606,278.9,606z M721.1,606c-41.9,0-78-24.4-95.1-59.6c-6.9-14-10.8-29.7-10.8-46.3
	c0-5.5,0.4-10.8,1.2-16.1c7.8-50.9,51.6-90,104.7-90c58.4,0,105.9,47.6,105.9,106.1C827,558.4,779.4,606,721.1,606z"/>
</svg>
