<?xml version="1.0" encoding="iso-8859-1"?>
<!-- Generator: Adobe Illustrator 18.1.0, SVG Export Plug-In . SVG Version: 6.00 Build 0)  -->
<!DOCTYPE svg PUBLIC "-//W3C//DTD SVG 1.1//EN" "http://www.w3.org/Graphics/SVG/1.1/DTD/svg11.dtd">
<svg version="1.1" xmlns="http://www.w3.org/2000/svg" xmlns:xlink="http://www.w3.org/1999/xlink" x="0px" y="0px" width="1000px"
	 height="1000px" viewBox="0 0 1000 1000" style="enable-background:new 0 0 1000 1000;" xml:space="preserve">
<style type="text/css">
	.st0{display:none;}
	.st1{display:inline;}
	.st2{fill:#FFFFFF;}
	.st3{fill:#FFFFFF;stroke:#000000;stroke-width:1.45;stroke-linejoin:bevel;}
	.st4{display:inline;fill:none;stroke:#C1272D;stroke-miterlimit:10;}
	.st5{display:inline;fill:#ED1C24;}
	.st6{display:inline;fill:#FFFFFF;}
	.st7{display:inline;fill:none;stroke:#ED1C24;stroke-miterlimit:10;}
	.st8{fill:#ED1C24;}
	.st9{fill-rule:evenodd;clip-rule:evenodd;}
	.st10{fill:#FFFFFF;stroke:#231F20;stroke-width:3;stroke-miterlimit:10;}
	.st11{fill:none;stroke:#231F20;stroke-width:3;stroke-miterlimit:10;}
	.st12{fill:#231F20;}
	.st13{fill:none;stroke:#FFFFFF;stroke-width:3;stroke-miterlimit:10;}
	.st14{fill:#FFFFFF;stroke:#231F20;stroke-width:3;stroke-linejoin:round;stroke-miterlimit:10;}
	.st15{fill:none;stroke:#231F20;stroke-width:3;stroke-linejoin:round;stroke-miterlimit:10;}
</style>
<g id="Layer_2" class="st0">
</g>
<g id="Layer_1">
	<path d="M500,75c-176.4,0-338.4,113-399.1,278.7c-61.4,167.5-8.9,360.4,128.5,474c137.5,113.7,337.8,128.6,490.5,36.1
		c152.1-92.1,232-274.3,196.6-448.6C876.9,219.5,699.4,75,500,75z M706,610.5c9.3-68.7,9.8-138.8,1.7-207.7H845
		c19,67.6,17.6,140.9-4.1,207.7H706z M540,840.6c-86.9,73.2-150.6-105.9-165.5-164.1h250.9C610.7,734.2,587,801,540,840.6
		C526.1,852.3,558.2,825.3,540,840.6z M361.4,610.5c-10.2-68.6-10.7-139-1.9-207.7h281c8.8,68.7,8.3,139.1-1.9,207.7H361.4z
		 M159.1,610.5c-21.7-66.8-23.1-140.1-4.1-207.7h137.3c-8.1,68.9-7.6,139,1.7,207.7H159.1z M460,159.4
		c90.6-76.4,155,118.2,168.7,177.4H371.3C385.7,274.9,409.6,201.9,460,159.4C473.9,147.7,441.8,174.7,460,159.4z M753.3,246.7
		c26.7,26.7,48.7,56.9,65.7,90.2H697c-14-67-36.3-125.3-64.4-169.8C677.7,185.1,719,212.3,753.3,246.7
		C780,273.4,720.4,213.7,753.3,246.7z M246.7,246.7c34.4-34.4,75.6-61.6,120.8-79.6C339.3,211.5,317,269.8,303,336.8H180.9
		C197.9,303.6,220,273.4,246.7,246.7C279.6,213.7,220,273.4,246.7,246.7z M246.7,753.3c-23.1-23.1-42.7-48.8-58.5-76.8h117.8
		c14.1,61.4,35.3,114.9,61.5,156.4C322.3,814.9,281,787.7,246.7,753.3C223.6,730.3,279.6,786.3,246.7,753.3z M753.3,753.3
		c-34.4,34.4-75.6,61.6-120.8,79.6c26.2-41.5,47.4-95,61.5-156.4h117.8C796,704.5,776.4,730.3,753.3,753.3
		C720.4,786.3,776.4,730.3,753.3,753.3z"/>
</g>
</svg>
