<?xml version="1.0" encoding="iso-8859-1"?>
<!-- Generator: Adobe Illustrator 18.1.0, SVG Export Plug-In . SVG Version: 6.00 Build 0)  -->
<!DOCTYPE svg PUBLIC "-//W3C//DTD SVG 1.1//EN" "http://www.w3.org/Graphics/SVG/1.1/DTD/svg11.dtd">
<svg version="1.1" id="Layer_1" xmlns="http://www.w3.org/2000/svg" xmlns:xlink="http://www.w3.org/1999/xlink" x="0px" y="0px"
	 width="1659px" height="1000px" viewBox="0 0 1659 1000" style="enable-background:new 0 0 1659 1000;" xml:space="preserve">
<style type="text/css">
	.st0{fill-rule:evenodd;clip-rule:evenodd;}
	.st1{fill:none;}
</style>
<path class="st0" d="M1231.4,607.5c51.6,9.5,96.9-9.3,134.7-45.1c28.5-27,54.3-26.4,87.4-13.6c59.6,23,92.6,65.9,103.3,133.9
	c12.9,81.8,20.8,164.1,27.6,246.6c-102.5,0-205,0-307.5,0l-0.5-5.4c-7.7-85.1-17-176.7-33.1-270
	C1240.5,637.4,1236.5,622,1231.4,607.5z M1367.1,239.6c-71.8-97.2-212.3-85-260.8,23.9c-33.2,74.5-23.1,146,26.1,210.5
	c45.4,59.5,124.5,78.7,186.3,46.5c62.6-32.6,85.5-89,88.9-142.5C1407.7,318.3,1394,276,1367.1,239.6z M251.4,377.7
	c3.5,53.5,26.4,109.9,88.9,142.5c61.8,32.2,140.9,13,186.3-46.5c49.2-64.5,59.3-135.9,26.1-210.5
	c-48.5-108.8-189.1-121.1-260.8-23.9C265,275.8,251.3,318.2,251.4,377.7z M1217.8,929.1c-8-88.8-17.3-177.3-32.4-265.3
	c-12.6-73.2-51.4-119.3-121.6-144.1c-39-13.8-69.3-14.5-102.9,14.6c-45,38.9-98.9,59.3-160.3,48.3c-42.5-7.6-78.4-28.9-111.2-56
	c-14.1-11.7-28.5-21.4-48.5-19.2c-80.8,8.9-141.2,60.3-159.9,139c-22.1,92.9-28.5,188-37.3,282.7
	C701.7,929.1,959.7,929.1,1217.8,929.1z M962.1,156.9C877.6,42.5,712.2,56.9,655,185c-39.1,87.7-27.2,171.9,30.7,247.8
	c53.4,70,146.6,92.6,219.3,54.7c73.6-38.4,100.6-104.8,104.7-167.7C1009.8,249.5,993.7,199.7,962.1,156.9z M385,923.6
	c1.2-13,2.4-25.9,3.5-38.9c7.4-82.4,15.1-167.7,35.1-251.9c2.1-9,4.7-17.7,7.7-26.2c-0.8,0.2-1.5,0.4-2.3,0.5
	c-52.2,10.2-98-8.7-136.2-44.9c-28.5-27-54.3-26.4-87.4-13.6c-59.6,23-92.6,65.9-103.3,134c-12.9,81.8-20.8,164.1-27.6,246.7
	c103.3,0,206.6,0,309.8,0L385,923.6z"/>
</svg>
