<?xml version="1.0" encoding="iso-8859-1"?>
<!-- Generator: Adobe Illustrator 18.1.0, SVG Export Plug-In . SVG Version: 6.00 Build 0)  -->
<!DOCTYPE svg PUBLIC "-//W3C//DTD SVG 1.1//EN" "http://www.w3.org/Graphics/SVG/1.1/DTD/svg11.dtd">
<svg version="1.1" xmlns="http://www.w3.org/2000/svg" xmlns:xlink="http://www.w3.org/1999/xlink" x="0px" y="0px" width="1150px"
	 height="1000px" viewBox="0 0 1150 1000" style="enable-background:new 0 0 1150 1000;" xml:space="preserve">
<style type="text/css">
	.st0{display:none;}
	.st1{display:inline;}
	.st2{fill:#FFFFFF;}
	.st3{fill:#FFFFFF;stroke:#000000;stroke-width:1.45;stroke-linejoin:bevel;}
	.st4{display:inline;fill:none;stroke:#C1272D;stroke-miterlimit:10;}
	.st5{display:inline;fill:#ED1C24;}
	.st6{display:inline;fill:#FFFFFF;}
	.st7{display:inline;fill:none;stroke:#ED1C24;stroke-miterlimit:10;}
	.st8{fill:#ED1C24;}
	.st9{fill-rule:evenodd;clip-rule:evenodd;}
	.st10{fill:#231F20;}
</style>
<g id="Layer_2" class="st0">
</g>
<g id="Layer_1">
	<path d="M695.2,894.6H566.6V559.8H203.1v334.9H75V122.6h128.1v324.7h363.4V122.6h128.7V894.6z M1075,105.4v789.3H950.1V258.3
		c-22.6,16.2-46.9,29.9-73,41.2c-26,11.3-55.7,21.3-89.1,29.9V222.7c20.8-6.8,40.9-14,60.3-21.5c19.4-7.5,38.5-16,57.3-25.3
		c18.8-9.3,37.9-19.7,57.1-31.2c19.2-11.5,39-24.6,59.5-39.3H1075z"/>
</g>
</svg>
