<?xml version="1.0" encoding="iso-8859-1"?>
<!-- Generator: Adobe Illustrator 18.1.0, SVG Export Plug-In . SVG Version: 6.00 Build 0)  -->
<!DOCTYPE svg PUBLIC "-//W3C//DTD SVG 1.1//EN" "http://www.w3.org/Graphics/SVG/1.1/DTD/svg11.dtd">
<svg version="1.1" id="Layer_1" xmlns="http://www.w3.org/2000/svg" xmlns:xlink="http://www.w3.org/1999/xlink" x="0px" y="0px"
	 width="1000px" height="1000px" viewBox="0 0 1000 1000" style="enable-background:new 0 0 1000 1000;" xml:space="preserve">
<style type="text/css">
	.st0{fill-rule:evenodd;clip-rule:evenodd;}
	.st1{fill:none;}
</style>
<path d="M703.5,208.8c40.4,0,78.5,15.7,107,44.3c28.6,28.6,44.3,66.6,44.3,107c0,21.1-4.2,41.5-12.6,60.6c-8.1,18.5-19.6,35-34.4,49
	l-51,48.6l0.3,0.3L499.9,764.4L242.5,518.7l0.3-0.3l-51-48.6c-14.7-14-26.3-30.5-34.4-49c-8.4-19.1-12.6-39.5-12.6-60.6
	c0-40.4,15.7-78.4,44.3-107c28.6-28.6,66.6-44.3,107-44.3c30.2,0,59.4,8.9,84.3,25.6c24.4,16.4,44.2,45.2,57.9,63.3
	c14.1,18.5,61.4,94.5,61.4,94.5s50.2-77.9,61.4-94.5c11.2-16.5,33.5-46.8,57.9-63.3C644.1,217.7,673.3,208.8,703.5,208.8
	 M703.5,138.8c-91.4,0-169.8,55.4-203.6,134.4c-33.8-79-112.2-134.4-203.6-134.4c-122.3,0-221.4,99.1-221.4,221.4
	c0,63,26.4,119.9,68.6,160.3l-0.3,0.3l356.6,340.4l356.6-340.4l-0.3-0.3c42.3-40.3,68.6-97.2,68.6-160.3
	C924.9,237.9,825.8,138.8,703.5,138.8L703.5,138.8z"/>
</svg>
