<?xml version="1.0" encoding="iso-8859-1"?>
<!-- Generator: Adobe Illustrator 18.1.0, SVG Export Plug-In . SVG Version: 6.00 Build 0)  -->
<!DOCTYPE svg PUBLIC "-//W3C//DTD SVG 1.1//EN" "http://www.w3.org/Graphics/SVG/1.1/DTD/svg11.dtd">
<svg version="1.1" xmlns="http://www.w3.org/2000/svg" xmlns:xlink="http://www.w3.org/1999/xlink" x="0px" y="0px" width="1000px"
	 height="1000px" viewBox="0 0 1000 1000" style="enable-background:new 0 0 1000 1000;" xml:space="preserve">
<style type="text/css">
	.st0{display:none;}
	.st1{display:inline;}
	.st2{fill:#FFFFFF;}
	.st3{fill:#FFFFFF;stroke:#000000;stroke-width:1.45;stroke-linejoin:bevel;}
	.st4{display:inline;fill:none;stroke:#C1272D;stroke-miterlimit:10;}
	.st5{display:inline;fill:#ED1C24;}
	.st6{display:inline;fill:#FFFFFF;}
	.st7{display:inline;fill:none;stroke:#ED1C24;stroke-miterlimit:10;}
	.st8{fill:#ED1C24;}
	.st9{fill-rule:evenodd;clip-rule:evenodd;}
	.st10{fill:#231F20;}
</style>
<g id="Layer_2" class="st0">
</g>
<g id="Layer_1">
	<path d="M461.8,704.6L654.5,512c3,12.2,4.6,25,4.6,38.2c0,87.9-71.2,159.1-159.1,159.1C486.8,709.3,474,707.7,461.8,704.6z
		 M156.5,555.1c68.6-118.8,196.8-199,343.5-199c24.5,0,48.5,2.3,71.8,6.5l54.7-54.7c-40.3-11.1-82.7-17.1-126.5-17.1
		c-163,0-306.7,82.3-392,207.6c-12.3,18-23.3,37-33,56.7L156.5,555.1z M925,555.1c-9.7-19.7-20.8-38.6-33-56.7
		c-29.9-44-67.1-82.6-109.7-114.3l-48.5,48.5c44.5,32.7,82,74.4,109.8,122.4L925,555.1z M500,391.1c-87.9,0-159.1,71.2-159.1,159.1
		c0,13.4,1.7,26.3,4.8,38.7l193.1-193.1C526.3,392.7,513.3,391.1,500,391.1z M832.4,264.8l-48-48L265,736.3l48,48L832.4,264.8z"/>
</g>
</svg>
