<?xml version="1.0" encoding="iso-8859-1"?>
<!-- Generator: Adobe Illustrator 18.1.0, SVG Export Plug-In . SVG Version: 6.00 Build 0)  -->
<!DOCTYPE svg PUBLIC "-//W3C//DTD SVG 1.1//EN" "http://www.w3.org/Graphics/SVG/1.1/DTD/svg11.dtd">
<svg version="1.1" xmlns="http://www.w3.org/2000/svg" xmlns:xlink="http://www.w3.org/1999/xlink" x="0px" y="0px" width="1000px"
	 height="1000px" viewBox="0 0 1000 1000" style="enable-background:new 0 0 1000 1000;" xml:space="preserve">
<style type="text/css">
	.st0{display:none;}
	.st1{display:inline;}
	.st2{fill:#FFFFFF;}
	.st3{fill:#FFFFFF;stroke:#000000;stroke-width:1.45;stroke-linejoin:bevel;}
	.st4{display:inline;fill:none;stroke:#C1272D;stroke-miterlimit:10;}
	.st5{display:inline;fill:#ED1C24;}
	.st6{display:inline;fill:#FFFFFF;}
	.st7{display:inline;fill:none;stroke:#ED1C24;stroke-miterlimit:10;}
	.st8{fill:#ED1C24;}
	.st9{fill-rule:evenodd;clip-rule:evenodd;}
	.st10{fill:#231F20;}
</style>
<g id="Layer_2" class="st0">
</g>
<g id="Layer_1">
	<path d="M925,616.2v172.3c0,17.6-14.4,32.1-32.1,32.1H107.6C91.3,820.6,75,805.3,75,789V616.2l182.1-319.6
		c4.4-7.8,12.7-12.8,21.7-12.8h309.4l-67,86.2h-58l-42.1-45.4c-10.7-11.5-25.8-18.1-41.6-18.1c-14.3,0-27.9,5.3-38.4,15l-40.8,37.8
		c-15,14-20.7,34.3-16.8,53.1L189,619.1h151.5c10.1,0,19,5.1,24.4,12.9l39.6,73.8h191.8l39.6-73.8c5.3-7.8,14.4-12.9,24.6-12.9
		h151.8L711.5,400l52.8-67.8L925,616.2z M502.8,592.2l245.6-315.8c1.6-2.1,2.3-4.6,2-7.3c-0.3-2.7-1.7-5-3.8-6.7L703,228.5
		c-1.8-1.4-3.9-2.1-6.1-2.1c-3.1,0-6,1.4-7.9,3.8l-191.2,246L386.7,356.5c-1.9-2-4.5-3.1-7.3-3.1c-2.5,0-4.9,0.9-6.8,2.6l-40.5,37.6
		c-4,3.8-4.3,10.1-0.5,14.1L502.8,592.2z"/>
</g>
</svg>
