<?xml version="1.0" encoding="iso-8859-1"?>
<!-- Generator: Adobe Illustrator 18.1.0, SVG Export Plug-In . SVG Version: 6.00 Build 0)  -->
<!DOCTYPE svg PUBLIC "-//W3C//DTD SVG 1.1//EN" "http://www.w3.org/Graphics/SVG/1.1/DTD/svg11.dtd">
<svg version="1.1" id="Layer_1" xmlns="http://www.w3.org/2000/svg" xmlns:xlink="http://www.w3.org/1999/xlink" x="0px" y="0px"
	 width="1000px" height="1000px" viewBox="0 0 1000 1000" style="enable-background:new 0 0 1000 1000;" xml:space="preserve">
<style type="text/css">
	.st0{fill-rule:evenodd;clip-rule:evenodd;}
</style>
<path d="M500,75C265.3,75,75,265.3,75,500c0,234.7,190.3,425,425,425c234.7,0,425-190.3,425-425C925,265.3,734.7,75,500,75z
	 M565,815.9H433.8V392.1H565V815.9z M500,336.8c-42.2,0-76.4-34.2-76.4-76.4c0-42.2,34.2-76.4,76.4-76.4s76.4,34.2,76.4,76.4
	C576.4,302.6,542.2,336.8,500,336.8z"/>
</svg>
