<?xml version="1.0" encoding="iso-8859-1"?>
<!-- Generator: Adobe Illustrator 18.1.0, SVG Export Plug-In . SVG Version: 6.00 Build 0)  -->
<!DOCTYPE svg PUBLIC "-//W3C//DTD SVG 1.1//EN" "http://www.w3.org/Graphics/SVG/1.1/DTD/svg11.dtd">
<svg version="1.1" xmlns="http://www.w3.org/2000/svg" xmlns:xlink="http://www.w3.org/1999/xlink" x="0px" y="0px" width="1000px"
	 height="1000px" viewBox="0 0 1000 1000" style="enable-background:new 0 0 1000 1000;" xml:space="preserve">
<style type="text/css">
	.st0{display:none;}
	.st1{display:inline;}
	.st2{fill:#FFFFFF;}
	.st3{fill:#FFFFFF;stroke:#000000;stroke-width:1.45;stroke-linejoin:bevel;}
	.st4{display:inline;fill:none;stroke:#C1272D;stroke-miterlimit:10;}
	.st5{display:inline;fill:#ED1C24;}
	.st6{display:inline;fill:#FFFFFF;}
	.st7{display:inline;fill:none;stroke:#ED1C24;stroke-miterlimit:10;}
	.st8{fill:#ED1C24;}
	.st9{fill-rule:evenodd;clip-rule:evenodd;}
	.st10{fill:#231F20;}
</style>
<g id="Layer_2" class="st0">
</g>
<g id="Layer_1">
	<path d="M486.8,925c-41.1,0-72.4-10.4-93.9-31.1c-21.5-20.7-32.2-50.3-32.2-88.8c0-19.4,2.1-38.5,6.2-57.2l83.5-406.2h136.2
		l-76.2,361.4c-7.8,37.4-11.8,61.4-11.8,72.3c0,28.4,16.2,42.6,48.7,42.6c19.1,0,36-3,51-9L577,912.1
		C544.9,920.7,514.8,925,486.8,925z M475.8,150c0,41.4,36.6,75,81.7,75c45.1,0,81.7-33.6,81.7-75s-36.6-75-81.7-75
		C512.4,75,475.8,108.6,475.8,150z"/>
</g>
</svg>
