<?xml version="1.0" encoding="iso-8859-1"?>
<!-- Generator: Adobe Illustrator 18.1.0, SVG Export Plug-In . SVG Version: 6.00 Build 0)  -->
<!DOCTYPE svg PUBLIC "-//W3C//DTD SVG 1.1//EN" "http://www.w3.org/Graphics/SVG/1.1/DTD/svg11.dtd">
<svg version="1.1" id="Layer_1" xmlns="http://www.w3.org/2000/svg" xmlns:xlink="http://www.w3.org/1999/xlink" x="0px" y="0px"
	 width="1000px" height="1000px" viewBox="0 0 1000 1000" style="enable-background:new 0 0 1000 1000;" xml:space="preserve">
<style type="text/css">
	.st0{fill-rule:evenodd;clip-rule:evenodd;}
	.st1{fill:none;}
</style>
<path d="M692.5,142.6c0,37.2-30.3,67.5-67.6,67.5c-37.3,0-67.6-30.3-67.6-67.5c0-37.3,30.2-67.6,67.6-67.6
	C662.2,75,692.5,105.2,692.5,142.6 M529.9,198.6L347.1,294l-70.4,176.1l54.6,22.6l71.5-151l79.5-43.7c0,0-43.7,127.2-51.7,151.1
	c-7.8,23.8,8,63.4,20,83.3L393.8,704l-215.2-1.2l16.6,68.7l257.9,13.7l60.9-133.6l31.8,55.6L624.9,925l71.9-22.9l-75.5-254.4
	l-67.6-111.2l55.6-170.9l26.2,93.8l184.1-22.9l1.7-59.5L689,381.4l-39.8-135.1L529.9,198.6z"/>
</svg>
