<?xml version="1.0" encoding="iso-8859-1"?>
<!-- Generator: Adobe Illustrator 18.1.0, SVG Export Plug-In . SVG Version: 6.00 Build 0)  -->
<!DOCTYPE svg PUBLIC "-//W3C//DTD SVG 1.1//EN" "http://www.w3.org/Graphics/SVG/1.1/DTD/svg11.dtd">
<svg version="1.1" xmlns="http://www.w3.org/2000/svg" xmlns:xlink="http://www.w3.org/1999/xlink" x="0px" y="0px" width="1000px"
	 height="1000px" viewBox="0 0 1000 1000" style="enable-background:new 0 0 1000 1000;" xml:space="preserve">
<style type="text/css">
	.st0{display:none;}
	.st1{display:inline;}
	.st2{fill:#FFFFFF;}
	.st3{fill:#FFFFFF;stroke:#000000;stroke-width:1.45;stroke-linejoin:bevel;}
	.st4{display:inline;fill:none;stroke:#C1272D;stroke-miterlimit:10;}
	.st5{display:inline;fill:#ED1C24;}
	.st6{display:inline;fill:#FFFFFF;}
	.st7{display:inline;fill:none;stroke:#ED1C24;stroke-miterlimit:10;}
	.st8{fill:#ED1C24;}
	.st9{fill-rule:evenodd;clip-rule:evenodd;}
	.st10{fill:#231F20;}
</style>
<g id="Layer_2" class="st0">
</g>
<g id="Layer_1">
	<path d="M662.6,107.4c-216.8-89.8-465.5,13.1-555.3,230c-89.8,216.9,13.2,465.5,230,555.3c216.8,89.8,465.5-13.1,555.3-230
		C982.5,445.8,879.5,197.2,662.6,107.4z M387.1,453.2c25.8-62.4,97.3-92,159.7-66.2s92,97.3,66.2,159.7s-97.3,92-159.7,66.2
		S361.2,515.6,387.1,453.2z M635.3,173.3l-61.3,148c-49.3-20.4-102.3-18.9-148,0l-61.3-147.9C448.4,138.8,545.2,136,635.3,173.3z
		 M173.3,364.7L173.3,364.7l148,61.3c-20.4,49.3-18.9,102.3,0,148l-147.9,61.3C138.8,551.6,136,454.7,173.3,364.7z M364.7,826.7
		l61.3-148c49.3,20.4,102.3,18.9,148,0l61.3,147.9C551.6,861.2,454.8,864,364.7,826.7z M826.7,635.3L826.7,635.3l-148-61.3
		c20.4-49.3,18.9-102.3,0-148l147.9-61.3C861.2,448.4,864,545.3,826.7,635.3z"/>
</g>
</svg>
