<?xml version="1.0" encoding="iso-8859-1"?>
<!-- Generator: Adobe Illustrator 18.1.0, SVG Export Plug-In . SVG Version: 6.00 Build 0)  -->
<!DOCTYPE svg PUBLIC "-//W3C//DTD SVG 1.1//EN" "http://www.w3.org/Graphics/SVG/1.1/DTD/svg11.dtd">
<svg version="1.1" xmlns="http://www.w3.org/2000/svg" xmlns:xlink="http://www.w3.org/1999/xlink" x="0px" y="0px" width="1000px"
	 height="1000px" viewBox="0 0 1000 1000" style="enable-background:new 0 0 1000 1000;" xml:space="preserve">
<style type="text/css">
	.st0{display:none;}
	.st1{display:inline;}
	.st2{fill:#FFFFFF;}
	.st3{fill:#FFFFFF;stroke:#000000;stroke-width:1.45;stroke-linejoin:bevel;}
	.st4{display:inline;fill:none;stroke:#C1272D;stroke-miterlimit:10;}
	.st5{display:inline;fill:#ED1C24;}
	.st6{display:inline;fill:#FFFFFF;}
	.st7{display:inline;fill:none;stroke:#ED1C24;stroke-miterlimit:10;}
	.st8{fill:#ED1C24;}
	.st9{fill-rule:evenodd;clip-rule:evenodd;}
	.st10{fill:#231F20;}
</style>
<g id="Layer_2" class="st0">
</g>
<g id="Layer_1">
	<path d="M529.7,897.6v-45.3c-54.6,4.7-111-3.3-165-25.6l61.3-148c34,14.1,69.8,17.8,103.7,12.5v-23.7c0-25.7,13.5-48.3,33.7-61.1
		v-1.8c-32.1,19.4-72.8,23.9-110.1,8.4c-62.4-25.8-92-97.3-66.2-159.7s97.3-92,159.7-66.2c31.4,13,54.5,37.6,66.4,66.9
		c34.1-36.7,82.7-59.7,136.7-59.7c1.8,0,3.6,0,5.4,0.1l71.2-29.5c7.4,17.8,13.3,36.3,17.7,55.1c36.8,21.7,65.5,55.6,80.6,96.1
		c6.5-172.5-93.4-338.7-262.2-408.6c-216.8-89.8-465.5,13.1-555.3,230c-89.8,216.9,13.2,465.5,230,555.3
		c64.6,26.8,132,36.4,197.2,31C531.4,915.6,529.7,906.8,529.7,897.6z M635.3,173.3l-61.3,148c-49.3-20.4-102.3-18.9-148,0
		l-61.3-147.9C448.4,138.8,545.2,136,635.3,173.3z M321.4,574l-147.9,61.3c-34.7-83.7-37.5-180.5-0.2-270.6l0,0l148,61.3
		C300.9,475.3,302.4,528.3,321.4,574z M897.8,640.1h-6.4v-59.4c0-78.2-63.4-141.5-141.5-141.5c-78.2,0-141.5,63.4-141.5,141.5v59.4
		H602c-15.1,0-27.3,12.2-27.3,27.3v230.2c0,15.1,12.2,27.3,27.3,27.3h295.8c15.1,0,27.3-12.2,27.3-27.3V667.4
		C925.1,652.3,912.9,640.1,897.8,640.1z M785.8,849.2H714l16.9-73.9c-10.4-6.4-17.4-17.9-17.4-31.1c0-9.5,3.6-18.1,9.6-24.6
		c6.7-7.2,16.2-11.8,26.8-11.8c10.6,0,20.2,4.5,26.8,11.8c6,6.5,9.6,15.1,9.6,24.6c0,13.1-7,24.7-17.4,31.1L785.8,849.2z
		 M826.5,640.1H673.3v-59.4c0-42.3,34.3-76.6,76.6-76.6c42.3,0,76.6,34.3,76.6,76.6V640.1z"/>
</g>
</svg>
