<?xml version="1.0" encoding="iso-8859-1"?>
<!-- Generator: Adobe Illustrator 18.1.0, SVG Export Plug-In . SVG Version: 6.00 Build 0)  -->
<!DOCTYPE svg PUBLIC "-//W3C//DTD SVG 1.1//EN" "http://www.w3.org/Graphics/SVG/1.1/DTD/svg11.dtd">
<svg version="1.1" id="Layer_1" xmlns="http://www.w3.org/2000/svg" xmlns:xlink="http://www.w3.org/1999/xlink" x="0px" y="0px"
	 width="1000px" height="1000px" viewBox="0 0 1000 1000" style="enable-background:new 0 0 1000 1000;" xml:space="preserve">
<style type="text/css">
	.st0{fill-rule:evenodd;clip-rule:evenodd;}
	.st1{fill:none;}
</style>
<path d="M720.7,75.1c9.6,0,13.4,6.7,8.5,15L544.1,400.4c-4.9,8.3-1.1,14.9,8.6,14.9l168.8-1c9.6,0,12.2,5.8,5.9,13l-435,493.2
	c-6.3,7.2-8.6,5.9-4.9-3l137.1-333.3c3.7-8.9-1.2-16.2-10.8-16.1L280,568.4c-9.6,0-14.7-7.3-11.3-16.3L442.5,91.5
	c3.4-8.9,14-16.3,23.7-16.3H720.7z"/>
</svg>
