<?xml version="1.0" encoding="iso-8859-1"?>
<!-- Generator: Adobe Illustrator 18.1.0, SVG Export Plug-In . SVG Version: 6.00 Build 0)  -->
<!DOCTYPE svg PUBLIC "-//W3C//DTD SVG 1.1//EN" "http://www.w3.org/Graphics/SVG/1.1/DTD/svg11.dtd">
<svg version="1.1" xmlns="http://www.w3.org/2000/svg" xmlns:xlink="http://www.w3.org/1999/xlink" x="0px" y="0px" width="1000px"
	 height="1000px" viewBox="0 0 1000 1000" style="enable-background:new 0 0 1000 1000;" xml:space="preserve">
<style type="text/css">
	.st0{display:none;}
	.st1{display:inline;}
	.st2{fill:#FFFFFF;}
	.st3{fill:#FFFFFF;stroke:#000000;stroke-width:1.45;stroke-linejoin:bevel;}
	.st4{display:inline;fill:none;stroke:#C1272D;stroke-miterlimit:10;}
	.st5{display:inline;fill:#ED1C24;}
	.st6{display:inline;fill:#FFFFFF;}
	.st7{display:inline;fill:none;stroke:#ED1C24;stroke-miterlimit:10;}
	.st8{fill:#ED1C24;}
	.st9{fill-rule:evenodd;clip-rule:evenodd;}
	.st10{fill:#FFFFFF;stroke:#231F20;stroke-width:3;stroke-miterlimit:10;}
	.st11{fill:none;stroke:#231F20;stroke-width:3;stroke-miterlimit:10;}
	.st12{fill:#231F20;}
	.st13{fill:none;stroke:#FFFFFF;stroke-width:3;stroke-miterlimit:10;}
	.st14{fill:#FFFFFF;stroke:#231F20;stroke-width:3;stroke-linejoin:round;stroke-miterlimit:10;}
	.st15{fill:none;stroke:#231F20;stroke-width:3;stroke-linejoin:round;stroke-miterlimit:10;}
</style>
<g id="Layer_2" class="st0">
</g>
<g id="Layer_1">
	<path d="M596,758.3H408.5c-15.8,0-28.8-13-28.8-28.8v0c0-15.8,13-28.8,28.8-28.8H596c15.8,0,28.8,13,28.8,28.8v0
		C624.8,745.4,611.8,758.3,596,758.3z M624.8,812.9L624.8,812.9c0-15.8-13-28.8-28.8-28.8H408.5c-15.8,0-28.8,13-28.8,28.8v0
		c0,15.8,13,28.8,28.8,28.8H596C611.8,841.7,624.8,828.7,624.8,812.9z M563.9,896.2L563.9,896.2c0-15.8-13-28.8-28.8-28.8h-65.8
		c-15.8,0-28.8,13-28.8,28.8v0c0,15.8,13,28.8,28.8,28.8h65.8C551,925,563.9,912,563.9,896.2z M757.2,332.4
		c0,180.5-119.3,191.1-135,314.7c-2,15.8-14.9,27.9-30.7,27.9H408c-15.8,0-28.7-12.1-30.7-27.7c-13.8-109-108-130.1-130.3-257.1
		C220.5,239.2,322.9,90,475.5,76.1C628.6,62.1,757.2,182.3,757.2,332.4z M470.7,174.2c-4.4-12.7-18.2-19.3-30.9-15
		c-65.1,22.6-112.3,78.9-123,146.9c-2.1,13.2,7,25.7,20.2,27.7c1.3,0.2,2.5,0.3,3.8,0.3c11.8,0,22.1-8.5,24-20.5
		c7.9-50.3,42.7-91.8,90.9-108.5C468.4,200.7,475.1,186.8,470.7,174.2z"/>
</g>
</svg>
