<?xml version="1.0" encoding="iso-8859-1"?>
<!-- Generator: Adobe Illustrator 18.1.0, SVG Export Plug-In . SVG Version: 6.00 Build 0)  -->
<!DOCTYPE svg PUBLIC "-//W3C//DTD SVG 1.1//EN" "http://www.w3.org/Graphics/SVG/1.1/DTD/svg11.dtd">
<svg version="1.1" id="Layer_1" xmlns="http://www.w3.org/2000/svg" xmlns:xlink="http://www.w3.org/1999/xlink" x="0px" y="0px"
	 width="1350px" height="1000px" viewBox="0 0 1350 1000" style="enable-background:new 0 0 1350 1000;" xml:space="preserve">
<style type="text/css">
	.st0{fill-rule:evenodd;clip-rule:evenodd;}
	.st1{fill:none;}
</style>
<path d="M1001,499.8c0,33.1-26.7,60.1-59.8,60.1H409.1c-33.1,0-59.8-27-59.8-60.1c0-33.1,26.7-59.8,59.8-59.8h532.1
	C974.3,440,1001,466.7,1001,499.8z M272.3,595.8c-53.1,0-95.9-42.9-95.9-96c0-52.7,42.9-95.6,95.9-95.6h358.6
	c-34-60.4-98.1-101.4-172.2-101.4H272.3C163.5,302.9,75,391.4,75,499.8c0,108.8,88.5,197.3,197.3,197.3h186.5
	c74.1,0,138.1-41,172.2-101.4H272.3z M1078,302.9H891.2c-73.8,0-138.1,41-172.2,101.4h359c52.7,0,95.6,42.9,95.6,95.6
	c0,53.1-42.9,96-95.6,96h-359c34,60.4,98.4,101.4,172.2,101.4H1078c108.8,0,197-88.5,197-197.3C1275,391.4,1186.8,302.9,1078,302.9z
	"/>
</svg>
