<?xml version="1.0" encoding="iso-8859-1"?>
<!-- Generator: Adobe Illustrator 18.1.1, SVG Export Plug-In . SVG Version: 6.00 Build 0)  -->
<!DOCTYPE svg PUBLIC "-//W3C//DTD SVG 1.1//EN" "http://www.w3.org/Graphics/SVG/1.1/DTD/svg11.dtd">
<svg version="1.1" id="Layer_1" xmlns="http://www.w3.org/2000/svg" xmlns:xlink="http://www.w3.org/1999/xlink" x="0px" y="0px"
	 width="1350px" height="1000px" viewBox="0 0 1350 1000" style="enable-background:new 0 0 1350 1000;" xml:space="preserve">
<style type="text/css">
	.st0{fill-rule:evenodd;clip-rule:evenodd;}
	.st1{fill:none;}
</style>
<path d="M964.6,375L849.4,490.2H409.1c-33.1,0-59.8-27-59.8-60.1c0-33.1,26.7-59.8,59.8-59.8h532.1C949.5,370.3,957.4,372,964.6,375
	z M1166.6,394l36.5-36.5l71.9,71.9c-0.4-108.1-88.4-196.3-197-196.3H891.2c-73.8,0-138.1,41-172.2,101.4h359
	C1118,334.5,1152.3,359.1,1166.6,394z M176.4,430.1c0-52.7,42.9-95.6,95.9-95.6h358.6c-34-60.4-98.1-101.4-172.2-101.4H272.3
	C163.5,233.1,75,321.6,75,430.1c0,108.8,88.5,197.3,197.3,197.3h186.5c74.1,0,138.1-41,172.2-101.4H272.3
	C219.2,526,176.4,483.1,176.4,430.1z M933.2,627.4l26.4-26.4L884.7,526H719.1c34,60.4,98.4,101.4,172.2,101.4H933.2z M1203.1,773.8
	l-110.5-110.5L982.1,773.8l-62.4-62.4L1030.3,601L919.8,490.5l62.3-62.3l110.5,110.5l110.5-110.5l62.4,62.4L1155,601l110.5,110.5
	L1203.1,773.8z"/>
</svg>
