<?xml version="1.0" encoding="iso-8859-1"?>
<!-- Generator: Adobe Illustrator 18.1.0, SVG Export Plug-In . SVG Version: 6.00 Build 0)  -->
<!DOCTYPE svg PUBLIC "-//W3C//DTD SVG 1.1//EN" "http://www.w3.org/Graphics/SVG/1.1/DTD/svg11.dtd">
<svg version="1.1" xmlns="http://www.w3.org/2000/svg" xmlns:xlink="http://www.w3.org/1999/xlink" x="0px" y="0px" width="1000px"
	 height="1000px" viewBox="0 0 1000 1000" style="enable-background:new 0 0 1000 1000;" xml:space="preserve">
<style type="text/css">
	.st0{display:none;}
	.st1{display:inline;}
	.st2{fill:#FFFFFF;}
	.st3{fill:#FFFFFF;stroke:#000000;stroke-width:1.45;stroke-linejoin:bevel;}
	.st4{display:inline;fill:none;stroke:#C1272D;stroke-miterlimit:10;}
	.st5{display:inline;fill:#ED1C24;}
	.st6{display:inline;fill:#FFFFFF;}
	.st7{display:inline;fill:none;stroke:#ED1C24;stroke-miterlimit:10;}
	.st8{fill:#ED1C24;}
	.st9{fill-rule:evenodd;clip-rule:evenodd;}
	.st10{fill:#FFFFFF;stroke:#231F20;stroke-width:3;stroke-miterlimit:10;}
	.st11{fill:none;stroke:#231F20;stroke-width:3;stroke-miterlimit:10;}
	.st12{fill:#231F20;}
	.st13{fill:none;stroke:#FFFFFF;stroke-width:3;stroke-miterlimit:10;}
	.st14{fill:#FFFFFF;stroke:#231F20;stroke-width:3;stroke-linejoin:round;stroke-miterlimit:10;}
	.st15{fill:none;stroke:#231F20;stroke-width:3;stroke-linejoin:round;stroke-miterlimit:10;}
	.st16{fill:none;stroke:#000000;stroke-miterlimit:10;}
</style>
<g id="Layer_2" class="st0">
</g>
<g id="Layer_1">
	<path d="M145.2,75C106.4,75,75,106.4,75,145.2s31.4,70.2,70.2,70.2c38.8,0,70.2-31.4,70.2-70.2S184,75,145.2,75z M925,145.2
		c0-28.6-23.2-51.8-51.8-51.8H329.5c-28.6,0-51.8,23.2-51.8,51.8s23.2,51.8,51.8,51.8h543.7C901.8,197,925,173.8,925,145.2z
		 M925,355.6c0-28.6-23.2-51.8-51.8-51.8H329.5c-28.6,0-51.8,23.2-51.8,51.8c0,28.6,23.2,51.8,51.8,51.8h543.7
		C901.8,407.5,925,384.3,925,355.6z M145.2,592.5c-38.8,0-70.2,31.4-70.2,70.2s31.4,70.2,70.2,70.2c38.8,0,70.2-31.4,70.2-70.2
		S184,592.5,145.2,592.5z M925,662.8c0-28.6-23.2-51.8-51.8-51.8H329.5c-28.6,0-51.8,23.2-51.8,51.8s23.2,51.8,51.8,51.8h543.7
		C901.8,714.6,925,691.4,925,662.8z M925,873.2c0-28.6-23.2-51.8-51.8-51.8H329.5c-28.6,0-51.8,23.2-51.8,51.8s23.2,51.8,51.8,51.8
		h543.7C901.8,925,925,901.8,925,873.2z"/>
</g>
</svg>
