<?xml version="1.0" encoding="utf-8"?>
<!-- Generator: Adobe Illustrator 18.1.1, SVG Export Plug-In . SVG Version: 6.00 Build 0)  -->
<!DOCTYPE svg PUBLIC "-//W3C//DTD SVG 1.1//EN" "http://www.w3.org/Graphics/SVG/1.1/DTD/svg11.dtd">
<svg version="1.1" xmlns="http://www.w3.org/2000/svg" xmlns:xlink="http://www.w3.org/1999/xlink" x="0px" y="0px" width="1350px"
	 height="1000px" viewBox="0 0 1350 1000" style="enable-background:new 0 0 1350 1000;" xml:space="preserve">
<style type="text/css">
	.st0{fill:#101010;}
	.st1{fill:#FFFFFF;}
	.st2{fill:none;stroke:#000000;stroke-miterlimit:10;}
	.st3{fill:#231F20;}
</style>
<g id="Layer_2">
</g>
<g id="Layer_1">
	<path class="st3" d="M675,200c0-20.7,17-37.5,38.1-37.5h523.7c21.1,0,38.1,16.8,38.1,37.5l0,0c0,20.7-17,37.5-38.1,37.5H713.1
		C692,237.5,675,220.7,675,200L675,200z M375,200c0,20.7,16.7,37.5,37.5,37.5h150.1c20.7,0,37.5-16.8,37.5-37.5l0,0
		c0-20.7-16.7-37.5-37.5-37.5H412.5C391.7,162.5,375,179.3,375,200L375,200z M300,87.5H75v225h225V87.5z M675,500
		c0,20.7,17,37.5,38.1,37.5h523.7c21.1,0,38.1-16.8,38.1-37.5l0,0c0-20.7-17-37.5-38.1-37.5H713.1C692,462.5,675,479.3,675,500
		L675,500z M375,500c0,20.7,16.7,37.5,37.5,37.5h150.1c20.7,0,37.5-16.8,37.5-37.5l0,0c0-20.7-16.7-37.5-37.5-37.5H412.5
		C391.7,462.5,375,479.3,375,500L375,500z M300,387.5H75v225h225V387.5z M675,800c0,20.7,17,37.5,38.1,37.5h523.7
		c21.1,0,38.1-16.8,38.1-37.5l0,0c0-20.7-17-37.5-38.1-37.5H713.1C692,762.5,675,779.3,675,800L675,800z M375,800
		c0,20.7,16.7,37.5,37.5,37.5h150.1c20.7,0,37.5-16.8,37.5-37.5l0,0c0-20.7-16.7-37.5-37.5-37.5H412.5
		C391.7,762.5,375,779.3,375,800L375,800z M300,687.5H75v225h225V687.5z"/>
</g>
</svg>
