<?xml version="1.0" encoding="iso-8859-1"?>
<!-- Generator: Adobe Illustrator 18.1.1, SVG Export Plug-In . SVG Version: 6.00 Build 0)  -->
<!DOCTYPE svg PUBLIC "-//W3C//DTD SVG 1.1//EN" "http://www.w3.org/Graphics/SVG/1.1/DTD/svg11.dtd">
<svg version="1.1" xmlns="http://www.w3.org/2000/svg" xmlns:xlink="http://www.w3.org/1999/xlink" x="0px" y="0px" width="1000px"
	 height="1000px" viewBox="0 0 1000 1000" style="enable-background:new 0 0 1000 1000;" xml:space="preserve">
<style type="text/css">
	.st0{display:none;}
	.st1{display:inline;}
	.st2{fill:#FFFFFF;}
	.st3{fill:#FFFFFF;stroke:#000000;stroke-width:1.45;stroke-linejoin:bevel;}
	.st4{display:inline;fill:none;stroke:#C1272D;stroke-miterlimit:10;}
	.st5{display:inline;fill:#ED1C24;}
	.st6{display:inline;fill:#FFFFFF;}
	.st7{display:inline;fill:none;stroke:#ED1C24;stroke-miterlimit:10;}
	.st8{fill:#ED1C24;}
	.st9{fill-rule:evenodd;clip-rule:evenodd;}
	.st10{fill:#FFFFFF;stroke:#231F20;stroke-width:3;stroke-miterlimit:10;}
	.st11{fill:none;stroke:#231F20;stroke-width:3;stroke-miterlimit:10;}
	.st12{fill:#231F20;}
	.st13{fill:none;stroke:#FFFFFF;stroke-width:3;stroke-miterlimit:10;}
	.st14{fill:#FFFFFF;stroke:#231F20;stroke-width:3;stroke-linejoin:round;stroke-miterlimit:10;}
	.st15{fill:none;stroke:#231F20;stroke-width:3;stroke-linejoin:round;stroke-miterlimit:10;}
	.st16{fill:none;stroke:#000000;stroke-miterlimit:10;}
</style>
<g id="Layer_2" class="st0">
</g>
<g id="Layer_1">
	<path d="M288.2,115v173.2H115V115H288.2 M328.2,75H75v253.2h253.2V75L328.2,75z M288.2,413.4v173.2H115V413.4H288.2 M328.2,373.4
		H75v253.2h253.2V373.4L328.2,373.4z M288.2,711.8V885H115V711.8H288.2 M328.2,671.8H75V925h253.2V671.8L328.2,671.8z M135.3,798.9
		c-2.9-3.1-2.7-8.1,0.4-11l12.2-11.3c1.5-1.3,3.3-2.1,5.3-2.1c2.2,0,4.2,0.9,5.7,2.5l29.6,31.8l54-69.5c1.5-1.9,3.7-3,6.1-3
		c1.7,0,3.4,0.6,4.8,1.6l13.2,10.2c1.6,1.3,2.6,3.1,2.9,5.1c0.2,2.1-0.3,4.1-1.6,5.7l-77.3,99.3L135.3,798.9z M925,201.3
		c0-22.1-17.9-40-40-40H417.1c-22.1,0-40,17.9-40,40c0,22.1,17.9,40,40,40H885C907.1,241.3,925,223.4,925,201.3z M924.2,500
		c0-22.1-17.9-40-40-40H416.4c-22.1,0-40,17.9-40,40c0,22.1,17.9,40,40,40h467.9C906.3,540,924.2,522.1,924.2,500z M925,799
		c0-22.1-17.9-40-40-40H417.1c-22.1,0-40,17.9-40,40c0,22.1,17.9,40,40,40H885C907.1,838.9,925,821.1,925,799z"/>
</g>
</svg>
