<?xml version="1.0" encoding="iso-8859-1"?>
<!-- Generator: Adobe Illustrator 18.1.1, SVG Export Plug-In . SVG Version: 6.00 Build 0)  -->
<!DOCTYPE svg PUBLIC "-//W3C//DTD SVG 1.1//EN" "http://www.w3.org/Graphics/SVG/1.1/DTD/svg11.dtd">
<svg version="1.1" xmlns="http://www.w3.org/2000/svg" xmlns:xlink="http://www.w3.org/1999/xlink" x="0px" y="0px" width="1000px"
	 height="1000px" viewBox="0 0 1000 1000" style="enable-background:new 0 0 1000 1000;" xml:space="preserve">
<style type="text/css">
	.st0{display:none;}
	.st1{display:inline;}
	.st2{fill:#FFFFFF;}
	.st3{fill:#FFFFFF;stroke:#000000;stroke-width:1.45;stroke-linejoin:bevel;}
	.st4{display:inline;fill:none;stroke:#C1272D;stroke-miterlimit:10;}
	.st5{display:inline;fill:#ED1C24;}
	.st6{display:inline;fill:#FFFFFF;}
	.st7{display:inline;fill:none;stroke:#ED1C24;stroke-miterlimit:10;}
	.st8{fill:#ED1C24;}
	.st9{fill-rule:evenodd;clip-rule:evenodd;}
	.st10{fill:#FFFFFF;stroke:#231F20;stroke-width:3;stroke-miterlimit:10;}
	.st11{fill:none;stroke:#231F20;stroke-width:3;stroke-miterlimit:10;}
	.st12{fill:#231F20;}
	.st13{fill:none;stroke:#FFFFFF;stroke-width:3;stroke-miterlimit:10;}
	.st14{fill:#FFFFFF;stroke:#231F20;stroke-width:3;stroke-linejoin:round;stroke-miterlimit:10;}
	.st15{fill:none;stroke:#231F20;stroke-width:3;stroke-linejoin:round;stroke-miterlimit:10;}
	.st16{fill:none;stroke:#000000;stroke-miterlimit:10;}
</style>
<g id="Layer_2" class="st0">
</g>
<g id="Layer_1">
	<path d="M925,217.6c0-22.1-17.9-40-40-40H417.1c-22.1,0-40,17.9-40,40c0,22.1,17.9,40,40,40H885C907.1,257.6,925,239.7,925,217.6z
		 M78.7,216.1c-5.2-5.6-4.9-14.3,0.7-19.5l21.7-20.1c2.6-2.4,5.9-3.7,9.4-3.7c3.8,0,7.5,1.6,10.1,4.4l52.6,56.6l96-123.6
		c2.7-3.4,6.6-5.3,10.9-5.3c3.1,0,6,1,8.4,2.9l23.4,18.2c2.9,2.3,4.7,5.5,5.1,9.2c0.4,3.7-0.6,7.3-2.8,10.2L177,322.1L78.7,216.1z
		 M924.2,500c0-22.1-17.9-40-40-40H416.4c-22.1,0-40,17.9-40,40c0,22.1,17.9,40,40,40h467.9C906.3,540,924.2,522.1,924.2,500z
		 M77.7,501.6c-5.2-5.6-4.9-14.3,0.7-19.5L100,462c2.6-2.4,5.9-3.7,9.4-3.7c3.8,0,7.5,1.6,10.1,4.4l52.6,56.6l96-123.6
		c2.7-3.4,6.6-5.3,10.9-5.3c3.1,0,6,1,8.4,2.9l23.4,18.2c2.9,2.3,4.7,5.5,5.1,9.2c0.4,3.7-0.6,7.3-2.8,10.2L175.9,607.5L77.7,501.6z
		 M925,796.6c0-22.1-17.9-40-40-40H417.1c-22.1,0-40,17.9-40,40c0,22.1,17.9,40,40,40H885C907.1,836.6,925,818.7,925,796.6z
		 M78.7,789.1c-5.2-5.6-4.9-14.3,0.7-19.5l21.7-20.1c2.6-2.4,5.9-3.7,9.4-3.7c3.8,0,7.5,1.6,10.1,4.4l52.6,56.6l96-123.6
		c2.7-3.4,6.6-5.3,10.9-5.3c3.1,0,6,1,8.4,2.9L312,699c2.9,2.3,4.7,5.5,5.1,9.2c0.4,3.7-0.6,7.3-2.8,10.2L177,895L78.7,789.1z"/>
</g>
</svg>
