<?xml version="1.0" encoding="iso-8859-1"?>
<!-- Generator: Adobe Illustrator 18.1.0, SVG Export Plug-In . SVG Version: 6.00 Build 0)  -->
<!DOCTYPE svg PUBLIC "-//W3C//DTD SVG 1.1//EN" "http://www.w3.org/Graphics/SVG/1.1/DTD/svg11.dtd">
<svg version="1.1" id="Layer_1" xmlns="http://www.w3.org/2000/svg" xmlns:xlink="http://www.w3.org/1999/xlink" x="0px" y="0px"
	 width="1000px" height="1000px" viewBox="0 0 1000 1000" style="enable-background:new 0 0 1000 1000;" xml:space="preserve">
<style type="text/css">
	.st0{fill-rule:evenodd;clip-rule:evenodd;}
</style>
<path d="M215.6,240.8c0,38.8-31.4,70.2-70.2,70.2c-38.8,0-70.2-31.4-70.2-70.2c0-38.8,31.4-70.2,70.2-70.2
	C184.1,170.6,215.6,202,215.6,240.8z M145.3,429.8c-38.8,0-70.2,31.4-70.2,70.2s31.4,70.2,70.2,70.2c38.8,0,70.2-31.4,70.2-70.2
	S184.1,429.8,145.3,429.8z M145.3,689c-38.8,0-70.2,31.4-70.2,70.2c0,38.8,31.4,70.2,70.2,70.2c38.8,0,70.2-31.4,70.2-70.2
	C215.6,720.4,184.1,689,145.3,689z M807,240.8c0-28.6-23.2-51.8-51.8-51.8H329.6c-28.6,0-51.8,23.2-51.8,51.8
	c0,28.6,23.2,51.8,51.8,51.8h425.5C783.8,292.6,807,269.4,807,240.8z M807,759.2c0-28.6-23.2-51.8-51.8-51.8H329.6
	c-28.6,0-51.8,23.2-51.8,51.8c0,28.6,23.2,51.8,51.8,51.8h425.5C783.8,811,807,787.8,807,759.2z M925.1,500
	c0-28.6-23.2-51.8-51.8-51.8H329.6c-28.6,0-51.8,23.2-51.8,51.8s23.2,51.8,51.8,51.8h543.7C901.9,551.8,925.1,528.6,925.1,500z"/>
</svg>
