<?xml version="1.0" encoding="utf-8"?>
<!-- Generator: Adobe Illustrator 18.1.1, SVG Export Plug-In . SVG Version: 6.00 Build 0)  -->
<!DOCTYPE svg PUBLIC "-//W3C//DTD SVG 1.1//EN" "http://www.w3.org/Graphics/SVG/1.1/DTD/svg11.dtd">
<svg version="1.1" xmlns="http://www.w3.org/2000/svg" xmlns:xlink="http://www.w3.org/1999/xlink" x="0px" y="0px" width="1000px"
	 height="1000px" viewBox="0 0 1000 1000" style="enable-background:new 0 0 1000 1000;" xml:space="preserve">
<style type="text/css">
	.st0{fill:#101010;}
	.st1{fill:#FFFFFF;}
	.st2{fill:none;stroke:#000000;stroke-miterlimit:10;}
</style>
<g id="Layer_2">
</g>
<g id="Layer_1">
	<path d="M925,189.5c0-21.1-17.1-38.2-38.2-38.2H351.2c-21.1,0-38.2,17.1-38.2,38.2c0,21.1,17.1,38.2,38.2,38.2h535.5
		C907.9,227.7,925,210.6,925,189.5z M924.3,498.9c0-21.1-17.1-38.2-38.2-38.2H350.5c-21.1,0-38.2,17.1-38.2,38.2
		c0,21.1,17.1,38.2,38.2,38.2H886C907.1,537.1,924.3,520,924.3,498.9z M925,808.3c0-21.1-17.1-38.2-38.2-38.2H351.2
		c-21.1,0-38.2,17.1-38.2,38.2c0,21.1,17.1,38.2,38.2,38.2h535.5C907.9,846.5,925,829.4,925,808.3z M193.2,80.1V299h-47V133.2
		c-12.1,10.7-29.7,16.8-45.5,18.7v-39.7c23-6.7,45-17.6,64.1-32.1H193.2z M126.7,570.3h90.8v39.1H75v-16.1
		c0-25.8,12.8-48.4,31.3-65.7c17.6-16.6,42.3-27.5,55.9-48.1c10.9-16.5,11.1-40.9-10.1-48.4c-22.7-8.1-50.1,5.7-66.8,20.2v-41.5
		c33.6-21.7,95.3-30.2,122,7.1c31.9,44.6-8.4,90.6-44,115.2C152.1,540,126.7,554,126.7,570.3z M78.6,908.1V867
		c19.9,14.5,61.7,26.2,81.4,5.2c8.7-9.2,9.5-25.2,1.5-35.1c-9.4-11.6-27.4-13.7-41.2-13.7h-19.9v-36.1h18.4
		c21.7,0,51-10.6,40.1-38.4c-10.9-27.8-55-13.4-72.2-1.6v-38.5c32.5-16.3,89-19.8,113,13.1c23.5,32.2,1.5,72.5-33.6,81.3v0.7
		c45,5.6,65.6,57.1,33.7,91.3C171.9,925.2,113.1,925.9,78.6,908.1z"/>
</g>
</svg>
