<?xml version="1.0" encoding="iso-8859-1"?>
<!-- Generator: Adobe Illustrator 18.1.0, SVG Export Plug-In . SVG Version: 6.00 Build 0)  -->
<!DOCTYPE svg PUBLIC "-//W3C//DTD SVG 1.1//EN" "http://www.w3.org/Graphics/SVG/1.1/DTD/svg11.dtd">
<svg version="1.1" id="Layer_1" xmlns="http://www.w3.org/2000/svg" xmlns:xlink="http://www.w3.org/1999/xlink" x="0px" y="0px"
	 width="1000px" height="1000px" viewBox="0 0 1000 1000" style="enable-background:new 0 0 1000 1000;" xml:space="preserve">
<style type="text/css">
	.st0{fill-rule:evenodd;clip-rule:evenodd;}
	.st1{fill:none;}
</style>
<g>
	<path d="M882.8,458.1h-75.5c-18.6-137.3-127.6-246.4-264.9-265.2v-75.7c0-23.3-18.9-42.2-42.2-42.2l0,0
		c-23.3,0-42.2,18.9-42.2,42.2v75.7c-137.1,18.7-246,127.5-264.8,264.7h-76.1c-23.3,0-42.2,18.9-42.2,42.2l0,0
		c0,23.3,18.9,42.2,42.2,42.2h76c18.6,137.2,127.3,246.1,264.3,265v75.9c0,23.3,18.9,42.2,42.2,42.2l0,0c23.3,0,42.2-18.9,42.2-42.2
		V807c137.4-18.6,246.5-127.3,265.3-264.6h75.6c23.3,0,42.2-18.9,42.2-42.2l0,0C925,477,906.1,458.1,882.8,458.1z M541.9,730v-77.1
		c0-23.3-18.9-42.2-42.2-42.2l0,0c-23.3,0-42.2,18.9-42.2,42.2V730c-95.4-17.4-170.5-92.7-187.7-188.1h77.2
		c23.3,0,42.2-18.9,42.2-42.2l0,0c0-23.3-18.9-42.2-42.2-42.2h-77c17.6-95.1,92.8-170,188-187.2v76.7c0,23.3,18.9,42.2,42.2,42.2
		l0,0c23.3,0,42.2-18.9,42.2-42.2v-76.5c94.9,17.5,169.7,92.5,187.1,187.5h-76.6c-23.3,0-42.2,18.9-42.2,42.2l0,0
		c0,23.3,18.9,42.2,42.2,42.2h76.6C712.1,637.6,637.1,712.7,541.9,730z"/>
</g>
</svg>
