<?xml version="1.0" encoding="iso-8859-1"?>
<!-- Generator: Adobe Illustrator 18.1.0, SVG Export Plug-In . SVG Version: 6.00 Build 0)  -->
<!DOCTYPE svg PUBLIC "-//W3C//DTD SVG 1.1//EN" "http://www.w3.org/Graphics/SVG/1.1/DTD/svg11.dtd">
<svg version="1.1" id="Layer_1" xmlns="http://www.w3.org/2000/svg" xmlns:xlink="http://www.w3.org/1999/xlink" x="0px" y="0px"
	 width="1000px" height="1000px" viewBox="0 0 1000 1000" style="enable-background:new 0 0 1000 1000;" xml:space="preserve">
<style type="text/css">
	.st0{fill-rule:evenodd;clip-rule:evenodd;}
</style>
<path d="M758.5,427.3h-11.2V323.3c0-136.8-110.9-247.6-247.6-247.6C362.8,75.7,252,186.6,252,323.3v103.9h-11.2
	c-26.4,0-47.8,21.4-47.8,47.8v402.8c0,26.4,21.4,47.8,47.8,47.8h517.7c26.4,0,47.8-21.4,47.8-47.8V475.1
	C806.2,448.7,784.9,427.3,758.5,427.3z M499.6,189.3c74,0,134,60,134,134v103.9h-268V323.3C365.6,249.3,425.6,189.3,499.6,189.3z
	 M562.5,793.2H436.7L466.4,664c-18.3-11.2-30.5-31.4-30.5-54.3c0-16.6,6.4-31.7,16.8-43.1c11.6-12.7,28.4-20.6,46.9-20.6
	c18.6,0,35.3,8,46.9,20.6c10.4,11.3,16.8,26.5,16.8,43.1c0,23-12.2,43.2-30.5,54.3L562.5,793.2z"/>
</svg>
