<?xml version="1.0" encoding="iso-8859-1"?>
<!-- Generator: Adobe Illustrator 18.1.0, SVG Export Plug-In . SVG Version: 6.00 Build 0)  -->
<!DOCTYPE svg PUBLIC "-//W3C//DTD SVG 1.1//EN" "http://www.w3.org/Graphics/SVG/1.1/DTD/svg11.dtd">
<svg version="1.1" id="Layer_1" xmlns="http://www.w3.org/2000/svg" xmlns:xlink="http://www.w3.org/1999/xlink" x="0px" y="0px"
	 width="1069px" height="1000px" viewBox="0 0 1069 1000" style="enable-background:new 0 0 1069 1000;" xml:space="preserve">
<style type="text/css">
	.st0{fill-rule:evenodd;clip-rule:evenodd;}
</style>
<path d="M634,584.7l73.2,93.3H675h-0.3c-19.8,0-29.7-5-40.7-11.9V584.7z M634,277.5c0,6.4,4.8,12.1,9.1,16.7l13.7,17.8
	c-7.8,1.4-10.9,3.4-22.9,5.8v87.9c12-9.8,21.2-11.7,50.7-12.7h0.3h128.6L698.8,241.8c-7-8.1-17.1-13.9-28.4-13.9
	c-17.5,0-36.4,11.5-36.4,27.9V277.5z M994.9,496.4c0-96.7-73.9-175.8-163.9-182.1v0.7h-35l85.6,103.6c21.2,19,34.1,46.8,34.1,78.1
	c0,54.9-43.8,98.4-92.7,101.9l-133.4-0.3L804.4,746h0c7,11,17.2,14.1,28.5,14.1c21.1,0,38.1-17.2,38.1-39c0-10.7-3.7-19.1-10.9-27.3
	l-13.1-17.7C930.6,661.7,994.9,586.8,994.9,496.4z M588,74.9v850L76,836.6V166L588,74.9z M427.2,674.1l-1.2-63.5l-114-1.9V323.1
	l-58,7.1v334L427.2,674.1z"/>
</svg>
