<?xml version="1.0" encoding="iso-8859-1"?>
<!-- Generator: Adobe Illustrator 18.1.0, SVG Export Plug-In . SVG Version: 6.00 Build 0)  -->
<!DOCTYPE svg PUBLIC "-//W3C//DTD SVG 1.1//EN" "http://www.w3.org/Graphics/SVG/1.1/DTD/svg11.dtd">
<svg version="1.1" id="Layer_1" xmlns="http://www.w3.org/2000/svg" xmlns:xlink="http://www.w3.org/1999/xlink" x="0px" y="0px"
	 width="1000px" height="1000px" viewBox="0 0 1000 1000" style="enable-background:new 0 0 1000 1000;" xml:space="preserve">
<style type="text/css">
	.st0{fill-rule:evenodd;clip-rule:evenodd;}
	.st1{fill:none;}
</style>
<path d="M853.6,198.6H146.4c-20.9,0-37.8,16.9-37.8,37.8v527.2c0,20.8,16.9,37.8,37.8,37.8h707.2c20.9,0,37.8-16.9,37.8-37.8V236.4
	C891.4,215.5,874.5,198.6,853.6,198.6z M811.7,274.2L505.7,512.7L198.1,274.2H811.7z M815.8,725.8H184.2V359l298.5,231.4
	c6.8,5.3,15,7.9,23.2,7.9c8.2,0,16.4-2.7,23.2-8l286.8-223.6V725.8z"/>
</svg>
