<?xml version="1.0" encoding="iso-8859-1"?>
<!-- Generator: Adobe Illustrator 18.1.0, SVG Export Plug-In . SVG Version: 6.00 Build 0)  -->
<!DOCTYPE svg PUBLIC "-//W3C//DTD SVG 1.1//EN" "http://www.w3.org/Graphics/SVG/1.1/DTD/svg11.dtd">
<svg version="1.1" xmlns="http://www.w3.org/2000/svg" xmlns:xlink="http://www.w3.org/1999/xlink" x="0px" y="0px" width="1000px"
	 height="1000px" viewBox="0 0 1000 1000" style="enable-background:new 0 0 1000 1000;" xml:space="preserve">
<style type="text/css">
	.st0{display:none;}
	.st1{display:inline;}
	.st2{fill:#FFFFFF;}
	.st3{fill:#FFFFFF;stroke:#000000;stroke-width:1.45;stroke-linejoin:bevel;}
	.st4{display:inline;fill:none;stroke:#C1272D;stroke-miterlimit:10;}
	.st5{display:inline;fill:#ED1C24;}
	.st6{display:inline;fill:#FFFFFF;}
	.st7{display:inline;fill:none;stroke:#ED1C24;stroke-miterlimit:10;}
	.st8{fill:#ED1C24;}
	.st9{fill-rule:evenodd;clip-rule:evenodd;}
	.st10{fill:#231F20;}
</style>
<g id="Layer_2" class="st0">
</g>
<g id="Layer_1">
	<g>
		<path d="M757.5,474.4h137.7c3.6,0,7.2,0.9,10.8,2.7c3.6,1.8,6.6,4.1,9,6.8L757.5,596V474.4z M757.5,674.8v2.4
			c0,33.3-28.5,60.5-63.5,60.5h-25.3l-49.1,34.8c-2.4,2.4-5.1,4.1-8.1,5c-3,0.9-6.2,1.4-9.5,1.4c-3.6,0-6.9-0.4-9.9-1.4
			c-3-0.9-5.9-2.6-8.6-5l-49.1-34.8H287.5v156.2c0,8.1,3.1,15.3,9.2,21.6c6.2,6.3,13,9.5,20.5,9.5h578c8.4,0,15.5-3.2,21.2-9.5
			s8.6-13.5,8.6-21.6V556.3L757.5,674.8z M712.5,314.8v362.4c0,9-9.3,15.5-18.5,15.5H93.5c-9.6,0-17.5-7.3-18.4-16.7
			c0,0-0.1,0-0.1,0V314.8L380.8,81.2C387.2,77.1,394,75,401,75c5.8,0,11.7,2.1,17.5,6.2L712.5,314.8z M643.6,358.7L394,161.2
			L143.9,358.7L394,556.6L643.6,358.7z"/>
	</g>
</g>
</svg>
