<?xml version="1.0" encoding="utf-8"?>
<!-- Generator: Adobe Illustrator 18.1.1, SVG Export Plug-In . SVG Version: 6.00 Build 0)  -->
<!DOCTYPE svg PUBLIC "-//W3C//DTD SVG 1.1//EN" "http://www.w3.org/Graphics/SVG/1.1/DTD/svg11.dtd">
<svg version="1.1" xmlns="http://www.w3.org/2000/svg" xmlns:xlink="http://www.w3.org/1999/xlink" x="0px" y="0px" width="1000px"
	 height="1000px" viewBox="0 0 1000 1000" style="enable-background:new 0 0 1000 1000;" xml:space="preserve">
<style type="text/css">
	.st0{fill:#101010;}
	.st1{fill:#FFFFFF;}
	.st2{fill:none;stroke:#000000;stroke-miterlimit:10;}
</style>
<g id="Layer_2">
</g>
<g id="Layer_1">
	<path d="M414.9,437.6L82.3,200.9c6.5-9.4,14.8-14.1,24.9-14.1h624.6c3.9,0,7.8,1,11.7,2.9c3.9,1.9,7.1,4.4,9.8,7.3L414.9,437.6z
		 M736.6,460.4c9.3,0,18.4,0.5,27.4,1.6V275.3L433.9,508.9c-3.1,1.9-10,6.8-19,6.8s-16.4-4.8-20-6.8L75,282.6v357.5
		c0,8.8,3.3,16.6,10,23.4c6.7,6.8,14.1,10.2,22.2,10.2h390.6C511.2,553.7,613,460.4,736.6,460.4z M761.6,578.9
		c22.5,4.4,42.4,15.4,58.8,30.4l-91.7-0.2l50.1,49.2l136.2-0.1l0-136.2l-49.6-47.2l0,84.6c-25.3-23.1-56.6-39-91.2-45.7
		c-102-19.8-205,40.6-228.3,161.1h73.1C632.1,609.1,695.9,566.3,761.6,578.9z M851.9,725.1H925c-23.3,120.4-126.3,180.8-228.3,161.1
		c-34.6-6.7-65.9-22.7-91.2-45.7l0,84.6l-49.6-47.2l0-136.2l136.2-0.1l50.1,49.2l-91.7-0.2c16.4,15,36.3,26,58.8,30.4
		C774.9,833.5,838.8,790.6,851.9,725.1z"/>
</g>
</svg>
