<?xml version="1.0" encoding="iso-8859-1"?>
<!-- Generator: Adobe Illustrator 18.1.0, SVG Export Plug-In . SVG Version: 6.00 Build 0)  -->
<!DOCTYPE svg PUBLIC "-//W3C//DTD SVG 1.1//EN" "http://www.w3.org/Graphics/SVG/1.1/DTD/svg11.dtd">
<svg version="1.1" id="Layer_1" xmlns="http://www.w3.org/2000/svg" xmlns:xlink="http://www.w3.org/1999/xlink" x="0px" y="0px"
	 width="1000px" height="1000px" viewBox="0 0 1000 1000" style="enable-background:new 0 0 1000 1000;" xml:space="preserve">
<style type="text/css">
	.st0{fill-rule:evenodd;clip-rule:evenodd;}
	.st1{fill:none;}
</style>
<path d="M416.2,437.6L82.3,199.9c6.5-9.5,14.8-14.2,25-14.2h627.1c3.9,0,7.8,1,11.7,2.9c3.9,2,7.2,4.4,9.8,7.3L416.2,437.6z
	 M539,654.8l203.5-203.5c6.9-6.9,15.2-11.8,24.3-14.5V274.6L435.3,509.1c-2.6,2.6-5.6,4.4-8.8,5.4c-3.3,1-6.7,1.5-10.3,1.5
	c-3.9,0-7.5-0.5-10.8-1.5c-3.3-1-6.4-2.8-9.3-5.4L75,282v359c0,8.8,3.3,16.6,10,23.5c6.7,6.8,14.1,10.3,22.3,10.3h418.8
	C528.9,667.4,533.2,660.7,539,654.8z M856.4,565.5c5.4-5.3,5.4-14,0-19.3l-63.5-63.6c-5.3-5.3-13.9-5.3-19.2,0L570.3,685.9
	c-5.3,5.3-5.3,14,0,19.3l63.6,63.6c5.4,5.4,14,5.4,19.3,0L856.4,565.5z M906.4,432.7c36.3,36.3,8.4,72.1,8.4,72.1
	c-4.6,5.9-12.7,15-17.9,20.2c-5.2,5.2-13.8,5.1-19.1-0.2l-63.5-63.5c-5.3-5.3-5.4-13.9-0.2-19.2c5.2-5.2,14.3-13.2,20.2-17.9
	C834.2,424.3,870.1,396.4,906.4,432.7 M537.8,813.7c-9.3,2.4-15-3.4-12.8-12.7l13.6-54.5c2.3-9.3,9.8-11.3,16.6-4.6l41.7,41.7
	c6.8,6.8,4.8,14.2-4.6,16.6L537.8,813.7z"/>
</svg>
