<?xml version="1.0" encoding="iso-8859-1"?>
<!-- Generator: Adobe Illustrator 18.1.1, SVG Export Plug-In . SVG Version: 6.00 Build 0)  -->
<!DOCTYPE svg PUBLIC "-//W3C//DTD SVG 1.1//EN" "http://www.w3.org/Graphics/SVG/1.1/DTD/svg11.dtd">
<svg version="1.1" xmlns="http://www.w3.org/2000/svg" xmlns:xlink="http://www.w3.org/1999/xlink" x="0px" y="0px" width="1000px"
	 height="1000px" viewBox="0 0 1000 1000" style="enable-background:new 0 0 1000 1000;" xml:space="preserve">
<style type="text/css">
	.st0{display:none;}
	.st1{display:inline;}
	.st2{fill:#FFFFFF;}
	.st3{fill:#FFFFFF;stroke:#000000;stroke-width:1.45;stroke-linejoin:bevel;}
	.st4{display:inline;fill:none;stroke:#C1272D;stroke-miterlimit:10;}
	.st5{display:inline;fill:#ED1C24;}
	.st6{display:inline;fill:#FFFFFF;}
	.st7{display:inline;fill:none;stroke:#ED1C24;stroke-miterlimit:10;}
	.st8{fill:#ED1C24;}
	.st9{fill-rule:evenodd;clip-rule:evenodd;}
	.st10{fill:#FFFFFF;stroke:#231F20;stroke-width:3;stroke-miterlimit:10;}
	.st11{fill:none;stroke:#231F20;stroke-width:3;stroke-miterlimit:10;}
	.st12{fill:#231F20;}
	.st13{fill:none;stroke:#FFFFFF;stroke-width:3;stroke-miterlimit:10;}
	.st14{fill:#FFFFFF;stroke:#231F20;stroke-width:3;stroke-linejoin:round;stroke-miterlimit:10;}
	.st15{fill:none;stroke:#231F20;stroke-width:3;stroke-linejoin:round;stroke-miterlimit:10;}
	.st16{fill:none;stroke:#000000;stroke-miterlimit:10;}
</style>
<g id="Layer_2" class="st0">
</g>
<g id="Layer_1">
	<path d="M414.9,437.7L82.3,200.9c6.5-9.4,14.8-14.1,24.9-14.1h624.6c3.9,0,7.8,1,11.7,2.9c3.9,1.9,7.1,4.4,9.8,7.3L414.9,437.7z
		 M483.2,623.2l40-37.2c10.1-9.3,23.3-14.5,37.1-14.5c15.2,0,29.8,6.4,40.2,17.5l73.2,78.8L764,551.6V275.3L414.9,522.7L75,282.6
		v357.5c0,8.8,3.3,16.6,10,23.4c6.7,6.8,14.1,10.2,22.2,10.2h359.6C463.4,655.8,468.9,636.5,483.2,623.2z M681.3,851.2l241-309.9
		c1.6-2,2.3-4.6,2-7.2c-0.3-2.6-1.7-4.9-3.7-6.5l-42.8-33.2c-1.7-1.3-3.8-2.1-6-2.1c-3.1,0-5.9,1.4-7.7,3.7L676.4,737.4L567.4,620
		c-1.9-2-4.4-3.1-7.2-3.1c-2.5,0-4.8,0.9-6.6,2.6l-39.7,36.9c-3.9,3.7-4.2,9.9-0.5,13.8L681.3,851.2z"/>
</g>
</svg>
