<?xml version="1.0" encoding="iso-8859-1"?>
<!-- Generator: Adobe Illustrator 18.1.0, SVG Export Plug-In . SVG Version: 6.00 Build 0)  -->
<!DOCTYPE svg PUBLIC "-//W3C//DTD SVG 1.1//EN" "http://www.w3.org/Graphics/SVG/1.1/DTD/svg11.dtd">
<svg version="1.1" id="Layer_1" xmlns="http://www.w3.org/2000/svg" xmlns:xlink="http://www.w3.org/1999/xlink" x="0px" y="0px"
	 width="1000px" height="1000px" viewBox="0 0 1000 1000" style="enable-background:new 0 0 1000 1000;" xml:space="preserve">
<style type="text/css">
	.st0{fill-rule:evenodd;clip-rule:evenodd;}
</style>
<path d="M925.2,310v450.1c0,10.8-3.8,20.4-11.4,28.8c-7.6,8.4-17,12.6-28.3,12.6H114.9c-10,0-19.2-4.2-27.4-12.6
	c-8.2-8.4-12.3-18-12.3-28.8V319l394.6,279.2c3.6,3.2,7.4,5.4,11.4,6.6c4,1.2,8.4,1.8,13.2,1.8c4.4,0,8.6-0.6,12.6-1.8
	c4-1.2,7.6-3.4,10.8-6.6L925.2,310z M84.2,218.3c8-11.6,18.2-17.4,30.7-17.4h770.6c4.8,0,9.6,1.2,14.4,3.6c4.8,2.4,8.8,5.4,12,9
	L494.5,510.4L84.2,218.3z"/>
</svg>
