<?xml version="1.0" encoding="iso-8859-1"?>
<!-- Generator: Adobe Illustrator 18.1.0, SVG Export Plug-In . SVG Version: 6.00 Build 0)  -->
<!DOCTYPE svg PUBLIC "-//W3C//DTD SVG 1.1//EN" "http://www.w3.org/Graphics/SVG/1.1/DTD/svg11.dtd">
<svg version="1.1" id="Layer_1" xmlns="http://www.w3.org/2000/svg" xmlns:xlink="http://www.w3.org/1999/xlink" x="0px" y="0px"
	 width="1150px" height="1000px" viewBox="0 0 1150 1000" style="enable-background:new 0 0 1150 1000;" xml:space="preserve">
<style type="text/css">
	.st0{fill-rule:evenodd;clip-rule:evenodd;}
</style>
<path d="M266,688.8h-36c-22.1,0-40-18-40-40.1c0-22,17.9-40,40-40h36c22.1,0,40.1,17.9,40.1,40C306,670.8,288.1,688.8,266,688.8z
	 M306,332.1c0-22.1-17.9-40-40-40H115c-22.1,0-40,18-40,40c0,22.1,17.9,40.1,40,40.1h151C288.1,372.2,306,354.2,306,332.1z
	 M306,487.5c0-22.1-17.9-40.1-40-40.1h-88.6c-22.1,0-40,17.9-40,40.1c0,22.1,17.9,40,40,40H266C288.2,527.5,306,509.6,306,487.5z
	 M1075,259.5v481c0,19-15.4,34.5-34.5,34.5H395.3c-19.1,0-34.5-15.4-34.5-34.5v-481c0-19,15.4-34.5,34.5-34.5h645.2
	C1059.6,225,1075,240.5,1075,259.5z M442.5,294l280.7,217.6L1002.3,294H442.5z M1006.1,706V378.4l-261.6,204
	c-6.2,4.9-13.7,7.3-21.2,7.3c-7.5,0-14.9-2.4-21.1-7.2L429.8,371.3V706H1006.1z"/>
</svg>
