<?xml version="1.0" encoding="utf-8"?>
<!-- Generator: Adobe Illustrator 18.1.1, SVG Export Plug-In . SVG Version: 6.00 Build 0)  -->
<!DOCTYPE svg PUBLIC "-//W3C//DTD SVG 1.1//EN" "http://www.w3.org/Graphics/SVG/1.1/DTD/svg11.dtd">
<svg version="1.1" xmlns="http://www.w3.org/2000/svg" xmlns:xlink="http://www.w3.org/1999/xlink" x="0px" y="0px" width="1000px"
	 height="1000px" viewBox="0 0 1000 1000" style="enable-background:new 0 0 1000 1000;" xml:space="preserve">
<style type="text/css">
	.st0{fill:#101010;}
	.st1{fill:#FFFFFF;}
	.st2{fill:none;stroke:#000000;stroke-miterlimit:10;}
</style>
<g id="Layer_2">
</g>
<g id="Layer_1">
	<path d="M488.9,673.7H107.2c-8.1,0-15.5-3.4-22.2-10.2c-6.7-6.8-10-14.6-10-23.4V282.6l319.9,226.3c3.6,2.1,11,6.8,20,6.8
		s15.9-4.9,19-6.8L764,275.3v208c-8.1-9.7-17.8-18-28.8-24.3c-16-9.2-34.7-14.1-52.9-14.1s-36.8,4.9-52.9,14.1
		c-15.5,8.9-28.6,21.7-37.9,37L488.9,673.7z M753.3,197c-2.6-2.9-5.9-5.4-9.8-7.3c-3.9-1.9-7.8-2.9-11.7-2.9H107.2
		c-10.1,0-18.4,4.7-24.9,14.1l332.5,236.8L753.3,197z M922,868.9c0,31-25.1,56.1-56.1,56.1h-367c-31,0-56.1-25.2-56.1-56.1
		c0-9.7,2.5-18.8,6.8-26.8l184.8-320.2c9.8-16.2,27.7-27,48-27c20.4,0,38.2,10.8,48,27l185.1,320.7C919.6,850.4,922,859.4,922,868.9
		z M639.5,590l9.7,178.4H715l9.7-178.4H639.5z M726.9,845c0-11.9-4.1-21.5-12.4-28.9c-8.7-7.8-19.6-11.7-32.6-11.7
		c-12.7,0-23.4,3.9-32,11.7c-8.7,6.8-13,16.5-13,28.9c0,11,4.2,20.5,12.6,28.5c8.2,8.3,19.1,12.4,32.4,12.4c13.6,0,24.5-4,32.6-12
		C722.8,865.9,726.9,856.3,726.9,845z"/>
</g>
</svg>
