<?xml version="1.0" encoding="utf-8"?>
<!-- Generator: Adobe Illustrator 18.1.1, SVG Export Plug-In . SVG Version: 6.00 Build 0)  -->
<!DOCTYPE svg PUBLIC "-//W3C//DTD SVG 1.1//EN" "http://www.w3.org/Graphics/SVG/1.1/DTD/svg11.dtd">
<svg version="1.1" xmlns="http://www.w3.org/2000/svg" xmlns:xlink="http://www.w3.org/1999/xlink" x="0px" y="0px" width="1000px"
	 height="1000px" viewBox="0 0 1000 1000" style="enable-background:new 0 0 1000 1000;" xml:space="preserve">
<style type="text/css">
	.st0{fill:#101010;}
	.st1{fill:#FFFFFF;}
	.st2{fill:none;stroke:#000000;stroke-miterlimit:10;}
</style>
<g id="Layer_2">
</g>
<g id="Layer_1">
	<path d="M414.9,437.6L82.3,200.9c6.5-9.4,14.8-14.1,24.9-14.1h624.6c3.9,0,7.8,1,11.7,2.9c3.9,1.9,7.1,4.4,9.8,7.3L414.9,437.6z
		 M583.3,464.9H764V275.3L433.9,508.9c-3.1,1.9-10,6.8-19,6.8s-16.4-4.8-20-6.8L75,282.6v357.5c0,8.8,3.3,16.6,10,23.4
		s14.1,10.2,22.2,10.2h476.1V464.9z M741.7,514.9H633.3V915h108.3V514.9z M930,514.9H821.7V915H930V514.9z"/>
</g>
</svg>
