<?xml version="1.0" encoding="iso-8859-1"?>
<!-- Generator: Adobe Illustrator 18.1.1, SVG Export Plug-In . SVG Version: 6.00 Build 0)  -->
<!DOCTYPE svg PUBLIC "-//W3C//DTD SVG 1.1//EN" "http://www.w3.org/Graphics/SVG/1.1/DTD/svg11.dtd">
<svg version="1.1" xmlns="http://www.w3.org/2000/svg" xmlns:xlink="http://www.w3.org/1999/xlink" x="0px" y="0px" width="1000px"
	 height="1000px" viewBox="0 0 1000 1000" style="enable-background:new 0 0 1000 1000;" xml:space="preserve">
<style type="text/css">
	.st0{display:none;}
	.st1{display:inline;}
	.st2{fill:#FFFFFF;}
	.st3{fill:#FFFFFF;stroke:#000000;stroke-width:1.45;stroke-linejoin:bevel;}
	.st4{display:inline;fill:none;stroke:#C1272D;stroke-miterlimit:10;}
	.st5{display:inline;fill:#ED1C24;}
	.st6{display:inline;fill:#FFFFFF;}
	.st7{display:inline;fill:none;stroke:#ED1C24;stroke-miterlimit:10;}
	.st8{fill:#ED1C24;}
	.st9{fill-rule:evenodd;clip-rule:evenodd;}
	.st10{fill:#FFFFFF;stroke:#231F20;stroke-width:3;stroke-miterlimit:10;}
	.st11{fill:none;stroke:#231F20;stroke-width:3;stroke-miterlimit:10;}
	.st12{fill:#231F20;}
	.st13{fill:none;stroke:#FFFFFF;stroke-width:3;stroke-miterlimit:10;}
	.st14{fill:#FFFFFF;stroke:#231F20;stroke-width:3;stroke-linejoin:round;stroke-miterlimit:10;}
	.st15{fill:none;stroke:#231F20;stroke-width:3;stroke-linejoin:round;stroke-miterlimit:10;}
	.st16{fill:none;stroke:#000000;stroke-miterlimit:10;}
</style>
<g id="Layer_2" class="st0">
</g>
<g id="Layer_1">
	<path d="M301.3,97.6c1.6-12.7,25.6-12.7,27.1,0l21.1,171c2,16.6,33.6,16.3,35.1-0.4l15-172.2c0.8-10.1,20-10.6,21.6-0.5L447,262.3
		c5.1,33.1-6.3,66.4-32,93.1l-20.8,21.7c-37.8,39.3-55.9,87.8-51.1,136.6l35.8,364c2.5,25-22.1,46.8-54.6,48.3h-18.5
		c-32.5-1.5-57.1-23.3-54.6-48.3l35.8-364c4.8-48.8-13.3-97.3-51.1-136.6l-20.8-21.7c-25.7-26.8-37.1-60.1-32-93.1l25.8-166.8
		c1.6-10.1,20.7-9.7,21.6,0.5l15,172.2c1.4,16.6,33,17,35.1,0.4L301.3,97.6z M673.6,179.7l-57.4,392.9c-1.1,12,11.2,22.2,26.8,22.2
		h33.5c17.2,0,30.6,11.4,28.9,24.6L671,883.4c-3,22.8,20.3,42.6,50,42.6h21c23.2,0,41.9-14.5,41.9-32.3c0,0,0-784.7,0-790.2
		c0-15.1-2.2-29.3-36.9-27.5C718.3,77.5,682.6,117.5,673.6,179.7z"/>
</g>
</svg>
