<?xml version="1.0" encoding="iso-8859-1"?>
<!-- Generator: Adobe Illustrator 18.1.0, SVG Export Plug-In . SVG Version: 6.00 Build 0)  -->
<!DOCTYPE svg PUBLIC "-//W3C//DTD SVG 1.1//EN" "http://www.w3.org/Graphics/SVG/1.1/DTD/svg11.dtd">
<svg version="1.1" xmlns="http://www.w3.org/2000/svg" xmlns:xlink="http://www.w3.org/1999/xlink" x="0px" y="0px" width="1000px"
	 height="1000px" viewBox="0 0 1000 1000" style="enable-background:new 0 0 1000 1000;" xml:space="preserve">
<style type="text/css">
	.st0{display:none;}
	.st1{display:inline;}
	.st2{fill:#FFFFFF;}
	.st3{fill:#FFFFFF;stroke:#000000;stroke-width:1.45;stroke-linejoin:bevel;}
	.st4{display:inline;fill:none;stroke:#C1272D;stroke-miterlimit:10;}
	.st5{display:inline;fill:#ED1C24;}
	.st6{display:inline;fill:#FFFFFF;}
	.st7{display:inline;fill:none;stroke:#ED1C24;stroke-miterlimit:10;}
	.st8{fill:#ED1C24;}
	.st9{fill-rule:evenodd;clip-rule:evenodd;}
	.st10{fill:#231F20;}
</style>
<g id="Layer_2" class="st0">
</g>
<g id="Layer_1">
	<path d="M152.1,152.4V75h77.4v77.4H152.1z M152.1,306.9v-77.4h77.4v77.4H152.1z M152.1,461.3v-77.4h77.4v77.4H152.1z M152.1,616.1
		v-77.4h77.4v77.4H152.1z M152.1,770.6v-77h77.4v77H152.1z M152.1,925v-77h77.4v77H152.1z M306.8,152.4V75h77.4v77.4H306.8z
		 M306.8,925v-77h77.4v77H306.8z M461.3,152.4V75h77.4v77.4H461.3z M461.3,925v-77h77.4v77H461.3z M615.8,75l232.2,231.9H615.8V75z
		 M615.8,925v-77h77.4v77H615.8z M770.5,461.3v-77.4h77.4v77.4H770.5z M770.5,616.1v-77.4h77.4v77.4H770.5z M770.5,770.6v-77h77.4
		v77H770.5z M770.5,925v-77h77.4v77H770.5z"/>
</g>
</svg>
