<?xml version="1.0" encoding="iso-8859-1"?>
<!-- Generator: Adobe Illustrator 18.1.0, SVG Export Plug-In . SVG Version: 6.00 Build 0)  -->
<!DOCTYPE svg PUBLIC "-//W3C//DTD SVG 1.1//EN" "http://www.w3.org/Graphics/SVG/1.1/DTD/svg11.dtd">
<svg version="1.1" id="Layer_1" xmlns="http://www.w3.org/2000/svg" xmlns:xlink="http://www.w3.org/1999/xlink" x="0px" y="0px"
	 width="3000px" height="1000px" viewBox="0 0 3000 1000" style="enable-background:new 0 0 3000 1000;" xml:space="preserve">
<path d="M496.597,245.774h119.951v509.519h-87.883V431.515c0.229-20.469,1.919-54.384,3.902-91.503h-1.807
	c-3.356,15.009-7.011,31.699-10.465,40.246L368.252,755.294h-57.636l-153.19-371.675c-3.151-9.784-7.496-24.41-11.682-43.607h-1.817
	c0.386,8.258,1.919,19.1,2.341,32.624c0.819,26.742,1.232,50.103,1.232,69.435v313.224H65.122V245.774h124.9L317.773,566.25
	c11.199,28.221,18.345,50.422,22.611,66.078h1.365l23.864-66.808L496.597,245.774z M699.283,755.294h85.898v-365.14h-85.898V755.294
	z M743.114,234.981c-14.158,0-26.463,4.826-36.591,14.345c-10.17,9.56-15.325,21.615-15.325,35.825
	c0,13.982,5.094,25.791,15.156,35.113c10.012,9.283,22.386,13.988,36.76,13.988c14.38,0,26.799-4.705,36.934-13.98
	c10.19-9.33,15.352-21.139,15.352-35.121c0-13.714-5.027-25.634-14.94-35.428C770.549,239.936,757.986,234.981,743.114,234.981z
	 M1089.259,386.499c-16.522-3.412-32.663-5.143-47.999-5.143c-39.419,0-74.562,8.441-104.464,25.109
	c-29.943,16.687-53.127,40.522-68.87,70.837c-15.718,30.235-23.677,65.537-23.677,104.923c0,34.502,7.739,66.148,22.988,94.065
	c15.283,27.963,36.908,49.823,64.278,64.992c27.352,15.137,58.934,22.815,93.898,22.815c40.816,0,75.683-8.154,103.608-24.249
	l1.136-0.658V660.51l-3.601,2.636c-12.684,9.225-26.819,16.581-42.028,21.873c-15.188,5.291-29.03,7.979-41.156,7.979
	c-33.702,0-60.747-10.548-80.395-31.345c-19.69-20.811-29.663-50.018-29.663-86.812c0-37.028,10.395-67.017,30.903-89.134
	c20.462-22.06,47.566-33.249,80.555-33.249c28.25,0,55.762,9.56,81.783,28.44l3.601,2.615V400.6l-1.156-0.651
	C1119.208,394.47,1105.837,389.944,1089.259,386.499z M1372.265,383.815c-21.567,0-40.889,6.933-57.44,20.6
	c-14.525,11.984-25.015,28.438-33.049,48.966h-0.908v-63.226h-85.886v365.14h85.886V568.503c0-31.764,7.207-57.854,21.405-77.552
	c14.036-19.471,32.725-29.338,55.554-29.338c7.744,0,16.431,1.273,25.833,3.793c9.3,2.509,16.045,5.234,20.025,8.098l3.609,2.605
	v-86.587l-1.388-0.593C1397.915,385.532,1386.591,383.815,1372.265,383.815z M1739.241,431.527
	c31.961,33.265,48.176,79.586,48.176,137.678c0,58.799-17.28,106.484-51.349,141.732c-34.083,35.28-80.969,53.161-139.323,53.161
	c-56.007,0-101.28-16.992-134.546-50.495c-33.269-33.502-50.134-79.477-50.134-136.647c0-60.205,17.273-108.369,51.357-143.158
	c34.089-34.796,81.906-52.441,142.127-52.441C1662.268,381.356,1707.259,398.229,1739.241,431.527z M1698.351,572.019
	c0-39.162-8.758-69.23-26.038-89.364c-17.193-20.043-41.197-30.196-71.344-30.196c-31.073,0-55.719,10.625-73.265,31.579
	c-17.636,21.072-26.583,51.385-26.583,90.091c0,37.544,8.946,67.078,26.583,87.805c17.526,20.615,42.418,31.064,73.966,31.064
	c31.757,0,56.038-10.249,72.172-30.491C1690.105,642.125,1698.351,611.684,1698.351,572.019z M1977.901,541.031
	c-27.076-10.882-44.426-19.896-51.556-26.809c-6.899-6.685-10.408-16.145-10.408-28.123c0-10.62,4.328-19.135,13.215-26.015
	c8.926-6.934,21.379-10.45,36.986-10.45c14.503,0,29.327,2.282,44.063,6.773c14.709,4.483,27.653,10.49,38.467,17.834l3.558,2.422
	v-79.401l-1.385-0.595c-9.952-4.266-23.086-7.915-39.043-10.877c-15.906-2.943-30.321-4.435-42.844-4.435
	c-40.955,0-74.835,10.478-100.727,31.133c-26.03,20.777-39.227,48.028-39.227,81.008c0,17.143,2.844,32.37,8.462,45.265
	c5.625,12.965,14.373,24.389,25.985,33.958c11.494,9.49,29.287,19.432,52.848,29.563c19.787,8.146,34.559,15.039,43.952,20.477
	c9.173,5.322,15.679,10.673,19.342,15.891c3.582,5.102,5.401,12.063,5.401,20.692c0,24.549-18.378,36.469-56.174,36.469
	c-14.033,0-30.019-2.925-47.537-8.691c-17.538-5.765-33.915-14.072-48.679-24.684l-3.602-2.598v83.723l1.312,0.615
	c12.313,5.675,27.814,10.466,46.103,14.234c18.277,3.781,34.846,5.686,49.222,5.686c44.465,0,80.238-10.534,106.355-31.297
	c26.274-20.906,39.596-48.811,39.596-82.956c0-24.607-7.158-45.718-21.299-62.732
	C2036.249,570.232,2011.894,554.727,1977.901,541.031z M2436.235,431.527c31.969,33.265,48.182,79.586,48.182,137.678
	c0,58.799-17.279,106.484-51.356,141.732c-34.083,35.28-80.968,53.161-139.313,53.161c-56.014,0-101.28-16.992-134.547-50.495
	c-33.276-33.502-50.141-79.477-50.141-136.647c0-60.205,17.28-108.369,51.356-143.158c34.094-34.796,81.906-52.441,142.129-52.441
	C2359.263,381.356,2404.252,398.229,2436.235,431.527z M2395.351,572.019c0-39.162-8.755-69.23-26.035-89.364
	c-17.195-20.043-41.207-30.196-71.346-30.196c-31.079,0-55.727,10.625-73.265,31.579c-17.637,21.072-26.58,51.385-26.58,90.091
	c0,37.544,8.936,67.078,26.572,87.805c17.535,20.615,42.426,31.064,73.979,31.064c31.743,0,56.034-10.249,72.168-30.491
	C2387.098,642.125,2395.351,611.684,2395.351,572.019z M2942.385,460.204v-70.05h-86.98V281.24l-2.936,0.899l-81.695,25.014
	l-1.611,0.491v82.51h-128.878V344.19c0-21.396,4.788-37.779,14.239-48.691c9.371-10.823,22.758-16.302,39.82-16.302
	c12.285,0,25.012,2.901,37.82,8.618l3.201,1.422V215.46l-1.505-0.532c-11.929-4.298-28.179-6.48-48.316-6.48
	c-25.375,0-48.428,5.549-68.514,16.47c-20.126,10.968-35.954,26.613-47.03,46.499c-11.061,19.856-16.66,42.796-16.66,68.189v50.548
	h-60.566v70.05h60.566v295.09h86.944v-295.09h128.878v187.53c0,77.216,36.428,116.364,108.27,116.364
	c11.812,0,24.243-1.381,36.921-4.097c12.925-2.782,21.714-5.568,26.888-8.53l1.145-0.654v-70.728l-3.532,2.361
	c-4.714,3.151-10.597,5.721-17.489,7.634c-6.921,1.935-12.699,2.914-17.174,2.914c-16.833,0-29.283-4.533-37.017-13.477
	c-7.81-9.037-11.769-24.816-11.769-46.936V460.204H2942.385z"/>
</svg>
