<?xml version="1.0" encoding="iso-8859-1"?>
<!-- Generator: Adobe Illustrator 18.1.0, SVG Export Plug-In . SVG Version: 6.00 Build 0)  -->
<!DOCTYPE svg PUBLIC "-//W3C//DTD SVG 1.1//EN" "http://www.w3.org/Graphics/SVG/1.1/DTD/svg11.dtd">
<svg version="1.1" id="Layer_1" xmlns="http://www.w3.org/2000/svg" xmlns:xlink="http://www.w3.org/1999/xlink" x="0px" y="0px"
	 width="1000px" height="1000px" viewBox="0 0 1000 1000" style="enable-background:new 0 0 1000 1000;" xml:space="preserve">
<style type="text/css">
	.st0{fill-rule:evenodd;clip-rule:evenodd;}
</style>
<path d="M631.1,421.5l-21.5,230.4c0,16.8-6.9,32-18,43.2c-11.2,11.1-26.4,17.9-43.1,17.9h-97.3c-16.8,0-32-6.8-43.2-17.9
	c-11-11.1-17.9-26.3-17.9-43.2l-21.6-230.4l21.6-230.4c0-16.8,6.9-32.1,17.9-43.1c11.2-11.1,26.4-17.9,43.2-17.9h97.3
	c16.7,0,32,6.9,43.1,17.9c11,11,18,26.3,18,43.1L631.1,421.5z M727.2,428.7c-18-1.6-33.9,11.7-35.5,29.7l-22.3,237.8
	c-2.9,40.1-42.1,75.9-82.3,75.3H413.9c-40.2,0.6-79.7-35.2-82.8-75.4L308,458.2c-1.8-18-17.6-31.2-35.6-29.5
	c-18,1.6-31.2,17.6-29.5,35.6L266,702.1c7.7,75.6,72.1,134.1,147.9,134.8h51.8v74.9h-75c-18.8,0-34.1,15.3-34.1,34.1
	c0,18.9,15.3,34.2,34.1,34.2H609c18.8,0,34.1-15.3,34.1-34.2c0-18.8-15.3-34.1-34.1-34.1h-75v-74.9h53.2
	c75.9-0.7,140-59.4,147.4-134.9l22.3-237.8C758.5,446.2,745.2,430.3,727.2,428.7z"/>
</svg>
