<?xml version="1.0" encoding="iso-8859-1"?>
<!-- Generator: Adobe Illustrator 18.1.0, SVG Export Plug-In . SVG Version: 6.00 Build 0)  -->
<!DOCTYPE svg PUBLIC "-//W3C//DTD SVG 1.1//EN" "http://www.w3.org/Graphics/SVG/1.1/DTD/svg11.dtd">
<svg version="1.1" xmlns="http://www.w3.org/2000/svg" xmlns:xlink="http://www.w3.org/1999/xlink" x="0px" y="0px" width="1000px"
	 height="1000px" viewBox="0 0 1000 1000" style="enable-background:new 0 0 1000 1000;" xml:space="preserve">
<style type="text/css">
	.st0{display:none;}
	.st1{display:inline;}
	.st2{fill:#FFFFFF;}
	.st3{fill:#FFFFFF;stroke:#000000;stroke-width:1.45;stroke-linejoin:bevel;}
	.st4{display:inline;fill:none;stroke:#C1272D;stroke-miterlimit:10;}
	.st5{display:inline;fill:#ED1C24;}
	.st6{display:inline;fill:#FFFFFF;}
	.st7{display:inline;fill:none;stroke:#ED1C24;stroke-miterlimit:10;}
	.st8{fill:#ED1C24;}
	.st9{fill-rule:evenodd;clip-rule:evenodd;}
	.st10{fill:#231F20;}
</style>
<g id="Layer_2" class="st0">
</g>
<g id="Layer_1">
	<path d="M710.2,55.1H340c-33.1,0-60,26.9-60,60v730c0,33.1,26.9,60,60,60h370.1c33.1,0,60-26.9,60-60v-730
		C770.2,82,743.3,55.1,710.2,55.1z M445.1,126c0-11,9-20,20-20h120c11,0,20,9,20,20v0c0,11-9,20-20,20h-120
		C454.1,146,445.1,137.1,445.1,126L445.1,126z M525.1,869.1c-19.3,0-35-15.7-35-35s15.7-35,35-35c19.3,0,35,15.7,35,35
		S544.5,869.1,525.1,869.1z M681.3,765.1H369v-570h312.3V765.1z"/>
</g>
</svg>
