<?xml version="1.0" encoding="iso-8859-1"?>
<!-- Generator: Adobe Illustrator 18.1.0, SVG Export Plug-In . SVG Version: 6.00 Build 0)  -->
<!DOCTYPE svg PUBLIC "-//W3C//DTD SVG 1.1//EN" "http://www.w3.org/Graphics/SVG/1.1/DTD/svg11.dtd">
<svg version="1.1" id="Layer_1" xmlns="http://www.w3.org/2000/svg" xmlns:xlink="http://www.w3.org/1999/xlink" x="0px" y="0px"
	 width="1200px" height="1000px" viewBox="0 0 1200 1000" style="enable-background:new 0 0 1200 1000;" xml:space="preserve">
<style type="text/css">
	.st0{fill-rule:evenodd;clip-rule:evenodd;}
	.st1{fill:none;}
</style>
<rect x="-19.5" y="82.5" class="st1" width="1182.2" height="875.1"/>
<path d="M75,181.2v637.5h1050V181.2H75z M1061.7,622.5c-72.6,0.6-131.4,59.6-131.4,132.4c0,0.2,0,0.4,0,0.6H270.7c0-0.2,0-0.4,0-0.6
	c0-73.1-59.3-132.4-132.4-132.4V376.9c73.1,0,132.4-59.3,132.4-132.4h659.7c0,72.8,58.7,131.8,131.4,132.4V622.5z M770.9,500
	c0,94.4-76.5,170.9-170.9,170.9S429.1,594.4,429.1,500S505.6,329.1,600,329.1S770.9,405.6,770.9,500z"/>
</svg>
