<?xml version="1.0" encoding="utf-8"?>
<!-- Generator: Adobe Illustrator 18.1.1, SVG Export Plug-In . SVG Version: 6.00 Build 0)  -->
<!DOCTYPE svg PUBLIC "-//W3C//DTD SVG 1.1//EN" "http://www.w3.org/Graphics/SVG/1.1/DTD/svg11.dtd">
<svg version="1.1" xmlns="http://www.w3.org/2000/svg" xmlns:xlink="http://www.w3.org/1999/xlink" x="0px" y="0px" width="1000px"
	 height="1000px" viewBox="0 0 1000 1000" style="enable-background:new 0 0 1000 1000;" xml:space="preserve">
<style type="text/css">
	.st0{fill:#101010;}
	.st1{fill:#FFFFFF;}
	.st2{fill:none;stroke:#000000;stroke-miterlimit:10;}
</style>
<g id="Layer_2">
</g>
<g id="Layer_1">
	<path d="M614.6,538.2c22.1-48.9,45.5-98.4,77.1-141.9c15.6-21.4,33.1-41.8,53.5-58.8c16.1-13.3,43.8-33.7,65.9-22.9
		c22.5,11.1,19.9,45.4,16.9,65.8c-3.8,25.9-12.2,51.1-22.5,75c-27.5,64.4-70.7,122.2-115.2,175.9c-8.1,9.8-16.4,19.6-24.9,29.1
		c-0.7,16.7-2.5,33.4-5,49.9c-8.1,52.9-28.6,105-62.7,146.8c-14.2,17.4-39.1,44.5-64.5,39.5c-26.8-5.3-26.9-44.3-25-65
		c2.4-26.6,9.4-53,19.1-77.8C563.8,660.2,603.8,563.6,614.6,538.2 M528.7,609.5c37.6-118.6,37.6-229.5,33.4-284
		c-3.9-52-18.4-103.7-44.8-148.8c-25.2-43.1-63.3-83.6-112.8-97.4c-52.2-14.5-102.4,8.9-133.6,51.3c-30.5,41.4-43,94.3-44.3,145
		c-1.5,55.6,10.9,111.4,25.7,164.7c14.4,52,61,118.4,89.8,152.1c24.9,25.6,54.7,51.7,87.9,72.9c-38.8-12.3-84.9-35.4-122.7-56.4
		c-25.1,14.6-50.4,35.3-64,51.2c-34.1,39.9-63,85.8-71.3,138.5c-7.4,47.2,5.5,102.9,55.3,120.6c44.9,16.2,95.5-3.2,133.2-28.3
		C443.6,835.3,501.5,702.5,528.7,609.5L528.7,609.5z"/>
</g>
</svg>
