<?xml version="1.0" encoding="iso-8859-1"?>
<!-- Generator: Adobe Illustrator 18.1.0, SVG Export Plug-In . SVG Version: 6.00 Build 0)  -->
<!DOCTYPE svg PUBLIC "-//W3C//DTD SVG 1.1//EN" "http://www.w3.org/Graphics/SVG/1.1/DTD/svg11.dtd">
<svg version="1.1" xmlns="http://www.w3.org/2000/svg" xmlns:xlink="http://www.w3.org/1999/xlink" x="0px" y="0px" width="1000px"
	 height="1000px" viewBox="0 0 1000 1000" style="enable-background:new 0 0 1000 1000;" xml:space="preserve">
<style type="text/css">
	.st0{display:none;}
	.st1{display:inline;}
	.st2{fill:#FFFFFF;}
	.st3{fill:#FFFFFF;stroke:#000000;stroke-width:1.45;stroke-linejoin:bevel;}
	.st4{display:inline;fill:none;stroke:#C1272D;stroke-miterlimit:10;}
	.st5{display:inline;fill:#ED1C24;}
	.st6{display:inline;fill:#FFFFFF;}
	.st7{display:inline;fill:none;stroke:#ED1C24;stroke-miterlimit:10;}
	.st8{fill:#ED1C24;}
	.st9{fill-rule:evenodd;clip-rule:evenodd;}
	.st10{fill:#231F20;}
</style>
<g id="Layer_2" class="st0">
</g>
<g id="Layer_1">
	<path d="M214.7,308.4c-2.2-2.4-2.1-6.1,0.3-8.3l23.8-22.1c1.1-1,2.5-1.5,4-1.5c1.7,0,3.2,0.7,4.3,1.8l65.3,70.3l112.3-144.5
		c1.1-1.4,2.8-2.2,4.6-2.2c1.3,0,2.6,0.4,3.6,1.2l25.6,19.9c1.2,1,2,2.3,2.2,3.9c0.2,1.6-0.2,3.1-1.2,4.3L315.2,416.7L214.7,308.4z
		 M214.7,695.2c-2.2-2.4-2.1-6.1,0.3-8.3l23.8-22.1c1.1-1,2.5-1.5,4-1.5c1.7,0,3.2,0.7,4.3,1.8l65.3,70.3L424.6,591
		c1.1-1.4,2.8-2.2,4.6-2.2c1.3,0,2.6,0.4,3.6,1.2l25.6,19.9c1.2,1,2,2.3,2.2,3.9c0.2,1.6-0.2,3.1-1.2,4.3L315.2,803.6L214.7,695.2z
		 M74.8,75v850H926V75H74.8z M861.5,139.5v328.3H139.3V139.5H861.5z M139.3,860.5V532.2h722.3v328.3H139.3z"/>
</g>
</svg>
