<?xml version="1.0" encoding="iso-8859-1"?>
<!-- Generator: Adobe Illustrator 18.1.0, SVG Export Plug-In . SVG Version: 6.00 Build 0)  -->
<!DOCTYPE svg PUBLIC "-//W3C//DTD SVG 1.1//EN" "http://www.w3.org/Graphics/SVG/1.1/DTD/svg11.dtd">
<svg version="1.1" id="Layer_1" xmlns="http://www.w3.org/2000/svg" xmlns:xlink="http://www.w3.org/1999/xlink" x="0px" y="0px"
	 width="1000px" height="1000px" viewBox="0 0 1000 1000" style="enable-background:new 0 0 1000 1000;" xml:space="preserve">
<style type="text/css">
	.st0{fill-rule:evenodd;clip-rule:evenodd;}
	.st1{fill:none;}
</style>
<path d="M882.3,457.5H642.5c-2.9-9.8-6.9-19.3-11.7-28.2l169.7-169.7c16.7-16.6,16.7-43.5,0-60.1c-16.6-16.6-43.3-16.6-59.9,0
	L570.8,369.2c-8.9-4.8-18.4-8.8-28.3-11.7V117.5C542.5,94,523.4,75,500,75c-23.4,0-42.7,19-42.7,42.5v240
	c-9.8,2.9-19.2,6.8-28.1,11.6L259.6,199.5c-16.8-16.6-43.5-16.6-60.1,0c-16.8,16.6-16.8,43.5,0,60.1l169.6,169.6
	c-4.9,8.9-8.8,18.4-11.8,28.3H117.5c-23.6,0-42.5,19-42.5,42.5c0,23.4,18.9,42.5,42.5,42.5h239.8c3,9.9,6.9,19.4,11.8,28.3
	L199.5,740.4c-16.8,16.6-16.8,43.5,0,60.1c8.3,8.3,19.2,12.5,30.1,12.5c10.8,0,21.7-4.1,30-12.5l169.6-169.7
	c8.9,4.8,18.3,8.7,28.1,11.7v240c0,23.4,19.3,42.5,42.7,42.5c23.4,0,42.5-19.1,42.5-42.5v-240c9.9-3,19.4-6.9,28.3-11.8l169.8,169.7
	c8.3,8.3,19.1,12.5,29.9,12.5c11,0,22.1-4.1,30.1-12.5c16.7-16.6,16.7-43.5,0-60.1L630.8,570.7c4.8-8.9,8.7-18.3,11.7-28.1h239.8
	c23.7,0,42.7-19.1,42.7-42.5C925,476.5,906,457.5,882.3,457.5z M500,563.8c-35.3,0-63.8-28.6-63.8-63.8c0-35.2,28.5-63.7,63.8-63.7
	c35.2,0,63.6,28.5,63.6,63.7C563.6,535.2,535.2,563.8,500,563.8z"/>
</svg>
