<?xml version="1.0" encoding="iso-8859-1"?>
<!-- Generator: Adobe Illustrator 18.1.0, SVG Export Plug-In . SVG Version: 6.00 Build 0)  -->
<!DOCTYPE svg PUBLIC "-//W3C//DTD SVG 1.1//EN" "http://www.w3.org/Graphics/SVG/1.1/DTD/svg11.dtd">
<svg version="1.1" id="Layer_1" xmlns="http://www.w3.org/2000/svg" xmlns:xlink="http://www.w3.org/1999/xlink" x="0px" y="0px"
	 width="1000px" height="1000px" viewBox="0 0 1000 1000" style="enable-background:new 0 0 1000 1000;" xml:space="preserve">
<style type="text/css">
	.st0{fill-rule:evenodd;clip-rule:evenodd;}
	.st1{fill:none;}
</style>
<path d="M289.7,743.3c0,20.3-16,36.7-36.3,36.7h-86.8c-20.2,0-36.3-16.4-36.3-36.7c0-20.3,16.1-36.7,36.3-36.7h86.8
	C273.7,706.6,289.7,723.1,289.7,743.3z M869.7,109.4v781.2c0,19-15.7,34.4-34.4,34.4H237c-18.9,0-34.3-15.4-34.3-34.4v-80.7h50.8
	c36.6,0,66.3-29.9,66.3-66.5c0-36.6-29.6-66.5-66.3-66.5h-50.8V566.5h50.8c36.6,0,66.3-29.9,66.3-66.5s-29.6-66.5-66.3-66.5h-50.8
	V323.2h50.8c36.6,0,66.3-29.9,66.3-66.5s-29.6-66.5-66.3-66.5h-50.8v-80.7c0-19,15.4-34.4,34.3-34.4h598.2
	C853.9,75,869.7,90.4,869.7,109.4z M721.4,186.5H388.3v187h333.1V186.5z M253.4,463.3h-86.8c-20.2,0-36.3,16.4-36.3,36.7
	c0,20.3,16.1,36.7,36.3,36.7h86.8c20.3,0,36.3-16.4,36.3-36.7C289.7,479.7,273.7,463.3,253.4,463.3z M253.4,220h-86.8
	c-20.2,0-36.3,16.4-36.3,36.7c0,20.3,16.1,36.7,36.3,36.7h86.8c20.3,0,36.3-16.4,36.3-36.7C289.7,236.4,273.7,220,253.4,220z"/>
</svg>
