<?xml version="1.0" encoding="iso-8859-1"?>
<!-- Generator: Adobe Illustrator 18.1.0, SVG Export Plug-In . SVG Version: 6.00 Build 0)  -->
<!DOCTYPE svg PUBLIC "-//W3C//DTD SVG 1.1//EN" "http://www.w3.org/Graphics/SVG/1.1/DTD/svg11.dtd">
<svg version="1.1" id="Layer_1" xmlns="http://www.w3.org/2000/svg" xmlns:xlink="http://www.w3.org/1999/xlink" x="0px" y="0px"
	 width="1127px" height="1000px" viewBox="0 0 1127 1000" style="enable-background:new 0 0 1127 1000;" xml:space="preserve">
<style type="text/css">
	.st0{fill-rule:evenodd;clip-rule:evenodd;}
	.st1{fill:none;}
</style>
<path d="M207.6,238.5V124.2c0-27.2,22-49.2,49.2-49.2c27.2,0,49.2,22,49.2,49.2v114.3c0,27.2-22,49.2-49.2,49.2
	C229.6,287.6,207.6,265.6,207.6,238.5z M615.7,287.6c27.2,0,49.2-22,49.2-49.2V124.2c0-27.2-22-49.2-49.2-49.2s-49.2,22-49.2,49.2
	v114.3C566.6,265.6,588.6,287.6,615.7,287.6z M924.6,221l-81.1,80.6l127.8,127.8l80.6-80.6L924.6,221z M492.4,793.4L616,729
	l-58.7-60.1L492.4,793.4z M761.5,383.7l127.8,128.2l32.9-32.9L793.4,350.7l0.9-1V171.4h-81.8v68.3c0,53.5-43.4,96.8-96.8,96.8
	c-53.5,0-96.8-43.4-96.8-96.8v-68.3H353.2v68.3c0,53.5-43.4,96.8-96.8,96.8c-53.5,0-96.8-43.4-96.8-96.8v-68.3H75.1V925h719.3V609.2
	L647.5,766.2l-227.9,99.1l97.7-229.3L761.5,383.7z"/>
</svg>
