<?xml version="1.0" encoding="iso-8859-1"?>
<!-- Generator: Adobe Illustrator 18.1.0, SVG Export Plug-In . SVG Version: 6.00 Build 0)  -->
<!DOCTYPE svg PUBLIC "-//W3C//DTD SVG 1.1//EN" "http://www.w3.org/Graphics/SVG/1.1/DTD/svg11.dtd">
<svg version="1.1" id="Layer_1" xmlns="http://www.w3.org/2000/svg" xmlns:xlink="http://www.w3.org/1999/xlink" x="0px" y="0px"
	 width="1000px" height="1000px" viewBox="0 0 1000 1000" style="enable-background:new 0 0 1000 1000;" xml:space="preserve">
<style type="text/css">
	.st0{fill-rule:evenodd;clip-rule:evenodd;}
</style>
<path d="M323,181.6c71.6-37.2,155.1-49.4,238.2-33.3c65.3,12.6,124.5,42.8,172.2,86.3L733.5,75l93.5,89.2l0,257.1l-257,0.1
	l-94.7-92.8l173,0.5c-30.9-28.4-68.5-49.1-111-57.4c-40.2-7.8-80.1-4.5-116.5,7.7L323,181.6z M704.3,562.9l101.4,101.4
	c18.1-34.7,31.8-73.6,40.2-116.7H707.9C706.9,552.8,705.6,557.9,704.3,562.9z M277.3,419.2l-98.7-98.7
	c-22.2,38.3-38.9,82.4-48.5,131.8H268C270.3,440.9,273.4,429.8,277.3,419.2z M572.2,714c-40.8,17.4-86.9,23.2-133.5,14.2
	c-42.5-8.2-80.1-29-111-57.4l173,0.5L406,578.5l-257,0.1l0,257.1l93.5,89.2l0.1-159.7c47.7,43.5,106.9,73.7,172.2,86.3
	c89.1,17.3,178.5,2.1,253.4-41.6L572.2,714z M176.1,98.3l-78,78l724.8,724.8l78-78L176.1,98.3z"/>
</svg>
