<?xml version="1.0" encoding="iso-8859-1"?>
<!-- Generator: Adobe Illustrator 18.1.0, SVG Export Plug-In . SVG Version: 6.00 Build 0)  -->
<!DOCTYPE svg PUBLIC "-//W3C//DTD SVG 1.1//EN" "http://www.w3.org/Graphics/SVG/1.1/DTD/svg11.dtd">
<svg version="1.1" id="Layer_1" xmlns="http://www.w3.org/2000/svg" xmlns:xlink="http://www.w3.org/1999/xlink" x="0px" y="0px"
	 width="2810px" height="1000px" viewBox="0 0 2810 1000" style="enable-background:new 0 0 2810 1000;" xml:space="preserve">
<path d="M1511.363,494.116c0,54.251-9.891,101.804-29.668,142.671c-19.785,40.863-48.213,72.313-85.285,94.343
	c-37.075,22.034-79.773,33.049-128.102,33.049c-46.67,0-88.187-10.716-124.548-32.162c-36.365-21.435-64.494-51.875-84.395-91.322
	c-19.899-39.439-29.849-84.152-29.849-134.139c0-53.778,10.067-101.155,30.206-142.138c20.13-40.983,49.038-72.432,86.704-94.347
	c37.667-21.907,81.252-32.868,130.766-32.868c45.246,0,85.814,10.784,121.704,32.335c35.89,21.558,63.607,51.879,83.151,90.969
	C1501.592,399.598,1511.363,444.134,1511.363,494.116z M1448.822,501.935c0-66.329-15.517-118.093-46.547-155.287
	c-31.039-37.19-74.267-55.789-129.703-55.789c-34.822,0-66.037,8.827-93.633,26.475c-27.599,17.651-48.98,42.702-64.141,75.156
	s-22.74,68.7-22.74,108.731c0,40.752,7.285,77.056,21.854,108.915c14.569,31.863,35.356,56.5,62.364,73.913
	c27.005,17.409,57.682,26.113,92.032,26.113c56.377,0,100.564-18.476,132.543-55.428
	C1432.833,617.773,1448.822,566.843,1448.822,501.935z M1930.564,258.166c14.45,0,27.364,3.201,38.733,9.595v-52.589
	c-10.429-4.268-24.518-6.398-42.284-6.398c-33.644,0-61.358,11.372-83.15,34.116c-21.8,22.736-32.692,52.589-32.692,89.541v58.99
	H1669.24v-56.143c0-51.406,20.372-77.113,61.117-77.113c14.45,0,27.365,3.201,38.733,9.595v-52.589
	c-10.428-4.268-24.518-6.398-42.284-6.398c-33.644,0-61.358,11.372-83.15,34.116c-21.8,22.736-32.692,52.589-32.692,89.541v58.99
	h-61.831v49.392h61.831v314.48h58.276v-314.48h141.931v314.48h58.276v-314.48h85.281v-49.392h-85.281v-56.143
	C1869.447,283.873,1889.819,258.166,1930.564,258.166z M2076.847,261.01c0,10.9-3.796,19.962-11.372,27.185
	c-7.584,7.232-16.584,10.839-27.009,10.839c-10.658,0-19.666-3.492-27.004-10.485c-7.346-6.985-11.015-16.166-11.015-27.538
	c0-10.182,3.607-19.01,10.838-26.471c7.224-7.461,16.285-11.195,27.181-11.195c10.896,0,20.016,3.677,27.361,11.015
	C2073.17,241.705,2076.847,250.59,2076.847,261.01z M2066.895,755.294h-58.276V391.422h58.276V755.294z M2399.574,738.595
	c-28.193,17.056-61.474,25.584-99.85,25.584c-33.172,0-62.959-7.642-89.372-22.921c-26.417-15.282-46.966-36.894-61.65-64.851
	c-14.692-27.952-22.03-59.34-22.03-94.166c0-60.169,17.232-108.497,51.702-144.978c34.465-36.48,80.36-54.727,137.692-54.727
	c31.745,0,59.816,6.164,84.219,18.48v59.696c-27.247-18.952-56.144-28.429-86.705-28.429c-37.667,0-68.286,13.449-91.855,40.334
	c-23.573,26.89-35.356,61.65-35.356,104.295c0,42.402,11.192,75.924,33.579,100.56c22.388,24.64,52.412,36.956,90.078,36.956
	c31.745,0,61.593-10.425,89.549-31.273V738.595z M2758.473,587.93h-256.914c0.944,40.982,11.783,72.308,32.516,93.985
	c20.726,21.677,49.445,32.516,86.168,32.516c41.22,0,78.768-13.265,112.646-39.801V729c-31.748,23.45-73.912,35.179-126.501,35.179
	c-51.883,0-92.389-16.757-121.527-50.282c-29.139-33.517-43.707-79.892-43.707-139.116c0-36.009,7.284-68.878,21.854-98.606
	c14.569-29.729,34.646-52.773,60.23-69.115c25.584-16.351,54.012-24.521,85.28-24.521c47.139,0,83.919,15.341,110.336,46.018
	c26.409,30.682,39.62,73.617,39.62,128.813V587.93z M2698.775,538.534c-0.479-33.637-8.589-59.751-24.341-78.353
	c-15.759-18.596-37.966-27.896-66.628-27.896c-27.004,0-50.105,9.719-69.292,29.139c-19.189,19.428-31.271,45.132-36.246,77.11
	H2698.775z M774.19,854.173l-0.08-0.023V147.984L521.087,75L66.266,245.762l-1.144,0.199l0.076,510.588l155.187-60.702V280.389
	l300.702-71.902l-0.022,610.822l-455.628-62.76l455.628,168.413V925l253.045-70.021v-0.806H774.19z"/>
</svg>
