<?xml version="1.0" encoding="iso-8859-1"?>
<!-- Generator: Adobe Illustrator 18.1.0, SVG Export Plug-In . SVG Version: 6.00 Build 0)  -->
<!DOCTYPE svg PUBLIC "-//W3C//DTD SVG 1.1//EN" "http://www.w3.org/Graphics/SVG/1.1/DTD/svg11.dtd">
<svg version="1.1" id="Layer_1" xmlns="http://www.w3.org/2000/svg" xmlns:xlink="http://www.w3.org/1999/xlink" x="0px" y="0px"
	 width="6400px" height="1000px" viewBox="0 0 6400 1000" style="enable-background:new 0 0 6400 1000;" xml:space="preserve">
<path d="M1511.363,494.116c0,54.251-9.891,101.804-29.668,142.671c-19.785,40.863-48.213,72.313-85.285,94.343
	c-37.075,22.034-79.773,33.049-128.102,33.049c-46.67,0-88.187-10.716-124.548-32.162c-36.365-21.435-64.494-51.875-84.395-91.322
	c-19.9-39.439-29.848-84.152-29.848-134.139c0-53.778,10.067-101.155,30.206-142.138c20.13-40.983,49.038-72.432,86.705-94.347
	c37.667-21.907,81.251-32.868,130.765-32.868c45.247,0,85.814,10.784,121.704,32.335c35.89,21.558,63.607,51.879,83.151,90.969
	C1501.592,399.598,1511.363,444.134,1511.363,494.116z M1448.822,501.935c0-66.329-15.517-118.093-46.547-155.287
	c-31.039-37.19-74.266-55.789-129.703-55.789c-34.822,0-66.037,8.827-93.632,26.475c-27.599,17.651-48.981,42.702-64.141,75.156
	s-22.74,68.7-22.74,108.731c0,40.752,7.285,77.056,21.854,108.915c14.569,31.863,35.356,56.5,62.364,73.913
	c27.004,17.409,57.682,26.113,92.032,26.113c56.377,0,100.564-18.476,132.542-55.428
	C1432.833,617.773,1448.822,566.843,1448.822,501.935z M1930.564,258.166c14.45,0,27.364,3.201,38.733,9.595v-52.589
	c-10.429-4.268-24.518-6.398-42.284-6.398c-33.644,0-61.358,11.372-83.15,34.116c-21.8,22.736-32.692,52.589-32.692,89.541v58.99
	H1669.24v-56.143c0-51.406,20.372-77.113,61.117-77.113c14.45,0,27.365,3.201,38.733,9.595v-52.589
	c-10.428-4.268-24.518-6.398-42.284-6.398c-33.644,0-61.358,11.372-83.15,34.116c-21.8,22.736-32.692,52.589-32.692,89.541v58.99
	h-61.831v49.392h61.831v314.48h58.276v-314.48h141.931v314.48h58.276v-314.48h85.281v-49.392h-85.281v-56.143
	C1869.447,283.873,1889.819,258.166,1930.564,258.166z M2076.847,261.01c0,10.9-3.796,19.962-11.372,27.185
	c-7.584,7.232-16.584,10.839-27.009,10.839c-10.658,0-19.666-3.492-27.004-10.485c-7.346-6.985-11.015-16.166-11.015-27.538
	c0-10.182,3.607-19.01,10.838-26.471c7.224-7.461,16.285-11.195,27.181-11.195c10.896,0,20.016,3.677,27.361,11.015
	C2073.17,241.705,2076.847,250.59,2076.847,261.01z M2066.895,755.294h-58.276V391.422h58.276V755.294z M2399.574,738.595
	c-28.193,17.056-61.474,25.584-99.85,25.584c-33.172,0-62.959-7.642-89.372-22.921c-26.417-15.282-46.966-36.895-61.65-64.851
	c-14.692-27.952-22.03-59.34-22.03-94.166c0-60.169,17.232-108.497,51.702-144.978c34.465-36.48,80.36-54.727,137.692-54.727
	c31.745,0,59.816,6.164,84.219,18.48v59.696c-27.247-18.952-56.144-28.429-86.705-28.429c-37.667,0-68.286,13.449-91.855,40.334
	c-23.573,26.89-35.356,61.65-35.356,104.295c0,42.402,11.192,75.924,33.579,100.56c22.388,24.64,52.412,36.956,90.078,36.956
	c31.745,0,61.593-10.425,89.549-31.273V738.595z M2758.473,587.93h-256.914c0.944,40.982,11.783,72.308,32.516,93.985
	c20.726,21.677,49.445,32.516,86.168,32.516c41.22,0,78.768-13.265,112.646-39.801V729c-31.748,23.45-73.912,35.179-126.501,35.179
	c-51.883,0-92.389-16.757-121.527-50.282c-29.139-33.517-43.707-79.892-43.707-139.116c0-36.009,7.284-68.878,21.854-98.606
	c14.569-29.729,34.646-52.773,60.23-69.115c25.584-16.351,54.012-24.521,85.28-24.521c47.139,0,83.919,15.341,110.336,46.018
	c26.409,30.682,39.62,73.617,39.62,128.813V587.93z M2698.775,538.534c-0.479-33.637-8.589-59.751-24.341-78.353
	c-15.759-18.596-37.966-27.896-66.628-27.896c-27.004,0-50.105,9.719-69.292,29.139c-19.189,19.428-31.271,45.132-36.246,77.11
	H2698.775z M3201.668,611.026c0,45.96-16.465,82.971-49.392,111.042c-32.93,28.071-76.165,42.11-129.702,42.11
	c-48.563,0-87.181-9.241-115.839-27.718V673.92c34.347,27.008,73.671,40.511,117.974,40.511c35.766,0,64.256-8.823,85.461-26.475
	c21.197-17.648,31.802-41.513,31.802-71.603c0-66.566-47.384-99.85-142.138-99.85h-42.287v-49.396h40.157
	c83.861,0,125.791-31.269,125.791-93.81c0-57.801-31.981-86.701-95.942-86.701c-36.013,0-69.771,12.078-101.274,36.243v-56.5
	c32.454-19.42,71.069-29.138,115.844-29.138c42.16,0,76.219,11.191,102.16,33.578c25.941,22.388,38.91,51.702,38.91,87.949
	c0,67.042-33.879,110.158-101.627,129.345v1.424c36.004,4.03,65.027,17.057,87.058,39.087
	C3190.653,550.616,3201.668,578.1,3201.668,611.026z M3585.894,593.613c0,32.221-6.928,61.474-20.787,87.772
	c-13.859,26.291-32.991,46.671-57.39,61.117c-24.402,14.446-51.764,21.677-82.084,21.677c-50.935,0-90.911-20.487-119.927-61.478
	c-29.023-40.982-43.531-98.191-43.531-171.629c0-58.276,8.586-109.74,25.761-154.396c17.176-44.651,41.516-79.063,73.026-103.228
	c31.502-24.164,67.868-36.246,109.088-36.246c35.057,0,63.251,4.858,84.575,14.568v55.076c-26.299-13.502-54.013-20.25-83.151-20.25
	c-45.012,0-81.082,20.196-108.205,60.584c-27.127,40.395-40.687,94.227-40.687,161.504h1.424
	c23.45-48.087,62.184-72.136,116.196-72.136c44.063,0,79.358,14.393,105.895,43.178
	C3572.625,508.505,3585.894,546.475,3585.894,593.613z M3526.196,601.074c0-35.536-8.708-63.607-26.117-84.218
	c-17.413-20.61-41.754-30.911-73.022-30.911c-28.429,0-52.358,10.01-71.783,30.024c-19.424,20.023-29.138,44.241-29.138,72.665
	c0,35.778,9.652,65.684,28.962,89.727c19.305,24.049,43.646,36.069,73.021,36.069c29.139,0,52.77-10.485,70.893-31.449
	C3517.135,662.019,3526.196,634.715,3526.196,601.074z M3928.878,599.65c0,49.518-16.407,89.318-49.215,119.401
	c-32.814,30.082-76.576,45.127-131.299,45.127c-47.384,0-82.563-7.107-105.538-21.323v-61.831
	c34.585,22.272,70.002,33.406,106.248,33.406c36.005,0,65.028-10.067,87.059-30.205c22.034-20.135,33.049-47.139,33.049-81.021
	c0-33.161-11.138-59.164-33.402-77.997c-22.271-18.833-54.607-28.248-97.01-28.248c-33.878,0-62.663,1.421-86.348,4.261
	l17.409-255.49h235.593v52.589h-185.131l-10.305,149.603l46.904-1.777c53.061,0,94.991,13.388,125.791,40.153
	C3913.477,513.072,3928.878,550.854,3928.878,599.65z M774.19,854.173l-0.081-0.023V147.984L521.087,75L66.266,245.762l-1.144,0.199
	l0.076,510.588l155.187-60.702V280.389l300.702-71.902l-0.023,610.822l-455.628-62.76l455.628,168.413V925l253.045-70.021v-0.806
	H774.19z M4155.17,562.788v192.597h-59.698V245.821h140.006c54.483,0,96.709,13.27,126.681,39.798
	c29.965,26.534,44.95,63.962,44.95,112.289c0,48.327-16.646,87.892-49.926,118.685c-33.286,30.798-78.237,46.195-134.853,46.195
	H4155.17z M4155.17,299.833v208.942h62.54c41.22,0,72.668-9.417,94.345-28.25c21.676-18.833,32.514-45.423,32.514-79.775
	c0-67.276-39.799-100.917-119.396-100.917H4155.17z M4652.166,450.499c-10.188-7.818-24.874-11.727-44.063-11.727
	c-24.874,0-45.662,11.727-62.363,35.179c-16.701,23.453-25.051,55.434-25.051,95.943v185.49h-58.277V391.512h58.277v74.978h1.421
	c8.29-25.585,20.966-45.54,38.022-59.875c17.056-14.33,36.122-21.498,57.209-21.498c15.158,0,26.768,1.66,34.824,4.975V450.499z
	 M4987.563,588.017h-256.914c0.943,40.509,11.843,71.78,32.691,93.811c20.844,22.031,49.51,33.047,85.993,33.047
	c40.981,0,78.647-13.503,112.999-40.509v54.723c-31.98,23.219-74.267,34.824-126.857,34.824c-51.408,0-91.801-16.523-121.172-49.571
	c-29.377-33.047-44.063-79.536-44.063-139.472c0-56.617,16.045-102.75,48.148-138.407c32.098-35.651,71.957-53.479,119.573-53.479
	s84.45,15.402,110.513,46.195c26.057,30.798,39.088,73.556,39.088,128.279V588.017z M4927.864,538.625
	c-0.239-33.636-8.351-59.814-24.341-78.531c-15.99-18.711-38.199-28.072-66.627-28.072c-27.484,0-50.814,9.833-70.004,29.494
	c-19.188,19.666-31.037,45.367-35.533,77.11H4927.864z M5337.724,391.512l-144.98,363.873h-57.21l-137.874-363.873h63.962
	l92.39,264.376c6.868,19.428,11.132,36.368,12.792,50.814h1.422c2.365-18.239,6.157-34.702,11.371-49.393l96.653-265.797H5337.724z
	 M5411.701,299.122c-10.427,0-19.311-3.553-26.65-10.66c-7.346-7.107-11.016-16.107-11.016-27.006
	c0-10.894,3.67-19.955,11.016-27.184c7.34-7.224,16.224-10.838,26.65-10.838c10.661,0,19.723,3.614,27.185,10.838
	c7.462,7.229,11.193,16.29,11.193,27.184c0,10.427-3.731,19.311-11.193,26.651C5431.424,295.452,5422.362,299.122,5411.701,299.122z
	 M5440.129,755.384h-58.275V391.512h58.275V755.384z M5824.135,588.017h-256.914c0.943,40.509,11.843,71.78,32.691,93.811
	c20.844,22.031,49.51,33.047,85.993,33.047c40.981,0,78.647-13.503,112.999-40.509v54.723
	c-31.98,23.219-74.267,34.824-126.857,34.824c-51.408,0-91.801-16.523-121.172-49.571c-29.377-33.047-44.063-79.536-44.063-139.472
	c0-56.617,16.045-102.75,48.148-138.407c32.098-35.651,71.957-53.479,119.573-53.479s84.45,15.402,110.513,46.195
	c26.057,30.798,39.088,73.556,39.088,128.279V588.017z M5764.437,538.625c-0.239-33.636-8.351-59.814-24.341-78.531
	c-15.99-18.711-38.199-28.072-66.627-28.072c-27.484,0-50.814,9.833-70.004,29.494c-19.188,19.666-31.037,45.367-35.533,77.11
	H5764.437z M6347.875,391.512l-109.09,363.873h-60.409l-74.978-260.467c-2.843-9.95-4.742-21.199-5.686-33.758h-1.422
	c-0.71,8.528-3.197,19.544-7.461,33.047l-81.375,261.178h-58.275l-110.157-363.873h61.119l75.333,273.615
	c2.365,8.295,4.025,19.188,4.975,32.691h2.843c0.711-10.421,2.843-21.554,6.396-33.402l83.861-272.904h53.302l75.332,274.326
	c2.365,8.767,4.143,19.666,5.33,32.692h2.844c0.472-9.239,2.487-20.132,6.041-32.692l73.911-274.326H6347.875z"/>
</svg>
