<?xml version="1.0" encoding="utf-8"?>
<!-- Generator: Adobe Illustrator 18.1.1, SVG Export Plug-In . SVG Version: 6.00 Build 0)  -->
<!DOCTYPE svg PUBLIC "-//W3C//DTD SVG 1.1//EN" "http://www.w3.org/Graphics/SVG/1.1/DTD/svg11.dtd">
<svg version="1.1" xmlns="http://www.w3.org/2000/svg" xmlns:xlink="http://www.w3.org/1999/xlink" x="0px" y="0px" width="1000px"
	 height="1000px" viewBox="0 0 1000 1000" style="enable-background:new 0 0 1000 1000;" xml:space="preserve">
<style type="text/css">
	.st0{fill:#101010;}
	.st1{fill:#FFFFFF;}
	.st2{fill:none;stroke:#000000;stroke-miterlimit:10;}
	.st3{fill:#231F20;}
</style>
<g id="Layer_2">
</g>
<g id="Layer_1">
	<path d="M748.6,598.9c-90.1,0-163.1,73-163.1,163.1c0,90.1,73,163.1,163.1,163.1c90.1,0,163.1-73,163.1-163.1
		C911.7,671.9,838.7,598.9,748.6,598.9z M747.6,669.6c21,0,37.9,19.5,37.9,43.5c0,24-17,43.5-37.9,43.5c-21,0-37.9-19.5-37.9-43.5
		C709.7,689.1,726.6,669.6,747.6,669.6z M748.1,852h-4h-72.6c0-35,3.6-54.6,8.6-65.9c1.2-3.3,3.4-7.7,6.9-11.4
		c5.4-5.6,14.2-10.7,28.3-10.7h1.9c6.3,7,17.9,14.3,31.1,14.3c13.3,0,24.9-7.3,31.2-14.3h2.3c21.4,0,30.4,11.7,34.2,20
		c5.5,10.9,9.6,29,9.6,68H748.1z M573.3,836.4l-63.2,19.3L93.4,705.6l417.6,50V201.8L233,267v374.6L88,704.4V228L510.5,75L737,148.3
		v423.6c-100,5.9-178.9,88.7-178.9,190C558.1,788.4,563.6,813.5,573.3,836.4z"/>
</g>
</svg>
