<?xml version="1.0" encoding="iso-8859-1"?>
<!-- Generator: Adobe Illustrator 18.1.0, SVG Export Plug-In . SVG Version: 6.00 Build 0)  -->
<!DOCTYPE svg PUBLIC "-//W3C//DTD SVG 1.1//EN" "http://www.w3.org/Graphics/SVG/1.1/DTD/svg11.dtd">
<svg version="1.1" id="Layer_1" xmlns="http://www.w3.org/2000/svg" xmlns:xlink="http://www.w3.org/1999/xlink" x="0px" y="0px"
	 width="1000px" height="1000px" viewBox="0 0 1000 1000" style="enable-background:new 0 0 1000 1000;" xml:space="preserve">
<style type="text/css">
	.st0{fill-rule:evenodd;clip-rule:evenodd;}
</style>
<path d="M529.5,172.5l4.1,76.1l-19.8-0.4l-4.1-75.1c0-13.3-4.1-25.4-11-35.4c3.7-5.7,8.6-10.6,14.3-14.3
	C523.4,136.9,529.5,154.1,529.5,172.5z M796.2,888.5L285,925.7l-80.6-46l34.2-607.8l27.6,27l30.5-36.8l148.7,2.5l5.1-99.4
	c0-18.8,6.1-36.6,16.6-51.1c3.9-5.7,8.8-11.3,14.1-16c16-13.9,36.8-22.3,59.5-22.3c49.7,0,90.2,40.5,90.2,90.2l5.1,101.7l131.5,2
	L796.2,888.5z M467.5,264.8l146.7,2.5l-5.1-100.6c-0.2-38.3-30.7-68.9-68.3-68.9c-14.9,0-28.6,4.7-39.7,12.9
	c-5.5,3.9-10.4,8.6-14.5,13.9c-8.8,11.5-14.1,26-14.1,41.5L467.5,264.8z M688.9,444.4l-105.6-30.2l-189.6,71.4v212.8l64.1-25.3
	V499.9l125.5-30.6v254.6l-189.6-25.3l189.6,70l105.6-29.8V444.4z M386.1,172.5c0-34.2,27.6-61.8,61.8-61.8c0.2,0,0.4,0,0.6,0
	c3.7-6.8,8.4-12.9,13.7-18.4c-4.7-1-9.4-1.4-14.3-1.4c-45,0-81.6,36.4-81.6,80.8l-4.1,74.1l19.8,0.2L386.1,172.5z"/>
</svg>
