<?xml version="1.0" encoding="iso-8859-1"?>
<!-- Generator: Adobe Illustrator 18.1.0, SVG Export Plug-In . SVG Version: 6.00 Build 0)  -->
<!DOCTYPE svg PUBLIC "-//W3C//DTD SVG 1.1//EN" "http://www.w3.org/Graphics/SVG/1.1/DTD/svg11.dtd">
<svg version="1.1" id="Layer_1" xmlns="http://www.w3.org/2000/svg" xmlns:xlink="http://www.w3.org/1999/xlink" x="0px" y="0px"
	 width="1000px" height="1000px" viewBox="0 0 1000 1000" style="enable-background:new 0 0 1000 1000;" xml:space="preserve">
<style type="text/css">
	.st0{fill-rule:evenodd;clip-rule:evenodd;}
	.st1{fill:none;}
</style>
<path d="M240.9,600.9c0,20.3,4.3,39.5,12,56.9C234.8,670,212.9,677,189.4,677C126,677,74.7,625.7,74.7,562.3
	c0-59.3,44.9-108,102.6-114.1c-1-6.7-1.5-13.5-1.5-20.5c0-77.7,63-140.7,140.7-140.7c24.9,0,48.2,6.5,68.5,17.8
	c31.5-54.2,90.1-90.7,157.3-90.7c92,0,168,68.4,180,157.1c-1.3,0-2.6-0.1-3.9-0.1c-17.6,0-35,3-51.5,9
	c-33.2-38-81.3-60.2-132.6-60.2c-85.2,0-156.8,60.6-172.8,141.9C293.5,471.5,240.9,530.2,240.9,600.9z M842.9,528.2
	c0.1-1.6,0.1-3.3,0.1-5c0-67-52.8-121.6-119.1-124.5c-1.8-0.1-46.1-2.2-65.6,15.3c-26.6-40.2-72.2-66.7-124-66.7
	c-79.4,0-144.2,62.2-148.4,140.6c-1.5-0.1-2.9-0.1-4.4-0.1c-62.4,0-113,50.6-113,113.1c0,13.3,2.3,26.1,6.5,37.9
	c15.6,43.8,57.4,75.1,106.5,75.1h20.1V604.1h124.6V479.5h149.4v124.6h124.7V714h31.1c51.5,0,93.2-41.7,93.2-93.2
	C924.7,573.1,889,533.9,842.9,528.2z M760.8,643.6H636.1V519h-70.3v124.6H441.1v70.3h124.6v124.7h70.3V713.9h124.7V643.6z"/>
</svg>
