<?xml version="1.0" encoding="iso-8859-1"?>
<!-- Generator: Adobe Illustrator 18.1.1, SVG Export Plug-In . SVG Version: 6.00 Build 0)  -->
<!DOCTYPE svg PUBLIC "-//W3C//DTD SVG 1.1//EN" "http://www.w3.org/Graphics/SVG/1.1/DTD/svg11.dtd">
<svg version="1.1" id="Layer_1" xmlns="http://www.w3.org/2000/svg" xmlns:xlink="http://www.w3.org/1999/xlink" x="0px" y="0px"
	 width="1250px" height="1000px" viewBox="0 0 1250 1000" style="enable-background:new 0 0 1250 1000;" xml:space="preserve">
<style type="text/css">
	.st0{fill-rule:evenodd;clip-rule:evenodd;}
</style>
<g>
	<path d="M297.9,746.1c-22.4,13.6-48.7,21.4-76.8,21.4c-82,0-148.5-66.5-148.5-148.5c0-76.7,58.2-139.8,132.8-147.7
		c-1.3-8.6-2-17.5-2-26.5c0-100.5,81.5-182.1,182.1-182.1c32.2,0,62.4,8.4,88.7,23.1c40.7-70.2,116.6-117.4,203.5-117.4
		c115.4,0,211.5,83.2,231.4,192.9c-4.3-0.3-8.7-0.4-13-0.4c-20.7,0-39.7,3-56.5,8.7c-43.4-45.8-102.8-71.3-168.1-71.3
		c-59.2,0-116.2,20.8-160.6,58.5c-38.1,32.3-63.8,75.2-74.8,123.3c-16.7,2.7-32.5,7.4-47.3,14.3c-22.8,10.5-42.8,25.7-59.2,45.1
		c-29.5,34.9-45.8,81.1-45.8,130.1C283.8,696.6,288.7,722.5,297.9,746.1z M1066.9,574.9c145.5,18,131.3,240.4-14.9,240.4H469.7
		c-192,0-185.7-299.9,5.7-292.5C485.1,341.9,728,276.3,828,427.1c37.3-33.3,113.3-22.3,153-1.4
		C1035.6,454.6,1067.8,510.8,1066.9,574.9z"/>
</g>
</svg>
