<?xml version="1.0" encoding="iso-8859-1"?>
<!-- Generator: Adobe Illustrator 18.1.0, SVG Export Plug-In . SVG Version: 6.00 Build 0)  -->
<!DOCTYPE svg PUBLIC "-//W3C//DTD SVG 1.1//EN" "http://www.w3.org/Graphics/SVG/1.1/DTD/svg11.dtd">
<svg version="1.1" id="Layer_1" xmlns="http://www.w3.org/2000/svg" xmlns:xlink="http://www.w3.org/1999/xlink" x="0px" y="0px"
	 width="1000px" height="1000px" viewBox="0 0 1000 1000" style="enable-background:new 0 0 1000 1000;" xml:space="preserve">
<style type="text/css">
	.st0{fill-rule:evenodd;clip-rule:evenodd;}
</style>
<path d="M605.4,850H502.6c-0.8,0-1.7,0.5-2.6,0.5c-0.8,0-1.7-0.5-2.6-0.5h-3.2l-1-0.8c-40.1-6.7-89.7-71.7-117.4-179.2h81.6v-65.3
	h-94.5c-5-33.7-7.9-70.2-7.9-109.3c0-34.1,2.4-66.1,6.1-96.1h277.5c2.5,19.8,4,40.7,5,62.2h65.4c-0.9-21.1-2.3-42-4.7-62.2h137.1
	c8.7,30.6,13.6,62.8,13.6,96.1c0,26.2-3.9,51.3-9.3,75.9l0.1,38.7h58.3c10.3-36.5,16.2-74.8,16.2-114.5C920.4,263.2,732.1,75,500,75
	C267.8,75,79.6,263.2,79.6,495.4S267.8,915.8,500,915.8c36.5,0,71.7-5.1,105.4-13.9V850z M815.8,334H694.1
	c-14-66.8-36.2-124.6-64.2-168.8C710.5,197.1,776.6,257.4,815.8,334z M500,140.3c42.6,0,99,72.3,127.1,193.7H372.9
	C401,212.5,457.4,140.3,500,140.3z M370.1,165.2c-28,44.1-50.3,102-64.2,168.8H184.1C223.4,257.4,289.5,197.1,370.1,165.2z
	 M144.9,495.4c0-33.4,4.9-65.5,13.5-96.1h137.1c-3.6,30.9-5.7,63-5.7,96.1c0,37.9,2.7,74.4,7.4,109.3h-135
	C151.1,570.3,144.9,533.6,144.9,495.4z M191.1,670H309c14,61.2,35,114.4,61.1,155.6C294.2,795.6,231,740.4,191.1,670z M920.4,683.4
	v93.1H772V925h-93.1V776.5h-148v-93.1h148V535H772l0.5,148.4H920.4z"/>
</svg>
