<?xml version="1.0" encoding="iso-8859-1"?>
<!-- Generator: Adobe Illustrator 18.1.0, SVG Export Plug-In . SVG Version: 6.00 Build 0)  -->
<!DOCTYPE svg PUBLIC "-//W3C//DTD SVG 1.1//EN" "http://www.w3.org/Graphics/SVG/1.1/DTD/svg11.dtd">
<svg version="1.1" id="Layer_1" xmlns="http://www.w3.org/2000/svg" xmlns:xlink="http://www.w3.org/1999/xlink" x="0px" y="0px"
	 width="1000px" height="1000px" viewBox="0 0 1000 1000" style="enable-background:new 0 0 1000 1000;" xml:space="preserve">
<style type="text/css">
	.st0{fill-rule:evenodd;clip-rule:evenodd;}
</style>
<path d="M746.1,533.9c25,0,50.4,11.7,68.2,35.7c14.5,19.7,22,42.6,21.9,74.9c-1.8,29-14.3,59.5-48.1,77.2
	c-10.9,5.7-22.7,8.4-34.7,8.4c-24.7,0-49.7-11.8-66.3-33.6c-26.6-34.9-32.1-73.6-14.1-114C687.3,550.5,716.3,533.9,746.1,533.9
	 M669.1,730.8c-0.8,0-1.7,0-2.6,0.1c-37.1,4.1-64.9,27.7-73.6,64c-10.1,42.7-13,86.5-17.2,130.1c118.7,0,237.5,0,356.2,0
	c-3.7-40.9-8-81.6-14.9-122.1c-5.9-33.7-23.7-54.9-56-66.3c-7.5-2.6-14.2-4.2-20.7-4.2c-9.1,0-17.6,3.2-26.6,11
	c-16.9,14.7-36.6,23.6-58.7,23.6c-4.9,0-9.9-0.4-15.1-1.4c-19.6-3.5-36-13.3-51.1-25.8C683,734.9,677.1,730.8,669.1,730.8
	 M501.6,922.3c-3.3,0.1-6.5,0.5-9.7,0.5C257.8,922.7,68,733,68,498.9C68,264.8,257.8,75,491.9,75c234,0,423.8,189.8,423.8,423.9
	c0,32.9-4.1,64.8-11.2,95.5c-5.7-25.2-15.5-48.2-30.6-68.7c-7.2-9.7-15.4-18.3-24.1-26c0-0.3,0-0.6,0-0.8c0-33.6-5-66-13.7-96.9H698
	c2.4,20.8,3.8,42.3,4.8,64.1c-24.8,7.3-46.9,20.9-65.1,39.4c0-2.2,0.2-4.3,0.2-6.6c0-34.4-2.3-66.6-6.2-96.9H351.9
	c-3.8,30.3-6.2,62.5-6.2,96.9c0,39.5,3,76.3,7.9,110.2H590c-2.6,22.3-1.1,44.4,4.8,65.8H366.7c29.4,114.5,83.7,182,125.2,182
	c5.4,0,10.9-1.2,16.6-3.4c-1.8,15.7-3.4,31.4-4.8,46.7l-1.6,17.9L501.6,922.3z M622.8,166c28.2,44.5,50.7,102.8,64.8,170.2h122.8
	C770.8,258.9,704.1,198.1,622.8,166z M363.7,336.1h256.3c-28.4-122.5-85.2-195.3-128.2-195.3C448.9,140.8,392.1,213.7,363.7,336.1z
	 M173.4,336.1h122.8c14-67.3,36.5-125.7,64.7-170.2C279.7,198.1,213,258.9,173.4,336.1z M151.4,609.1h136.1
	c-4.8-35.2-7.5-72-7.5-110.2c0-33.4,2.1-65.7,5.8-96.9H147.5c-8.6,30.9-13.6,63.3-13.6,96.9C133.9,537.3,140.1,574.3,151.4,609.1z
	 M360.9,831.8c-26.3-41.5-47.5-95.2-61.7-156.9H180.5C220.7,745.8,284.4,801.6,360.9,831.8z"/>
</svg>
