<?xml version="1.0" encoding="iso-8859-1"?>
<!-- Generator: Adobe Illustrator 18.1.0, SVG Export Plug-In . SVG Version: 6.00 Build 0)  -->
<!DOCTYPE svg PUBLIC "-//W3C//DTD SVG 1.1//EN" "http://www.w3.org/Graphics/SVG/1.1/DTD/svg11.dtd">
<svg version="1.1" id="Layer_1" xmlns="http://www.w3.org/2000/svg" xmlns:xlink="http://www.w3.org/1999/xlink" x="0px" y="0px"
	 width="1065px" height="1000px" viewBox="0 0 1065 1000" style="enable-background:new 0 0 1065 1000;" xml:space="preserve">
<style type="text/css">
	.st0{fill-rule:evenodd;clip-rule:evenodd;}
</style>
<path d="M990.7,324.3v399.3c0,17.2-14,31.2-31.2,31.2H634.2V489.3l60.5,46.8c4.2,3.3,9.5,4.9,14.7,4.9c5.4,0,10.7-1.7,15-5.1
	L990.7,324.3z M634.2,439.4l75.2,58.2l281-223.3c-1.8-15.5-14.8-27.6-30.8-27.6H634.2V439.4z M586.6,74.9v850L75,836.6V166
	L586.6,74.9z M432.1,501.7c0-83.6-51.3-151.3-114.7-151.3c-63.3,0-114.7,67.8-114.7,151.3c0,83.6,51.3,151.4,114.7,151.4
	C380.8,653.1,432.1,585.3,432.1,501.7z M313.3,406.9c-32.7,0-59.1,42.5-59.1,94.8c0,52.4,26.5,94.8,59.1,94.8
	c32.7,0,59.1-42.5,59.1-94.8C372.4,449.4,345.9,406.9,313.3,406.9z"/>
</svg>
