<?xml version="1.0" encoding="iso-8859-1"?>
<!-- Generator: Adobe Illustrator 18.1.0, SVG Export Plug-In . SVG Version: 6.00 Build 0)  -->
<!DOCTYPE svg PUBLIC "-//W3C//DTD SVG 1.1//EN" "http://www.w3.org/Graphics/SVG/1.1/DTD/svg11.dtd">
<svg version="1.1" id="Layer_1" xmlns="http://www.w3.org/2000/svg" xmlns:xlink="http://www.w3.org/1999/xlink" x="0px" y="0px"
	 width="1000px" height="1000px" viewBox="0 0 1000 1000" style="enable-background:new 0 0 1000 1000;" xml:space="preserve">
<style type="text/css">
	.st0{fill-rule:evenodd;clip-rule:evenodd;}
	.st1{fill:none;}
</style>
<path d="M212.2,105v457.3c0,30.1,18.7,57.1,46.8,67.7l121.8,45.9c28.2,10.6,46.8,37.6,46.8,67.7v139.1c0,40,32.4,72.3,72.3,72.3l0,0
	c40,0,72.3-32.4,72.3-72.3V743.5c0-30.1,18.7-57.1,46.8-67.7L741,630c28.2-10.6,46.8-37.6,46.8-67.7V105H212.2z M500,906.8
	c-13.3,0-24.1-10.8-24.1-24.1s10.8-24.1,24.1-24.1c13.3,0,24.1,10.8,24.1,24.1S513.3,906.8,500,906.8z M276.2,544V342.7
	c0.2-17.5,14.4-31.7,32-31.7c17.7,0,32,14.3,32,32v95.9c0,17.7,14.3,32,32,32c17.7,0,32-14.3,32-32v-64c0-17.7,14.3-32,32-32
	c17.7,0,32,14.3,32,32c0,17.7,14.3,32,32,32c17.7,0,32-14.3,32-32v-32c0-17.7,14.3-32,32-32c17.7,0,32,14.3,32,32v95.9
	c0,17.7,14.3,32,32,32c17.7,0,32-14.3,32-32v-64c0-17.7,14.3-32,32-32c16.9,0,30.7,13.1,31.9,29.7V544H276.2z"/>
</svg>
