<?xml version="1.0" encoding="iso-8859-1"?>
<!-- Generator: Adobe Illustrator 18.1.0, SVG Export Plug-In . SVG Version: 6.00 Build 0)  -->
<!DOCTYPE svg PUBLIC "-//W3C//DTD SVG 1.1//EN" "http://www.w3.org/Graphics/SVG/1.1/DTD/svg11.dtd">
<svg version="1.1" xmlns="http://www.w3.org/2000/svg" xmlns:xlink="http://www.w3.org/1999/xlink" x="0px" y="0px" width="1000px"
	 height="1000px" viewBox="0 0 1000 1000" style="enable-background:new 0 0 1000 1000;" xml:space="preserve">
<style type="text/css">
	.st0{display:none;}
	.st1{display:inline;}
	.st2{fill:#FFFFFF;}
	.st3{fill:#FFFFFF;stroke:#000000;stroke-width:1.45;stroke-linejoin:bevel;}
	.st4{display:inline;fill:none;stroke:#C1272D;stroke-miterlimit:10;}
	.st5{display:inline;fill:#ED1C24;}
	.st6{display:inline;fill:#FFFFFF;}
	.st7{display:inline;fill:none;stroke:#ED1C24;stroke-miterlimit:10;}
	.st8{fill:#ED1C24;}
	.st9{fill-rule:evenodd;clip-rule:evenodd;}
	.st10{fill:#231F20;}
</style>
<g id="Layer_2" class="st0">
</g>
<g id="Layer_1">
	<path d="M787.4,359.3c-49.7,158.6-218.5,287.2-377.1,287.5c0-0.1-0.1-0.1-0.1-0.2c0,0.1,0,0.1,0,0.2c0,0,0,0,0,0
		c-0.1,0-0.3,0-0.3,0L344.4,925l-123-381.8c-23.8-76.5-31.5-118.2-9.7-181.5v-0.2h0c0.2-0.8,0.4-1.5,0.6-2.2
		c6.6-21.1,15.4-41.7,25.9-61.5c-29.1,118.7,40.2,212.4,160.9,212.4c125.9,0,260-102.1,299.4-228c28.8-91.9-0.8-171.1-67.9-207.2
		c79,12,135.5,59.2,158.7,126C805.2,246.4,805.7,300.8,787.4,359.3z M481.3,102.4c-71,0-146.5,57.5-168.8,128.5
		c-22.2,71,17.3,128.5,88.2,128.5c71,0,146.5-57.5,168.8-128.5C591.8,160,552.3,102.4,481.3,102.4z"/>
</g>
</svg>
