<?xml version="1.0" encoding="iso-8859-1"?>
<!-- Generator: Adobe Illustrator 18.1.0, SVG Export Plug-In . SVG Version: 6.00 Build 0)  -->
<!DOCTYPE svg PUBLIC "-//W3C//DTD SVG 1.1//EN" "http://www.w3.org/Graphics/SVG/1.1/DTD/svg11.dtd">
<svg version="1.1" id="Layer_1" xmlns="http://www.w3.org/2000/svg" xmlns:xlink="http://www.w3.org/1999/xlink" x="0px" y="0px"
	 width="1000px" height="1000px" viewBox="0 0 1000 1000" style="enable-background:new 0 0 1000 1000;" xml:space="preserve">
<style type="text/css">
	.st0{fill-rule:evenodd;clip-rule:evenodd;}
	.st1{fill:none;}
</style>
<g>
	<g>
		<path d="M367.8,428.6c-52.4-68.8-63.2-145.1-27.7-224.6c51.7-116.1,201.7-129.2,278.3-25.4c28.6,38.8,43.3,84,43.1,147.6
			c-3.6,57.1-28.1,117.2-94.8,152.1C500.8,512.5,416.2,492,367.8,428.6z M540.6,806.2c-23-33.3-35.9-73.2-35.9-114.8
			c0-51.4,19.3-98.3,51.1-133.9c-25.8,9.3-53.9,12.2-84,6.9c-38.6-6.8-71-26.2-100.7-50.8c-12.9-10.6-25.8-19.3-44-17.4
			c-73.2,8-127.9,54.7-145,126c-19.9,84.2-25.7,170.4-33.8,256.3c116.8,0,233.6,0,350.4,0L540.6,806.2z M854.2,923.9l-62.3-16.5
			L775.7,969L706,848.5L636.6,969l-16.3-61.6l-62.3,16.5l65.2-112.7l9.1-15.8c-32.5-23-53.6-61-53.6-103.9
			c0-70.3,57-127.3,127.2-127.3c10.8,0,21.3,1.3,31.4,4c55.4,13.9,96,63.8,96,123.3c0,42.9-21.1,80.9-53.6,103.9L854.2,923.9z"/>
	</g>
</g>
</svg>
