<?xml version="1.0" encoding="iso-8859-1"?>
<!-- Generator: Adobe Illustrator 18.1.0, SVG Export Plug-In . SVG Version: 6.00 Build 0)  -->
<!DOCTYPE svg PUBLIC "-//W3C//DTD SVG 1.1//EN" "http://www.w3.org/Graphics/SVG/1.1/DTD/svg11.dtd">
<svg version="1.1" id="Layer_1" xmlns="http://www.w3.org/2000/svg" xmlns:xlink="http://www.w3.org/1999/xlink" x="0px" y="0px"
	 width="1000px" height="1000px" viewBox="0 0 1000 1000" style="enable-background:new 0 0 1000 1000;" xml:space="preserve">
<style type="text/css">
	.st0{fill-rule:evenodd;clip-rule:evenodd;}
</style>
<path d="M356,829.2c-11.3,11.4-29.6,11.4-41,0l-135.1-135c-11.2-11.3-11.2-29.7,0-41L612,221.1c11.3-11.2,29.6-11.2,40.9,0
	l135,135.1c11.4,11.3,11.4,29.8,0,41L356,829.2z M894,115.2C817,38,740.7,97.3,740.7,97.3c-12.6,9.8-31.8,26.9-42.9,37.9
	c-11.1,11.2-11,29.5,0.4,40.7l135,135c11.3,11.3,29.6,11.5,40.7,0.5c11.1-11.2,28.2-30.5,38-43C911.8,268.4,971.2,192.3,894,115.2
	 M196.2,901c15.5-3.9,18.8-16.2,7.6-27.5l-69.3-69.1c-11.3-11.2-23.7-7.9-27.6,7.6l-22.5,90.4c-3.7,15.6,5.7,25.1,21.2,21.1
	L196.2,901z"/>
</svg>
