<?xml version="1.0" encoding="iso-8859-1"?>
<!-- Generator: Adobe Illustrator 18.1.0, SVG Export Plug-In . SVG Version: 6.00 Build 0)  -->
<!DOCTYPE svg PUBLIC "-//W3C//DTD SVG 1.1//EN" "http://www.w3.org/Graphics/SVG/1.1/DTD/svg11.dtd">
<svg version="1.1" id="Layer_1" xmlns="http://www.w3.org/2000/svg" xmlns:xlink="http://www.w3.org/1999/xlink" x="0px" y="0px"
	 width="1339px" height="1000px" viewBox="0 0 1339 1000" style="enable-background:new 0 0 1339 1000;" xml:space="preserve">
<style type="text/css">
	.st0{fill-rule:evenodd;clip-rule:evenodd;}
	.st1{fill:none;}
</style>
<g>
	<path d="M691.4,258.6c-0.2-54.4,12.4-93,37-126.3c65.5-88.6,193.7-77.2,237.8,22c30.4,67.9,21.1,133.3-23.7,192
		C901.3,400.6,829,418,772.5,388.7C715.4,358.9,694.6,307.4,691.4,258.6z M433,576.5c57.1-29.8,77.9-81.2,81.1-130.1
		c0.1-54.3-12.5-92.9-36.9-126.1C411.6,231.5,283.4,242.8,239,342c-30.4,68-21,133.3,23.9,192C304.2,588.4,376.6,605.9,433,576.5z
		 M555.9,601.5c-30.1-10.6-53.7-11.2-79.7,11.4c-34.9,30.2-76.6,45.9-124.3,37.5c-33-5.9-60.8-22.5-86.2-43.6
		c-10.9-9-22-16.4-37.6-14.8c-62.6,6.9-109.3,46.7-123.9,107.8C87,771.8,82,845.6,75.2,919c200.1,0,400.1,0,600.2,0
		c-6.3-68.9-13.4-137.5-25.3-205.8C640.4,656.5,610.3,620.8,555.9,601.5z M792,606.9H943V456h131.6c-22.9-28.9-56.6-47.4-97.2-51.7
		c-15.6-1.9-26.7,5.8-37.5,14.8c-25.5,20.8-53.3,37.5-86.4,43.3c-47.5,8.5-89.5-7.1-124.2-37.2c-25.9-22.7-49.3-22.2-79.8-11.3
		c-54.4,19-84.4,54.9-94.2,111.6c-1,6.5-2,13.4-3.1,20c6.9,1.4,13.9,3.5,21.3,6.1c72.6,25.6,115.9,77.1,128.8,152.6
		c1.6,9,2.9,18,4.3,26.9c28.5,0,56.9,0,85.5,0V606.9z M1112.7,927.7h-94.9l0.1-151.1H866.7l0.1-94.9h151v-151h94.9v151h151l0.1,94.9
		h-151.1V927.7z"/>
</g>
</svg>
