<?xml version="1.0" encoding="utf-8"?>
<!-- Generator: Adobe Illustrator 18.1.1, SVG Export Plug-In . SVG Version: 6.00 Build 0)  -->
<!DOCTYPE svg PUBLIC "-//W3C//DTD SVG 1.1//EN" "http://www.w3.org/Graphics/SVG/1.1/DTD/svg11.dtd">
<svg version="1.1" xmlns="http://www.w3.org/2000/svg" xmlns:xlink="http://www.w3.org/1999/xlink" x="0px" y="0px" width="1200px"
	 height="1000px" viewBox="0 0 1200 1000" style="enable-background:new 0 0 1200 1000;" xml:space="preserve">
<style type="text/css">
	.st0{fill:#101010;}
	.st1{fill:#FFFFFF;}
	.st2{fill:none;stroke:#000000;stroke-miterlimit:10;}
</style>
<g id="Layer_2">
</g>
<g id="Layer_1">
	<path d="M648.3,315.6c-2.9-11.4-4.8-22.6-5.7-33.7c0-25.3,2.9-47.2,8.8-65.7c5.9-18.5,14.4-35.3,25.4-50.5c14-19,30.2-33,48.8-42
		c18.6-9,37.5-13.5,56.8-13.5c23.5,0,45.6,6.3,66.4,19c20.8,12.6,36.7,31.6,47.8,56.9c10.4,23.4,15.7,47.3,15.7,71.6
		c0,36.7-12.7,71.6-38.1,104.8c-12.7,16.8-28.2,29.5-46.4,38.2c-18.2,8.7-37,13-56.4,13c-9.5,0-18.7-1-27.6-3.1
		c-8.9-2-17.8-5.3-26.6-9.7c-13-6.6-24-14.5-33.1-23.7c-9-9.2-16.6-18.9-22.6-29.2C655.5,337.8,651.1,326.9,648.3,315.6z M614,604.2
		c10.8,12.7,19.5,27.2,26.2,43.3c1.3-1.6,2.8-3,4.3-4.5l0.1-0.1l0.1-0.1l43.5-40.4l0.1-0.1l0.1-0.1c10.5-9.6,24.1-14.9,38.3-14.9
		c15.7,0,30.8,6.6,41.5,18l82.6,89l160.6-206.7c-7.3-16.2-17.6-30.1-30.9-41.5c-20.3-17.4-45-27.6-74.2-30.4h-3.8
		c-6.4,0-12,1.3-16.9,3.8c-4.9,2.5-9.4,5.7-13.5,9.5c-12.1,9.8-24.4,18.2-37.1,25.2c-12.7,7-27,11.9-42.8,14.8
		c-7,1.6-14.8,2.4-23.3,2.4c-17.1,0-33.2-3.2-48.3-9.5c-15.1-6.3-29.1-15.4-42.1-27.1c-13.6-11.1-27.4-16.7-41.4-16.7
		c-9.8,0-20.6,2.2-32.4,6.7c-25.4,8.6-45.1,21.2-59.2,37.8c-14.1,16.7-23.4,38.3-27.8,64.9c-1,2.9-1.6,5.9-1.9,9.3
		c-0.3,3.3-0.6,6.4-0.9,9.3c6.7,1.3,13.1,3,19.5,5.2C567.4,563.2,594,580.7,614,604.2z M294.6,573.9c18.2,8.9,36.9,13.3,55.9,13.3
		c19,0,37-4.4,53.8-13.3c13.3-6.7,24.6-14.6,33.8-23.8c9.2-9.2,16.7-19,22.6-29.5c5.9-10.5,10.3-21.3,13.3-32.5
		c3-11.2,5-22.6,5.9-34c0-25-2.9-46.7-8.8-65.1c-5.9-18.4-14.7-35.1-26.4-50.4c-13.6-19-29.7-33.1-48.3-42.3
		c-18.6-9.2-37.7-13.8-57.3-13.8c-23.2,0-45,6.3-65.7,19c-20.6,12.7-36.5,31.5-47.6,56.5c-11.1,24.1-16.7,48.3-16.7,72.7
		c0,36.1,12.8,70.9,38.5,104.5C260.7,552.2,276.3,565,294.6,573.9z M604.5,700.3c-4.4-26.3-13.7-47.9-27.8-64.7
		c-14.1-16.8-33.7-29.5-58.8-38.1c-5.7-1.9-11.1-3.6-16.2-5c-5.1-1.4-10.1-2.1-15.2-2.1c-7.3,0-14.4,1.4-21.2,4
		c-6.8,2.7-13.9,7.2-21.2,13.6c-13,11.4-27.3,20.3-42.8,26.6c-15.5,6.4-32,9.5-49.5,9.5c-7.3,0-14.6-0.6-21.9-1.9
		c-15.5-2.8-29.8-7.8-42.8-15c-13-7.1-25.2-15.6-36.6-25.4c-5.1-4.1-9.9-7.4-14.5-9.8c-4.6-2.4-10.1-3.6-16.4-3.6h-3.3
		c-29.5,2.9-54.3,13.1-74.5,30.7c-20.1,17.6-33.5,40.5-40.2,68.8c-7.9,33-13.6,66.4-17.1,100c-3.5,33.6-6.7,67.6-9.5,101.9h552.8
		c-2.9-31.8-6-63.3-9.5-94.8C614.8,763.6,610.2,732,604.5,700.3z M1067.4,497c-3.3,0-6.4,1.5-8.4,4.1L853.7,765.3L734.4,636.7
		c-2-2.2-4.8-3.4-7.8-3.4c-2.7,0-5.3,1-7.3,2.8l-43.5,40.4c-4.3,4-4.6,10.8-0.6,15.1L859,889.8l263.7-339.1c1.7-2.2,2.5-5,2.2-7.8
		c-0.4-2.9-1.8-5.4-4-7.2l-46.9-36.4C1072.1,497.8,1069.9,497,1067.4,497"/>
</g>
</svg>
