<?xml version="1.0" encoding="utf-8"?>
<!-- Generator: Adobe Illustrator 18.1.1, SVG Export Plug-In . SVG Version: 6.00 Build 0)  -->
<!DOCTYPE svg PUBLIC "-//W3C//DTD SVG 1.1//EN" "http://www.w3.org/Graphics/SVG/1.1/DTD/svg11.dtd">
<svg version="1.1" xmlns="http://www.w3.org/2000/svg" xmlns:xlink="http://www.w3.org/1999/xlink" x="0px" y="0px" width="1200px"
	 height="1000px" viewBox="0 0 1200 1000" style="enable-background:new 0 0 1200 1000;" xml:space="preserve">
<style type="text/css">
	.st0{fill:#101010;}
	.st1{fill:#FFFFFF;}
	.st2{fill:none;stroke:#000000;stroke-miterlimit:10;}
</style>
<g id="Layer_2">
</g>
<g id="Layer_1">
	<path d="M245.4,536.6c-26.1-34.1-39.1-69.5-39.1-106.2c0-24.8,5.6-49.4,16.9-73.8c11.3-25.4,27.4-44.6,48.3-57.4
		c20.9-12.9,43.2-19.3,66.7-19.3c20,0,39.4,4.7,58.2,14c18.8,9.3,35.2,23.6,49.1,43c11.9,15.5,20.8,32.5,26.8,51.2
		c6,18.7,8.9,40.7,8.9,66.1c-1,11.6-3,23.1-6,34.5c-3.1,11.4-7.6,22.4-13.5,33.1c-6,10.6-13.6,20.6-23,29.9
		c-9.3,9.3-20.8,17.4-34.3,24.1c-17.1,9-35.3,13.5-54.6,13.5s-38.3-4.5-56.8-13.5C274.4,566.7,258.6,553.7,245.4,536.6z
		 M665.8,346.2c6.1,10.4,13.8,20.3,23,29.6c9.2,9.3,20.4,17.3,33.6,24.1c9,4.5,18,7.8,27.1,9.9c9,2.1,18.4,3.1,28,3.1
		c19.6,0,38.7-4.4,57.3-13.2c18.5-8.8,34.2-21.8,47.1-38.8c25.8-33.7,38.7-69.2,38.7-106.5c0-24.7-5.3-49-15.9-72.8
		c-11.3-25.7-27.5-45-48.6-57.8c-21.1-12.8-43.6-19.3-67.4-19.3c-19.7,0-38.9,4.6-57.7,13.7c-18.8,9.1-35.4,23.4-49.6,42.6
		c-11.3,15.4-19.9,32.5-25.9,51.3c-6,18.8-8.9,41-8.9,66.7c1,11.2,2.9,22.6,5.8,34.2C655.2,324.8,659.7,335.8,665.8,346.2z
		 M607.8,704.1c-4.5-26.8-13.9-48.7-28.3-65.8c-14.3-17.1-34.2-30-59.7-38.7c-5.8-1.9-11.3-3.6-16.4-5.1c-5.2-1.4-10.3-2.2-15.5-2.2
		c-7.4,0-14.6,1.4-21.5,4.1c-6.9,2.7-14.1,7.3-21.5,13.8c-13.2,11.6-27.7,20.6-43.5,27.1c-15.8,6.5-32.6,9.7-50.3,9.7
		c-7.4,0-14.8-0.6-22.2-1.9c-15.8-2.9-30.3-8-43.5-15.2c-13.2-7.3-25.6-15.9-37.2-25.9c-5.2-4.2-10.1-7.5-14.7-9.9
		c-4.7-2.4-10.2-3.6-16.7-3.6h-3.4c-30,2.9-55.2,13.3-75.6,31.2c-20.5,17.9-34.1,41.2-40.8,69.9c-8.1,33.5-13.9,67.4-17.4,101.6
		c-3.5,34.2-6.8,68.7-9.7,103.5h561.6c-2.9-32.3-6.1-64.4-9.7-96.3C618.3,768.4,613.6,736.3,607.8,704.1z M704.3,700.8
		c0-132.8,107.6-240.4,240.4-240.4c22.9,0,45,3.2,66,9.2c-5.9-8.7-12.9-16.6-21-23.5c-20.6-17.7-45.8-28-75.4-30.9h-3.9
		c-6.5,0-12.2,1.3-17.2,3.9c-5,2.6-9.6,5.8-13.8,9.7c-12.3,10-24.8,18.5-37.7,25.6c-12.9,7.1-27.4,12.1-43.5,15
		c-7.1,1.6-15,2.4-23.7,2.4c-17.4,0-33.8-3.2-49.1-9.7c-15.3-6.4-29.6-15.6-42.8-27.6c-13.9-11.3-27.9-16.9-42-16.9
		c-10,0-21,2.3-32.9,6.8c-25.8,8.7-45.8,21.5-60.2,38.4c-14.4,16.9-23.8,38.9-28.3,65.9c-1,2.9-1.6,6-1.9,9.4
		c-0.3,3.4-0.6,6.5-1,9.4c6.8,1.3,13.4,3.1,19.8,5.3c33.8,11.9,60.9,29.8,81.2,53.6c20.3,23.8,33.3,53.6,39.1,89.3
		c1,4.2,1.7,8.4,2.2,12.6c0.5,4.2,1.2,8.5,2.2,13h44.1C704.6,714.6,704.3,707.7,704.3,700.8z M969.6,578.9
		c22.5,4.4,42.4,15.4,58.8,30.4l-91.7-0.2l50.1,49.2l136.2-0.1l0-136.2l-49.6-47.2l0,84.6c-25.3-23.1-56.6-39-91.2-45.7
		c-102-19.8-205,40.6-228.3,161.1H827C840.2,609.1,904,566.3,969.6,578.9z M1060,725.1h73.1c-23.3,120.4-126.3,180.8-228.3,161.1
		c-34.6-6.7-65.9-22.7-91.2-45.7l0,84.6l-49.6-47.2l0-136.2l136.2-0.1l50.1,49.2l-91.7-0.2c16.4,15,36.3,26,58.8,30.4
		C983,833.5,1046.8,790.6,1060,725.1z"/>
</g>
</svg>
