<?xml version="1.0" encoding="iso-8859-1"?>
<!-- Generator: Adobe Illustrator 18.1.0, SVG Export Plug-In . SVG Version: 6.00 Build 0)  -->
<!DOCTYPE svg PUBLIC "-//W3C//DTD SVG 1.1//EN" "http://www.w3.org/Graphics/SVG/1.1/DTD/svg11.dtd">
<svg version="1.1" id="Layer_1" xmlns="http://www.w3.org/2000/svg" xmlns:xlink="http://www.w3.org/1999/xlink" x="0px" y="0px"
	 width="1210px" height="1000px" viewBox="0 0 1210 1000" style="enable-background:new 0 0 1210 1000;" xml:space="preserve">
<style type="text/css">
	.st0{fill-rule:evenodd;clip-rule:evenodd;}
</style>
<path d="M74.9,915.2c3.1-37.4,6.6-74.4,10.4-111.1c3.8-36.7,10-73,18.7-109c7.3-30.8,21.9-55.8,43.8-75c22-19.2,49-30.4,81.2-33.5
	h3.6c6.9,0,12.9,1.3,17.9,3.9c5,2.6,10.3,6.1,15.8,10.6c12.4,10.7,25.8,20,39.9,27.7c14.2,7.8,29.7,13.2,46.7,16.3
	c7.9,1.4,15.9,2.1,23.9,2.1c19,0,37-3.4,53.9-10.4c16.9-6.9,32.5-16.6,46.7-29c7.9-6.9,15.6-11.8,23.1-14.8
	c7.4-2.9,15.1-4.4,23.1-4.4c5.5,0,11,0.8,16.6,2.3c5.5,1.6,11.4,3.4,17.6,5.4c27.3,9.3,48.7,23.2,64.1,41.5
	c15.4,18.3,25.5,41.9,30.3,70.6c6.2,34.6,11.2,69.1,15,103.3c3.8,34.3,7.3,68.7,10.4,103.3H74.9z M477.9,314.4
	c12.8,16.6,22.4,34.9,28.8,54.9c6.4,20,9.6,43.7,9.6,71c-1.1,12.4-3.2,24.8-6.5,37c-3.3,12.3-8.1,24.1-14.5,35.5
	c-6.4,11.4-14.6,22.1-24.6,32.1c-10,10-22.3,18.6-36.8,25.9c-18.3,9.7-37.9,14.5-58.6,14.5c-20.8,0-41.1-4.8-60.9-14.5
	c-19.9-9.7-36.9-23.7-51.1-42c-28-36.6-42-74.6-42-113.9c0-26.6,6-53,18.2-79.2c12.1-27.3,29.4-47.8,51.9-61.6
	c22.5-13.8,46.3-20.7,71.6-20.7c21.4,0,42.3,5,62.5,15C445.5,278.3,463.1,293.7,477.9,314.4z M1105.5,506.9
	c8.6,36.3,15,72.3,19.2,108.1c4.1,35.8,7.6,73.2,10.4,112.2H709.3c-1.1-4.8-1.8-9.5-2.4-14c-0.5-4.5-1.3-9-2.3-13.5
	c-6.2-38.3-20.2-70.3-42-95.9c-21.8-25.6-50.8-44.7-87.1-57.5c-6.9-2.4-14-4.3-21.3-5.7c0.3-3.1,0.7-6.5,1-10.1
	c0.3-3.6,1-7,2.1-10.1c4.8-29,14.9-52.6,30.3-70.8c15.4-18.2,36.9-31.9,64.6-41.2c12.8-4.8,24.5-7.3,35.3-7.3
	c15.2,0,30.2,6.1,45.1,18.2c14.2,12.8,29.5,22.7,45.9,29.6c16.4,6.9,34,10.4,52.6,10.4c9.3,0,17.8-0.9,25.4-2.6
	c17.3-3.1,32.9-8.5,46.7-16.1c13.8-7.6,27.3-16.8,40.5-27.5c4.5-4.1,9.4-7.6,14.8-10.4c5.4-2.8,11.5-4.2,18.4-4.2h4.2
	c31.8,3.1,58.8,14.2,80.9,33.2C1084.1,450.8,1098.6,475.8,1105.5,506.9z M731,125.7c15.2-20.7,33-35.9,53.2-45.8
	c20.2-9.8,40.9-14.7,62-14.7c25.6,0,49.7,6.9,72.3,20.7c22.7,13.8,40,34.5,52.1,62.1c11.4,25.5,17.1,51.6,17.1,78.1
	c0,40-13.8,78.1-41.5,114.3c-13.8,18.3-30.7,32.1-50.6,41.6c-19.9,9.5-40.4,14.2-61.4,14.2c-10.4,0-20.4-1.1-30.1-3.4
	c-9.7-2.2-19.4-5.8-29-10.6c-14.2-7.2-26.2-15.8-36.1-25.8c-9.9-10-18.1-20.6-24.6-31.8c-6.6-11.2-11.4-23-14.5-35.4
	c-3.1-12.4-5.2-24.6-6.2-36.7c0-27.6,3.2-51.4,9.6-71.6C709.7,160.6,718.9,142.3,731,125.7z"/>
</svg>
