<?xml version="1.0" encoding="iso-8859-1"?>
<!-- Generator: Adobe Illustrator 18.1.0, SVG Export Plug-In . SVG Version: 6.00 Build 0)  -->
<!DOCTYPE svg PUBLIC "-//W3C//DTD SVG 1.1//EN" "http://www.w3.org/Graphics/SVG/1.1/DTD/svg11.dtd">
<svg version="1.1" id="Layer_1" xmlns="http://www.w3.org/2000/svg" xmlns:xlink="http://www.w3.org/1999/xlink" x="0px" y="0px"
	 width="1296px" height="1000px" viewBox="0 0 1296 1000" style="enable-background:new 0 0 1296 1000;" xml:space="preserve">
<style type="text/css">
	.st0{fill-rule:evenodd;clip-rule:evenodd;}
	.st1{fill:none;}
</style>
<g>
	<path d="M691.3,258.6c-0.2-54.4,12.4-93,37-126.3c65.5-88.6,193.7-77.2,237.7,22c30.4,67.9,21.1,133.3-23.7,192
		c-41.2,54.4-113.5,71.8-170,42.4C715.3,358.8,694.5,307.4,691.3,258.6z M432.9,576.4c57.1-29.8,77.9-81.2,81.1-130.1
		c0.1-54.3-12.5-92.9-37-126.1c-65.4-88.8-193.7-77.5-238,21.7c-30.4,68-21,133.2,23.8,192C304.2,588.3,376.5,605.9,432.9,576.4z
		 M555.8,601.4c-30.2-10.6-53.7-11.2-79.8,11.4c-34.8,30.2-76.6,45.9-124.2,37.5c-33-5.9-60.8-22.5-86.2-43.6
		c-11-9-22.1-16.4-37.6-14.8c-62.6,6.9-109.4,46.7-123.9,107.8c-17.2,72-22.1,145.8-28.9,219.1c200.1,0,400,0,600.1,0
		C669,850,661.9,781.3,650,713.1C640.3,656.4,610.3,620.7,555.8,601.4z M873.9,729.2L767.2,622.4l173-172.8l106.6,106.6l52-52
		c-16.7-56.6-61.8-93.8-121.6-100c-15.6-1.9-26.7,5.7-37.5,14.8c-25.6,20.8-53.3,37.5-86.3,43.3c-47.5,8.5-89.4-7.1-124.3-37.2
		c-25.9-22.7-49.3-22.2-79.8-11.3c-54.4,19-84.4,54.9-94.2,111.6c-1,6.5-2.1,13.4-3.1,20c6.9,1.4,13.9,3.5,21.3,6.1
		c72.5,25.6,115.8,77.1,128.8,152.6c1.6,9,2.9,18,4.2,26.9c55.2,0,110.5,0,165.8,0L873.9,729.2z M1220.8,836l-67.1,67.1L1047,796.2
		L940.1,903l-67-67.1l106.7-106.7L873.1,622.4l67.1-67l106.7,106.7l106.7-106.7l67.2,67.1L1114,729.2L1220.8,836z"/>
</g>
</svg>
