<?xml version="1.0" encoding="iso-8859-1"?>
<!-- Generator: Adobe Illustrator 18.1.0, SVG Export Plug-In . SVG Version: 6.00 Build 0)  -->
<!DOCTYPE svg PUBLIC "-//W3C//DTD SVG 1.1//EN" "http://www.w3.org/Graphics/SVG/1.1/DTD/svg11.dtd">
<svg version="1.1" xmlns="http://www.w3.org/2000/svg" xmlns:xlink="http://www.w3.org/1999/xlink" x="0px" y="0px" width="1200px"
	 height="1000px" viewBox="0 0 1200 1000" style="enable-background:new 0 0 1200 1000;" xml:space="preserve">
<style type="text/css">
	.st0{display:none;}
	.st1{display:inline;}
	.st2{fill:#FFFFFF;}
	.st3{fill:#FFFFFF;stroke:#000000;stroke-width:1.45;stroke-linejoin:bevel;}
	.st4{display:inline;fill:none;stroke:#C1272D;stroke-miterlimit:10;}
	.st5{display:inline;fill:#ED1C24;}
	.st6{display:inline;fill:#FFFFFF;}
	.st7{display:inline;fill:none;stroke:#ED1C24;stroke-miterlimit:10;}
	.st8{fill:#ED1C24;}
	.st9{fill-rule:evenodd;clip-rule:evenodd;}
	.st10{fill:#231F20;}
</style>
<g id="Layer_2" class="st0">
</g>
<g id="Layer_1">
	<path d="M694.9,298.9c-3.1-12.4-5.2-24.6-6.2-36.7c0-27.6,3.2-51.4,9.6-71.6c6.4-20.2,15.6-38.5,27.7-55.1
		c15.2-20.7,33-35.9,53.2-45.8c20.2-9.8,40.9-14.7,62-14.7c25.6,0,49.7,6.9,72.3,20.7c22.7,13.8,40,34.5,52.1,62.1
		c11.4,25.5,17.1,51.6,17.1,78.1c0,40-13.8,78.1-41.5,114.3c-13.8,18.3-30.7,32.1-50.6,41.6c-19.9,9.5-40.4,14.2-61.4,14.2
		c-10.4,0-20.4-1.1-30.1-3.4c-9.7-2.2-19.4-5.8-29-10.6c-14.2-7.2-26.2-15.8-36.1-25.8c-9.9-10-18.1-20.6-24.6-31.8
		C702.9,323.1,698,311.3,694.9,298.9z M309.3,580.6c19.9,9.7,40.2,14.5,60.9,14.5c20.8,0,40.3-4.8,58.6-14.5
		c14.5-7.3,26.8-15.9,36.8-25.9c10-10,18.2-20.7,24.6-32.1c6.4-11.4,11.2-23.2,14.5-35.5c3.3-12.2,5.4-24.6,6.5-37
		c0-27.3-3.2-50.9-9.6-71c-6.4-20-16-38.3-28.8-54.9c-14.9-20.7-32.4-36.1-52.6-46.1c-20.2-10-41.1-15-62.5-15
		c-25.2,0-49.1,6.9-71.6,20.7c-22.5,13.8-39.8,34.4-51.9,61.6c-12.1,26.2-18.2,52.6-18.2,79.2c0,39.4,14,77.4,42,113.9
		C272.4,556.9,289.4,570.9,309.3,580.6z M647.2,718.3c-4.8-28.7-15-52.3-30.3-70.6c-15.4-18.3-36.7-32.2-64.1-41.5
		c-6.2-2.1-12.1-3.9-17.6-5.4c-5.5-1.5-11.1-2.3-16.6-2.3c-8,0-15.7,1.5-23.1,4.4c-7.4,2.9-15.1,7.9-23.1,14.8
		c-14.2,12.4-29.7,22.1-46.7,29c-16.9,6.9-34.9,10.4-53.9,10.4c-8,0-15.9-0.7-23.9-2.1c-16.9-3.1-32.5-8.6-46.7-16.3
		c-14.2-7.8-27.5-17-39.9-27.7c-5.5-4.5-10.8-8-15.8-10.6c-5-2.6-11-3.9-17.9-3.9H224c-32.2,3.1-59.2,14.3-81.2,33.5
		c-22,19.2-36.6,44.2-43.8,75c-8.6,36-14.9,72.3-18.7,109C76.5,850.6,73,887.6,69.9,925h602.7c-3.1-34.6-6.6-69.1-10.4-103.3
		C658.4,787.4,653.4,753,647.2,718.3z M734.6,667.4c0-25.7,13.5-48.3,33.7-61.1v-25.6c0-42.5,14.3-81.6,38.2-113
		c-11.5-1.6-22.5-4.6-33.1-9.1c-16.4-6.9-31.7-16.8-45.9-29.6c-14.9-12.1-29.9-18.2-45.1-18.2c-10.7,0-22.5,2.4-35.3,7.3
		c-27.7,9.3-49.2,23.1-64.6,41.2c-15.4,18.2-25.5,41.7-30.3,70.8c-1.1,3.1-1.7,6.5-2.1,10.1c-0.3,3.6-0.7,7-1,10.1
		c7.3,1.4,14.3,3.3,21.3,5.7c36.3,12.8,65.4,32,87.1,57.5c21.8,25.6,35.8,57.5,42,95.9c1,4.5,1.8,9,2.3,13.5c0.5,4.5,1.3,9.2,2.4,14
		h30.4V667.4z M1130.1,667.4v230.2c0,15.1-12.2,27.3-27.3,27.3H806.9c-15.1,0-27.3-12.2-27.3-27.3V667.4c0-15.1,12.2-27.3,27.3-27.3
		h6.4v-59.4c0-78.2,63.4-141.5,141.5-141.5c78.2,0,141.5,63.4,141.5,141.5v59.4h6.4C1117.9,640.1,1130.1,652.3,1130.1,667.4z
		 M878.3,580.7v59.4h153.2v-59.4c0-42.3-34.3-76.6-76.6-76.6C912.6,504.1,878.3,538.4,878.3,580.7z M973.9,775.3
		c10.4-6.4,17.4-17.9,17.4-31.1c0-9.5-3.6-18.1-9.6-24.6c-6.7-7.2-16.2-11.8-26.8-11.8c-10.6,0-20.2,4.5-26.8,11.8
		c-6,6.5-9.6,15.1-9.6,24.6c0,13.1,7,24.7,17.4,31.1l-16.9,73.9h71.8L973.9,775.3z"/>
</g>
</svg>
