<?xml version="1.0" encoding="utf-8"?>
<!-- Generator: Adobe Illustrator 18.1.1, SVG Export Plug-In . SVG Version: 6.00 Build 0)  -->
<!DOCTYPE svg PUBLIC "-//W3C//DTD SVG 1.1//EN" "http://www.w3.org/Graphics/SVG/1.1/DTD/svg11.dtd">
<svg version="1.1" xmlns="http://www.w3.org/2000/svg" xmlns:xlink="http://www.w3.org/1999/xlink" x="0px" y="0px" width="1200px"
	 height="1000px" viewBox="0 0 1200 1000" style="enable-background:new 0 0 1200 1000;" xml:space="preserve">
<style type="text/css">
	.st0{fill:#101010;}
	.st1{fill:#FFFFFF;}
	.st2{fill:none;stroke:#000000;stroke-miterlimit:10;}
</style>
<g id="Layer_2">
</g>
<g id="Layer_1">
	<path d="M652.3,313.2c-2.9-11.6-4.8-23-5.8-34.2c0-25.7,3-47.9,8.9-66.7c6-18.8,14.6-35.9,25.9-51.3c14.2-19.3,30.7-33.5,49.6-42.6
		c18.8-9.1,38.1-13.7,57.7-13.7c23.8,0,46.3,6.4,67.4,19.3c21.1,12.8,37.3,32.1,48.6,57.8c10.6,23.8,15.9,48,15.9,72.8
		c0,37.3-12.9,72.8-38.7,106.5c-12.9,17-28.6,29.9-47.1,38.8c-18.5,8.8-37.6,13.2-57.3,13.2c-9.7,0-19-1-28-3.1
		c-9-2.1-18-5.4-27.1-9.9c-13.2-6.7-24.4-14.8-33.6-24.1c-9.2-9.3-16.8-19.2-23-29.6C659.7,335.8,655.2,324.8,652.3,313.2z
		 M910.4,415.2c-6.5,0-12.2,1.3-17.2,3.9c-5,2.6-9.6,5.8-13.8,9.7c-10.6,8.6-21.4,16.2-32.5,22.7c11.5-4.2,23.8-6.5,36.3-6.5
		c18.6,0,36.9,4.9,52.9,14.1c15.5,8.9,28.6,21.7,37.8,36.9l0.3,0.5l74.8,129.7c-0.3-3.1-0.7-6.2-1-9.2
		c-3.9-33.3-9.8-66.9-17.9-100.7c-6.5-29-20-52.3-40.6-70c-20.6-17.7-45.8-28-75.4-30.9H910.4z M617.5,606.4
		c20.3,23.8,33.3,53.6,39.1,89.3c1,4.2,1.7,8.4,2.2,12.6c0.5,4.2,1.2,8.5,2.2,13h1.4l129.8-225l0.3-0.5c8.6-14.1,20.3-25.8,34-34.5
		c-8.8,3.4-18.2,6.1-28.3,7.9c-7.1,1.6-15,2.4-23.7,2.4c-17.4,0-33.8-3.2-49.1-9.7c-15.3-6.4-29.6-15.6-42.8-27.6
		c-13.9-11.3-27.9-16.9-42-16.9c-10,0-21,2.3-32.9,6.8c-25.8,8.7-45.8,21.5-60.2,38.4c-14.4,16.9-23.8,38.9-28.3,65.9
		c-1,2.9-1.6,6-1.9,9.4c-0.3,3.4-0.6,6.5-1,9.4c6.8,1.3,13.4,3.1,19.8,5.3C570.1,564.8,597.2,582.6,617.5,606.4z M593.7,868.9
		c0-17.6,4.4-35.1,12.8-50.6l0.3-0.6l14.1-24.5c-3.4-29.6-7.8-59.2-13.2-89.1c-4.5-26.8-13.9-48.7-28.3-65.8
		c-14.3-17.1-34.2-30-59.7-38.7c-5.8-1.9-11.3-3.6-16.4-5.1c-5.2-1.4-10.3-2.2-15.5-2.2c-7.4,0-14.6,1.4-21.5,4.1
		c-6.9,2.7-14.1,7.3-21.5,13.8c-13.2,11.6-27.7,20.6-43.5,27.1c-15.8,6.5-32.6,9.7-50.3,9.7c-7.4,0-14.8-0.6-22.2-1.9
		c-15.8-2.9-30.3-8-43.5-15.2c-13.2-7.3-25.6-15.9-37.2-25.9c-5.2-4.2-10.1-7.5-14.7-9.9c-4.7-2.4-10.2-3.6-16.7-3.6h-3.4
		c-30,2.9-55.2,13.3-75.6,31.2c-20.5,17.9-34.1,41.2-40.8,69.9c-8.1,33.5-13.9,67.4-17.4,101.6c-3.5,34.2-6.8,68.7-9.7,103.5h527.5
		C595,887.8,593.7,878.5,593.7,868.9z M293,575.7c18.5,9,37.4,13.5,56.8,13.5s37.5-4.5,54.6-13.5c13.5-6.8,25-14.8,34.3-24.1
		c9.3-9.3,17-19.3,23-29.9c6-10.6,10.5-21.6,13.5-33.1c3.1-11.4,5.1-22.9,6-34.5c0-25.4-3-47.5-8.9-66.1
		c-6-18.7-14.9-35.7-26.8-51.2c-13.9-19.3-30.2-33.6-49.1-43c-18.8-9.3-38.3-14-58.2-14c-23.5,0-45.8,6.4-66.7,19.3
		c-21,12.9-37.1,32-48.3,57.4c-11.3,24.4-16.9,49.1-16.9,73.8c0,36.7,13,72.1,39.1,106.2C258.6,553.7,274.4,566.7,293,575.7z
		 M1123,868.9c0,31-25.1,56.1-56.1,56.1h-367c-31,0-56.1-25.2-56.1-56.1c0-9.7,2.5-18.8,6.8-26.8l184.8-320.2
		c9.8-16.2,27.7-27,48-27c20.4,0,38.2,10.8,48,27l185.1,320.7C1120.6,850.4,1123,859.4,1123,868.9z M841,590l9.7,178.4h65.8
		l9.7-178.4H841z M928.5,845c0-11.9-4.1-21.5-12.4-28.9c-8.7-7.8-19.6-11.7-32.6-11.7c-12.7,0-23.4,3.9-32,11.7
		c-8.7,6.8-13,16.5-13,28.9c0,11,4.2,20.5,12.6,28.5c8.2,8.3,19.1,12.4,32.4,12.4c13.6,0,24.5-4,32.6-12
		C924.4,865.9,928.5,856.3,928.5,845z"/>
</g>
</svg>
