<?xml version="1.0" encoding="iso-8859-1"?>
<!-- Generator: Adobe Illustrator 18.1.0, SVG Export Plug-In . SVG Version: 6.00 Build 0)  -->
<!DOCTYPE svg PUBLIC "-//W3C//DTD SVG 1.1//EN" "http://www.w3.org/Graphics/SVG/1.1/DTD/svg11.dtd">
<svg version="1.1" id="Layer_1" xmlns="http://www.w3.org/2000/svg" xmlns:xlink="http://www.w3.org/1999/xlink" x="0px" y="0px"
	 width="1000px" height="1000px" viewBox="0 0 1000 1000" style="enable-background:new 0 0 1000 1000;" xml:space="preserve">
<style type="text/css">
	.st0{fill-rule:evenodd;clip-rule:evenodd;}
	.st1{fill:none;}
</style>
<path class="st0" d="M625.8,326.7c-3.7,57-28.1,117.1-94.8,151.9c-65.9,34.4-150.2,13.9-198.6-49.5
	c-52.4-68.7-63.3-144.9-27.8-224.3c51.7-116,201.5-129.1,278-25.4C611.2,218.1,625.8,263.2,625.8,326.7z M417.9,644.7h150.9l0-114.5
	c-38.1,28.6-82.4,43.6-132.5,34.6c-38.5-6.8-71-26.2-100.7-50.7c-12.8-10.6-25.8-19.3-43.9-17.3c-73.2,8-127.9,54.6-144.8,125.9
	c-20,84.1-25.8,170.2-33.8,256c101.5,0,203.1,0,304.6,0L417.9,644.7z M738.5,965.4h-94.9l0.1-151H492.6l0-94.9h150.9l0.1-150.9h94.9
	l0,150.9h150.9l0.1,94.9h-151V965.4z"/>
</svg>
