<?xml version="1.0" encoding="iso-8859-1"?>
<!-- Generator: Adobe Illustrator 18.1.0, SVG Export Plug-In . SVG Version: 6.00 Build 0)  -->
<!DOCTYPE svg PUBLIC "-//W3C//DTD SVG 1.1//EN" "http://www.w3.org/Graphics/SVG/1.1/DTD/svg11.dtd">
<svg version="1.1" id="Layer_1" xmlns="http://www.w3.org/2000/svg" xmlns:xlink="http://www.w3.org/1999/xlink" x="0px" y="0px"
	 width="1000px" height="1000px" viewBox="0 0 1000 1000" style="enable-background:new 0 0 1000 1000;" xml:space="preserve">
<style type="text/css">
	.st0{fill-rule:evenodd;clip-rule:evenodd;}
</style>
<g>
	<g>
		<path class="st0" d="M142,924.9c8.9-94.7,15.4-189.8,37.3-282.7c18.8-78.8,79.2-130.2,159.9-139.1c20.1-2.1,34.4,7.5,48.6,19.2
			c32.8,27.1,68.5,48.5,111.1,56c61.5,10.9,115.3-9.3,160.4-48.3c33.5-29,63.9-28.4,102.9-14.6c70.2,24.7,108.9,70.9,121.7,144.1
			c15.1,88,24.4,176.6,32.4,265.4C658.3,924.9,400.1,924.9,142,924.9z M660.6,152.6c-84.5-114.5-250-100-307.1,28
			c-39.1,87.8-27.2,172,30.6,247.8c53.4,70,146.7,92.6,219.4,54.7c73.6-38.5,100.7-104.8,104.6-167.8
			C708.4,245.3,692.1,195.4,660.6,152.6z"/>
	</g>
</g>
</svg>
