<?xml version="1.0" encoding="iso-8859-1"?>
<!-- Generator: Adobe Illustrator 18.1.0, SVG Export Plug-In . SVG Version: 6.00 Build 0)  -->
<!DOCTYPE svg PUBLIC "-//W3C//DTD SVG 1.1//EN" "http://www.w3.org/Graphics/SVG/1.1/DTD/svg11.dtd">
<svg version="1.1" id="Layer_1" xmlns="http://www.w3.org/2000/svg" xmlns:xlink="http://www.w3.org/1999/xlink" x="0px" y="0px"
	 width="1000px" height="1000px" viewBox="0 0 1000 1000" style="enable-background:new 0 0 1000 1000;" xml:space="preserve">
<style type="text/css">
	.st0{fill-rule:evenodd;clip-rule:evenodd;}
	.st1{fill:none;}
</style>
<path class="st0" d="M611.1,327.3c-3.7,57.2-28.2,117.4-95,152.3C450.1,514,365.5,493.5,317,429.9c-52.5-68.9-63.4-145.2-27.9-224.9
	c51.9-116.3,202.1-129.4,278.8-25.5C596.6,218.3,611.2,263.6,611.1,327.3z M667.8,596.2l51.8-51.9c-16.3-14.5-35.1-26.8-59.3-35.4
	c-29-10.3-52.9-11.6-77.3,2.5L667.8,596.2z M388.1,875.8l106.7-106.6L388,662.3l99-98.8c-20.8,4.9-42.5,6.7-65.8,2.5
	c-38.7-6.8-71.1-26.3-100.9-50.8c-12.9-10.6-25.8-19.4-44-17.4c-73.4,8-128.2,54.7-145.2,126.2c-20.1,84.3-25.8,170.7-33.9,256.6
	c98.6,0,197.2,0,295.8,0L388.1,875.8z M841.7,875.9L774.6,943L667.9,836.1L561,942.9l-67-67.1l106.7-106.7L493.9,662.3l67.1-67
	L667.8,702l106.7-106.7l67.2,67.1L734.9,769.1L841.7,875.9z"/>
</svg>
