<?xml version="1.0" encoding="iso-8859-1"?>
<!-- Generator: Adobe Illustrator 18.1.0, SVG Export Plug-In . SVG Version: 6.00 Build 0)  -->
<!DOCTYPE svg PUBLIC "-//W3C//DTD SVG 1.1//EN" "http://www.w3.org/Graphics/SVG/1.1/DTD/svg11.dtd">
<svg version="1.1" id="Layer_1" xmlns="http://www.w3.org/2000/svg" xmlns:xlink="http://www.w3.org/1999/xlink" x="0px" y="0px"
	 width="1000px" height="1000px" viewBox="0 0 1000 1000" style="enable-background:new 0 0 1000 1000;" xml:space="preserve">
<style type="text/css">
	.st0{fill-rule:evenodd;clip-rule:evenodd;}
</style>
<path d="M772.5,834.8c9.3,20.9-0.1,45.7-21,55l-36.4,16.2c-121.4,54.4-254.4-15.6-329.9-145.2c0,0-46.2-68.8-91.9-171
	c-45.8-102.3-52.7-152.6-52.7-152.6C199,297.3,230.7,148.9,352.2,94.6l36.3-16.3c20.9-9.4,45.6,0.1,55,21l68.9,154
	c9.3,20.9-0.1,45.7-21,55l-71.4,32c-24.8,11.1-35.9,40.5-24.8,65.2l116.9,261.5c10.9,24.6,40.3,35.7,64.9,24.7l71.4-32
	c20.9-9.4,45.6,0.1,55,21L772.5,834.8"/>
</svg>
