<?xml version="1.0" encoding="iso-8859-1"?>
<!-- Generator: Adobe Illustrator 18.1.0, SVG Export Plug-In . SVG Version: 6.00 Build 0)  -->
<!DOCTYPE svg PUBLIC "-//W3C//DTD SVG 1.1//EN" "http://www.w3.org/Graphics/SVG/1.1/DTD/svg11.dtd">
<svg version="1.1" id="Layer_1" xmlns="http://www.w3.org/2000/svg" xmlns:xlink="http://www.w3.org/1999/xlink" x="0px" y="0px"
	 width="1000px" height="1000px" viewBox="0 0 1000 1000" style="enable-background:new 0 0 1000 1000;" xml:space="preserve">
<style type="text/css">
	.st0{fill-rule:evenodd;clip-rule:evenodd;}
	.st1{fill:none;}
</style>
<path d="M924.1,228.7v93.1H770.9v153.1h-93.1V321.8H524.8v-93.1h153.1v-153h93.1v153H924.1z M684.7,634.4
	c-14.4-19.9-42.4-24.4-62.4-10.1l-68.1,49.1c-23.5,17-56.7,11.6-73.6-11.8L300.9,412.5c-17-23.7-11.8-56.9,11.9-73.9l68-49.1
	c19.9-14.4,24.3-42.5,10-62.4L284.9,80.1c-14.4-19.9-42.4-24.4-62.3-10L187.8,95C72.1,178.6,71.2,341.4,145.3,479.6
	c0,0,18.2,51.2,88.6,148.8c70.4,97.5,133.8,159.7,133.8,159.7c107.5,119.6,262.6,164.3,378.3,80.6l34.7-25
	c19.9-14.4,24.5-42.4,10.1-62.3L684.7,634.4z"/>
</svg>
