<?xml version="1.0" encoding="iso-8859-1"?>
<!-- Generator: Adobe Illustrator 18.1.0, SVG Export Plug-In . SVG Version: 6.00 Build 0)  -->
<!DOCTYPE svg PUBLIC "-//W3C//DTD SVG 1.1//EN" "http://www.w3.org/Graphics/SVG/1.1/DTD/svg11.dtd">
<svg version="1.1" id="Layer_1" xmlns="http://www.w3.org/2000/svg" xmlns:xlink="http://www.w3.org/1999/xlink" x="0px" y="0px"
	 width="1005px" height="1000px" viewBox="0 0 1005 1000" style="enable-background:new 0 0 1005 1000;" xml:space="preserve">
<style type="text/css">
	.st0{fill-rule:evenodd;clip-rule:evenodd;}
	.st1{fill:none;}
</style>
<path d="M629.4,821.3c11.4,15.8,7.9,38.1-7.9,49.6l-27.7,19.9c-92.1,66.6-215.4,31-301-64.1c0,0-50.5-49.5-106.5-127.1
	c-56-77.7-70.5-118.5-70.5-118.5c-59-109.9-58.3-239.4,33.9-305.9l27.6-19.9c15.9-11.4,38.1-7.8,49.6,8l84.3,116.9
	c11.4,15.7,7.9,38.1-8,49.6L249,469c-18.8,13.5-23,40-9.5,58.8l143,198.3c13.5,18.7,39.8,22.9,58.6,9.4l54.1-39.1
	c15.9-11.5,38.2-7.8,49.7,8L629.4,821.3z M452.5,247l21.9-164.9l-76.3,62.1l-29.3,220.5L589.6,381l76.3-62l-164.8-12.3l211.8-171.9
	L664.1,75L452.5,247z M846.1,519.6l-22,164.8l76.4-62l29.3-220.5l-220.9-16.3l-76.4,62l164.9,12.3L585.6,631.7l48.7,59.8
	L846.1,519.6z"/>
</svg>
