<?xml version="1.0" encoding="iso-8859-1"?>
<!-- Generator: Adobe Illustrator 18.1.0, SVG Export Plug-In . SVG Version: 6.00 Build 0)  -->
<!DOCTYPE svg PUBLIC "-//W3C//DTD SVG 1.1//EN" "http://www.w3.org/Graphics/SVG/1.1/DTD/svg11.dtd">
<svg version="1.1" xmlns="http://www.w3.org/2000/svg" xmlns:xlink="http://www.w3.org/1999/xlink" x="0px" y="0px" width="1128px"
	 height="1000px" viewBox="0 0 1128 1000" style="enable-background:new 0 0 1128 1000;" xml:space="preserve">
<style type="text/css">
	.st0{display:none;}
	.st1{display:inline;}
	.st2{fill:#FFFFFF;}
	.st3{fill:#FFFFFF;stroke:#000000;stroke-width:1.45;stroke-linejoin:bevel;}
	.st4{display:inline;fill:none;stroke:#C1272D;stroke-miterlimit:10;}
	.st5{display:inline;fill:#ED1C24;}
	.st6{display:inline;fill:#FFFFFF;}
	.st7{display:inline;fill:none;stroke:#ED1C24;stroke-miterlimit:10;}
	.st8{fill:#ED1C24;}
	.st9{fill-rule:evenodd;clip-rule:evenodd;}
	.st10{fill:#231F20;}
</style>
<g id="Layer_2" class="st0">
</g>
<g id="Layer_1">
	<path d="M791.4,518.9l-95.3,95.3H510.3l148.2-205.7c2.5-2.9,8.2-10.5,22.5-10.5s23.5,9.9,23.5,9.9L791.4,518.9z M428.1,338.1
		c-15.2,0-24.5,9.9-25.9,11.7L229.2,592c-1.9,2.9-5.1,9.2-1.5,15.4c3.6,6.2,8.6,6.4,11.1,6.8h236.6l90.2-124.5L455,348.9
		C452.9,346.4,443.3,338.1,428.1,338.1z M629.2,338c0-32-25.9-57.9-57.9-57.9S513.3,306,513.3,338s25.9,57.9,57.9,57.9
		S629.2,370,629.2,338z M766.9,766.5L726,725.6H196.7V196.7h686.6v372.7l40.3,40.3l41.4-41.4V115H115v692.3h611L766.9,766.5z
		 M1092.9,878L981.4,766.5L1092.9,655l-57.8-57.8L923.6,708.7L812.1,597.2L754.4,655l111.5,111.5L754.4,878l57.8,57.8l111.5-111.5
		l111.5,111.5L1092.9,878z"/>
</g>
</svg>
