<?xml version="1.0" encoding="iso-8859-1"?>
<!-- Generator: Adobe Illustrator 18.1.0, SVG Export Plug-In . SVG Version: 6.00 Build 0)  -->
<!DOCTYPE svg PUBLIC "-//W3C//DTD SVG 1.1//EN" "http://www.w3.org/Graphics/SVG/1.1/DTD/svg11.dtd">
<svg version="1.1" xmlns="http://www.w3.org/2000/svg" xmlns:xlink="http://www.w3.org/1999/xlink" x="0px" y="0px" width="1157px"
	 height="1000px" viewBox="0 0 1157 1000" style="enable-background:new 0 0 1157 1000;" xml:space="preserve">
<style type="text/css">
	.st0{display:none;}
	.st1{display:inline;}
	.st2{fill:#FFFFFF;}
	.st3{fill:#FFFFFF;stroke:#000000;stroke-width:1.45;stroke-linejoin:bevel;}
	.st4{display:inline;fill:none;stroke:#C1272D;stroke-miterlimit:10;}
	.st5{display:inline;fill:#ED1C24;}
	.st6{display:inline;fill:#FFFFFF;}
	.st7{display:inline;fill:none;stroke:#ED1C24;stroke-miterlimit:10;}
	.st8{fill:#ED1C24;}
	.st9{fill-rule:evenodd;clip-rule:evenodd;}
	.st10{fill:#231F20;}
</style>
<g id="Layer_2" class="st0">
</g>
<g id="Layer_1">
	<path d="M1122.2,807.3H964.5V965h-81.7V807.3H725.1v-81.7h157.7V567.9h81.7v157.7h157.7V807.3z M428.1,338.1
		c-15.2,0-24.5,9.9-25.9,11.7L229.2,592c-1.9,2.9-5.1,9.2-1.5,15.4c3.6,6.2,8.6,6.4,11.1,6.8h236.6l90.2-124.5L455,348.9
		C452.9,346.4,443.3,338.1,428.1,338.1z M629.2,338c0-32-25.9-57.9-57.9-57.9c-32,0-57.9,25.9-57.9,57.9s25.9,57.9,57.9,57.9
		C603.2,395.9,629.2,370,629.2,338z M850,607.4c3-6.4,0.3-13.5-2.2-16.4L704.6,407.9c0,0-9.2-9.9-23.5-9.9s-20.1,7.6-22.5,10.5
		L510.3,614.2h328.3C843.5,613.6,847,613.8,850,607.4z M642.9,725.6H196.7V196.7h686.6v289H965V115H115v692.3h527.9V725.6z"/>
</g>
</svg>
