<?xml version="1.0" encoding="iso-8859-1"?>
<!-- Generator: Adobe Illustrator 18.1.0, SVG Export Plug-In . SVG Version: 6.00 Build 0)  -->
<!DOCTYPE svg PUBLIC "-//W3C//DTD SVG 1.1//EN" "http://www.w3.org/Graphics/SVG/1.1/DTD/svg11.dtd">
<svg version="1.1" id="Layer_1" xmlns="http://www.w3.org/2000/svg" xmlns:xlink="http://www.w3.org/1999/xlink" x="0px" y="0px"
	 width="1000px" height="1000px" viewBox="0 0 1000 1000" style="enable-background:new 0 0 1000 1000;" xml:space="preserve">
<style type="text/css">
	.st0{fill-rule:evenodd;clip-rule:evenodd;}
	.st1{fill:none;}
</style>
<path d="M435.4,669H198.8c-2.5-0.4-7.5-0.6-11.1-6.8c-3.6-6.2-0.3-12.6,1.5-15.4l173-242.1c1.4-1.9,10.8-11.7,25.9-11.7
	c15.2,0,24.8,8.3,26.9,10.8l110.6,140.8L435.4,669z M470.3,669l148.2-205.7c2.5-2.9,8.2-10.5,22.5-10.5c14.3,0,23.5,9.9,23.5,9.9
	l143.3,183.1c2.5,2.9,5.2,10,2.2,16.4c-3,6.4-6.5,6.2-11.4,6.8H470.3z M843.3,156.7v686.6H156.7V156.7H843.3 M925,75H75v850h850V75
	L925,75z M531.2,334.9c-32,0-57.9,25.9-57.9,57.9s25.9,57.9,57.9,57.9s57.9-25.9,57.9-57.9S563.2,334.9,531.2,334.9z"/>
</svg>
