<?xml version="1.0" encoding="iso-8859-1"?>
<!-- Generator: Adobe Illustrator 18.1.0, SVG Export Plug-In . SVG Version: 6.00 Build 0)  -->
<!DOCTYPE svg PUBLIC "-//W3C//DTD SVG 1.1//EN" "http://www.w3.org/Graphics/SVG/1.1/DTD/svg11.dtd">
<svg version="1.1" xmlns="http://www.w3.org/2000/svg" xmlns:xlink="http://www.w3.org/1999/xlink" x="0px" y="0px" width="1000px"
	 height="1000px" viewBox="0 0 1000 1000" style="enable-background:new 0 0 1000 1000;" xml:space="preserve">
<style type="text/css">
	.st0{display:none;}
	.st1{display:inline;}
	.st2{fill:#FFFFFF;}
	.st3{fill:#FFFFFF;stroke:#000000;stroke-width:1.45;stroke-linejoin:bevel;}
	.st4{display:inline;fill:none;stroke:#C1272D;stroke-miterlimit:10;}
	.st5{display:inline;fill:#ED1C24;}
	.st6{display:inline;fill:#FFFFFF;}
	.st7{display:inline;fill:none;stroke:#ED1C24;stroke-miterlimit:10;}
	.st8{fill:#ED1C24;}
	.st9{fill-rule:evenodd;clip-rule:evenodd;}
	.st10{fill:#231F20;}
</style>
<g id="Layer_2" class="st0">
</g>
<g id="Layer_1">
	<path d="M925,295.9C925,173.9,826.1,75,704.1,75c-61,0-116.3,24.7-156.3,64.8L139.7,548c-86.2,86.2-86.2,226.1,0,312.3
		c86.2,86.2,226.1,86.2,312.3,0l406.4-406.4l1.8-1.8l0,0C900.2,412.2,925,356.9,925,295.9z M413.5,821.9
		c-64.9,64.9-170.5,64.9-235.4,0c-64.9-64.9-64.9-170.6,0-235.4L383,381.5L618.4,617L413.5,821.9z"/>
</g>
</svg>
