<?xml version="1.0" encoding="iso-8859-1"?>
<!-- Generator: Adobe Illustrator 18.1.0, SVG Export Plug-In . SVG Version: 6.00 Build 0)  -->
<!DOCTYPE svg PUBLIC "-//W3C//DTD SVG 1.1//EN" "http://www.w3.org/Graphics/SVG/1.1/DTD/svg11.dtd">
<svg version="1.1" id="Layer_1" xmlns="http://www.w3.org/2000/svg" xmlns:xlink="http://www.w3.org/1999/xlink" x="0px" y="0px"
	 width="1000px" height="1000px" viewBox="0 0 1000 1000" style="enable-background:new 0 0 1000 1000;" xml:space="preserve">
<style type="text/css">
	.st0{fill-rule:evenodd;clip-rule:evenodd;}
</style>
<path d="M619.7,183.6l0,262.9c65.3,26.8,111.4,90.9,111.4,165.9l-191.5,0c-12.5,188.7-26,305.9-38.8,311.8l0,0.9
	c-0.2,0-0.8-0.3-0.9-0.3c-0.2,0-0.6,0.3-0.7,0.3l0-0.9c-12.9-5.8-26.4-123-38.9-311.7l-191.6,0c0-75,46.1-139.1,111.5-165.9l0-262.9
	c-33.2-24.7-55-63.9-55-108.5l349.5,0C674.8,119.6,653,158.8,619.7,183.6z"/>
</svg>
