<?xml version="1.0" encoding="iso-8859-1"?>
<!-- Generator: Adobe Illustrator 18.1.0, SVG Export Plug-In . SVG Version: 6.00 Build 0)  -->
<!DOCTYPE svg PUBLIC "-//W3C//DTD SVG 1.1//EN" "http://www.w3.org/Graphics/SVG/1.1/DTD/svg11.dtd">
<svg version="1.1" id="Layer_1" xmlns="http://www.w3.org/2000/svg" xmlns:xlink="http://www.w3.org/1999/xlink" x="0px" y="0px"
	 width="1000px" height="1000px" viewBox="0 0 1000 1000" style="enable-background:new 0 0 1000 1000;" xml:space="preserve">
<style type="text/css">
	.st0{fill-rule:evenodd;clip-rule:evenodd;}
	.st1{fill:none;}
</style>
<path d="M764.2,437.7c10.7,55-4,112-40.6,155.3V857H344.8V655.2H142.6V276h265.8c33.4-27.7,74.5-43.5,118.4-43.5
	c12,0,23.8,1.1,35.5,3.4l27.7-27.7H75v510.9L280.9,925h510.6V410.4L764.2,437.7z M290.4,857L142.6,709.7h147.8V857z M839.8,285
	l-137,137.1c20,48,10.7,105.4-28.4,144.5l-99.8-99.8c-104.9,91.8-173,145.9-182.7,142.2l-0.4,0.5c-0.1-0.1-0.3-0.6-0.4-0.6
	c-0.1-0.1-0.5-0.2-0.5-0.2l0.4-0.5c-3.7-9.7,50.4-77.9,142.2-182.7l-99.9-99.8c39.1-39.1,96.5-48.4,144.5-28.4l137-137
	c-4.4-30.2,4.7-62,27.9-85.2L925,257.1C901.8,280.3,870,289.4,839.8,285z"/>
</svg>
