<?xml version="1.0" encoding="iso-8859-1"?>
<!-- Generator: Adobe Illustrator 18.1.0, SVG Export Plug-In . SVG Version: 6.00 Build 0)  -->
<!DOCTYPE svg PUBLIC "-//W3C//DTD SVG 1.1//EN" "http://www.w3.org/Graphics/SVG/1.1/DTD/svg11.dtd">
<svg version="1.1" id="Layer_1" xmlns="http://www.w3.org/2000/svg" xmlns:xlink="http://www.w3.org/1999/xlink" x="0px" y="0px"
	 width="1047px" height="1000px" viewBox="0 0 1047 1000" style="enable-background:new 0 0 1047 1000;" xml:space="preserve">
<style type="text/css">
	.st0{fill-rule:evenodd;clip-rule:evenodd;}
	.st1{fill:none;}
</style>
<path d="M952.7,201.1H634.1V320c19.3-14.1,43-22.4,68.8-22.4V414h114.7c0,63.2-51.6,115.6-115.6,115.6c-25.4,0-48.8-8.2-67.9-22.1
	v79.8h251v38.6h-251v48.3h251v38.6h-251v86.9h318.6c12.2,0,19.3-7.1,19.3-19.3v-560C972,208.2,964.9,201.1,952.7,201.1z
	 M721.4,395.5V278.3c63.2,0,115.5,51.8,115.5,117.2H721.4z M384.1,397.3c8.1,24.3,4.9,60.1-18.8,74.7c-17.9,11-41.5,8.1-61.7,8.2
	h-1.1V368.4c17.2-0.6,36.3-3.3,53,1.6c7.1,2.1,13,5.4,17.8,9.9C378.1,384.4,381.7,390.3,384.1,397.3z M75,166.1v670.6L586.6,925V75
	L75,166.1z M457.2,467.7c-26.6,67.9-91.7,74.9-154.7,73.8v127.7l-66.3-7.9v-351l106.8-6.2c39-2.2,82.2,5.8,105,40.8
	C470.3,378.9,471.3,430.5,457.2,467.7z"/>
</svg>
