<?xml version="1.0" encoding="iso-8859-1"?>
<!-- Generator: Adobe Illustrator 18.1.0, SVG Export Plug-In . SVG Version: 6.00 Build 0)  -->
<!DOCTYPE svg PUBLIC "-//W3C//DTD SVG 1.1//EN" "http://www.w3.org/Graphics/SVG/1.1/DTD/svg11.dtd">
<svg version="1.1" id="Layer_1" xmlns="http://www.w3.org/2000/svg" xmlns:xlink="http://www.w3.org/1999/xlink" x="0px" y="0px"
	 width="1043px" height="1000px" viewBox="0 0 1043 1000" style="enable-background:new 0 0 1043 1000;" xml:space="preserve">
<style type="text/css">
	.st0{fill-rule:evenodd;clip-rule:evenodd;}
	.st1{fill:none;}
</style>
<path d="M75,836.7L586.6,925V75L75,166.1V836.7z M236.2,310.3l107.4-6.7l-0.4,0c14-0.9,61.7-1.4,86.2,31.9
	c17.1,23.1,15,50.7,15,50.7s1.4,29.8-18.8,56.4c-16.8,22.1-40.9,29.5-40.9,29.5v1.1c0,0,31.8,4.5,51,28.1
	c23.6,29.1,21.3,62.2,21.3,62.2s2.4,38.2-20.3,69.4c-32.5,44.8-91.6,37.3-91.6,37.3l-108.9-6.6V310.3z M326,608.6l-27-1.1v-95.2
	l27,0.3c25.2,0,57.7,3,57.7,48.1C383.7,609.7,341.5,609.5,326,608.6z M940.4,179H634.1v231.5h39.8V761h-39.8v62h306.4
	c15,0,27.2-12.2,27.2-27.2V206.2C967.7,191.2,955.5,179,940.4,179z M790.1,761h-67.2V491.7h67.2V761z M906.2,761h-67.2V308.4h67.2
	V761z M323.3,451.7l-24.3,0.3v-85.6l24.3-1c13.9-0.7,48.5,0.4,48.5,38.8C371.8,446.3,340.4,451.4,323.3,451.7z"/>
</svg>
