<?xml version="1.0" encoding="iso-8859-1"?>
<!-- Generator: Adobe Illustrator 18.1.0, SVG Export Plug-In . SVG Version: 6.00 Build 0)  -->
<!DOCTYPE svg PUBLIC "-//W3C//DTD SVG 1.1//EN" "http://www.w3.org/Graphics/SVG/1.1/DTD/svg11.dtd">
<svg version="1.1" id="Layer_1" xmlns="http://www.w3.org/2000/svg" xmlns:xlink="http://www.w3.org/1999/xlink" x="0px" y="0px"
	 width="1000px" height="1000px" viewBox="0 0 1000 1000" style="enable-background:new 0 0 1000 1000;" xml:space="preserve">
<style type="text/css">
	.st0{fill-rule:evenodd;clip-rule:evenodd;}
	.st1{fill:none;}
</style>
<path d="M656.1,154.7v157.1h-315V154.7H656.1 M709.2,101.6H288v263.3h421.2V101.6L709.2,101.6z M871.9,318.1H763.2V418H234.9v-99.9
	H128.1c-29.3,0-53.1,23.8-53.1,53.1v317.2c0,29.4,23.8,53.1,53.1,53.1H288v156.9h421.2V741.5h162.7c29.3,0,53.1-23.8,53.1-53.1
	V371.2C925,341.8,901.2,318.1,871.9,318.1z M656.1,845.3h-315V688.2h315V845.3z M789.8,687.2c-14.7,0-26.6-11.9-26.6-26.6
	c0-14.7,11.9-26.6,26.6-26.6c14.7,0,26.6,11.9,26.6,26.6C816.4,675.3,804.5,687.2,789.8,687.2z"/>
</svg>
