<?xml version="1.0" encoding="iso-8859-1"?>
<!-- Generator: Adobe Illustrator 18.1.0, SVG Export Plug-In . SVG Version: 6.00 Build 0)  -->
<!DOCTYPE svg PUBLIC "-//W3C//DTD SVG 1.1//EN" "http://www.w3.org/Graphics/SVG/1.1/DTD/svg11.dtd">
<svg version="1.1" xmlns="http://www.w3.org/2000/svg" xmlns:xlink="http://www.w3.org/1999/xlink" x="0px" y="0px" width="1000px"
	 height="1000px" viewBox="0 0 1000 1000" style="enable-background:new 0 0 1000 1000;" xml:space="preserve">
<style type="text/css">
	.st0{display:none;}
	.st1{display:inline;}
	.st2{fill:#FFFFFF;}
	.st3{fill:#FFFFFF;stroke:#000000;stroke-width:1.45;stroke-linejoin:bevel;}
	.st4{display:inline;fill:none;stroke:#C1272D;stroke-miterlimit:10;}
	.st5{display:inline;fill:#ED1C24;}
	.st6{display:inline;fill:#FFFFFF;}
	.st7{display:inline;fill:none;stroke:#ED1C24;stroke-miterlimit:10;}
	.st8{fill:#ED1C24;}
	.st9{fill-rule:evenodd;clip-rule:evenodd;}
	.st10{fill:#231F20;}
</style>
<g id="Layer_2" class="st0">
</g>
<g id="Layer_1">
	<path d="M785.3,360.4c0,0-168,0-169.6,0c1.5,0-5.4-52.4-6.8-58c-11-41.8-40.1-79.4-83.9-89.4C419.8,189.1,356.9,306,423.4,386.8
		c32.4,39.4,79.4,63.1,111.9,103.1c30.6,37.7,43.5,82.9,47.6,130.6v52.3H426.2c0-28.1,1.9-54.6-9.9-81.1
		c-22-49.7-75-74.2-114.6-107.1c-82.1-68.2-113.8-186.6-60.1-283.4C296.4,102.9,415,71,520.1,75.4c109.2,4.5,203.8,67.8,244.3,170.3
		C776.7,282.8,784.1,321.2,785.3,360.4z M500.9,742.3c50.4,0,91.3,40.9,91.3,91.3c0,50.4-40.9,91.3-91.3,91.3s-91.3-40.9-91.3-91.3
		C409.6,783.2,450.5,742.3,500.9,742.3z"/>
</g>
</svg>
