<?xml version="1.0" encoding="iso-8859-1"?>
<!-- Generator: Adobe Illustrator 18.1.0, SVG Export Plug-In . SVG Version: 6.00 Build 0)  -->
<!DOCTYPE svg PUBLIC "-//W3C//DTD SVG 1.1//EN" "http://www.w3.org/Graphics/SVG/1.1/DTD/svg11.dtd">
<svg version="1.1" id="Layer_1" xmlns="http://www.w3.org/2000/svg" xmlns:xlink="http://www.w3.org/1999/xlink" x="0px" y="0px"
	 width="1000px" height="1000px" viewBox="0 0 1000 1000" style="enable-background:new 0 0 1000 1000;" xml:space="preserve">
<style type="text/css">
	.st0{fill-rule:evenodd;clip-rule:evenodd;}
</style>
<path d="M236.1,245.6c40.4-102.5,135-165.8,244.3-170.3c105.1-4.4,223.7,27.5,278.4,125.9c53.8,96.8,22.1,215.2-60.1,283.4
	c-39.6,32.9-92.6,57.4-114.6,107.1c-11.7,26.5-9.9,53-9.9,81.1H417.5v-52.3c4-47.7,17-92.9,47.6-130.6
	c32.5-40.1,79.5-63.7,111.9-103.1c66.5-80.8,3.6-197.7-101.7-173.7c-43.8,10-72.9,47.6-83.9,89.4c-1.4,5.7-8.3,58-6.8,58
	c-1.5,0-169.6,0-169.6,0C216.4,321.2,223.7,282.8,236.1,245.6z M590.8,833.6c0,50.4-40.9,91.3-91.3,91.3s-91.3-40.9-91.3-91.3
	c0-50.4,40.9-91.3,91.3-91.3S590.8,783.2,590.8,833.6z"/>
</svg>
