<?xml version="1.0" encoding="iso-8859-1"?>
<!-- Generator: Adobe Illustrator 18.1.0, SVG Export Plug-In . SVG Version: 6.00 Build 0)  -->
<!DOCTYPE svg PUBLIC "-//W3C//DTD SVG 1.1//EN" "http://www.w3.org/Graphics/SVG/1.1/DTD/svg11.dtd">
<svg version="1.1" xmlns="http://www.w3.org/2000/svg" xmlns:xlink="http://www.w3.org/1999/xlink" x="0px" y="0px" width="1140px"
	 height="1000px" viewBox="0 0 1140 1000" style="enable-background:new 0 0 1140 1000;" xml:space="preserve">
<style type="text/css">
	.st0{display:none;}
	.st1{display:inline;}
	.st2{fill:#FFFFFF;}
	.st3{fill:#FFFFFF;stroke:#000000;stroke-width:1.45;stroke-linejoin:bevel;}
	.st4{display:inline;fill:none;stroke:#C1272D;stroke-miterlimit:10;}
	.st5{display:inline;fill:#ED1C24;}
	.st6{display:inline;fill:#FFFFFF;}
	.st7{display:inline;fill:none;stroke:#ED1C24;stroke-miterlimit:10;}
	.st8{fill:#ED1C24;}
	.st9{fill-rule:evenodd;clip-rule:evenodd;}
	.st10{fill:#231F20;}
</style>
<g id="Layer_2" class="st0">
</g>
<g id="Layer_1">
	<path d="M528.5,427.7c0,216.2-126.4,403.5-309.2,491.7c-27.4,13.2-60.3,1.9-74.5-25l0,0c-13-24.7-6.2-55,16-71.9
		c82.4-62.7,141.5-154,162.4-259c6.7-33.7-18.3-64.9-52.6-67.5C197,490.7,128.3,446.6,94.9,375c-41.5-88-17.4-190.4,53.7-250.8
		c13.8-11.8,29.7-22,47.1-30.2c105.5-49.7,228.1,3.1,280.5,101.4C510.1,266,528.5,344.8,528.5,427.7z M1013.2,195.3
		C960.7,97.1,838.1,44.3,732.7,94c-17.4,8.2-33.3,18.4-47.1,30.2c-71.2,60.4-95.2,162.8-53.7,250.8
		c33.4,71.6,102.1,115.7,175.7,121.1c34.3,2.5,59.3,33.8,52.6,67.5c-21,105.1-80,196.3-162.4,259c-22.2,16.9-29,47.3-16,71.9l0,0
		c14.2,26.9,47.2,38.2,74.5,25c182.8-88.2,309.2-275.5,309.2-491.7C1065.4,344.8,1047,266,1013.2,195.3z"/>
</g>
</svg>
