<?xml version="1.0" encoding="iso-8859-1"?>
<!-- Generator: Adobe Illustrator 18.1.0, SVG Export Plug-In . SVG Version: 6.00 Build 0)  -->
<!DOCTYPE svg PUBLIC "-//W3C//DTD SVG 1.1//EN" "http://www.w3.org/Graphics/SVG/1.1/DTD/svg11.dtd">
<svg version="1.1" id="Layer_1" xmlns="http://www.w3.org/2000/svg" xmlns:xlink="http://www.w3.org/1999/xlink" x="0px" y="0px"
	 width="1000px" height="1000px" viewBox="0 0 1000 1000" style="enable-background:new 0 0 1000 1000;" xml:space="preserve">
<style type="text/css">
	.st0{fill-rule:evenodd;clip-rule:evenodd;}
</style>
<path d="M605.1,273.4c-0.5,0-1.1,0.1-1.6,0.1v-0.1l-286.5,0.9l176.8-167.6l-171.9,0.3L75,340.9l246.8,232l171.9-0.3L317.3,406.8
	l286.3-0.7v0.3c0.5,0,1-0.1,1.6-0.1c103.2,0,187,83.8,187,186.8c0,103.1-83.8,187.1-187,187.1c-0.5,0-1.1-0.1-530.1-0.1V913
	c529,0,529.6,0.1,530.1,0.1c176.8,0,319.9-143.2,319.9-319.9C925,416.6,781.9,273.4,605.1,273.4"/>
</svg>
