<?xml version="1.0" encoding="iso-8859-1"?>
<!-- Generator: Adobe Illustrator 18.1.0, SVG Export Plug-In . SVG Version: 6.00 Build 0)  -->
<!DOCTYPE svg PUBLIC "-//W3C//DTD SVG 1.1//EN" "http://www.w3.org/Graphics/SVG/1.1/DTD/svg11.dtd">
<svg version="1.1" id="Layer_1" xmlns="http://www.w3.org/2000/svg" xmlns:xlink="http://www.w3.org/1999/xlink" x="0px" y="0px"
	 width="1400px" height="1000px" viewBox="0 0 1400 1000" style="enable-background:new 0 0 1400 1000;" xml:space="preserve">
<style type="text/css">
	.st0{fill-rule:evenodd;clip-rule:evenodd;}
	.st1{fill:none;}
</style>
<path d="M499.8,75c-234.4,0-425,190.7-425,425c0,234.4,190.6,425,425,425s425-190.6,425-425C924.8,265.7,734.2,75,499.8,75z
	 M499.8,852.5c-194.3,0-352.4-158.1-352.4-352.5c0-194.3,158.1-352.5,352.4-352.5c194.3,0,352.5,158.1,352.5,352.5
	C852.3,694.3,694.2,852.5,499.8,852.5z M239.1,550.4V448.6H599L440.4,299h129.8l212.6,200.6L569.2,701H439.4L599,550.4H239.1z
	 M1274,303.2h-267.3c-28.3,0-51.1-23-51.1-51.3c0-28.2,22.8-51.1,51.1-51.1H1274c28.2,0,51.1,23,51.1,51.1
	C1325.2,280.3,1302.2,303.2,1274,303.2z M1274,551.2h-185.7c-28.3,0-51.1-23-51.1-51.4c0-28.2,22.8-51.1,51.1-51.1H1274
	c28.2,0,51.1,23,51.1,51.1C1325.2,528.3,1302.2,551.2,1274,551.2z M1274,799.2h-185.7c-28.3,0-51.1-23-51.1-51.3
	c0-28.2,22.8-51.1,51.1-51.1H1274c28.2,0,51.1,23,51.1,51.1C1325.2,776.3,1302.2,799.2,1274,799.2z"/>
</svg>
