<?xml version="1.0" encoding="iso-8859-1"?>
<!-- Generator: Adobe Illustrator 18.1.0, SVG Export Plug-In . SVG Version: 6.00 Build 0)  -->
<!DOCTYPE svg PUBLIC "-//W3C//DTD SVG 1.1//EN" "http://www.w3.org/Graphics/SVG/1.1/DTD/svg11.dtd">
<svg version="1.1" id="Layer_1" xmlns="http://www.w3.org/2000/svg" xmlns:xlink="http://www.w3.org/1999/xlink" x="0px" y="0px"
	 width="1000px" height="1000px" viewBox="0 0 1000 1000" style="enable-background:new 0 0 1000 1000;" xml:space="preserve">
<style type="text/css">
	.st0{fill-rule:evenodd;clip-rule:evenodd;}
</style>
<path d="M280,453.5H142c44-227.3,238.5-341.3,431.1-304c65.3,12.6,124.5,42.8,172.2,86.3l0.1-159.7l93.5,89.2l0,257.1l-257,0.1
	l-94.7-92.8l173,0.5c-30.9-28.4-68.5-49.1-111-57.4C425.3,248.9,304.9,329.8,280,453.5z M450.6,729.4c-42.5-8.2-80.1-29-111-57.4
	l173,0.5l-94.7-92.8l-257,0.1l0,257.1l93.5,89.2l0.1-159.7c47.7,43.5,106.9,73.7,172.2,86.3c192.5,37.3,387.1-76.7,431.1-304H719.8
	C694.9,672.4,574.5,753.3,450.6,729.4z"/>
</svg>
