<?xml version="1.0" encoding="iso-8859-1"?>
<!-- Generator: Adobe Illustrator 18.1.0, SVG Export Plug-In . SVG Version: 6.00 Build 0)  -->
<!DOCTYPE svg PUBLIC "-//W3C//DTD SVG 1.1//EN" "http://www.w3.org/Graphics/SVG/1.1/DTD/svg11.dtd">
<svg version="1.1" id="Layer_1" xmlns="http://www.w3.org/2000/svg" xmlns:xlink="http://www.w3.org/1999/xlink" x="0px" y="0px"
	 width="1000px" height="1000px" viewBox="0 0 1000 1000" style="enable-background:new 0 0 1000 1000;" xml:space="preserve">
<style type="text/css">
	.st0{fill-rule:evenodd;clip-rule:evenodd;}
</style>
<path d="M849.8,453.6c0,119.3-84.2,218.9-196.4,242.9c-8.5-37.5-27.2-71-53.1-97.7c0.3,0,0.6,0.1,0.9,0.1
	c80.1,0,145.3-65.3,145.3-145.4c0-80.2-65.1-145.3-145.3-145.3c-0.4,0-0.8,0.1-1.2,0.1v-0.2l-222.5,0.6l137,128.8l-133.6,0.3
	L189.3,257.4L381.2,75.6l133.6-0.2L377.4,205.6l222.7-0.6v0.1c0.4,0,0.8-0.1,1.2-0.1C738.5,205,849.8,316.3,849.8,453.6z
	 M456.3,558.8v-0.2l-152.6,0.5l98.7-93.5L291,467.1L149.4,601.2l144.8,134.3l108-0.2l-98.4-92.5l148.5-0.3
	c54.8,0,99.4,44.7,99.4,99.5c0,54.8-44.5,99.4-100.2,99.4h-0.2h-4.8v79l-0.3,4.8l6,0.1c101.1,0,183.3-82.2,183.3-183.3
	C635.7,642.6,556,561.3,456.3,558.8"/>
</svg>
