<?xml version="1.0" encoding="iso-8859-1"?>
<!-- Generator: Adobe Illustrator 18.1.0, SVG Export Plug-In . SVG Version: 6.00 Build 0)  -->
<!DOCTYPE svg PUBLIC "-//W3C//DTD SVG 1.1//EN" "http://www.w3.org/Graphics/SVG/1.1/DTD/svg11.dtd">
<svg version="1.1" id="Layer_1" xmlns="http://www.w3.org/2000/svg" xmlns:xlink="http://www.w3.org/1999/xlink" x="0px" y="0px"
	 width="1000px" height="1000px" viewBox="0 0 1000 1000" style="enable-background:new 0 0 1000 1000;" xml:space="preserve">
<style type="text/css">
	.st0{fill-rule:evenodd;clip-rule:evenodd;}
	.st1{fill:none;}
</style>
<path d="M654.9,560.3c68.2-48.3,112.5-128.1,112.5-218.1c0-125-85.5-229.6-201.6-258.8c-21.3-5.8-43.5-8.5-66.1-8.5
	c-147.6,0-267.2,119.7-267.2,267.3c0,89.9,44.4,169.7,112.5,218.1L189.2,830.2l130.7-34.6L354,925l145.8-253l146.3,253l34-129.4
	l130.7,34.6L654.9,560.3z M500.6,478.3c-74.7,0-135.2-60.5-135.2-135.2c0-74.7,60.5-135.2,135.2-135.2
	c74.7,0,135.3,60.6,135.3,135.2C635.9,417.8,575.3,478.3,500.6,478.3z"/>
</svg>
