<?xml version="1.0" encoding="iso-8859-1"?>
<!-- Generator: Adobe Illustrator 18.1.0, SVG Export Plug-In . SVG Version: 6.00 Build 0)  -->
<!DOCTYPE svg PUBLIC "-//W3C//DTD SVG 1.1//EN" "http://www.w3.org/Graphics/SVG/1.1/DTD/svg11.dtd">
<svg version="1.1" id="Layer_1" xmlns="http://www.w3.org/2000/svg" xmlns:xlink="http://www.w3.org/1999/xlink" x="0px" y="0px"
	 width="1000px" height="1000px" viewBox="0 0 1000 1000" style="enable-background:new 0 0 1000 1000;" xml:space="preserve">
<style type="text/css">
	.st0{fill-rule:evenodd;clip-rule:evenodd;}
</style>
<path d="M876.8,75H123.2C96.7,75,75,96.6,75,123.3v753.5c0,26.6,21.6,48.2,48.2,48.2h187.9V681.9c0-13.7,11.1-24.8,24.7-24.8h326.6
	c13.7,0,24.8,11,24.8,24.8V925h189.5c26.7,0,48.2-21.5,48.2-48.2V123.3C925,96.6,903.4,75,876.8,75 M763.2,363.3
	c0,13.6-11.1,24.8-24.8,24.8H260c-13.6,0-24.8-11.1-24.8-24.8V165.9c0-13.7,11.1-24.9,24.8-24.9h478.5c13.6,0,24.8,11.2,24.8,24.9
	V363.3z M493.4,812.3c13.7,0,24.9,11.2,24.9,24.8v86.2c0,0.5-0.4,0.9-0.4,1.4H384.4c0-0.5-0.3-1-0.3-1.4v-86.2
	c0-13.6,11.2-24.8,24.8-24.8H493.4"/>
</svg>
