<?xml version="1.0" encoding="iso-8859-1"?>
<!-- Generator: Adobe Illustrator 18.1.0, SVG Export Plug-In . SVG Version: 6.00 Build 0)  -->
<!DOCTYPE svg PUBLIC "-//W3C//DTD SVG 1.1//EN" "http://www.w3.org/Graphics/SVG/1.1/DTD/svg11.dtd">
<svg version="1.1" id="Layer_1" xmlns="http://www.w3.org/2000/svg" xmlns:xlink="http://www.w3.org/1999/xlink" x="0px" y="0px"
	 width="1000px" height="1000px" viewBox="0 0 1000 1000" style="enable-background:new 0 0 1000 1000;" xml:space="preserve">
<style type="text/css">
	.st0{fill-rule:evenodd;clip-rule:evenodd;}
</style>
<path d="M238.3,275.9c-19.1,0-34.6-15.5-34.6-34.6v-81.7c0-19.1,15.5-34.6,34.6-34.6c19.1,0,34.6,15.5,34.6,34.6v81.7
	C272.9,260.4,257.5,275.9,238.3,275.9z M702.4,193.4h-28.5v47.9c0,34.6-28.2,62.9-62.9,62.9h-3c-34.6,0-62.6-28.2-62.6-62.9v-47.9
	H302.6v47.9c0,34.6-28.3,62.9-62.8,62.9h-3c-34.6,0-62.9-28.2-62.9-62.9v-47.9h-26.9c-17.8,0-32.5,14.7-32.5,32.5v564.9
	c0,17.9,14.6,32.5,32.5,32.5h229.3c-5.2-18.5-8-37.9-9.5-57.6H166V379.2h517.3v77.5c17.6,1.8,34.9,4.5,51.6,9.2V225.8
	C734.9,208,720.2,193.4,702.4,193.4z M610.8,275.9c18.9,0,34.3-15.5,34.3-34.6v-81.7c0-19.1-15.4-34.6-34.3-34.6
	c-18.9,0-34.3,15.5-34.3,34.6v81.7C576.4,260.4,591.9,275.9,610.8,275.9z M885.6,745.2C885.6,872,782.5,975,655.7,975
	C529.1,975,426,872,426,745.2c0-126.7,103-229.8,229.7-229.8C782.5,515.5,885.6,618.6,885.6,745.2z M834.8,745.2
	c0-98.7-80.3-179-179-179c-98.7,0-179,80.3-179,179c0,98.7,80.3,179,179,179C754.5,924.2,834.8,844,834.8,745.2z M755.7,770.6
	c14,0,25.4-11.3,25.4-25.4c0-14-11.3-25.4-25.4-25.4h-74.5v-93c0-14-11.3-25.4-25.4-25.4c-14,0-25.4,11.4-25.4,25.4v118.4
	c0,14.1,11.4,25.4,25.4,25.4H755.7z"/>
</svg>
