<?xml version="1.0" encoding="iso-8859-1"?>
<!-- Generator: Adobe Illustrator 18.1.0, SVG Export Plug-In . SVG Version: 6.00 Build 0)  -->
<!DOCTYPE svg PUBLIC "-//W3C//DTD SVG 1.1//EN" "http://www.w3.org/Graphics/SVG/1.1/DTD/svg11.dtd">
<svg version="1.1" id="Layer_1" xmlns="http://www.w3.org/2000/svg" xmlns:xlink="http://www.w3.org/1999/xlink" x="0px" y="0px"
	 width="1000px" height="1000px" viewBox="0 0 1000 1000" style="enable-background:new 0 0 1000 1000;" xml:space="preserve">
<style type="text/css">
	.st0{fill-rule:evenodd;clip-rule:evenodd;}
</style>
<path d="M612.9,76.4c-174.3,0-315.6,141.3-315.6,315.6c0,56.5,15,109.5,41.1,155.4L101.8,786.2c-31.3,31.6-31,82.5,0.6,113.8
	c15.7,15.5,36.1,23.3,56.6,23.3c20.7,0,41.5-7.9,57.2-23.8l234.8-237c47.4,28.4,102.6,45.1,161.9,45.1
	c174.3,0,315.6-141.3,315.6-315.6C928.5,217.7,787.2,76.4,612.9,76.4z M612.9,610.2c-120.5,0-218.2-97.7-218.2-218.2
	c0-120.5,97.7-218.2,218.2-218.2c120.5,0,218.2,97.7,218.2,218.2C831.1,512.5,733.4,610.2,612.9,610.2z"/>
</svg>
