<?xml version="1.0" encoding="iso-8859-1"?>
<!-- Generator: Adobe Illustrator 18.1.0, SVG Export Plug-In . SVG Version: 6.00 Build 0)  -->
<!DOCTYPE svg PUBLIC "-//W3C//DTD SVG 1.1//EN" "http://www.w3.org/Graphics/SVG/1.1/DTD/svg11.dtd">
<svg version="1.1" xmlns="http://www.w3.org/2000/svg" xmlns:xlink="http://www.w3.org/1999/xlink" x="0px" y="0px" width="1000px"
	 height="1000px" viewBox="0 0 1000 1000" style="enable-background:new 0 0 1000 1000;" xml:space="preserve">
<style type="text/css">
	.st0{display:none;}
	.st1{display:inline;}
	.st2{fill:#FFFFFF;}
	.st3{fill:#FFFFFF;stroke:#000000;stroke-width:1.45;stroke-linejoin:bevel;}
	.st4{display:inline;fill:none;stroke:#C1272D;stroke-miterlimit:10;}
	.st5{display:inline;fill:#ED1C24;}
	.st6{display:inline;fill:#FFFFFF;}
	.st7{display:inline;fill:none;stroke:#ED1C24;stroke-miterlimit:10;}
	.st8{fill:#ED1C24;}
	.st9{fill-rule:evenodd;clip-rule:evenodd;}
	.st10{fill:#231F20;}
</style>
<g id="Layer_2" class="st0">
</g>
<g id="Layer_1">
	<path d="M851,413.5V925H741V413.5H851z M741,75v96.8h110V75H741z M447.7,829.7V925h110v-95.3H447.7z M447.7,75v513.1h110V75H447.7z
		 M154.4,616.6V925h110V616.6H154.4z M154.4,75v300h110V75H154.4z M279.1,556.6H135.8c-33.6,0-60.8-27.2-60.8-60.8v0
		c0-33.6,27.2-60.8,60.8-60.8h143.3c33.6,0,60.8,27.2,60.8,60.8v0C340,529.4,312.7,556.6,279.1,556.6z M864.2,353.9H720.9
		c-33.6,0-60.8-27.2-60.8-60.8v0c0-33.6,27.2-60.8,60.8-60.8h143.3c33.6,0,60.8,27.2,60.8,60.8v0C925,326.7,897.8,353.9,864.2,353.9
		z M571.7,769.9H428.3c-33.6,0-60.8-27.2-60.8-60.8v0c0-33.6,27.2-60.8,60.8-60.8h143.3c33.6,0,60.8,27.2,60.8,60.8v0
		C632.5,742.7,605.2,769.9,571.7,769.9z"/>
</g>
</svg>
