<?xml version="1.0" encoding="iso-8859-1"?>
<!-- Generator: Adobe Illustrator 18.1.0, SVG Export Plug-In . SVG Version: 6.00 Build 0)  -->
<!DOCTYPE svg PUBLIC "-//W3C//DTD SVG 1.1//EN" "http://www.w3.org/Graphics/SVG/1.1/DTD/svg11.dtd">
<svg version="1.1" id="Layer_1" xmlns="http://www.w3.org/2000/svg" xmlns:xlink="http://www.w3.org/1999/xlink" x="0px" y="0px"
	 width="1022px" height="1000px" viewBox="0 0 1022 1000" style="enable-background:new 0 0 1022 1000;" xml:space="preserve">
<style type="text/css">
	.st0{fill-rule:evenodd;clip-rule:evenodd;}
</style>
<path d="M873.4,583.6c-19.1,50.1-54.8,91.6-100.4,116.8c-0.4,46.8-38.4,84.7-85.3,84.7c-21.1,0-40.2-8-55.1-20.6V635
	c14.9-12.7,34-20.6,55.1-20.6c32.3,0,60.1,18.2,74.6,44.7c30.1-18.9,54.4-46.7,69.4-79.9C799.3,567.1,776,536,776,499.4
	c0-36.3,22.8-67.2,54.8-79.5c-15.1-32.3-39-59.3-68.5-77.9c-14.5,26.5-42.3,44.7-74.6,44.7c-21.1,0-40.2-8-55.1-20.6V236.6
	c14.9-12.7,34-20.6,55.1-20.6c46.9,0,85,37.9,85.3,84.7c44.8,24.9,80.2,65.4,99.5,114.5c41.8,5.5,74.2,40.9,74.2,84.3
	C946.8,542.4,914.8,577.7,873.4,583.6z M586.8,75v850L75.2,836.7V166.1L586.8,75z M400.7,516.5c-16-22-52.9-44.2-69.9-54.9
	c-17-10.7-26.8-25-26.8-42.6c0-17.6,10.5-36.5,45.5-36.5s57.6,22.2,57.6,22.2v-74.7c0,0-65.3-23.4-111.6,1.7
	C245,359,241.8,407,241.8,427.3c0,20.2,5.7,46.3,20.7,64.7c15,18.4,45.2,38.3,73.8,59.2c22.5,16.4,24.2,68-21.2,68
	c-45.4,0-72.3-38.8-72.3-38.8v76.7c61.1,39.4,136.1,28.6,162.7-18.5C432.1,591.5,416.7,538.5,400.7,516.5z"/>
</svg>
