<?xml version="1.0" encoding="iso-8859-1"?>
<!-- Generator: Adobe Illustrator 18.1.0, SVG Export Plug-In . SVG Version: 6.00 Build 0)  -->
<!DOCTYPE svg PUBLIC "-//W3C//DTD SVG 1.1//EN" "http://www.w3.org/Graphics/SVG/1.1/DTD/svg11.dtd">
<svg version="1.1" id="Layer_1" xmlns="http://www.w3.org/2000/svg" xmlns:xlink="http://www.w3.org/1999/xlink" x="0px" y="0px"
	 width="1000px" height="1000px" viewBox="0 0 1000 1000" style="enable-background:new 0 0 1000 1000;" xml:space="preserve">
<style type="text/css">
	.st0{fill-rule:evenodd;clip-rule:evenodd;}
</style>
<path d="M787,787.9c6.2,24.6,4.5,51.3-6.5,76.3c-26.6,60-96.9,87.2-156.9,60.6c-60-26.6-87.2-96.8-60.6-156.8
	c26.6-60,96.8-87.2,156.8-60.6c4,1.8,7.9,3.8,11.5,5.8c54.4-56.9,87.9-134.1,87.9-219c0-31-4.5-61-12.7-89.2
	c30.3-12.2,57.2-31.3,78.7-55.2c17,44.9,26.2,93.5,26.2,144.4C911.3,609.4,863.6,713.5,787,787.9z M728.1,90.1
	c-27.4,0-52.5,9.2-72.6,24.7C608,95.5,556.4,85,502.2,85c-127.6,0-241.3,58.3-316.4,149.8c31.8,6.8,61.6,20.9,86.9,40.7
	c57.7-60.6,139.2-98.2,229.4-98.2c37.8,0,74.1,6.5,107.7,18.8c-0.5,4.3-0.7,8.6-0.7,13c0,65.6,53.2,118.8,118.9,118.8
	c65.6,0,118.8-53.2,118.8-118.8C846.9,143.3,793.7,90.1,728.1,90.1z M460.7,808.5C323.7,790.6,214.2,685.2,190,550
	c3.9-1.7,7.9-3.6,11.6-5.8c56.9-32.9,76.3-105.6,43.4-162.5c-32.9-56.9-105.5-76.3-162.4-43.4C25.9,371,6.4,443.8,39.2,500.7
	c13.7,23.6,34.2,40.9,57.7,50.6C123.7,742.8,283,892,479.2,902.7C466.2,873.4,459.6,841.1,460.7,808.5z"/>
</svg>
