<?xml version="1.0" encoding="iso-8859-1"?>
<!-- Generator: Adobe Illustrator 18.1.0, SVG Export Plug-In . SVG Version: 6.00 Build 0)  -->
<!DOCTYPE svg PUBLIC "-//W3C//DTD SVG 1.1//EN" "http://www.w3.org/Graphics/SVG/1.1/DTD/svg11.dtd">
<svg version="1.1" xmlns="http://www.w3.org/2000/svg" xmlns:xlink="http://www.w3.org/1999/xlink" x="0px" y="0px" width="1000px"
	 height="1000px" viewBox="0 0 1000 1000" style="enable-background:new 0 0 1000 1000;" xml:space="preserve">
<style type="text/css">
	.st0{display:none;}
	.st1{display:inline;}
	.st2{fill:#FFFFFF;}
	.st3{fill:#FFFFFF;stroke:#000000;stroke-width:1.45;stroke-linejoin:bevel;}
	.st4{display:inline;fill:none;stroke:#C1272D;stroke-miterlimit:10;}
	.st5{display:inline;fill:#ED1C24;}
	.st6{display:inline;fill:#FFFFFF;}
	.st7{display:inline;fill:none;stroke:#ED1C24;stroke-miterlimit:10;}
	.st8{fill:#ED1C24;}
	.st9{fill-rule:evenodd;clip-rule:evenodd;}
	.st10{fill:#231F20;}
</style>
<g id="Layer_2" class="st0">
</g>
<g id="Layer_1">
	<path d="M500,75c-21.9,0.3-43.9,8.7-64.3,26.2C364.5,162,283.3,197.9,192,215.1c-31.2,5.8-53.9,24.2-56.2,61.7
		c-13.6,218.3,37.2,412.6,202.3,567.5C395,897.7,447.5,924.6,500,925c52.5-0.4,105-27.3,161.9-80.7
		c165.1-154.9,215.9-349.2,202.3-567.5c-2.3-37.6-25-55.9-56.2-61.7c-91.4-17.1-172.5-53-243.7-113.9C543.9,83.7,521.9,75.3,500,75z
		"/>
</g>
</svg>
