<?xml version="1.0" encoding="iso-8859-1"?>
<!-- Generator: Adobe Illustrator 18.1.0, SVG Export Plug-In . SVG Version: 6.00 Build 0)  -->
<!DOCTYPE svg PUBLIC "-//W3C//DTD SVG 1.1//EN" "http://www.w3.org/Graphics/SVG/1.1/DTD/svg11.dtd">
<svg version="1.1" xmlns="http://www.w3.org/2000/svg" xmlns:xlink="http://www.w3.org/1999/xlink" x="0px" y="0px" width="1000px"
	 height="1000px" viewBox="0 0 1000 1000" style="enable-background:new 0 0 1000 1000;" xml:space="preserve">
<style type="text/css">
	.st0{display:none;}
	.st1{display:inline;}
	.st2{fill:#FFFFFF;}
	.st3{fill:#FFFFFF;stroke:#000000;stroke-width:1.45;stroke-linejoin:bevel;}
	.st4{display:inline;fill:none;stroke:#C1272D;stroke-miterlimit:10;}
	.st5{display:inline;fill:#ED1C24;}
	.st6{display:inline;fill:#FFFFFF;}
	.st7{display:inline;fill:none;stroke:#ED1C24;stroke-miterlimit:10;}
	.st8{fill:#ED1C24;}
	.st9{fill-rule:evenodd;clip-rule:evenodd;}
	.st10{fill:#231F20;}
</style>
<g id="Layer_2" class="st0">
</g>
<g id="Layer_1">
	<path class="st9" d="M893.8,569.4c4-22.5,6-45.7,6-69.4c0-220.8-179-399.8-399.8-399.8c-23.7,0-46.9,2.1-69.4,6
		C395.8,86.3,355.6,75,312.7,75C181.4,75,75,181.4,75,312.7c0,42.9,11.3,83.1,31.2,117.9c-4,22.5-6,45.7-6,69.4
		c0,220.8,179,399.8,399.8,399.8c23.7,0,46.9-2.1,69.5-6c34.7,19.9,75,31.2,117.8,31.2C818.6,925,925,818.6,925,687.3
		C925,644.4,913.6,604.2,893.8,569.4z M501.6,755.7c-142,0-206.9-71.9-206.9-124.7c0-27.1,21.3-45.7,48.6-45.7
		c60.8,0,44.9,90.6,158.3,90.6c58,0,92-34.7,92-67.3c0-19.6-11.3-41.4-49.5-50.9l-126.3-31.8c-101.7-25.7-119.5-82-119.5-134.1
		c0-108.3,99.6-147.5,194.5-147.5c87.4,0,191.3,47.9,191.3,113c0,27.8-23.5,43-50.8,43c-51.9,0-43.2-72.5-147.7-72.5
		c-51.9,0-79.2,24.1-79.2,58.1c0,33.8,40.1,45.3,75.7,53.5l93.5,21c102.4,23,129.8,82.7,129.8,139.6
		C705.3,687.8,636.7,755.7,501.6,755.7z"/>
</g>
</svg>
