<?xml version="1.0" encoding="utf-8"?>
<!-- Generator: Adobe Illustrator 18.1.1, SVG Export Plug-In . SVG Version: 6.00 Build 0)  -->
<!DOCTYPE svg PUBLIC "-//W3C//DTD SVG 1.1//EN" "http://www.w3.org/Graphics/SVG/1.1/DTD/svg11.dtd">
<svg version="1.1" xmlns="http://www.w3.org/2000/svg" xmlns:xlink="http://www.w3.org/1999/xlink" x="0px" y="0px" width="1000px"
	 height="1000px" viewBox="0 0 1000 1000" style="enable-background:new 0 0 1000 1000;" xml:space="preserve">
<style type="text/css">
	.st0{fill:#101010;}
	.st1{fill:#FFFFFF;}
	.st2{fill:none;stroke:#000000;stroke-miterlimit:10;}
</style>
<g id="Layer_2">
</g>
<g id="Layer_1">
	<path d="M697.1,595.9c0,36.5-11.2,65.6-29.5,87.6c-18.7,22-44,37.8-73,47.7c-29.1,10-61.4,14.5-93,14.5c-32,0-68.1-4.1-100.9-15.8
		c-32.8-11.2-62.3-29.1-81.8-57.3c-9.5-13.7-16.2-29.9-16.2-46.9c0-13.3,5.4-24.1,14.1-32c8.3-7.9,19.9-12,32.8-12
		c19.5,0,30.7,9.5,41.1,22.4c5,6.6,10.4,13.7,15.8,21.2c10.8,14.9,26.6,28.6,50.2,36.9c11.6,4.6,26.6,6.6,44.8,6.6
		c18.3,0,40.7-5.4,58.1-15.8c17.4-10.4,29.9-27,29.9-49c0-13.7-5.8-24.5-14.1-32.8c-8.7-7.9-21.2-12.9-33.2-16.2
		c-20.3-5.4-40.3-10.4-60.6-15.4c-40.3-9.5-80.1-18.3-108.3-32c-28.2-13.7-48.1-33.6-58.9-61.8c-5.4-14.1-8.3-30.7-8.3-49.8
		c0-52.7,24.5-88,59.8-110.4c35.3-22.4,82.2-31.1,127-31.1c19.5,0,46.5,3.7,73.9,11.2c27.4,7.5,54.8,19.5,75.5,35.7
		c20.8,16.2,34.4,36.5,34.4,61.4c0,13.7-5.8,24.1-14.9,30.7c-9.1,7.1-22,10.4-34,10.4c-16.6,0-26.6-7.9-36.5-18.3
		c-5-5-10-10.4-15.4-16.6c-10.8-12-26.1-22.8-48.1-29.9c-11.2-3.3-24.9-5-41.5-5c-17.8,0-36.9,3.7-51.5,12
		c-14.9,8.7-24.9,22.8-24.9,44c0,22.8,17.8,35.3,44.8,44c13.7,4.6,29.1,8.3,46.1,11.2c34.4,6.6,71,14.1,105.4,26.6
		c34.4,12.5,62.3,33.2,78.9,64.7C693,552.7,697.1,572.2,697.1,595.9z M864.4,687.2c0-21.2-3.3-39-9.1-56
		c-5.8-16.6-14.5-32.8-24.9-50.6c5-27,8.7-52.7,8.7-80.5c0-61.8-17-120.8-46.5-171c-29.5-50.2-71.4-92.1-121.6-121.6
		c-50.2-29.5-109.2-46.5-171-46.5c-27.8,0-54,3.7-80.5,8.7c-17.8-10.4-34-19.1-50.6-24.9c-17-5.8-34.9-9.1-56-9.1
		c-49.4,0-93.4,19.9-125.3,51.9c-32,32-51.9,76.8-51.9,125.3c0,21.2,3.3,39,9.1,55.6c5.8,17,14.5,33.2,24.9,51
		c-5,27-8.7,52.7-8.7,80.5c0,62.7,17,120.8,46.5,171c29.5,50.2,71.4,92.1,121.6,121.6c50.2,29.5,108.3,46.5,171,46.5
		c27.8,0,53.5-3.7,80.5-8.7c17.8,10.4,34,18.7,51,24.5c16.6,5.8,34.4,9.5,55.6,9.5c48.6,0,93.4-19.9,125.3-51.9
		C844.5,780.6,864.4,735.7,864.4,687.2z M925,687.2c0,43.6-11.6,84.7-32.4,119.9c-20.8,35.3-50.2,64.3-85.5,85.1
		C771.8,913,730.8,925,687.2,925c-41.5,0-81.8-10.8-117.9-31.1c-23.2,3.7-46.1,5.8-69.3,5.8c-73.5,0-142.4-19.9-201.7-54.8
		c-59.3-34.4-108.7-83.8-143.2-143.2c-34.9-59.4-54.8-128.2-54.8-201.7c0-23.2,2.1-46.1,5.8-69.3C85.8,394.6,75,354.3,75,312.8
		c0-65.2,26.6-124.9,69.7-168.1C187.5,101.6,246.8,75,312.8,75c41.5,0,81.8,10.8,117.9,31.1c23.2-4.6,46.1-5.8,69.3-5.8
		c73.5,0,142.4,19.9,201.7,54.4c59.3,34.9,108.7,84.3,143.6,143.6c34.4,59.4,54.4,128.2,54.4,201.7c0,23.2-2.1,46.1-5.8,69.3
		C914.2,605.4,925,645.7,925,687.2z"/>
</g>
</svg>
