<?xml version="1.0" encoding="iso-8859-1"?>
<!-- Generator: Adobe Illustrator 18.1.0, SVG Export Plug-In . SVG Version: 6.00 Build 0)  -->
<!DOCTYPE svg PUBLIC "-//W3C//DTD SVG 1.1//EN" "http://www.w3.org/Graphics/SVG/1.1/DTD/svg11.dtd">
<svg version="1.1" id="Layer_1" xmlns="http://www.w3.org/2000/svg" xmlns:xlink="http://www.w3.org/1999/xlink" x="0px" y="0px"
	 width="1000px" height="1000px" viewBox="0 0 1000 1000" style="enable-background:new 0 0 1000 1000;" xml:space="preserve">
<style type="text/css">
	.st0{fill-rule:evenodd;clip-rule:evenodd;}
</style>
<path d="M500,75C265.3,75,75,265.3,75,500c0,234.7,190.3,425,425,425c234.7,0,425-190.3,425-425C925,265.3,734.7,75,500,75z
	 M697.4,286.7c35.1,0,63.5,38.7,63.5,86.5c0,47.8-28.4,86.5-63.5,86.5c-35.1,0-63.5-38.7-63.5-86.5
	C633.9,325.4,662.3,286.7,697.4,286.7z M318.4,286.7c35.1,0,63.5,38.7,63.5,86.5c0,47.8-28.4,86.5-63.5,86.5
	c-35.1,0-63.5-38.7-63.5-86.5C254.9,325.4,283.3,286.7,318.4,286.7z M511,793.9c-206.9,0-263.7-233.8-263.7-233.8
	S354.2,702.2,511,702.2s263.7-142.1,263.7-142.1S717.8,793.9,511,793.9z"/>
</svg>
