<?xml version="1.0" encoding="iso-8859-1"?>
<!-- Generator: Adobe Illustrator 18.1.0, SVG Export Plug-In . SVG Version: 6.00 Build 0)  -->
<!DOCTYPE svg PUBLIC "-//W3C//DTD SVG 1.1//EN" "http://www.w3.org/Graphics/SVG/1.1/DTD/svg11.dtd">
<svg version="1.1" xmlns="http://www.w3.org/2000/svg" xmlns:xlink="http://www.w3.org/1999/xlink" x="0px" y="0px" width="1000px"
	 height="1000px" viewBox="0 0 1000 1000" style="enable-background:new 0 0 1000 1000;" xml:space="preserve">
<style type="text/css">
	.st0{display:none;}
	.st1{display:inline;}
	.st2{fill:#FFFFFF;}
	.st3{fill:#FFFFFF;stroke:#000000;stroke-width:1.45;stroke-linejoin:bevel;}
	.st4{display:inline;fill:none;stroke:#C1272D;stroke-miterlimit:10;}
	.st5{display:inline;fill:#ED1C24;}
	.st6{display:inline;fill:#FFFFFF;}
	.st7{display:inline;fill:none;stroke:#ED1C24;stroke-miterlimit:10;}
	.st8{fill:#ED1C24;}
	.st9{fill-rule:evenodd;clip-rule:evenodd;}
	.st10{fill:#231F20;}
</style>
<g id="Layer_2" class="st0">
</g>
<g id="Layer_1">
	<path d="M483.4,387.1l100.7,138.2L483.7,663.7L321,611l-0.2-171L483.4,387.1z M567.7,919.5c-22.6,3.7-45.5,5.5-68.2,5.5
		c-209.4,0-385.6-150.2-419-357.3C43.1,336.4,200.9,117.8,432.2,80.5c22.6-3.7,45.5-5.5,68.2-5.5c209.4,0,385.6,150.2,419.1,357.3
		C956.9,663.5,799.1,882.1,567.7,919.5z M846.2,584.1l-63.3,35.3l-87-113.9l71.1-139.5l68.8,14.2c-30.5-86.4-92.5-155.9-171.4-196.7
		l13.3,60l-162.6,35.8l-90-90.1l34.9-43c-5.5,0.6-11.1,1.1-16.6,2c-66,10.7-124.6,39.2-172.3,79.5L247.4,387L147.3,450
		c-4.9,34.6-4.8,70.5,1.1,106.8c2.7,16.6,6.8,32.5,11.5,48.1l98.7,40.6l52,156.5c38.5,24.1,81.7,41.1,128.1,49l79.4-96.7l161.3-26.1
		l14.4,70.5C769.7,749.3,824.6,672.3,846.2,584.1z"/>
</g>
</svg>
