<?xml version="1.0" encoding="iso-8859-1"?>
<!-- Generator: Adobe Illustrator 18.1.0, SVG Export Plug-In . SVG Version: 6.00 Build 0)  -->
<!DOCTYPE svg PUBLIC "-//W3C//DTD SVG 1.1//EN" "http://www.w3.org/Graphics/SVG/1.1/DTD/svg11.dtd">
<svg version="1.1" id="Layer_1" xmlns="http://www.w3.org/2000/svg" xmlns:xlink="http://www.w3.org/1999/xlink" x="0px" y="0px"
	 width="1000px" height="1000px" viewBox="0 0 1000 1000" style="enable-background:new 0 0 1000 1000;" xml:space="preserve">
<style type="text/css">
	.st0{fill-rule:evenodd;clip-rule:evenodd;}
	.st1{fill:none;}
</style>
<path d="M920.7,340.7v315.2c0,36.6-29.6,66.2-66.2,66.2H539.9L287,965l17-242.9H145.5c-36.6,0-66.2-29.6-66.2-66.2V443.2l89.8,0.3
	c5,32.2,32.6,57,66.3,57c19.2,0,36.5-8.2,48.8-21.1l170.1,87.2c0,0.4-0.1,0.8-0.1,1.2c0,37.2,30.1,67.3,67.3,67.3
	s67.3-30.1,67.3-67.3c0-12-3.4-23-8.8-32.7l125.6-145.4c10.1,6.1,21.9,9.9,34.6,9.9c34.3,0,62.3-25.7,66.5-58.9H920.7z M172.4,409.9
	c9.5-25.6,34-44,62.9-44c37.2,0,67.3,30.1,67.3,67.3c0,5.8-1,11.3-2.3,16.7l163.4,83.8c11.7-19.8,33.1-33.1,57.7-33.1
	c12.9,0,24.9,3.8,35.1,10.1L682,365.5c-5.6-9.8-9.1-21.1-9.1-33.2c0-37.2,30.1-67.3,67.3-67.3c28.2,0,52.3,17.4,62.3,42.1h118.2
	V181.2c0-36.6-29.6-66.2-66.2-66.2H145.5c-36.6,0-66.2,29.6-66.2,66.2v228.3L172.4,409.9z"/>
</svg>
