<?xml version="1.0" encoding="iso-8859-1"?>
<!-- Generator: Adobe Illustrator 18.1.0, SVG Export Plug-In . SVG Version: 6.00 Build 0)  -->
<!DOCTYPE svg PUBLIC "-//W3C//DTD SVG 1.1//EN" "http://www.w3.org/Graphics/SVG/1.1/DTD/svg11.dtd">
<svg version="1.1" xmlns="http://www.w3.org/2000/svg" xmlns:xlink="http://www.w3.org/1999/xlink" x="0px" y="0px" width="1000px"
	 height="1000px" viewBox="0 0 1000 1000" style="enable-background:new 0 0 1000 1000;" xml:space="preserve">
<style type="text/css">
	.st0{display:none;}
	.st1{display:inline;}
	.st2{fill:#FFFFFF;}
	.st3{fill:#FFFFFF;stroke:#000000;stroke-width:1.45;stroke-linejoin:bevel;}
	.st4{display:inline;fill:none;stroke:#C1272D;stroke-miterlimit:10;}
	.st5{display:inline;fill:#ED1C24;}
	.st6{display:inline;fill:#FFFFFF;}
	.st7{display:inline;fill:none;stroke:#ED1C24;stroke-miterlimit:10;}
	.st8{fill:#ED1C24;}
	.st9{fill-rule:evenodd;clip-rule:evenodd;}
	.st10{fill:#231F20;}
</style>
<g id="Layer_2" class="st0">
</g>
<g id="Layer_1">
	<path d="M871.6,281l-81.2-81.2c-8.7-8.7-22.9-8.7-31.6,0c-8.7,8.7-8.7,22.9,0,31.6l16.9,16.9L726,297.9
		c-53.9-45-121.3-74.2-195.2-80.8v-97.4h47.9c12.4,0,22.4-10,22.4-22.4S591.1,75,578.8,75H422.2c-12.4,0-22.4,10-22.4,22.4
		s10,22.4,22.4,22.4h44.7v97.4c-73.9,6.6-141.4,35.9-195.2,80.8L222,248.3l19.1-19.1c8.7-8.7,8.7-22.9,0-31.6
		c-8.7-8.7-22.9-8.7-31.6,0l-81.2,81.2c-8.7,8.7-8.7,22.9,0,31.6c4.4,4.4,10.1,6.6,15.8,6.6c5.7,0,11.4-2.2,15.8-6.6l16.9-16.9
		l49.7,49.7c-51.4,61.5-82.3,140.7-82.3,227.2C144.2,766.2,303,925,498.9,925s354.7-158.8,354.7-354.7c0-86.4-31-165.6-82.3-227.2
		l49.7-49.7l19.1,19.1c4.4,4.4,10.1,6.6,15.8,6.6c5.7,0,11.4-2.2,15.8-6.6C880.4,303.9,880.4,289.7,871.6,281z M658.9,730.3
		c-6.2,6.2-14.4,9.4-22.6,9.4s-16.4-3.1-22.6-9.4L466.9,583.5V330.6c0-17.7,14.3-32,32-32c17.6,0,32,14.3,32,32v226.4l128,128.1
		C671.4,697.6,671.4,717.8,658.9,730.3z"/>
</g>
</svg>
