<?xml version="1.0" encoding="iso-8859-1"?>
<!-- Generator: Adobe Illustrator 18.1.0, SVG Export Plug-In . SVG Version: 6.00 Build 0)  -->
<!DOCTYPE svg PUBLIC "-//W3C//DTD SVG 1.1//EN" "http://www.w3.org/Graphics/SVG/1.1/DTD/svg11.dtd">
<svg version="1.1" xmlns="http://www.w3.org/2000/svg" xmlns:xlink="http://www.w3.org/1999/xlink" x="0px" y="0px" width="1071px"
	 height="1000px" viewBox="0 0 1071 1000" style="enable-background:new 0 0 1071 1000;" xml:space="preserve">
<style type="text/css">
	.st0{display:none;}
	.st1{display:inline;}
	.st2{fill:#FFFFFF;}
	.st3{fill:#FFFFFF;stroke:#000000;stroke-width:1.45;stroke-linejoin:bevel;}
	.st4{display:inline;fill:none;stroke:#C1272D;stroke-miterlimit:10;}
	.st5{display:inline;fill:#ED1C24;}
	.st6{display:inline;fill:#FFFFFF;}
	.st7{display:inline;fill:none;stroke:#ED1C24;stroke-miterlimit:10;}
	.st8{fill:#ED1C24;}
	.st9{fill-rule:evenodd;clip-rule:evenodd;}
	.st10{fill:#231F20;}
</style>
<g id="Layer_2" class="st0">
</g>
<g id="Layer_1">
	<path d="M995.8,166.9v663.6c0,12.9-9.1,24-21.7,26.5l-433.2,67.5c-1.8,0.3-3.6,0.5-5.4,0.5s-3.6-0.2-5.4-0.5L96.9,857
		c-12.6-2.6-21.7-13.7-21.7-26.5V166.9c0-8.1,3.7-15.8,9.9-21c6.3-5.1,14.7-7.1,22.5-5.6l29.7,6v603.9c0,33,22.3,62.1,54.1,70.7
		l325,67.5c6.6,1.7,12.8,2.5,19.1,2.5s12.5-0.8,18.7-2.4l325.4-67.6c31.9-8.6,54.2-37.7,54.2-70.7V146.3l29.7-6
		c7.8-1.5,16.2,0.4,22.5,5.6C992.2,151.1,995.8,158.8,995.8,166.9z M562.6,858.6l304.9-82.2c11.8-3.2,20-13.9,20-26.2V102.1
		c0-8.4-3.9-16.4-10.6-21.5c-4.8-3.7-10.7-5.6-16.5-5.6c-2.3,0-4.7,0.3-7,0.9l-290.8,78.4V858.6z M203.5,776.4l304.9,82.2V154.3
		L217.6,75.9c-2.3-0.6-4.6-0.9-7-0.9c-5.9,0-11.7,1.9-16.5,5.6c-6.7,5.1-10.6,13.1-10.6,21.5v648.2
		C183.5,762.5,191.7,773.2,203.5,776.4z"/>
</g>
</svg>
