<?xml version="1.0" encoding="iso-8859-1"?>
<!-- Generator: Adobe Illustrator 18.1.0, SVG Export Plug-In . SVG Version: 6.00 Build 0)  -->
<!DOCTYPE svg PUBLIC "-//W3C//DTD SVG 1.1//EN" "http://www.w3.org/Graphics/SVG/1.1/DTD/svg11.dtd">
<svg version="1.1" xmlns="http://www.w3.org/2000/svg" xmlns:xlink="http://www.w3.org/1999/xlink" x="0px" y="0px" width="1000px"
	 height="1000px" viewBox="0 0 1000 1000" style="enable-background:new 0 0 1000 1000;" xml:space="preserve">
<style type="text/css">
	.st0{display:none;}
	.st1{display:inline;}
	.st2{fill:#FFFFFF;}
	.st3{fill:#FFFFFF;stroke:#000000;stroke-width:1.45;stroke-linejoin:bevel;}
	.st4{display:inline;fill:none;stroke:#C1272D;stroke-miterlimit:10;}
	.st5{display:inline;fill:#ED1C24;}
	.st6{display:inline;fill:#FFFFFF;}
	.st7{display:inline;fill:none;stroke:#ED1C24;stroke-miterlimit:10;}
	.st8{fill:#ED1C24;}
	.st9{fill-rule:evenodd;clip-rule:evenodd;}
	.st10{fill:#231F20;}
</style>
<g id="Layer_2" class="st0">
</g>
<g id="Layer_1">
	<path d="M591.7,503L432.6,75H318.9L91.1,683.4h110.3L254,528.5h239.3l18.7,53L591.7,503z M280.3,446.2l83.6-242.7
		c3-9.3,5.9-22.1,8.5-38.2h1.7c3,17.4,5.5,30.1,8.1,38.2l84.4,242.7H280.3z M735.1,444.1c7.2-7.3,18.9-7.3,26.2,0l86.2,86.2
		c7.1,7.2,7.1,19,0,26.1L571.7,832.1c-7.2,7.2-18.9,7.2-26.1,0l-86.1-86.2c-7.3-7.2-7.3-19,0-26.2L735.1,444.1z M391.8,899.7
		c49.2,49.3,97.8,11.4,97.8,11.4c8-6.3,20.3-17.2,27.4-24.2c7.1-7.1,7-18.8-0.2-26l-86.1-86.1c-7.2-7.2-18.9-7.3-25.9-0.3
		c-7.1,7.1-18,19.4-24.3,27.5C380.5,801.9,342.6,850.5,391.8,899.7 M837.1,398.3c-9.9,2.5-12,10.4-4.8,17.5l44.2,44.1
		c7.2,7.2,15.1,5,17.6-4.8l14.4-57.7c2.4-9.9-3.7-16-13.5-13.5L837.1,398.3z"/>
</g>
</svg>
