<?xml version="1.0" encoding="iso-8859-1"?>
<!-- Generator: Adobe Illustrator 18.1.0, SVG Export Plug-In . SVG Version: 6.00 Build 0)  -->
<!DOCTYPE svg PUBLIC "-//W3C//DTD SVG 1.1//EN" "http://www.w3.org/Graphics/SVG/1.1/DTD/svg11.dtd">
<svg version="1.1" id="Layer_1" xmlns="http://www.w3.org/2000/svg" xmlns:xlink="http://www.w3.org/1999/xlink" x="0px" y="0px"
	 width="1000px" height="1000px" viewBox="0 0 1000 1000" style="enable-background:new 0 0 1000 1000;" xml:space="preserve">
<style type="text/css">
	.st0{fill-rule:evenodd;clip-rule:evenodd;}
	.st1{fill:none;}
</style>
<path d="M925,616.2v172.7c0,16.2-16.3,32.1-32.5,32.1H107.8C91.5,821,75,805.1,75,788.9V616.2l185.8-326.9
	c4.1-5.6,12.2-9.6,17.2-11.1v143.4L189.1,619h151.3c10.1,0,19,5.3,24.4,13l39.5,74H596l39.5-74c5.3-7.8,14.4-13,24.6-13h151.7
	L722,421.1V278.2c7,1.7,14.9,6.1,19,12.2L925,616.2z M543,181h-86v287.6l-122-130v106.3l165.5,173.4l164.5-173V339.6l-122,129V181"
	/>
</svg>
