<?xml version="1.0" encoding="iso-8859-1"?>
<!-- Generator: Adobe Illustrator 18.1.0, SVG Export Plug-In . SVG Version: 6.00 Build 0)  -->
<!DOCTYPE svg PUBLIC "-//W3C//DTD SVG 1.1//EN" "http://www.w3.org/Graphics/SVG/1.1/DTD/svg11.dtd">
<svg version="1.1" xmlns="http://www.w3.org/2000/svg" xmlns:xlink="http://www.w3.org/1999/xlink" x="0px" y="0px" width="1000px"
	 height="1000px" viewBox="0 0 1000 1000" style="enable-background:new 0 0 1000 1000;" xml:space="preserve">
<style type="text/css">
	.st0{display:none;}
	.st1{display:inline;}
	.st2{fill:#FFFFFF;}
	.st3{fill:#FFFFFF;stroke:#000000;stroke-width:1.45;stroke-linejoin:bevel;}
	.st4{display:inline;fill:none;stroke:#C1272D;stroke-miterlimit:10;}
	.st5{display:inline;fill:#ED1C24;}
	.st6{display:inline;fill:#FFFFFF;}
	.st7{display:inline;fill:none;stroke:#ED1C24;stroke-miterlimit:10;}
	.st8{fill:#ED1C24;}
	.st9{fill-rule:evenodd;clip-rule:evenodd;}
	.st10{fill:#231F20;}
</style>
<g id="Layer_2" class="st0">
</g>
<g id="Layer_1">
	<path d="M800.5,199.5L581.3,303.7L500,75l-81.3,228.7L199.5,199.5l104.2,219.2L75,500l228.7,81.3L199.5,800.5l219.2-104.2L500,925
		l81.3-228.7l219.2,104.2L696.3,581.3L925,500l-228.7-81.3L800.5,199.5z M581.3,696.3c-108.4,44.9-232.8-6.6-277.7-115
		c-44.9-108.4,6.6-232.8,115-277.7s232.8,6.6,277.7,115C741.3,527.1,689.7,651.4,581.3,696.3z M500,331.3
		c93.1,0,168.7,75.5,168.7,168.7S593.1,668.7,500,668.7S331.3,593.2,331.3,500S406.9,331.3,500,331.3z"/>
</g>
</svg>
