<?xml version="1.0" encoding="iso-8859-1"?>
<!-- Generator: Adobe Illustrator 18.1.1, SVG Export Plug-In . SVG Version: 6.00 Build 0)  -->
<!DOCTYPE svg PUBLIC "-//W3C//DTD SVG 1.1//EN" "http://www.w3.org/Graphics/SVG/1.1/DTD/svg11.dtd">
<svg version="1.1" xmlns="http://www.w3.org/2000/svg" xmlns:xlink="http://www.w3.org/1999/xlink" x="0px" y="0px" width="1000px"
	 height="1000px" viewBox="0 0 1000 1000" style="enable-background:new 0 0 1000 1000;" xml:space="preserve">
<style type="text/css">
	.st0{display:none;}
	.st1{display:inline;}
	.st2{fill:#FFFFFF;}
	.st3{fill:#FFFFFF;stroke:#000000;stroke-width:1.45;stroke-linejoin:bevel;}
	.st4{display:inline;fill:none;stroke:#C1272D;stroke-miterlimit:10;}
	.st5{display:inline;fill:#ED1C24;}
	.st6{display:inline;fill:#FFFFFF;}
	.st7{display:inline;fill:none;stroke:#ED1C24;stroke-miterlimit:10;}
	.st8{fill:#ED1C24;}
	.st9{fill-rule:evenodd;clip-rule:evenodd;}
	.st10{fill:#FFFFFF;stroke:#231F20;stroke-width:3;stroke-miterlimit:10;}
	.st11{fill:none;stroke:#231F20;stroke-width:3;stroke-miterlimit:10;}
	.st12{fill:#231F20;}
	.st13{fill:none;stroke:#FFFFFF;stroke-width:3;stroke-miterlimit:10;}
	.st14{fill:#FFFFFF;stroke:#231F20;stroke-width:3;stroke-linejoin:round;stroke-miterlimit:10;}
	.st15{fill:none;stroke:#231F20;stroke-width:3;stroke-linejoin:round;stroke-miterlimit:10;}
	.st16{fill:none;stroke:#000000;stroke-miterlimit:10;}
</style>
<g id="Layer_2" class="st0">
</g>
<g id="Layer_1">
	<path d="M696.3,418.7L696.3,418.7C696.3,418.7,696.4,418.7,696.3,418.7L696.3,418.7z M709,538.5h107.7L925,500l-228.6-81.3
		C712.7,458.1,716.2,499.5,709,538.5z M418.7,303.7C418.7,303.7,418.7,303.7,418.7,303.7L418.7,303.7L418.7,303.7z M696.3,418.7
		C696.3,418.7,696.3,418.7,696.3,418.7l104.2-219.2L581.3,303.7L500,75l-81.3,228.7C527.1,258.8,651.4,310.2,696.3,418.7z
		 M535.8,709.5c-95.7,16.4-193.4-34.7-232.1-128.2L199.5,800.5l219.2-104.2L500,925l35.7-100.3L535.8,709.5z M500,331.3
		c-93.1,0-168.7,75.5-168.7,168.7c0,93.1,75.5,168.7,168.7,168.7S668.7,593.2,668.7,500C668.7,406.9,593.1,331.3,500,331.3z
		 M418.7,303.7C418.7,303.7,418.7,303.7,418.7,303.7L199.5,199.5l104.2,219.2L75,500l228.6,81.3c0,0,0,0,0,0
		C258.7,472.9,310.3,348.6,418.7,303.7z M303.6,581.3C303.6,581.3,303.7,581.3,303.6,581.3L303.6,581.3L303.6,581.3z M794,796.7h131
		l-0.1-82.3H794V583.5h-82.3v130.9H580.8l-0.1,82.3h131.1l-0.1,131H794V796.7z"/>
</g>
</svg>
