<?xml version="1.0" encoding="iso-8859-1"?>
<!-- Generator: Adobe Illustrator 18.1.1, SVG Export Plug-In . SVG Version: 6.00 Build 0)  -->
<!DOCTYPE svg PUBLIC "-//W3C//DTD SVG 1.1//EN" "http://www.w3.org/Graphics/SVG/1.1/DTD/svg11.dtd">
<svg version="1.1" xmlns="http://www.w3.org/2000/svg" xmlns:xlink="http://www.w3.org/1999/xlink" x="0px" y="0px" width="1000px"
	 height="1000px" viewBox="0 0 1000 1000" style="enable-background:new 0 0 1000 1000;" xml:space="preserve">
<style type="text/css">
	.st0{display:none;}
	.st1{display:inline;}
	.st2{fill:#FFFFFF;}
	.st3{fill:#FFFFFF;stroke:#000000;stroke-width:1.45;stroke-linejoin:bevel;}
	.st4{display:inline;fill:none;stroke:#C1272D;stroke-miterlimit:10;}
	.st5{display:inline;fill:#ED1C24;}
	.st6{display:inline;fill:#FFFFFF;}
	.st7{display:inline;fill:none;stroke:#ED1C24;stroke-miterlimit:10;}
	.st8{fill:#ED1C24;}
	.st9{fill-rule:evenodd;clip-rule:evenodd;}
	.st10{fill:#FFFFFF;stroke:#231F20;stroke-width:3;stroke-miterlimit:10;}
	.st11{fill:none;stroke:#231F20;stroke-width:3;stroke-miterlimit:10;}
	.st12{fill:#231F20;}
	.st13{fill:none;stroke:#FFFFFF;stroke-width:3;stroke-miterlimit:10;}
	.st14{fill:#FFFFFF;stroke:#231F20;stroke-width:3;stroke-linejoin:round;stroke-miterlimit:10;}
	.st15{fill:none;stroke:#231F20;stroke-width:3;stroke-linejoin:round;stroke-miterlimit:10;}
	.st16{fill:none;stroke:#000000;stroke-miterlimit:10;}
</style>
<g id="Layer_2" class="st0">
</g>
<g id="Layer_1">
	<g>
		<path d="M690.5,637.5c16.5-41.9,55.2-67.8,99.8-69.6c43-1.8,91.4,11.2,113.8,51.4c22,39.6,9,88-24.6,115.9
			c-16.2,13.4-37.8,23.5-46.8,43.8c-4.8,10.8-4,21.7-4,33.2h-64.1v-21.4c1.7-19.5,6.9-38,19.5-53.4c13.3-16.4,32.5-26,45.8-42.2
			c27.2-33,1.5-80.8-41.6-71c-17.9,4.1-29.8,19.4-34.3,36.5c-0.6,2.3-3.4,23.7-2.8,23.7c-0.6,0-69.3,0-69.3,0
			C682.4,668.4,685.4,652.7,690.5,637.5z M418.7,303.7C418.7,303.7,418.7,303.7,418.7,303.7L418.7,303.7L418.7,303.7z M696.3,418.7
			C696.3,418.7,696.3,418.7,696.3,418.7l104.2-219.2L581.3,303.7L500,75l-81.3,228.7C527.1,258.8,651.4,310.2,696.3,418.7z
			 M706.8,548.9c23.5-15.5,51.4-24.7,81.7-26c3.2-0.1,6.4-0.2,9.5-0.2c16.6,0,32.8,1.8,48,5.4l79-28.1l-228.6-81.3
			C714.1,461.6,716.8,506.9,706.8,548.9z M696.4,418.7C696.4,418.7,696.3,418.7,696.4,418.7L696.4,418.7L696.4,418.7z M418.7,303.7
			C418.7,303.7,418.7,303.7,418.7,303.7L199.5,199.5l104.2,219.2L75,500l228.6,81.3c0,0,0,0,0,0
			C258.7,472.9,310.3,348.6,418.7,303.7z M636.9,683c0.2-7.3,0.9-14.7,1.9-22c-16.7,14.4-36,26.5-57.5,35.4c0,0,0,0,0,0l54.4,25.8
			L636.9,683z M500,331.3c-93.1,0-168.7,75.5-168.7,168.7c0,93.1,75.5,168.7,168.7,168.7S668.7,593.2,668.7,500
			C668.7,406.9,593.1,331.3,500,331.3z M303.7,581.3L199.5,800.5l219.2-104.2L500,925l81.3-228.7
			C472.9,741.2,348.6,689.8,303.7,581.3z M581.3,696.3L581.3,696.3C581.3,696.3,581.3,696.3,581.3,696.3L581.3,696.3z M303.6,581.3
			C303.6,581.3,303.7,581.3,303.6,581.3L303.6,581.3L303.6,581.3z M841,882.2c0,23.6-19.2,42.8-42.8,42.8
			c-23.6,0-42.8-19.2-42.8-42.8c0-23.6,19.2-42.8,42.8-42.8C821.8,839.4,841,858.5,841,882.2z"/>
	</g>
</g>
</svg>
