<?xml version="1.0" encoding="iso-8859-1"?>
<!-- Generator: Adobe Illustrator 18.1.0, SVG Export Plug-In . SVG Version: 6.00 Build 0)  -->
<!DOCTYPE svg PUBLIC "-//W3C//DTD SVG 1.1//EN" "http://www.w3.org/Graphics/SVG/1.1/DTD/svg11.dtd">
<svg version="1.1" xmlns="http://www.w3.org/2000/svg" xmlns:xlink="http://www.w3.org/1999/xlink" x="0px" y="0px" width="1000px"
	 height="1000px" viewBox="0 0 1000 1000" style="enable-background:new 0 0 1000 1000;" xml:space="preserve">
<style type="text/css">
	.st0{display:none;}
	.st1{display:inline;}
	.st2{fill:#FFFFFF;}
	.st3{fill:#FFFFFF;stroke:#000000;stroke-width:1.45;stroke-linejoin:bevel;}
	.st4{display:inline;fill:none;stroke:#C1272D;stroke-miterlimit:10;}
	.st5{display:inline;fill:#ED1C24;}
	.st6{display:inline;fill:#FFFFFF;}
	.st7{display:inline;fill:none;stroke:#ED1C24;stroke-miterlimit:10;}
	.st8{fill:#ED1C24;}
	.st9{fill-rule:evenodd;clip-rule:evenodd;}
	.st10{fill:#231F20;}
</style>
<g id="Layer_2" class="st0">
</g>
<g id="Layer_1">
	<path d="M704.6,647.7c-14.4-19.9-42.4-24.4-62.4-10.1l-68.1,49.1c-23.5,17-56.7,11.6-73.6-11.8L320.8,425.8
		c-17-23.7-11.8-56.9,11.9-73.9l68-49.1c19.9-14.4,24.3-42.5,10-62.4L304.8,93.4c-14.4-19.9-42.4-24.4-62.3-10l-34.8,24.9
		C92,191.9,91.1,354.7,165.2,492.9c0,0,18.2,51.2,88.6,148.8c70.4,97.5,133.8,159.7,133.8,159.7C495.1,921,650.2,965.7,766,882
		l34.7-25c19.9-14.4,24.5-42.4,10.1-62.3L704.6,647.7z M575.3,171.5c22.9-57.9,76.3-93.7,138.1-96.3c59.4-2.5,126.4,15.5,157.3,71.1
		c30.4,54.7,12.5,121.6-33.9,160.2c-22.4,18.6-52.3,32.4-64.8,60.5c-6.6,15-5.6,30-5.6,45.8h-88.6v-29.5
		c2.3-26.9,9.6-52.5,26.9-73.8c18.4-22.6,44.9-36,63.3-58.3c37.6-45.7,2-111.7-57.5-98.2c-24.8,5.6-41.2,26.9-47.4,50.5
		c-0.8,3.2-4.7,32.8-3.8,32.8c-0.9,0-95.8,0-95.8,0C564.1,214.2,568.3,192.5,575.3,171.5z M783.3,509.8c0,32.7-26.5,59.2-59.2,59.2
		c-32.7,0-59.2-26.5-59.2-59.2c0-32.7,26.5-59.2,59.2-59.2C756.8,450.6,783.3,477.1,783.3,509.8z"/>
</g>
</svg>
