<?xml version="1.0" encoding="utf-8"?>
<!-- Generator: Adobe Illustrator 18.1.1, SVG Export Plug-In . SVG Version: 6.00 Build 0)  -->
<!DOCTYPE svg PUBLIC "-//W3C//DTD SVG 1.1//EN" "http://www.w3.org/Graphics/SVG/1.1/DTD/svg11.dtd">
<svg version="1.1" xmlns="http://www.w3.org/2000/svg" xmlns:xlink="http://www.w3.org/1999/xlink" x="0px" y="0px" width="1050px"
	 height="1000px" viewBox="0 0 1050 1000" style="enable-background:new 0 0 1050 1000;" xml:space="preserve">
<style type="text/css">
	.st0{fill:#101010;}
	.st1{fill:#FFFFFF;}
	.st2{fill:none;stroke:#000000;stroke-miterlimit:10;}
</style>
<g id="Layer_2">
</g>
<g id="Layer_1">
	<path d="M587.6,75v850L76,836.7V166.1L587.6,75z M401.5,516.5c-16-22-52.9-44.2-69.9-54.9c-17-10.7-26.8-25-26.8-42.6
		c0-17.6,10.5-36.5,45.5-36.5s57.6,22.2,57.6,22.2v-74.7c0,0-65.3-23.4-111.6,1.7c-50.4,27.3-53.6,75.3-53.6,95.5
		c0,20.2,5.7,46.3,20.7,64.7c15,18.4,45.2,38.3,73.8,59.2c22.5,16.4,24.2,68-21.2,68c-45.4,0-72.3-38.8-72.3-38.8v76.7
		c61.1,39.4,136.1,28.6,162.7-18.5C432.8,591.5,417.5,538.5,401.5,516.5z M635,574.5h129v36.4H635v36.2h129v36.4H635v36.1h129V756
		H635v71.7h302.6c20,0,36.4-16.2,36.4-36.4V519.7H635V574.5z M802.4,574.5h135v36.4h-135V574.5z M802.4,647.1h135v36.4h-135V647.1z
		 M802.4,719.6h135V756h-135V719.6z M937.6,172.3H635v275.9l79.9-110.7c2.2-2.5,7.3-9.5,20-9.5c12.6,0,20.8,8.9,20.8,8.9L864,475.1
		l-43-94.3l12-16.6c1.8-2.2,6.2-8,17.1-8c10.7,0,17.7,7.5,17.7,7.5L974,499.5V208.7C974,188.7,957.6,172.3,937.6,172.3z
		 M901.7,304.6c-21.8,0-39.7-17.8-39.7-39.7s17.8-39.5,39.7-39.5s39.5,17.7,39.5,39.5S923.6,304.6,901.7,304.6z"/>
</g>
</svg>
