<?xml version="1.0" encoding="iso-8859-1"?>
<!-- Generator: Adobe Illustrator 18.1.0, SVG Export Plug-In . SVG Version: 6.00 Build 0)  -->
<!DOCTYPE svg PUBLIC "-//W3C//DTD SVG 1.1//EN" "http://www.w3.org/Graphics/SVG/1.1/DTD/svg11.dtd">
<svg version="1.1" id="Layer_1" xmlns="http://www.w3.org/2000/svg" xmlns:xlink="http://www.w3.org/1999/xlink" x="0px" y="0px"
	 width="1000px" height="1000px" viewBox="0 0 1000 1000" style="enable-background:new 0 0 1000 1000;" xml:space="preserve">
<style type="text/css">
	.st0{fill-rule:evenodd;clip-rule:evenodd;}
</style>
<path d="M181.8,432.8c-6.6-7.1-6.2-18.3,0.9-25l71.8-66.7c3.3-3,7.5-4.7,12-4.7c5,0,9.6,2,13,5.6l197.1,212.3L815.8,118
	c3.3-4.2,8.4-6.7,13.9-6.7c4,0,7.7,1.3,10.9,3.8l77.4,60.1c3.6,2.9,6,7.1,6.7,11.8c0.6,4.7-0.7,9.3-3.6,12.9L485.5,760.1
	L181.8,432.8z M840.8,427.1v462.8h-766V122.1h639.9l-48.5,64H138.8V826h638.6V507.2L840.8,427.1z"/>
</svg>
