<?xml version="1.0" encoding="iso-8859-1"?>
<!-- Generator: Adobe Illustrator 18.1.0, SVG Export Plug-In . SVG Version: 6.00 Build 0)  -->
<!DOCTYPE svg PUBLIC "-//W3C//DTD SVG 1.1//EN" "http://www.w3.org/Graphics/SVG/1.1/DTD/svg11.dtd">
<svg version="1.1" id="Layer_1" xmlns="http://www.w3.org/2000/svg" xmlns:xlink="http://www.w3.org/1999/xlink" x="0px" y="0px"
	 width="1000px" height="1000px" viewBox="0 0 1000 1000" style="enable-background:new 0 0 1000 1000;" xml:space="preserve">
<style type="text/css">
	.st0{fill-rule:evenodd;clip-rule:evenodd;}
</style>
<path d="M648.9,714.9h-73.1c23.3-120.4,126.3-180.8,228.3-161.1c34.6,6.7,65.9,22.7,91.2,45.7l0-84.6l49.6,47.2l0,136.2l-136.2,0.1
	l-50.1-49.2l91.7,0.2c-16.4-15-36.3-26-58.8-30.4C725.9,606.5,662.1,649.4,648.9,714.9z M739.2,861c-22.5-4.4-42.4-15.4-58.8-30.4
	l91.7,0.2L722,781.7l-136.2,0.1l0,136.2l49.6,47.2l0-84.6c25.3,23.1,56.6,39,91.2,45.7c102,19.8,205-40.6,228.3-161.1h-73.1
	C868.7,830.9,804.9,873.7,739.2,861z M706.6,442.8V485c16.9-3.9,34.4-6.1,52.4-6.6V376.5L706.6,442.8z M294.7,306.1
	c-2.8-3-6.6-4.6-10.7-4.6c-3.7,0-7.2,1.3-9.9,3.9l-59.4,55.1c-5.9,5.5-6.2,14.8-0.8,20.7l251.2,270.7l360.3-463.4
	c2.4-3,3.4-6.8,3-10.7c-0.5-3.9-2.5-7.4-5.5-9.8l-64-49.7c-2.6-2-5.7-3.1-9-3.1c-4.6,0-8.8,2.1-11.5,5.6L457.8,481.7L294.7,306.1z
	 M503.6,740.1c0-11.4,0.7-22.7,2.2-33.7H178.3V177.1h436.2l40.1-52.9H125.4v635.1h378.9C503.8,753,503.6,746.6,503.6,740.1z"/>
</svg>
