<?xml version="1.0" encoding="iso-8859-1"?>
<!-- Generator: Adobe Illustrator 18.1.0, SVG Export Plug-In . SVG Version: 6.00 Build 0)  -->
<!DOCTYPE svg PUBLIC "-//W3C//DTD SVG 1.1//EN" "http://www.w3.org/Graphics/SVG/1.1/DTD/svg11.dtd">
<svg version="1.1" xmlns="http://www.w3.org/2000/svg" xmlns:xlink="http://www.w3.org/1999/xlink" x="0px" y="0px" width="1000px"
	 height="1000px" viewBox="0 0 1000 1000" style="enable-background:new 0 0 1000 1000;" xml:space="preserve">
<style type="text/css">
	.st0{display:none;}
	.st1{display:inline;}
	.st2{fill:#FFFFFF;}
	.st3{fill:#FFFFFF;stroke:#000000;stroke-width:1.45;stroke-linejoin:bevel;}
	.st4{display:inline;fill:none;stroke:#C1272D;stroke-miterlimit:10;}
	.st5{display:inline;fill:#ED1C24;}
	.st6{display:inline;fill:#FFFFFF;}
	.st7{display:inline;fill:none;stroke:#ED1C24;stroke-miterlimit:10;}
	.st8{fill:#ED1C24;}
	.st9{fill-rule:evenodd;clip-rule:evenodd;}
	.st10{fill:#231F20;}
</style>
<g id="Layer_2" class="st0">
</g>
<g id="Layer_1">
	<path d="M924.3,215.1v-140h-140v34.8H215V75.1H75v140h33.5V785H75v140h140v-36.6h569.3V925h140V785h-38.1V215.1H924.3z M816.2,785
		h-31.9v33.4H215V785h-36.5V215.1H215v-35.2h569.3v35.2h31.9V785z M455.6,266.2L277,743.2h86.5l41.2-121.4h187.6l42.9,121.4H722
		l-177.3-477H455.6z M425.3,557.3L490.9,367c2.4-7.3,4.7-17.3,6.7-29.9h1.3c2.2,13.8,4.3,23.7,6.3,29.9l66.2,190.3H425.3z"/>
</g>
</svg>
