<?xml version="1.0" encoding="iso-8859-1"?>
<!-- Generator: Adobe Illustrator 18.1.0, SVG Export Plug-In . SVG Version: 6.00 Build 0)  -->
<!DOCTYPE svg PUBLIC "-//W3C//DTD SVG 1.1//EN" "http://www.w3.org/Graphics/SVG/1.1/DTD/svg11.dtd">
<svg version="1.1" xmlns="http://www.w3.org/2000/svg" xmlns:xlink="http://www.w3.org/1999/xlink" x="0px" y="0px" width="1218px"
	 height="1000px" viewBox="0 0 1218 1000" style="enable-background:new 0 0 1218 1000;" xml:space="preserve">
<style type="text/css">
	.st0{display:none;}
	.st1{display:inline;}
	.st2{fill:#FFFFFF;}
	.st3{fill:#FFFFFF;stroke:#000000;stroke-width:1.45;stroke-linejoin:bevel;}
	.st4{display:inline;fill:none;stroke:#C1272D;stroke-miterlimit:10;}
	.st5{display:inline;fill:#ED1C24;}
	.st6{display:inline;fill:#FFFFFF;}
	.st7{display:inline;fill:none;stroke:#ED1C24;stroke-miterlimit:10;}
	.st8{fill:#ED1C24;}
	.st9{fill-rule:evenodd;clip-rule:evenodd;}
	.st10{fill:#231F20;}
</style>
<g id="Layer_2" class="st0">
</g>
<g id="Layer_1">
	<path d="M858.3,676h-288l-50.5,117.4c-12.6,29.1-18.6,50.5-18.6,64.7c0,11.5,5.5,21.4,15.9,30.2c11,8.2,34.6,13.7,70.2,16.4V925
		H353.1v-20.3c31.3-5.5,51-12.6,60.3-21.4c18.7-17.5,39.5-53.2,62-107l261.6-612.2h19.2l258.9,618.7c20.8,49.9,39.5,82.3,56.5,97.1
		c17,14.8,41.1,23,71.3,24.7V925H849.5v-20.3c59.2-2.7,75.7-21.4,75.7-45.5c0-15.9-7.1-41.7-21.9-76.2L858.3,676z M842.9,635.4
		L716.8,334.8L587.3,635.4H842.9z M530.5,490.7L376,75H275.8L75,611.2h97.2l46.4-136.5h210.9l48.2,136.4L530.5,490.7z M241.8,402.2
		l73.7-213.9c2.6-8.2,5.2-19.4,7.5-33.6h1.5c2.6,15.3,4.9,26.5,7.1,33.6l74.4,213.9H241.8z"/>
</g>
</svg>
