<?xml version="1.0" encoding="iso-8859-1"?>
<!-- Generator: Adobe Illustrator 18.1.0, SVG Export Plug-In . SVG Version: 6.00 Build 0)  -->
<!DOCTYPE svg PUBLIC "-//W3C//DTD SVG 1.1//EN" "http://www.w3.org/Graphics/SVG/1.1/DTD/svg11.dtd">
<svg version="1.1" id="Layer_1" xmlns="http://www.w3.org/2000/svg" xmlns:xlink="http://www.w3.org/1999/xlink" x="0px" y="0px"
	 width="1000px" height="1000px" viewBox="0 0 1000 1000" style="enable-background:new 0 0 1000 1000;" xml:space="preserve">
<style type="text/css">
	.st0{fill-rule:evenodd;clip-rule:evenodd;}
</style>
<path d="M701,204.6c0,0,0,314.3,0,367.3c0,53-68.2,113.1-173.9,174.9C452.6,790.4,401,877.4,387.4,921.6
	c-23.1,82.9-91.2,74-95.1,16.3c-3.7-57.6,8-121.1,32.9-154c25-33.1,66.7-100.5,66.7-100.5s-214.6-20.9-290.3-30.9
	c-27.1-3.6-40.5-52.5-21.9-85.5c5.5-9.7,25.6-47.5,29.6-60.5c4.1-13.4,9.9-65.7,14.2-82c10.2-36.9,37.3-56.8,47.6-78.2
	c15.7-32.3,13.7-51.7,30.8-75.5c30.2-42,57.1-85.3,103.9-85.3C394,185.6,662,185.1,701,204.6z M767.1,617.7h154V175.5h-154V617.7z"
	/>
</svg>
