<?xml version="1.0" encoding="iso-8859-1"?>
<!-- Generator: Adobe Illustrator 18.1.0, SVG Export Plug-In . SVG Version: 6.00 Build 0)  -->
<!DOCTYPE svg PUBLIC "-//W3C//DTD SVG 1.1//EN" "http://www.w3.org/Graphics/SVG/1.1/DTD/svg11.dtd">
<svg version="1.1" id="Layer_1" xmlns="http://www.w3.org/2000/svg" xmlns:xlink="http://www.w3.org/1999/xlink" x="0px" y="0px"
	 width="1000px" height="1000px" viewBox="0 0 1000 1000" style="enable-background:new 0 0 1000 1000;" xml:space="preserve">
<style type="text/css">
	.st0{fill-rule:evenodd;clip-rule:evenodd;}
</style>
<path d="M291.2,813.4c0,0,0-314.3,0-367.3c0-53,68.2-113.1,173.9-174.9c74.6-43.6,126.2-130.6,139.7-174.9
	c23.1-82.9,91.2-74,95.1-16.3c3.7,57.6-8,121.1-32.9,154c-25,33.1-66.7,100.5-66.7,100.5s214.6,20.9,290.3,30.9
	c27.1,3.6,40.5,52.5,21.9,85.5c-5.5,9.7-25.6,47.5-29.6,60.5c-4.1,13.4-9.9,65.7-14.2,82c-10.2,36.9-37.3,56.8-47.6,78.2
	c-15.7,32.3-13.7,51.7-30.8,75.5c-30.2,42-57.1,85.3-103.9,85.3C598.3,832.5,330.3,832.9,291.2,813.4z M225.1,400.3h-154v442.2h154
	V400.3z"/>
</svg>
