<?xml version="1.0" encoding="iso-8859-1"?>
<!-- Generator: Adobe Illustrator 18.1.0, SVG Export Plug-In . SVG Version: 6.00 Build 0)  -->
<!DOCTYPE svg PUBLIC "-//W3C//DTD SVG 1.1//EN" "http://www.w3.org/Graphics/SVG/1.1/DTD/svg11.dtd">
<svg version="1.1" id="Layer_1" xmlns="http://www.w3.org/2000/svg" xmlns:xlink="http://www.w3.org/1999/xlink" x="0px" y="0px"
	 width="1000px" height="1000px" viewBox="0 0 1000 1000" style="enable-background:new 0 0 1000 1000;" xml:space="preserve">
<style type="text/css">
	.st0{fill-rule:evenodd;clip-rule:evenodd;}
	.st1{fill:none;}
</style>
<path d="M672.6,75L499.5,247.6L326.9,75H672.6z M294.1,382.7v-76.4c0-17.8,14.4-31.9,32.2-31.9c17.8,0,32.2,14.1,32.2,31.9v76.4
	c0,17.8-14.4,31.9-32.2,31.9C308.5,414.6,294.1,400.5,294.1,382.7z M673.5,414.6c17.8,0,32.2-14.1,32.2-31.9v-76.4
	c0-17.8-14.4-31.9-32.2-31.9c-17.8,0-32.2,14.1-32.2,31.9v76.4C641.3,400.5,655.7,414.6,673.5,414.6z M741,871.2H259V511.2h482
	V871.2z M324.9,441c-32.2,0-58.5-26.1-58.5-58.3V338h-25.1c-16.7,0-30.3,13.6-30.3,30.2v526.5c0,16.5,13.5,30.3,30.3,30.3h517.7
	c16.7,0,30.3-13.8,30.3-30.3V368.2c0-16.6-13.6-30.2-30.3-30.2h-26.6v44.7c0,32.2-26.3,58.3-58.6,58.3h-2.8
	c-32.2,0-58.2-26.1-58.2-58.3V338H386.3v44.7c0,32.2-26.3,58.3-58.6,58.3H324.9z"/>
</svg>
