<?xml version="1.0" encoding="iso-8859-1"?>
<!-- Generator: Adobe Illustrator 18.1.0, SVG Export Plug-In . SVG Version: 6.00 Build 0)  -->
<!DOCTYPE svg PUBLIC "-//W3C//DTD SVG 1.1//EN" "http://www.w3.org/Graphics/SVG/1.1/DTD/svg11.dtd">
<svg version="1.1" id="Layer_1" xmlns="http://www.w3.org/2000/svg" xmlns:xlink="http://www.w3.org/1999/xlink" x="0px" y="0px"
	 width="1000px" height="1000px" viewBox="0 0 1000 1000" style="enable-background:new 0 0 1000 1000;" xml:space="preserve">
<style type="text/css">
	.st0{fill-rule:evenodd;clip-rule:evenodd;}
	.st1{fill:none;}
</style>
<path d="M275.5,258.3C275.5,157.1,357.6,75,458.8,75c101.2,0,183.3,82.1,183.3,183.3c0,64.5-33.4,121.2-83.9,153.9v-62.3
	c22.3-24.2,36.2-56.2,36.2-91.5c0-74.7-60.8-135.6-135.6-135.6c-74.8,0-135.6,60.8-135.6,135.6c0,37,14.9,70.4,39,94.9v60.7
	C310.2,381.5,275.5,324,275.5,258.3z M292.8,571.6c-9.1-8.9-21.8-14.5-35.8-14.5c-27.8,0-50.4,21.9-50.4,49c0,11.4,4,21.9,10.7,30.2
	c0,0,0,0,0,0l192.5,216.2l65.5,72.4h100.4h175.1l42.1-286.4c0.3-2.5,0.5-5,0.5-7.6c0-31.5-25.5-57-56.8-57
	c-14.3,0-27.2,5.2-37.2,13.7c0.2-0.9,0.2-1.7,0.2-2.5c0-31.4-25.5-57-56.8-57c-15.1,0-28.7,5.9-38.9,15.3c-1-30.5-26-55-56.8-55
	c-13.9,0-26.7,5.1-36.5,13.5V268.8c0-27.8-22.6-50.3-50.5-50.3c-27.6,0-50.3,22.4-50.3,50.3V670h0c0,4.2-3.4,7.6-7.6,7.6
	c-2.1,0-4-0.8-5.4-2.2L292.8,571.6C292.8,571.7,292.8,571.6,292.8,571.6z"/>
</svg>
