<?xml version="1.0" encoding="iso-8859-1"?>
<!-- Generator: Adobe Illustrator 18.1.0, SVG Export Plug-In . SVG Version: 6.00 Build 0)  -->
<!DOCTYPE svg PUBLIC "-//W3C//DTD SVG 1.1//EN" "http://www.w3.org/Graphics/SVG/1.1/DTD/svg11.dtd">
<svg version="1.1" id="Layer_1" xmlns="http://www.w3.org/2000/svg" xmlns:xlink="http://www.w3.org/1999/xlink" x="0px" y="0px"
	 width="1000px" height="1000px" viewBox="0 0 1000 1000" style="enable-background:new 0 0 1000 1000;" xml:space="preserve">
<style type="text/css">
	.st0{fill-rule:evenodd;clip-rule:evenodd;}
</style>
<g>
	<g>
		<path d="M830.7,182.2c-0.1,25.2-20.5,45.6-45.7,45.6c0,0,0,0-0.1,0l-571-0.5c-25.2,0-45.7-20.5-45.7-45.7
			c0-25.2,20.4-45.6,45.7-45.6l192.2,0.1c0-13.6,0-25.9,0.1-31.7c0.1-16.9,11.9-30.2,30.5-30.3l125.7,0.5
			c16.7,0,30.5,13.7,30.3,30.5c-0.1,5.7-0.1,17.9,0,31.3l192.2,0.1C810.2,136.5,830.7,157,830.7,182.2z M782.6,285.5v569.7
			c-1.8,37.9-34.5,69-72.4,69H288.8c-37.9,0-70.6-31.1-72.4-69V285.5H782.6z M375,391c0-16.8-13.6-30.4-30.5-30.4l0,0
			c-16.9,0-31,13.6-31,30.4v433.8c0,16.9,13.6,30.5,30.4,30.5c16.8,0,30.5-13.6,30.5-30.4L375,391z M534.5,391
			c0-16.8-13.6-30.4-30.4-30.4c-0.1,0-0.1,0-0.1,0c-16.9,0-30.9,13.6-30.9,30.4v433.8c0,16.9,13.6,30.5,30.4,30.5
			c16.8,0,30.5-13.6,30.5-30.4L534.5,391z M694,391c0-16.8-13.6-30.4-30.4-30.4c-0.1,0-0.1,0-0.1,0c-16.8,0-30.8,13.6-30.8,30.4
			v433.8c0,16.9,13.5,30.5,30.3,30.5c16.8,0,30.6-13.6,30.6-30.4L694,391z"/>
	</g>
</g>
</svg>
