<?xml version="1.0" encoding="iso-8859-1"?>
<!-- Generator: Adobe Illustrator 18.1.0, SVG Export Plug-In . SVG Version: 6.00 Build 0)  -->
<!DOCTYPE svg PUBLIC "-//W3C//DTD SVG 1.1//EN" "http://www.w3.org/Graphics/SVG/1.1/DTD/svg11.dtd">
<svg version="1.1" id="Layer_1" xmlns="http://www.w3.org/2000/svg" xmlns:xlink="http://www.w3.org/1999/xlink" x="0px" y="0px"
	 width="1000px" height="1000px" viewBox="0 0 1000 1000" style="enable-background:new 0 0 1000 1000;" xml:space="preserve">
<style type="text/css">
	.st0{fill-rule:evenodd;clip-rule:evenodd;}
	.st1{fill:none;}
</style>
<path d="M925,616.4v172.8c0,16.3-15.8,31.8-32.1,31.8H107.6C91.3,821,75,805.5,75,789.2V616.4l186.6-327.9c1.5-2,3.3-3.1,5.2-4.6
	l86.4,86.1h-50.4L189,619h151.5c10.1,0,19,5.2,24.4,13l39.6,74h191.8l39.6-74c5.3-7.8,14.4-13,24.6-13h151.8L697.8,370h-50.6
	l86.7-85.9c2.2,1.8,5.1,4.5,6.7,6.8L925,616.4z M611.3,228.8L500.2,339.9L389,228.8l-47.7,47.8l111.1,111L341.3,498.8l47.8,47.8
	l111.2-111.1l111.1,111.1l47.8-47.8L548,387.7l111.1-111.1L611.3,228.8"/>
</svg>
