<?xml version="1.0" encoding="iso-8859-1"?>
<!-- Generator: Adobe Illustrator 18.1.0, SVG Export Plug-In . SVG Version: 6.00 Build 0)  -->
<!DOCTYPE svg PUBLIC "-//W3C//DTD SVG 1.1//EN" "http://www.w3.org/Graphics/SVG/1.1/DTD/svg11.dtd">
<svg version="1.1" xmlns="http://www.w3.org/2000/svg" xmlns:xlink="http://www.w3.org/1999/xlink" x="0px" y="0px" width="1000px"
	 height="1000px" viewBox="0 0 1000 1000" style="enable-background:new 0 0 1000 1000;" xml:space="preserve">
<style type="text/css">
	.st0{display:none;}
	.st1{display:inline;}
	.st2{fill:#FFFFFF;}
	.st3{fill:#FFFFFF;stroke:#000000;stroke-width:1.45;stroke-linejoin:bevel;}
	.st4{display:inline;fill:none;stroke:#C1272D;stroke-miterlimit:10;}
	.st5{display:inline;fill:#ED1C24;}
	.st6{display:inline;fill:#FFFFFF;}
	.st7{display:inline;fill:none;stroke:#ED1C24;stroke-miterlimit:10;}
	.st8{fill:#ED1C24;}
	.st9{fill-rule:evenodd;clip-rule:evenodd;}
	.st10{fill:#231F20;}
</style>
<g id="Layer_2" class="st0">
</g>
<g id="Layer_1">
	<path d="M925,426.5l-0.5,378.8c0,18.6-11.7,23.9-25.8,11.9l-86.8-74.3c-6.1-5.1-11.3-12.9-15.7-21.2h-38.5v75.3
		c0,20.4-16.7,36.9-37.1,36.7l-530,0.5c-20.3-0.2-37-17-37-37.4V467.3c0-20.5,16.7-37.1,37.1-37.1h529.9c20.4,0,37.1,16.6,37.1,37.1
		V510h39.2c4.2-7.7,9.2-15,14.9-19.9l87.5-75.4C913.5,402.5,925,407.8,925,426.5 M104.7,446.2c-16.4,0-29.7,13.4-29.7,29.7v121.5
		c0,16.5,13.3,29.8,29.7,29.8c16.5,0,29.8-13.3,29.8-29.8V475.9C134.5,459.6,121.2,446.2,104.7,446.2 M583.5,415.8
		c69.1,0,125.1-56,125.1-125c0-69.1-56-125-125.1-125c-68.9,0-124.9,55.9-124.9,125C458.6,359.8,514.5,415.8,583.5,415.8
		 M315.4,415.8c69,0,124.9-56,124.9-125c0-69.1-55.9-125-124.9-125c-69.1,0-125.1,55.9-125.1,125
		C190.4,359.8,246.3,415.8,315.4,415.8"/>
</g>
</svg>
