<?xml version="1.0" encoding="iso-8859-1"?>
<!-- Generator: Adobe Illustrator 18.1.0, SVG Export Plug-In . SVG Version: 6.00 Build 0)  -->
<!DOCTYPE svg PUBLIC "-//W3C//DTD SVG 1.1//EN" "http://www.w3.org/Graphics/SVG/1.1/DTD/svg11.dtd">
<svg version="1.1" xmlns="http://www.w3.org/2000/svg" xmlns:xlink="http://www.w3.org/1999/xlink" x="0px" y="0px" width="1000px"
	 height="1000px" viewBox="0 0 1000 1000" style="enable-background:new 0 0 1000 1000;" xml:space="preserve">
<style type="text/css">
	.st0{display:none;}
	.st1{display:inline;}
	.st2{fill:#FFFFFF;}
	.st3{fill:#FFFFFF;stroke:#000000;stroke-width:1.45;stroke-linejoin:bevel;}
	.st4{display:inline;fill:none;stroke:#C1272D;stroke-miterlimit:10;}
	.st5{display:inline;fill:#ED1C24;}
	.st6{display:inline;fill:#FFFFFF;}
	.st7{display:inline;fill:none;stroke:#ED1C24;stroke-miterlimit:10;}
	.st8{fill:#ED1C24;}
	.st9{fill-rule:evenodd;clip-rule:evenodd;}
	.st10{fill:#231F20;}
</style>
<g id="Layer_2" class="st0">
</g>
<g id="Layer_1">
	<path d="M705.7,377.4l71.4,71.4v150.2h-50.4v-60.5c0-10.5-6.9-20.2-20.2-20.2h-96V377.4H705.7z M861.9,354.7l-64.4-62.4l-64.9,64.9
		l64.4,64.4L861.9,354.7z M928.2,186H610.5v151.1h95.1l85.8-85.7c1.6-1.6,3.7-2.4,5.8-2.4s4.2,0.8,5.8,2.4l100.1,96.9
		c3.2,3.2,3.2,8.4,0,11.7l-85.8,88.5v170.8c0,10.5-9.6,20.2-20.2,20.2h-70.5v70.5c0,10.5-9.6,20.2-20.2,20.2l-96-0.5v81.1h317.7
		c11.5,0,20.2-8.7,20.2-20.2V206.1C948.4,194.7,939.7,186,928.2,186z M686.4,689.8v-131h-75.9v131H686.4z M562.6,75v850l-511-88.3
		v-671L562.6,75z M416.7,342.3l-58.7-0.7L306.9,559c-2.8,11.3-4.5,22-5.3,32.1l-1.1,0c-0.5-9.1-2.1-19.6-5-31.5l-51-219.3l-58.8-0.7
		l82.6,314.5l62.7,2.3L416.7,342.3z"/>
</g>
</svg>
