<?xml version="1.0" encoding="iso-8859-1"?>
<!-- Generator: Adobe Illustrator 18.1.0, SVG Export Plug-In . SVG Version: 6.00 Build 0)  -->
<!DOCTYPE svg PUBLIC "-//W3C//DTD SVG 1.1//EN" "http://www.w3.org/Graphics/SVG/1.1/DTD/svg11.dtd">
<svg version="1.1" id="Layer_1" xmlns="http://www.w3.org/2000/svg" xmlns:xlink="http://www.w3.org/1999/xlink" x="0px" y="0px"
	 width="1471px" height="1000px" viewBox="0 0 1471 1000" style="enable-background:new 0 0 1471 1000;" xml:space="preserve">
<style type="text/css">
	.st0{fill-rule:evenodd;clip-rule:evenodd;}
	.st1{fill:none;}
</style>
<path d="M974.2,456.9c-55.4-18.4-95.9-70.1-95.9-131.7c0-77.5,62.6-140,139.3-140c77.7,0,140.1,62.5,140.1,140
	c0,35.8-13.9,68.1-36.2,92.8h128.3c11.6-28.7,18.1-60,18.1-92.8c0-138-112.2-250.2-250.3-250.2c-137.3,0-249.3,112.2-249.3,250.2
	c0,51.7,15.5,99.3,42.7,139.3H531.7c27.1-40.1,42.7-87.7,42.7-139.3c0-138-112.2-250.2-250.3-250.2C186.9,75,74.7,187.2,74.7,325.2
	c0,137.3,112.2,249.5,249.5,249.5h525.4L974.2,456.9z M324.2,464.5c-76.7,0-139.3-62.5-139.3-139.3c0-77.5,62.5-140,139.3-140
	c77.6,0,140.1,62.5,140.1,140C464.3,402,401.8,464.5,324.2,464.5z M1396.3,661v107.7h-377.2L1185.5,925h-136.3L826.1,715.1
	l223.6-211.2h137.2L1019.1,661H1396.3z"/>
</svg>
