<?xml version="1.0" encoding="iso-8859-1"?>
<!-- Generator: Adobe Illustrator 18.1.0, SVG Export Plug-In . SVG Version: 6.00 Build 0)  -->
<!DOCTYPE svg PUBLIC "-//W3C//DTD SVG 1.1//EN" "http://www.w3.org/Graphics/SVG/1.1/DTD/svg11.dtd">
<svg version="1.1" id="Layer_1" xmlns="http://www.w3.org/2000/svg" xmlns:xlink="http://www.w3.org/1999/xlink" x="0px" y="0px"
	 width="1343px" height="1000px" viewBox="0 0 1343 1000" style="enable-background:new 0 0 1343 1000;" xml:space="preserve">
<style type="text/css">
	.st0{fill-rule:evenodd;clip-rule:evenodd;}
	.st1{fill:none;}
</style>
<path d="M787.1,418c-11.6-28.8-18.6-59.8-18.6-92.8c0-138,112-250.2,249.3-250.2c138,0,250.3,112.2,250.3,250.2
	c0,86.2-44.6,161.7-111.8,206.3l-83-78.4c49.9-21.4,84.6-70.6,84.6-127.9c0-77.5-62.4-140-140.1-140c-76.7,0-139.3,62.5-139.3,140
	c0,35.8,13.9,68.1,36.2,92.8H787.1z M814.7,574.7H324.4c-137.3,0-249.5-112.2-249.5-249.5C74.9,187.2,187.1,75,324.4,75
	c138.1,0,250.3,112.2,250.3,250.2c0,51.7-15.7,99.3-42.7,139.3H697L814.7,574.7z M464.4,325.2c0-77.5-62.5-140-140.1-140
	c-76.8,0-139.3,62.5-139.3,140c0,76.8,62.5,139.3,139.3,139.3C402,464.5,464.4,402,464.4,325.2z M655.3,661v107.7h377.2L866.1,925
	h136.3l223.2-209.9L1002,503.9H864.8L1032.5,661H655.3z"/>
</svg>
