<?xml version="1.0" encoding="iso-8859-1"?>
<!-- Generator: Adobe Illustrator 18.1.0, SVG Export Plug-In . SVG Version: 6.00 Build 0)  -->
<!DOCTYPE svg PUBLIC "-//W3C//DTD SVG 1.1//EN" "http://www.w3.org/Graphics/SVG/1.1/DTD/svg11.dtd">
<svg version="1.1" id="Layer_1" xmlns="http://www.w3.org/2000/svg" xmlns:xlink="http://www.w3.org/1999/xlink" x="0px" y="0px"
	 width="1150px" height="1000px" viewBox="0 0 1150 1000" style="enable-background:new 0 0 1150 1000;" xml:space="preserve">
<style type="text/css">
	.st0{fill-rule:evenodd;clip-rule:evenodd;}
</style>
<path d="M1075,500.3c0-115.6-94-209.7-209.7-209.7c-115.1,0-209.1,94-209.1,209.7c0,43.3,13.1,83.2,35.9,116.8H457.9
	c22.8-33.6,35.9-73.5,35.9-116.8c0-115.6-94-209.7-209.7-209.7C169,290.6,75,384.6,75,500.3c0,115.1,94,209.1,209.1,209.1h592.6
	v-1.1C987.2,702.6,1075,611.4,1075,500.3L1075,500.3z M167.3,500.3c0-65,52.5-117.4,116.8-117.4c65,0,117.4,52.4,117.4,117.4
	c0,64.4-52.4,116.8-117.4,116.8C219.7,617.1,167.3,564.7,167.3,500.3L167.3,500.3z M865.3,617.1c-64.4,0-116.8-52.4-116.8-116.8
	c0-65,52.5-117.4,116.8-117.4c65,0,117.4,52.4,117.4,117.4C982.7,564.7,930.3,617.1,865.3,617.1z"/>
</svg>
