<?xml version="1.0" encoding="iso-8859-1"?>
<!-- Generator: Adobe Illustrator 18.1.0, SVG Export Plug-In . SVG Version: 6.00 Build 0)  -->
<!DOCTYPE svg PUBLIC "-//W3C//DTD SVG 1.1//EN" "http://www.w3.org/Graphics/SVG/1.1/DTD/svg11.dtd">
<svg version="1.1" id="Layer_1" xmlns="http://www.w3.org/2000/svg" xmlns:xlink="http://www.w3.org/1999/xlink" x="0px" y="0px"
	 width="1048px" height="1000px" viewBox="0 0 1048 1000" style="enable-background:new 0 0 1048 1000;" xml:space="preserve">
<style type="text/css">
	.st0{fill-rule:evenodd;clip-rule:evenodd;}
	.st1{fill:none;}
</style>
<path d="M973,191v619.5c0,10.1-8.9,17.6-19,17.6H634v-86h261v-39H634v-48h261v-39H634v-48h261v-39H634v-48h261v-39H634v-48h261v-39
	H634v-49h261v-37H634v-97h320C964.1,172,973,180.9,973,191z M586,75v850L75,836.7V166.1L586,75z M509,326.2l-63.8,3.9
	c0,0-41.1,250.5-41.2,253.6l-0.8,0c-0.3-3.9-46.9-247.9-46.9-247.9l-60.4,3.5c0,0-48.2,236.8-48.3,239.5l-1,0
	c-0.2-3.7-35.7-234.3-35.7-234.3l-54.9,3.4l58.7,295.5l61.1,3.7c0,0,45.9-229.1,46.1-232.6l0.7,0c0.1,3.4,46.3,238.3,46.3,238.3
	l66.3,4.1L509,326.2z"/>
</svg>
