<?xml version="1.0" encoding="iso-8859-1"?>
<!-- Generator: Adobe Illustrator 18.1.0, SVG Export Plug-In . SVG Version: 6.00 Build 0)  -->
<!DOCTYPE svg PUBLIC "-//W3C//DTD SVG 1.1//EN" "http://www.w3.org/Graphics/SVG/1.1/DTD/svg11.dtd">
<svg version="1.1" id="Layer_1" xmlns="http://www.w3.org/2000/svg" xmlns:xlink="http://www.w3.org/1999/xlink" x="0px" y="0px"
	 width="1000px" height="1000px" viewBox="0 0 1000 1000" style="enable-background:new 0 0 1000 1000;" xml:space="preserve">
<style type="text/css">
	.st0{fill-rule:evenodd;clip-rule:evenodd;}
	.st1{fill:none;}
</style>
<path d="M858.9,75v557.7H141.1V75H858.9z M858.9,663.4V925H564.2V730.4H436.8V925H141.1V663.4H858.9z M301.2,269.5v-96.8h-96.3v96.8
	H301.2z M301.2,400.3v-96.8h-96.3v96.8H301.2z M301.2,531.1v-96.8h-96.3v96.8H301.2z M466.5,269.5v-96.8h-96.8v96.8H466.5z
	 M466.5,400.3v-96.8h-96.8v96.8H466.5z M466.5,531.1v-96.8h-96.8v96.8H466.5z M631.3,269.5v-96.8h-97.8v96.8H631.3z M631.3,400.3
	v-96.8h-97.8v96.8H631.3z M631.3,531.1v-96.8h-97.8v96.8H631.3z M698.3,269.5h98.2v-96.8h-98.2V269.5z M796.6,400.3v-96.8h-98.2
	v96.8H796.6z M796.6,531.1v-96.8h-98.2v96.8H796.6z"/>
</svg>
