<?xml version="1.0" encoding="iso-8859-1"?>
<!-- Generator: Adobe Illustrator 18.1.0, SVG Export Plug-In . SVG Version: 6.00 Build 0)  -->
<!DOCTYPE svg PUBLIC "-//W3C//DTD SVG 1.1//EN" "http://www.w3.org/Graphics/SVG/1.1/DTD/svg11.dtd">
<svg version="1.1" id="Layer_1" xmlns="http://www.w3.org/2000/svg" xmlns:xlink="http://www.w3.org/1999/xlink" x="0px" y="0px"
	 width="1000px" height="1000px" viewBox="0 0 1000 1000" style="enable-background:new 0 0 1000 1000;" xml:space="preserve">
<style type="text/css">
	.st0{fill-rule:evenodd;clip-rule:evenodd;}
</style>
<path d="M915.6,233.6L765.3,383.8l-117.7-31l-30.8-117.4L767,85.2c-20.1-6-41.4-9.3-63.5-9.3c-122.3,0-221.4,99.1-221.4,221.4
	c0,19.4,2.5,38.1,7.2,56.1L107.5,735.2c-20.1,20.1-32.6,47.9-32.6,78.7c0,61.4,49.8,111.2,111.2,111.2c30.7,0,58.5-12.5,78.7-32.6
	l381.3-381.3c18.3,4.9,37.6,7.5,57.5,7.5c122.3,0,221.4-99.1,221.4-221.4C924.9,275.2,921.6,253.8,915.6,233.6z M186.1,858.4
	c-24.6,0-44.5-19.9-44.5-44.5c0-24.6,19.9-44.5,44.5-44.5c24.6,0,44.5,19.9,44.5,44.5C230.7,838.4,210.7,858.4,186.1,858.4z"/>
</svg>
