<?xml version="1.0" encoding="iso-8859-1"?>
<!-- Generator: Adobe Illustrator 18.1.0, SVG Export Plug-In . SVG Version: 6.00 Build 0)  -->
<!DOCTYPE svg PUBLIC "-//W3C//DTD SVG 1.1//EN" "http://www.w3.org/Graphics/SVG/1.1/DTD/svg11.dtd">
<svg version="1.1" id="Layer_1" xmlns="http://www.w3.org/2000/svg" xmlns:xlink="http://www.w3.org/1999/xlink" x="0px" y="0px"
	 width="1152px" height="1000px" viewBox="0 0 1152 1000" style="enable-background:new 0 0 1152 1000;" xml:space="preserve">
<style type="text/css">
	.st0{fill-rule:evenodd;clip-rule:evenodd;}
</style>
<path d="M595.8,84.8c-26.7-8.5-55.1,5.7-64.7,31.7c-0.2,0.7-0.6,1.9-1.2,3.6l-0.2,0.7l-0.1,0c-17.2,49.1-167.1,440.5-167.1,440.5
	h-2.7L183.1,113.7c0,0,0-0.1,0-0.1l-2.5-6.3c-12.1-25.7-42.1-38.2-69.1-28.1c-27.8,10.4-42.2,40.8-32.9,68.8
	C100.2,203,304.3,699,304.3,699L291,728.5c-22.6,61-47.7,102-115.2,102c-6.6,0-29.2-1.3-30.7-1.5c-21.8-1.1-42.1,13-47.9,35
	c-6.7,24.9,7.9,50.4,32.5,57.5c17.9,3.1,36.3,4.3,52.7,4.3c124.4,0,165.5-71.5,206.5-176.1c0,0,225.6-563.5,235.9-587.1
	c1.6-3.7,3-7.1,4.3-10.2l-0.2-0.1c0.2-0.7,0.5-1.4,0.7-2.1C638.4,122.9,623.2,93.6,595.8,84.8z M943.6,270.9
	c20.2-16.1,25.3-45.2,11.1-67.4c-12.6-19.5-36.1-27.6-57.3-21.4c-1.8,1-3.8,2-5.8,3.1c-33.8,18.6-261.9,178.5-236.2,196.5
	C681,399.6,837,329.3,943.6,270.9z M943.6,751.6C837,693.2,681,623,655.4,640.9c-25.8,18,202.4,177.9,236.2,196.5
	c2.1,1.1,4,2.1,5.8,3.1c21.2,6.2,44.7-1.9,57.3-21.4C968.9,796.9,963.8,767.8,943.6,751.6z M1037.5,458.7c-2.1-0.1-4.3-0.1-6.6-0.1
	c-38.5,0.1-315.5,30.4-301.6,58.7c13.8,27.9,184.4,41.5,305.9,41.5c25.5-4.4,43.9-27.4,42.2-53.8
	C1075.8,481.9,1059,463.5,1037.5,458.7z"/>
</svg>
